<svg width="64" height="64" viewBox="0 0 64 64" fill="none" xmlns="http://www.w3.org/2000/svg">
<circle cx="32" cy="32" r="32" fill="#008CFF" fill-opacity="0.06"/>
<path opacity="0.4" d="M48 41.3199V43.3199C48 43.5851 47.8947 43.8394 47.7071 44.0269C47.5196 44.2145 47.2652 44.3198 47 44.3198H18.0005C17.47 44.3198 16.9613 44.1091 16.5863 43.7341C16.2112 43.359 16.0005 42.8503 16.0005 42.3199V21.3202C16.0005 21.055 16.1058 20.8006 16.2934 20.6131C16.4809 20.4255 16.7353 20.3202 17.0005 20.3202H19.0004C19.2657 20.3202 19.52 20.4255 19.7075 20.6131C19.8951 20.8006 20.0004 21.055 20.0004 21.3202V40.3199H47C47.2652 40.3199 47.5196 40.4253 47.7071 40.6128C47.8947 40.8003 48 41.0547 48 41.3199Z" fill="#008CFF"/>
<path d="M46 23.3201V30.6981C46 32.0344 44.3844 32.7037 43.4375 31.7606L41.4126 29.7356L35.4126 35.7356C35.0376 36.1105 34.529 36.3212 33.9986 36.3212C33.4682 36.3212 32.9596 36.1105 32.5846 35.7356L28.0002 31.1481L25.1215 34.0275C25.0287 34.1203 24.9184 34.194 24.7971 34.2443C24.6758 34.2946 24.5457 34.3204 24.4144 34.3204C24.283 34.3204 24.153 34.2946 24.0316 34.2443C23.9103 34.194 23.8 34.1203 23.7072 34.0275L22.2935 32.6137C22.2006 32.5209 22.1269 32.4106 22.0766 32.2893C22.0264 32.1679 22.0005 32.0379 22.0005 31.9066C22.0005 31.7752 22.0264 31.6452 22.0766 31.5238C22.1269 31.4025 22.2006 31.2922 22.2935 31.1994L26.5865 26.9063C26.9616 26.5313 27.4702 26.3207 28.0006 26.3207C28.5309 26.3207 29.0395 26.5313 29.4146 26.9063L34.0002 31.4919L38.5857 26.9057L36.5626 24.8826C35.6176 23.9376 36.287 22.3201 37.6251 22.3201H45C45.2652 22.3201 45.5196 22.4255 45.7071 22.613C45.8946 22.8006 46 23.0549 46 23.3201Z" fill="#008CFF"/>
</svg>
