<?xml version="1.0" encoding="UTF-8"?>
<svg width="255px" height="47px" viewBox="0 0 255 47" version="1.1" xmlns="http://www.w3.org/2000/svg" xmlns:xlink="http://www.w3.org/1999/xlink">
    <!-- Generator: sketchtool 52.5 (67469) - http://www.bohemiancoding.com/sketch -->
    <title>3462AC12-0BDF-4F73-A060-7E046BED8CFC</title>
    <desc>Created with sketchtool.</desc>
    <g id="Page-1" stroke="none" stroke-width="1" fill="none" fill-rule="evenodd">
        <g id="wpDataTables-Showcase" transform="translate(-140.000000, -2191.000000)">
            <g id="Footer" transform="translate(140.000000, 2142.000000)">
                <g id="wpDataTable---Horizontal" transform="translate(0.000000, 49.000000)">
                    <g id="Group">
                        <g transform="translate(78.654990, 11.034155)" fill="#091D70">
                            <polygon id="Path" points="15.525364 15.165548 15.31973 15.1912088 15.31973 15.1398871 11.7982485 5.31179091 8.86796452 5.31179091 5.57782116 15.1912088 5.3721872 15.165548 5.3721872 15.1398871 3.54718581 5.31179091 0.15422547 5.31179091 3.57289005 19.3226017 6.83732917 19.3226017 10.3074022 8.98128898 10.3588107 9.13525394 13.7517711 19.3226017 16.9648017 19.3226017 20.6405087 5.31179091 17.1190272 5.31179091"></polygon>
                            <path d="M28.9172756,5.31179091 C26.860936,5.31179091 24.8817092,5.49141669 23.0310035,5.87632908 L23.0310035,24.4804277 L26.4239639,24.4804277 L26.4239639,18.5784378 L26.5781893,18.6554203 C27.5292464,19.0916543 28.5060077,19.3226017 29.4313605,19.3226017 C31.6419256,19.3226017 33.3127015,18.7067419 34.417984,17.5006831 C35.5232666,16.2946243 36.08876,14.421384 36.08876,11.9579448 C36.08876,9.75111375 35.4975623,8.05749926 34.3151671,6.95408375 C33.1070676,5.87632908 31.3077704,5.31179091 28.9172756,5.31179091 Z M29.4056563,16.5512326 C28.3517822,16.5512326 27.3750209,16.2946243 26.4496681,15.8070686 L26.3982596,15.7814078 L26.3982596,8.21146421 L26.4753723,8.18580339 C27.169387,8.05749926 28.017627,8.00617761 29.0457968,8.00617761 C31.4877001,8.00617761 32.7215039,9.34054054 32.7215039,11.9579448 C32.7472081,15.011583 31.6162213,16.5512326 29.4056563,16.5512326 Z" id="Shape" fill-rule="nonzero"></path>
                            <path d="M47.0387683,0.153964954 L39.5331288,0.153964954 L39.5331288,19.3226017 L47.0387683,19.3226017 C50.2003905,19.3226017 52.6165895,18.4757945 54.1845484,16.8078408 C55.7525074,15.1398871 56.5750432,12.5738046 56.5750432,9.21223641 C56.5750432,6.20991981 55.7782116,3.92610633 54.2102527,2.41211761 C52.6165895,0.923789724 50.2003905,0.153964954 47.0387683,0.153964954 Z M47.0387683,16.4229284 L42.9260891,16.4229284 L42.9260891,3.05363825 L47.0387683,3.05363825 C51.1257433,3.05363825 53.1820829,5.13216513 53.1820829,9.21223641 C53.1820829,14.0108108 51.100039,16.4229284 47.0387683,16.4229284 Z" id="Shape" fill-rule="nonzero"></path>
                            <path d="M65.1088526,5.31179091 C63.5923021,5.31179091 61.8701177,5.54273834 60.0194121,5.97897238 L60.0194121,8.5963766 C61.8701177,8.16014256 63.5665979,7.95485595 65.1088526,7.95485595 C67.0109667,7.95485595 67.9620238,8.62203742 67.9620238,9.98206118 L67.9620238,11.18812 L67.8335025,11.1624592 C66.8824455,10.9828334 65.9056842,10.8801901 64.9546271,10.8801901 C60.9190606,10.8801901 58.862721,12.2658747 58.862721,15.011583 C58.862721,17.8855955 60.5849054,19.3482625 63.9778658,19.3482625 C65.4430078,19.3482625 66.8053327,18.9376893 68.0134323,18.0908821 L68.090545,18.0395604 L68.1419535,18.0908821 L69.3757572,19.3226017 L71.3035756,19.3226017 L71.3035756,9.87941788 C71.3549841,6.85144045 69.247236,5.31179091 65.1088526,5.31179091 Z M67.9620238,15.8070686 L67.9106153,15.8327294 C66.8824455,16.5768934 65.7257544,16.9618058 64.5176549,16.9618058 C63.0011045,16.9618058 62.2299771,16.2946243 62.2299771,14.9602614 C62.2299771,13.7285417 63.1296257,13.0870211 64.9289229,13.0870211 C65.9570927,13.0870211 66.933854,13.1896644 67.8592068,13.3692902 L67.9363195,13.394951 L67.9363195,15.8070686 L67.9620238,15.8070686 Z" id="Shape" fill-rule="nonzero"></path>
                            <path d="M77.8067496,5.26046926 L77.2669605,3.0023166 L74.7993529,3.0023166 L74.7993529,15.601782 C74.7993529,18.1165429 75.9303397,19.3226017 78.269426,19.3226017 L81.3539354,19.3226017 L81.3539354,16.6795367 L79.9916104,16.6795367 C78.7835109,16.6795367 78.166609,15.9610336 78.166609,14.575349 L78.166609,7.92919513 L81.3539354,7.92919513 L81.3539354,5.28613009 L77.7810454,5.28613009 L77.8067496,5.26046926 Z" id="Path"></path>
                            <path d="M89.7592235,5.31179091 C88.2426731,5.31179091 86.5204886,5.54273834 84.669783,5.97897238 L84.669783,8.5963766 C86.5204886,8.16014256 88.2169688,7.95485595 89.7592235,7.95485595 C91.6613376,7.95485595 92.6123947,8.62203742 92.6123947,9.98206118 L92.6123947,11.18812 L92.4838735,11.1624592 C91.5328164,10.9828334 90.5560551,10.8801901 89.604998,10.8801901 C85.5694316,10.8801901 83.513092,12.2658747 83.513092,15.011583 C83.513092,17.8855955 85.2352764,19.3482625 88.6282367,19.3482625 C90.0933787,19.3482625 91.4557037,18.9376893 92.6638032,18.0908821 L92.7409159,18.0395604 L92.7923244,18.0908821 L94.0261282,19.3226017 L95.9539466,19.3226017 L95.9539466,9.87941788 C96.0053551,6.85144045 93.9233112,5.31179091 89.7592235,5.31179091 Z M92.638099,15.8070686 L92.5866905,15.8327294 C91.5585207,16.5768934 90.4018296,16.9618058 89.1937301,16.9618058 C87.6771797,16.9618058 86.9060523,16.2946243 86.9060523,14.9602614 C86.9060523,13.7285417 87.8057009,13.0870211 89.604998,13.0870211 C90.6331678,13.0870211 91.6356334,13.1896644 92.535282,13.3692902 L92.6123947,13.394951 L92.6123947,15.8070686 L92.638099,15.8070686 Z" id="Shape" fill-rule="nonzero"></path>
                            <polygon id="Path" points="110.63107 0.153964954 96.108172 0.153964954 96.108172 3.05363825 101.660289 3.05363825 101.660289 19.3226017 105.053249 19.3226017 105.053249 3.05363825 110.63107 3.05363825"></polygon>
                            <path d="M116.208892,5.31179091 C114.692341,5.31179091 112.970157,5.54273834 111.119451,5.97897238 L111.119451,8.5963766 C112.970157,8.16014256 114.666637,7.95485595 116.208892,7.95485595 C118.111006,7.95485595 119.062063,8.62203742 119.062063,9.98206118 L119.062063,11.18812 L118.933542,11.1624592 C117.982485,10.9828334 117.005723,10.8801901 116.054666,10.8801901 C112.0191,10.8801901 109.96276,12.2658747 109.96276,15.011583 C109.96276,17.8855955 111.684944,19.3482625 115.077905,19.3482625 C116.543047,19.3482625 117.905372,18.9376893 119.113471,18.0908821 L119.190584,18.0395604 L119.241993,18.0908821 L120.475796,19.3226017 L122.403615,19.3226017 L122.403615,9.87941788 C122.455023,6.85144045 120.347275,5.31179091 116.208892,5.31179091 Z M119.062063,15.8070686 L119.010654,15.8327294 C117.982485,16.5768934 116.825793,16.9618058 115.617694,16.9618058 C114.101144,16.9618058 113.330016,16.2946243 113.330016,14.9602614 C113.330016,13.7285417 114.229665,13.0870211 116.028962,13.0870211 C117.057132,13.0870211 118.033893,13.1896644 118.959246,13.3692902 L119.036359,13.394951 L119.036359,15.8070686 L119.062063,15.8070686 Z" id="Shape" fill-rule="nonzero"></path>
                            <path d="M133.122285,5.31179091 C131.837073,5.31179091 130.628973,5.67104247 129.575099,6.38954559 L129.395169,6.49218889 L129.395169,0.153964954 L126.002209,0.153964954 L126.002209,18.7580636 C128.212774,19.1429759 130.294818,19.3226017 132.196932,19.3226017 C134.48461,19.3226017 136.206794,18.7067419 137.337781,17.5006831 C138.468768,16.2946243 139.059965,14.4470448 139.059965,12.0349272 C139.111374,7.56994357 137.080739,5.31179091 133.122285,5.31179091 Z M132.402566,16.6538759 C131.297283,16.6538759 130.346226,16.5255717 129.497986,16.2433026 L129.420874,16.2176418 L129.420874,8.85298485 L129.472282,8.82732403 C130.474748,8.33976834 131.605734,8.08316008 132.839538,8.08316008 C134.767357,8.08316008 135.769822,9.39186219 135.769822,11.9579448 C135.769822,15.0629047 134.613131,16.6538759 132.402566,16.6538759 Z" id="Shape" fill-rule="nonzero"></path>
                            <rect id="Rectangle" x="142.093066" y="0.153964954" width="3.39296034" height="19.1686368"></rect>
                            <path d="M155.048006,5.31179091 C150.678284,5.31179091 148.467719,7.62126522 148.467719,12.1632314 C148.467719,14.5496881 149.110325,16.3459459 150.369833,17.5520048 C151.629341,18.7324027 153.55716,19.3482625 156.10188,19.3482625 C157.849769,19.3482625 159.366319,19.2199584 160.574418,18.9633502 L160.574418,16.3459459 C159.186389,16.6025542 157.772656,16.7308583 156.358922,16.7308583 C153.351526,16.7308583 151.834975,15.6787645 151.834975,13.6002376 L151.834975,13.4975943 L161.319842,13.4975943 C161.396954,12.958717 161.422659,12.3941788 161.422659,11.8553015 C161.448363,7.49296109 159.289206,5.31179091 155.048006,5.31179091 Z M158.158219,11.18812 L151.860679,11.18812 L151.860679,11.0598159 C152.040609,8.95562816 153.094483,7.9035343 155.07371,7.9035343 C157.13005,7.9035343 158.158219,8.92996733 158.158219,10.9571726 L158.158219,11.18812 Z" id="Shape" fill-rule="nonzero"></path>
                            <path d="M170.984638,10.9315117 L168.671256,10.9315117 C167.463156,10.9315117 166.871958,10.4182952 166.871958,9.39186219 C166.871958,8.33976834 167.900128,7.800891 169.905059,7.800891 C171.704357,7.800891 173.400837,8.10882091 174.968796,8.6990199 L174.968796,5.95331155 C173.426541,5.44009504 171.755765,5.15782596 170.007876,5.15782596 C165.869493,5.15782596 163.761745,6.62049302 163.761745,9.52016632 C163.761745,12.3171963 165.149774,13.6772201 168.002945,13.6772201 L170.57337,13.6772201 C171.678652,13.6772201 172.244146,14.1904366 172.244146,15.2168696 C172.244146,16.2689635 171.42161,16.8078408 169.802242,16.8078408 C167.797311,16.8078408 165.97231,16.4999109 164.430055,15.9097119 L164.430055,18.6554203 C165.97231,19.1686368 167.745903,19.4509059 169.673721,19.4509059 C173.632175,19.4509059 175.611402,17.9882388 175.611402,15.0885655 C175.637106,12.3428571 174.069147,10.9315117 170.984638,10.9315117 Z" id="Path"></path>
                        </g>
                        <g>
                            <path d="M0.179929715,11.7269973 L0.179929715,20.2720523 C0.179929715,21.9656668 1.56795894,23.3513514 3.26443911,23.3513514 L11.8239527,23.3513514 L11.8239527,31.8964063 C11.8239527,33.5900208 13.2119819,34.9757054 14.9084621,34.9757054 L23.4679757,34.9757054 L23.4679757,11.7269973 L0.179929715,11.7269973 Z" id="Path" fill="#008CFF"></path>
                            <g transform="translate(11.823953, 0.000000)" fill="#5DD3FF" id="Path">
                                <path d="M41.8979193,0.102643303 L4.72958108,0.102643303 C2.13345233,0.102643303 0.025704245,2.20683101 0.025704245,4.7985744 L0.025704245,11.7269973 L11.6697272,11.7269973 L23.3137502,23.3513514 L23.3137502,11.7269973 L34.9577732,11.7269973 L34.9577732,23.3513514 L23.3137502,23.3513514 L45.2394712,45.2400356 C46.0877113,44.3932284 46.6275004,43.2128304 46.6275004,41.9041283 L46.6275004,4.7985744 C46.6017962,2.20683101 44.4940481,0.102643303 41.8979193,0.102643303 Z"></path>
                                <path d="M11.6697272,41.9041283 C11.6697272,44.4958717 13.7774753,46.6000594 16.3736041,46.6000594 L23.3137502,46.6000594 L11.6697272,34.9757054 L11.6697272,41.9041283 Z"></path>
                            </g>
                            <g transform="translate(23.390863, 11.547372)" fill="#00A5FF" id="Path">
                                <polygon points="0.10281698 11.8039798 11.74684 11.8039798 0.10281698 0.17962578"></polygon>
                                <path d="M11.74684,11.8039798 L11.74684,23.4283338 L0.10281698,23.4283338 L11.74684,35.0526879 L30.3310091,35.0526879 C31.6419256,35.0526879 32.7986166,34.5138105 33.6725609,33.6670033 L11.74684,11.8039798 Z"></path>
                            </g>
                        </g>
                    </g>
                </g>
            </g>
        </g>
    </g>
</svg>