<?xml version="1.0" encoding="UTF-8"?>
<svg version="1.1" xmlns="http://www.w3.org/2000/svg" width="507" height="551">
<path d="M0 0 C3.90810219 3.33035477 7.58117691 6.8678648 11.17871094 10.52880859 C11.92636719 11.27775391 12.67402344 12.02669922 13.44433594 12.79833984 C25.53726837 25.62922681 35.12936554 43.36127135 39.17871094 60.52880859 C42.40844587 60.52880859 44.71698152 60.28004138 47.80371094 59.59130859 C76.72491145 53.64686359 108.12659924 59.51164907 132.85253906 75.73022461 C159.04128633 93.66366425 175.75419457 119.39461387 182.17871094 150.52880859 C187.26146728 178.65339367 180.99714112 208.80455057 165.17871094 232.52880859 C160.65947691 238.97580315 155.84066591 245.04787527 150.17871094 250.52880859 C151.52150622 253.74083595 153.43608399 256.06678193 155.7578125 258.63671875 C167.56529115 271.76290206 175.00732447 286.73314334 180.17871094 303.52880859 C180.53964844 304.67736328 180.90058594 305.82591797 181.27246094 307.00927734 C186.03020733 325.79797028 185.01352256 348.10308769 179.17871094 366.52880859 C178.82808594 367.64255859 178.47746094 368.75630859 178.11621094 369.90380859 C173.41975509 383.21043348 166.58126199 395.99209769 157.17871094 406.52880859 C156.51613281 407.33318359 155.85355469 408.13755859 155.17089844 408.96630859 C139.06962154 427.97888648 113.61474885 442.48037789 88.69091797 445.33398438 C72.15586285 446.61629477 55.33593958 446.50888838 39.17871094 442.52880859 C38.83839844 443.65416016 38.49808594 444.77951172 38.14746094 445.93896484 C33.25200454 461.6422812 26.67587222 474.75579217 16.17871094 487.52880859 C15.44265625 488.44146484 14.70660156 489.35412109 13.94824219 490.29443359 C-3.66288549 510.94399704 -30.84226328 524.95368612 -57.82128906 527.52880859 C-87.33408371 529.45821648 -117.45724644 523.1920019 -140.49707031 503.57958984 C-141.64755859 502.56445312 -141.64755859 502.56445312 -142.82128906 501.52880859 C-143.63984375 500.84173828 -144.45839844 500.15466797 -145.30175781 499.44677734 C-162.51882218 484.63209405 -175.34758317 463.90991345 -179.82128906 441.52880859 C-181.30048828 441.96193359 -181.30048828 441.96193359 -182.80957031 442.40380859 C-211.95599808 450.24340917 -243.18518662 445.650607 -269.27050781 430.70849609 C-296.35592754 414.45577342 -314.10288407 388.89058214 -321.91113281 358.55224609 C-325.8828514 341.60995002 -325.74795852 321.25564601 -320.82128906 304.52880859 C-320.48097656 303.31966797 -320.14066406 302.11052734 -319.79003906 300.86474609 C-313.99402603 281.94937924 -304.23643921 267.00401148 -290.82128906 252.52880859 C-292.12245773 249.6074347 -293.423501 247.80860923 -295.82128906 245.71630859 C-314.21875573 227.70132564 -323.73587249 199.74475199 -324.11376953 174.51586914 C-324.18159524 161.64304655 -323.77389973 149.82281149 -319.82128906 137.52880859 C-319.4998291 136.50424561 -319.4998291 136.50424561 -319.171875 135.45898438 C-314.7823743 121.83364196 -308.16882688 109.42434631 -298.82128906 98.52880859 C-297.77134766 97.29710938 -297.77134766 97.29710938 -296.70019531 96.04052734 C-276.98710536 73.52592374 -249.75985521 59.7044874 -219.82128906 57.52880859 C-206.56766279 56.85943353 -193.643581 57.93856685 -180.82128906 61.52880859 C-180.38945312 60.37380859 -179.95761719 59.21880859 -179.51269531 58.02880859 C-179.09914795 56.92859375 -179.09914795 56.92859375 -178.67724609 55.80615234 C-178.14215648 54.38250262 -177.60896249 52.95813729 -177.07861328 51.53271484 C-170.63661735 34.40002198 -161.88486236 20.37361392 -148.82128906 7.52880859 C-147.58765625 6.29710937 -147.58765625 6.29710937 -146.32910156 5.04052734 C-107.14426064 -32.15295281 -41.81986955 -33.78103672 0 0 Z M-123.82128906 25.52880859 C-124.39621094 25.96193359 -124.97113281 26.39505859 -125.56347656 26.84130859 C-129.7669719 30.09562756 -133.03000648 34.01262664 -136.32128906 38.15380859 C-136.77947021 38.71664551 -137.23765137 39.27948242 -137.7097168 39.859375 C-140.12580473 42.96522633 -140.12580473 42.96522633 -140.91113281 46.72412109 C-139.35387064 49.3028133 -137.48411601 50.27623538 -134.88378906 51.77880859 C-129.11952785 55.27614172 -123.97272612 59.18987461 -118.82128906 63.52880859 C-118.05945313 64.15529297 -117.29761719 64.78177734 -116.51269531 65.42724609 C-110.49719467 70.53573018 -105.62221974 76.28160825 -100.82128906 82.52880859 C-100.1290625 83.42857422 -99.43683594 84.32833984 -98.72363281 85.25537109 C-82.67609012 106.71393492 -73.72310793 131.97933148 -70.82128906 158.52880859 C-70.49128906 158.52880859 -70.16128906 158.52880859 -69.82128906 158.52880859 C-69.66273438 157.28228516 -69.50417969 156.03576172 -69.34082031 154.75146484 C-65.4611229 125.7769447 -55.01844202 99.84374735 -35.82128906 77.52880859 C-35.01175781 76.57361328 -34.20222656 75.61841797 -33.36816406 74.63427734 C-23.76391684 63.57099889 -12.36283062 55.02813855 0.17871094 47.52880859 C-5.4302572 32.48540095 -20.51961936 20.16437485 -34.86132812 13.59423828 C-64.74544767 0.94612982 -98.87098 3.81473209 -123.82128906 25.52880859 Z M-179.82128906 63.52880859 C-183.96586565 82.20325005 -183.82119952 103.26701217 -177.82128906 121.52880859 C-177.6122998 122.16882813 -177.40331055 122.80884766 -177.18798828 123.46826172 C-171.76505354 139.44053094 -163.22978129 153.20430604 -151.82128906 165.52880859 C-151.09296875 166.33833984 -150.36464844 167.14787109 -149.61425781 167.98193359 C-137.37188328 180.97384126 -120.30065018 191.49510987 -102.82128906 195.52880859 C-102.35722656 193.79630859 -102.35722656 193.79630859 -101.88378906 192.02880859 C-101.70976562 191.37912109 -101.53574219 190.72943359 -101.35644531 190.06005859 C-95.33968613 161.60122683 -103.2247792 131.63550563 -118.72363281 107.57568359 C-133.03989411 87.08205801 -154.72371675 68.4499012 -179.82128906 63.52880859 Z M37.17871094 63.52880859 C7.66327277 73.88160984 -16.37569781 93.03590848 -30.17382812 121.54882812 C-39.92938986 142.62799215 -45.89380204 170.65228514 -38.82128906 193.52880859 C-38.16128906 194.18880859 -37.50128906 194.84880859 -36.82128906 195.52880859 C-22.7663091 190.59889994 -10.05327705 184.43938623 1.17871094 174.52880859 C1.99726563 173.84173828 2.81582031 173.15466797 3.65917969 172.44677734 C24.89998295 154.1698071 38.14485195 128.38780222 41.17871094 100.52880859 C41.33936298 96.79863502 41.36924839 93.07463826 41.36621094 89.34130859 C41.36500244 87.81244019 41.36500244 87.81244019 41.36376953 86.25268555 C41.84763533 74.03038629 41.84763533 74.03038629 37.17871094 63.52880859 Z M71.17871094 87.52880859 C71.12710815 88.4089563 71.12710815 88.4089563 71.07446289 89.30688477 C68.39580913 132.0864388 52.82070517 166.22643268 21.89794922 195.87402344 C19.6258353 198.06095729 17.40000711 200.29039261 15.17871094 202.52880859 C15.73816406 202.35865234 16.29761719 202.18849609 16.87402344 202.01318359 C18.61343389 201.48744539 20.35452041 200.96723991 22.09667969 200.45068359 C24.16671208 199.83151041 26.23186808 199.19581537 28.29199219 198.54443359 C66.16725239 186.97267372 104.61693754 191.82687238 139.52490234 209.79785156 C141.18223538 210.6635614 141.18223538 210.6635614 143.17871094 210.52880859 C154.01726232 190.85061899 156.68436565 167.86426387 150.51342773 146.19238281 C146.75070385 134.27645385 140.56259016 123.80039268 132.17871094 114.52880859 C131.54191406 113.82240234 130.90511719 113.11599609 130.24902344 112.38818359 C114.56515523 95.88547889 93.58768837 88.21937801 71.17871094 87.52880859 Z M-271.82128906 113.52880859 C-272.44390625 114.13982422 -273.06652344 114.75083984 -273.70800781 115.38037109 C-287.37720805 129.81750393 -294.22951009 150.06170848 -294.19628906 169.65380859 C-294.19467773 170.65500732 -294.19306641 171.65620605 -294.19140625 172.68774414 C-293.97923915 185.67257874 -291.12336159 199.5756998 -283.82128906 210.52880859 C-279.36556446 209.15574542 -275.36076294 207.36574584 -271.19628906 205.27880859 C-236.81481592 188.80687864 -198.58475192 189.08601108 -162.82128906 200.52880859 C-160.49249129 201.21295937 -158.15823359 201.87277112 -155.82128906 202.52880859 C-159.28635031 199.0005163 -162.86816186 195.68568058 -166.57128906 192.40380859 C-193.66393509 167.85434996 -209.48805188 131.85893634 -211.38378906 95.59130859 C-211.42697266 94.81207031 -211.47015625 94.03283203 -211.51464844 93.22998047 C-211.61956983 91.32973742 -211.72081357 89.4292919 -211.82128906 87.52880859 C-234.86376183 86.85318053 -255.85804178 97.59432392 -271.82128906 113.52880859 Z M-102.82128906 196.52880859 C-102.9862085 197.08117187 -103.15112793 197.63353516 -103.32104492 198.20263672 C-108.50848629 215.30401393 -114.92936346 229.99993777 -126.82128906 243.52880859 C-127.49933594 244.31513672 -128.17738281 245.10146484 -128.87597656 245.91162109 C-130.51119064 247.79638591 -132.15841318 249.6684662 -133.82128906 251.52880859 C-132.61472656 252.92099609 -132.61472656 252.92099609 -131.38378906 254.34130859 C-130.83464844 254.98841797 -130.28550781 255.63552734 -129.71972656 256.30224609 C-128.40715299 257.84168424 -127.0778297 259.36694068 -125.73535156 260.88037109 C-115.91155146 272.289767 -109.62602655 284.73372582 -105.01269531 298.98193359 C-104.10762284 301.67637884 -103.1920303 304.05509883 -101.82128906 306.52880859 C-101.03625 306.39603516 -100.25121094 306.26326172 -99.44238281 306.12646484 C-98.39179688 305.94986328 -97.34121094 305.77326172 -96.25878906 305.59130859 C-94.70998047 305.33027344 -94.70998047 305.33027344 -93.12988281 305.06396484 C-91.49212891 304.7990625 -91.49212891 304.7990625 -89.82128906 304.52880859 C-88.77972656 304.34705078 -87.73816406 304.16529297 -86.66503906 303.97802734 C-72.79026972 302.35648418 -58.44689485 302.74758559 -44.83300781 305.87255859 C-41.68363814 306.67074402 -41.68363814 306.67074402 -37.82128906 306.52880859 C-37.49257813 305.42666016 -37.16386719 304.32451172 -36.82519531 303.18896484 C-31.6099047 286.31055849 -24.15717342 272.08967195 -12.82128906 258.52880859 C-12.17289062 257.75150391 -11.52449219 256.97419922 -10.85644531 256.17333984 C-9.52975162 254.60940211 -8.17936253 253.06557593 -6.82128906 251.52880859 C-7.74941406 250.68318359 -8.67753906 249.83755859 -9.63378906 248.96630859 C-23.43134683 235.0015077 -32.46183314 217.30564367 -37.82128906 198.52880859 C-42.4395338 197.16144594 -46.34840279 198.03217602 -50.94628906 198.96630859 C-66.95515025 201.88028845 -81.95462927 200.7120366 -97.82128906 197.52880859 C-98.81386719 197.33158203 -99.80644531 197.13435547 -100.82910156 196.93115234 C-101.48652344 196.79837891 -102.14394531 196.66560547 -102.82128906 196.52880859 Z M-287.82128906 251.52880859 C-274.817997 264.90697034 -258.57500954 273.20873799 -240.82128906 278.52880859 C-239.22607422 279.00833984 -239.22607422 279.00833984 -237.59863281 279.49755859 C-207.90089426 286.86232498 -177.4345412 280.18029245 -151.58691406 264.90771484 C-146.30263675 261.65554112 -141.10100994 258.04427681 -136.82128906 253.52880859 C-136.50085533 250.53777624 -136.50085533 250.53777624 -138.26269531 248.80224609 C-160.11589593 229.24302786 -189.43726049 220.15586447 -218.49365234 221.37646484 C-244.91465148 223.10571841 -268.18612897 234.07533295 -287.82128906 251.52880859 Z M-0.82128906 247.52880859 C-2.1460626 248.54012103 -3.47680063 249.54385752 -4.82128906 250.52880859 C0.26980877 262.76910763 20.014267 270.42659503 31.58105469 275.21240234 C52.79755498 282.97566032 78.37447832 285.1681597 100.17871094 278.52880859 C100.83661621 278.33544922 101.49452148 278.14208984 102.17236328 277.94287109 C119.27991323 272.81653936 134.61504602 264.34714239 147.17871094 251.52880859 C128.63284123 234.95301296 104.48091789 222.51943334 79.17871094 221.52880859 C77.48294922 221.45146484 77.48294922 221.45146484 75.75292969 221.37255859 C47.90841587 220.71156123 20.34297204 229.0779143 -0.82128906 247.52880859 Z M-283.82128906 292.52880859 C-294.96515386 316.31256387 -297.27399603 338.64808528 -288.72363281 363.75146484 C-280.90128833 384.30169188 -265.00064782 399.76001876 -245.39160156 409.06005859 C-236.400742 412.75870542 -226.78457567 415.70908916 -217.00878906 415.59130859 C-216.03296875 415.58228516 -215.05714844 415.57326172 -214.05175781 415.56396484 C-213.31570312 415.55236328 -212.57964844 415.54076172 -211.82128906 415.52880859 C-211.78688721 414.94204346 -211.75248535 414.35527832 -211.71704102 413.75073242 C-209.09702639 371.9076771 -193.62534102 335.66566545 -162.25878906 307.40380859 C-161.08123047 306.37900391 -161.08123047 306.37900391 -159.87988281 305.33349609 C-158.11897358 303.7897768 -156.45269891 302.20712799 -154.82128906 300.52880859 C-155.93503906 300.92068359 -157.04878906 301.31255859 -158.19628906 301.71630859 C-202.23034706 316.32476385 -242.44396305 312.62296979 -283.82128906 292.52880859 Z M137.31835938 295.06884766 C104.54703757 312.18635519 65.68294027 316.38001438 30.17871094 305.52880859 C26.35771162 304.247559 22.59155335 302.85346905 18.83886719 301.38427734 C16.24048064 300.20643835 16.24048064 300.20643835 14.17871094 301.52880859 C15.01273437 302.21845703 15.84675781 302.90810547 16.70605469 303.61865234 C47.26613486 329.04664448 66.46472091 362.20640085 70.22802734 402.18774414 C70.59890359 406.63172226 70.91770564 411.07704841 71.17871094 415.52880859 C84.829163 415.90990462 97.09417928 412.96636284 109.17871094 406.52880859 C110.00628906 406.08794922 110.83386719 405.64708984 111.68652344 405.19287109 C131.84150837 393.75697055 144.98808523 376.04852719 151.26855469 354.02490234 C156.78701062 332.82739993 153.03745127 311.72048978 143.17871094 292.52880859 C141.03403888 292.52880859 139.17932677 294.08611114 137.31835938 295.06884766 Z M-113.25878906 311.59130859 C-113.97309082 311.907854 -114.68739258 312.22439941 -115.42333984 312.55053711 C-125.92030609 317.29189773 -135.03116627 323.09101238 -143.82128906 330.52880859 C-144.43488281 331.00833984 -145.04847656 331.48787109 -145.68066406 331.98193359 C-151.24150558 336.42040343 -155.49255683 341.91920372 -159.82128906 347.52880859 C-160.43101562 348.31126953 -161.04074219 349.09373047 -161.66894531 349.89990234 C-175.60321126 368.72227069 -181.9955711 391.06806077 -182.00878906 414.27880859 C-182.02103516 415.39513672 -182.03328125 416.51146484 -182.04589844 417.66162109 C-182.05844006 424.83543077 -181.37673991 431.52443277 -179.82128906 438.52880859 C-175.2313371 440.02011499 -172.01362562 438.35577836 -167.75878906 436.52880859 C-166.61978149 436.0472229 -166.61978149 436.0472229 -165.45776367 435.5559082 C-159.14180384 432.81115011 -153.39928399 429.58392237 -147.82128906 425.52880859 C-146.6340625 424.67416016 -146.6340625 424.67416016 -145.42285156 423.80224609 C-120.96404012 405.20088464 -105.54952257 379.90571983 -100.50878906 349.59130859 C-99.0641374 337.60757907 -97.27131569 319.62875533 -102.82128906 308.52880859 C-106.75016784 308.52880859 -109.73283519 310.02563381 -113.25878906 311.59130859 Z M-37.82128906 308.52880859 C-46.23951698 330.97741638 -40.37414788 359.33768817 -30.82128906 380.52880859 C-26.52108001 389.67708987 -21.18214568 397.68843185 -14.82128906 405.52880859 C-14.13421875 406.38216797 -13.44714844 407.23552734 -12.73925781 408.11474609 C-1.15395095 421.74199015 16.65503221 434.89685655 34.17871094 439.52880859 C35.84523101 439.55091344 37.51222539 439.5533789 39.17871094 439.52880859 C40.96638143 431.39577762 41.53188454 423.5950861 41.49121094 415.27880859 C41.48629639 414.08803711 41.48138184 412.89726562 41.47631836 411.67041016 C41.35986759 402.91570121 40.63203703 394.97142874 38.17871094 386.52880859 C37.85 385.32998047 37.52128906 384.13115234 37.18261719 382.89599609 C28.9946603 355.75391065 9.93494689 330.81426876 -15.19091797 317.24951172 C-26.02483045 311.45949795 -26.02483045 311.45949795 -37.82128906 308.52880859 Z M-70.82128906 345.52880859 C-71.05912109 347.16462891 -71.05912109 347.16462891 -71.30175781 348.83349609 C-75.5466639 376.80288469 -85.05081277 402.92642292 -103.82128906 424.52880859 C-104.51867187 425.34736328 -105.21605469 426.16591797 -105.93457031 427.00927734 C-114.23284474 436.51618144 -123.33841067 444.52837794 -133.82128906 451.52880859 C-135.20020553 452.50245212 -136.57567701 453.48100917 -137.94628906 454.46630859 C-138.89503906 455.14693359 -139.84378906 455.82755859 -140.82128906 456.52880859 C-135.61057199 471.34514047 -120.55964464 482.64420995 -106.96289062 489.46044922 C-85.96324504 499.26840177 -62.72840715 500.42950014 -40.97460938 492.57885742 C-25.25270502 486.48651865 -11.28311862 475.53602686 -1.82128906 461.52880859 C-1.10420937 459.88320264 -0.42122932 458.22064012 0.17871094 456.52880859 C-0.48773438 456.04412109 -1.15417969 455.55943359 -1.84082031 455.06005859 C-3.7964822 453.63775904 -5.74938063 452.21165554 -7.70019531 450.78271484 C-9.60428284 449.40767291 -11.52517254 448.05506081 -13.47363281 446.74365234 C-42.3175878 427.00831472 -60.9464375 394.07346047 -67.69628906 360.21630859 C-68.57036933 355.33647397 -69.31803413 350.46070689 -69.82128906 345.52880859 C-70.15128906 345.52880859 -70.48128906 345.52880859 -70.82128906 345.52880859 Z " fill="#DD0025" transform="translate(323.8212890625,23.47119140625)"/>
</svg>
