<svg xmlns="http://www.w3.org/2000/svg" xmlns:xlink="http://www.w3.org/1999/xlink" width="60" height="37" viewBox="0 0 113 93">
  <defs>
    <polygon id="logo-symbol-a" points="0 .654 49.298 .654 49.298 49.955 0 49.955"/>
    <polygon id="logo-symbol-c" points="0 .383 49.301 .383 49.301 49.681 0 49.681"/>
    <polygon id="logo-symbol-e" points="0 .381 30.873 .381 30.873 25.957 0 25.957"/>
  </defs>
  <g fill="none" fill-rule="evenodd" transform="translate(0 -1)">
    <g transform="translate(0 .346)">
      <mask id="logo-symbol-b" fill="#fff">
        <use xlink:href="#logo-symbol-a"/>
      </mask>
      <path fill="#5FC1CE" d="M17.0209,49.2287 C18.8929,48.5727 20.5039,47.5137 21.8179,46.1987 L21.8219,46.2017 L45.4499,22.5727 C45.4839,22.5407 45.5209,22.5117 45.5539,22.4787 C50.5459,17.4857 50.5459,9.3907 45.5539,4.3987 C40.5609,-0.5943 32.4659,-0.5943 27.4739,4.3987 C27.4399,4.4327 27.4129,4.4697 27.3779,4.5027 L3.7509,28.1307 L3.7539,28.1347 C0.3919,31.5017 -0.9581,36.6117 0.7229,41.4017 C3.0619,48.0637 10.3589,51.5687 17.0209,49.2287" mask="url(#logo-symbol-b)"/>
    </g>
    <g transform="translate(0 24.346)">
      <mask id="logo-symbol-d" fill="#fff">
        <use xlink:href="#logo-symbol-c"/>
      </mask>
      <path fill="#E36767" d="M45.556,27.8567 C45.523,27.8227 45.486,27.7947 45.452,27.7617 L21.824,4.1327 L21.82,4.1367 C18.452,0.7747 13.343,-0.5763 8.553,1.1057 C1.891,3.4447 -1.614,10.7417 0.725,17.4037 C1.382,19.2757 2.441,20.8857 3.756,22.2007 L3.753,22.2037 L27.381,45.8327 C27.414,45.8667 27.442,45.9027 27.476,45.9367 C32.468,50.9287 40.563,50.9287 45.556,45.9367 C50.549,40.9437 50.549,32.8487 45.556,27.8567" mask="url(#logo-symbol-d)"/>
    </g>
    <g transform="translate(0 24.346)">
      <mask id="logo-symbol-f" fill="#fff">
        <use xlink:href="#logo-symbol-e"/>
      </mask>
      <path fill="#785B62" d="M17.0238,25.2317 C18.6828,24.6487 20.1468,23.7567 21.3738,22.6447 L21.3848,22.6567 L30.8728,13.1687 L21.3838,3.6807 L21.3738,3.6917 C18.0098,0.6517 13.1318,-0.5013 8.5528,1.1057 C1.8908,3.4447 -1.6142,10.7417 0.7248,17.4037 C3.0648,24.0657 10.3618,27.5707 17.0238,25.2317" mask="url(#logo-symbol-f)"/>
    </g>
    <path fill="#37B18E" d="M112.223,52.5982 C109.884,45.9362 102.587,42.4322 95.925,44.7712 C94.053,45.4282 92.442,46.4862 91.128,47.8022 L91.125,47.7982 L67.496,71.4272 C67.463,71.4602 67.426,71.4882 67.392,71.5212 C62.4,76.5142 62.4,84.6092 67.392,89.6012 C72.385,94.5942 80.48,94.5942 85.473,89.6012 C85.506,89.5682 85.535,89.5312 85.568,89.4962 L109.196,65.8692 L109.192,65.8652 C112.554,62.4972 113.905,57.3892 112.223,52.5982"/>
    <path fill="#E9BC29" d="M112.2211,52.5962 C111.5641,50.7242 110.5051,49.1142 109.1901,47.8002 L109.1941,47.7962 L85.5651,24.1672 C85.5321,24.1342 85.5041,24.0972 85.4701,24.0642 C80.4781,19.0712 72.3831,19.0712 67.3901,24.0642 C62.3981,29.0562 62.3981,37.1512 67.3901,42.1442 C67.4241,42.1772 67.4601,42.2042 67.4941,42.2382 L91.1231,65.8672 L91.1261,65.8632 C94.4941,69.2252 99.6031,70.5752 104.3931,68.8942 C111.0551,66.5552 114.5601,59.2582 112.2211,52.5962"/>
    <path fill="#559048" d="M95.9232,44.7691 C94.2632,45.3511 92.7992,46.2431 91.5722,47.3551 L91.5622,47.3431 L82.0732,56.8321 L91.5622,66.3201 L91.5732,66.3081 C94.9362,69.3491 99.8152,70.5011 104.3932,68.8941 C111.0552,66.5551 114.5602,59.2581 112.2212,52.5961 C109.8822,45.9341 102.5852,42.4301 95.9232,44.7691"/>
  </g>
</svg>
