<svg xmlns="http://www.w3.org/2000/svg" xmlns:xlink="http://www.w3.org/1999/xlink" width="130" height="37" viewBox="0 0 130 37">
    <defs>
        <polygon id="colored@svg-a" points="0 .257 19.659 .257 19.659 19.663 0 19.663"/>
        <polygon id="colored@svg-c" points="0 .151 19.66 .151 19.66 19.555 0 19.555"/>
        <polygon id="colored@svg-e" points="0 .15 12.311 .15 12.311 10.217 0 10.217"/>
    </defs>
    <g fill="none" fill-rule="evenodd">
        <g transform="translate(0 .136)">
            <mask id="colored@svg-b" fill="#fff">
                <use xlink:href="#colored@svg-a"/>
            </mask>
            <path fill="#5FC1CE" d="M6.78747546,19.3772543 C7.53397853,19.1190415 8.17640184,18.7022011 8.70038957,18.1845947 L8.70198466,18.1857755 L18.1241933,8.88499894 C18.1377515,8.87240319 18.1525061,8.8609883 18.1656656,8.84799894 C20.1563405,6.88266915 20.1563405,3.69633936 18.1656656,1.73140319 C16.174592,-0.233926596 12.9465245,-0.233926596 10.9558497,1.73140319 C10.9422914,1.74478617 10.9315245,1.75935 10.9175675,1.77233936 L1.49575767,11.0727223 L1.49695399,11.0742968 C0.156279141,12.3996053 -0.382064417,14.4109883 0.288273006,16.2964138 C1.22100307,18.9186904 4.13084969,20.2983181 6.78747546,19.3772543" mask="url(#colored@svg-b)"/>
        </g>
        <g transform="translate(0 9.583)">
            <mask id="colored@svg-d" fill="#fff">
                <use xlink:href="#colored@svg-c"/>
            </mask>
            <path fill="#E36767" d="M18.1665031,10.9648713 C18.1533436,10.9514883 18.138589,10.940467 18.1250307,10.9274777 L8.70282209,1.62670106 L8.70122699,1.62827553 C7.35815951,0.304935106 5.32082822,-0.226841489 3.41070552,0.43522234 C0.754079755,1.35589255 -0.643619632,4.22811596 0.289110429,6.85039255 C0.551104294,7.58724362 0.973404908,8.22096702 1.49779141,8.7385734 L1.49659509,8.73975426 L10.9188037,18.0405309 C10.9319632,18.0539138 10.9431288,18.068084 10.9566871,18.081467 C12.947362,20.0464032 16.1754294,20.0464032 18.1665031,18.081467 C20.1575767,16.1161372 20.1575767,12.9298074 18.1665031,10.9648713" mask="url(#colored@svg-d)"/>
        </g>
        <g transform="translate(0 9.583)">
            <mask id="colored@svg-f" fill="#fff">
                <use xlink:href="#colored@svg-e"/>
            </mask>
            <path fill="#785B62" d="M6.7886319,9.9316266 C7.45019632,9.70214787 8.034,9.35104149 8.52329448,8.91333936 L8.52768098,8.91806277 L12.3112393,5.18342447 L8.52728221,1.44878617 L8.52329448,1.45311596 C7.18182209,0.256520213 5.23660736,-0.197320213 3.41062577,0.43522234 C0.754,1.35589255 -0.643699387,4.22811596 0.289030675,6.85039255 C1.22215951,9.47266915 4.13200613,10.8522968 6.7886319,9.9316266" mask="url(#colored@svg-f)"/>
        </g>
        <path fill="#37B18E" d="M44.7515031,20.7035468 C43.818773,18.0812702 40.9089264,16.7020362 38.2523006,17.6227064 C37.5057975,17.8813128 36.8633742,18.2977596 36.3393865,18.8157596 L36.3381902,18.8141851 L26.9155828,28.1149617 C26.9024233,28.1279511 26.8876687,28.1389723 26.8741104,28.1519617 C24.8834356,30.1172915 24.8834356,33.3036213 26.8741104,35.2685574 C28.865184,37.2338872 32.0932515,37.2338872 34.0843252,35.2685574 C34.0974847,35.2555681 34.1090491,35.2410043 34.1222086,35.2272277 L43.5444172,25.9272383 L43.5428221,25.9256638 C44.8834969,24.5999617 45.4222393,22.589366 44.7515031,20.7035468"/>
        <path fill="#E9BC29" d="M44.7507454,20.7027596 C44.4887515,19.9659085 44.0664509,19.3321851 43.5420644,18.8149723 L43.5436595,18.8133979 L34.1210521,9.51262128 C34.1078926,9.49963191 34.096727,9.48506809 34.0831687,9.47207872 C32.0924939,7.50674894 28.8644264,7.50674894 26.8733528,9.47207872 C24.8826779,11.4370149 24.8826779,14.6233447 26.8733528,16.5886745 C26.886911,16.6016638 26.9012669,16.6122915 26.9148252,16.6256745 L36.3374325,25.9264511 L36.3386288,25.9248766 C37.6816963,27.248217 39.7190276,27.7796 41.6291503,27.1179298 C44.2857761,26.1972596 45.6834755,23.3250362 44.7507454,20.7027596"/>
        <path fill="#559048" d="M38.2515828,17.6218798 C37.5896196,17.8509649 37.005816,18.2020713 36.5165215,18.6397734 L36.5125337,18.63505 L32.7285767,22.3700819 L36.5125337,26.1047202 L36.5169202,26.0999968 C37.8579939,27.2969862 39.8036074,27.750433 41.6291902,27.1178904 C44.285816,26.1972202 45.6835153,23.3249968 44.7507853,20.7027202 C43.8180552,18.0804436 40.9082086,16.7012096 38.2515828,17.6218798"/>
        <path fill="#fff" d="M59.7167761 32.6362043C59.4236779 32.6362043 59.2976656 32.5122149 59.2976656 32.2225128L59.2976656 10.1689383C59.2976656 10.0032255 59.2139233 9.92017234 59.0460399 9.92017234L51.8362239 9.92017234C51.542727 9.92017234 51.4167147 9.7965766 51.4167147 9.50648085L51.4167147 4.91336383C51.4167147 4.62405532 51.542727 4.50006596 51.8362239 4.50006596L72.9213466 4.50006596C73.2148436 4.50006596 73.3404571 4.62405532 73.3404571 4.91336383L73.3404571 9.50648085C73.3404571 9.7965766 73.2148436 9.92017234 72.9213466 9.92017234L65.7115307 9.92017234C65.5436472 9.92017234 65.4595061 10.0032255 65.4595061 10.1689383L65.4595061 32.2225128C65.4595061 32.5122149 65.3342914 32.6362043 65.0411933 32.6362043L59.7167761 32.6362043zM76.7787577 4.91348191C76.7787577 4.6241734 76.9047699 4.49979043 77.1982669 4.49979043L82.1869172 4.49979043C82.5214877 4.49979043 82.7316411 4.6241734 82.8572546 4.91348191L90.0670706 20.9679394 90.234954 20.9679394 97.3195552 4.91348191C97.4447699 4.6241734 97.6545245 4.49979043 97.9898926 4.49979043L102.894402 4.49979043C103.187899 4.49979043 103.313512 4.6241734 103.313512 4.91348191L103.313512 32.2226309C103.313512 32.5119394 103.187899 32.6363223 102.894402 32.6363223L98.1577761 32.6363223C97.8646779 32.6363223 97.7386656 32.5119394 97.7386656 32.2226309L97.7386656 16.3748223 97.5707822 16.3748223 92.2890337 28.2502479C92.1215491 28.6226096 91.8699233 28.7883223 91.4922853 28.7883223L88.6003834 28.7883223C88.2227454 28.7883223 87.9711196 28.6226096 87.8032362 28.2502479L82.5214877 16.3748223 82.3544018 16.3748223 82.3544018 32.2226309C82.3544018 32.5119394 82.2279908 32.6363223 81.9348926 32.6363223L77.1982669 32.6363223C76.9047699 32.6363223 76.7787577 32.5119394 76.7787577 32.2226309L76.7787577 4.91348191zM112.409724 32.0157851C110.398313 31.2706681 108.805215 30.3606255 107.673497 29.2431468 107.464141 29.0364979 107.421472 28.7885191 107.632025 28.5401468L110.817423 24.9401255C110.985307 24.7334766 111.194663 24.6917532 111.44589 24.8984021 113.91908 26.8432638 116.39227 27.7950298 118.907331 27.7950298 121.799632 27.7950298 123.561012 26.4709021 123.561012 24.4441681 123.561012 22.6646255 122.387423 21.7541894 119.159356 21.2983809L117.65 21.0921255C111.655644 20.2643489 108.637331 17.4511681 108.637331 12.6514021 108.637331 10.0444766 109.560092 7.97523191 111.362546 6.40351915 113.206871 4.83101915 115.680061 4.04457234 118.740245 4.04457234 122.638252 4.04457234 125.866319 5.03766809 128.42365 6.98252979 128.674479 7.14824255 128.717147 7.35489149 128.506595 7.60326383L125.950061 11.3682106C125.782178 11.5756468 125.572822 11.6169766 125.363466 11.4925936 123.141104 10.0444766 120.91954 9.34108298 118.740245 9.34108298 116.267055 9.34108298 114.925583 10.5821574 114.925583 12.4026362 114.925583 14.0581894 116.182914 15.0504979 119.368712 15.5063064L120.877669 15.7129553C126.872025 16.4994021 129.848067 19.3543064 129.848067 24.2363383 129.848067 29.5324553 125.824049 33.0911468 118.656503 33.0911468 116.518282 33.0911468 114.42273 32.7187851 112.409724 32.0157851"/>
    </g>
</svg>
