<svg xmlns="http://www.w3.org/2000/svg" viewBox="0 0 325.83 93.29"><defs><style>.cls-1{isolation:isolate;}.cls-2{fill:#4c5360;}.cls-3{fill:#efc01a;}.cls-3,.cls-4,.cls-5,.cls-6{mix-blend-mode:multiply;}.cls-4{fill:#37b999;}.cls-5{fill:#5bc7dd;}.cls-6{fill:#f16d6f;}</style></defs><title>Untitled-1</title><g class="cls-1"><g id="Layer_1" data-name="Layer 1"><g id="_Group_" data-name="&lt;Group&gt;"><g id="_Group_2" data-name="&lt;Group&gt;"><path id="_Compound_Path_" data-name="&lt;Compound Path&gt;" class="cls-2" d="M150,82.38c-.74,0-1.05-.31-1.05-1.05v-56a.56.56,0,0,0-.63-.63H130.2c-.74,0-1.05-.31-1.05-1.05V12c0-.74.32-1.05,1.05-1.05h52.88c.74,0,1.05.31,1.05,1.05V23.62c0,.74-.31,1.05-1.05,1.05H165a.56.56,0,0,0-.63.63v56c0,.74-.31,1.05-1.05,1.05Z"/><path id="_Compound_Path_2" data-name="&lt;Compound Path&gt;" class="cls-2" d="M192.75,12c0-.74.32-1.05,1.05-1.05h12.51A1.62,1.62,0,0,1,208,12l18.08,40.79h.42L244.26,12a1.62,1.62,0,0,1,1.68-1.05h12.3c.74,0,1.05.31,1.05,1.05V81.33c0,.74-.31,1.05-1.05,1.05H246.36c-.74,0-1.05-.31-1.05-1.05V41.07h-.42L231.65,71.24a2,2,0,0,1-2,1.37H222.4a2,2,0,0,1-2-1.37L207.15,41.07h-.42V81.33c0,.74-.32,1.05-1.05,1.05H193.8c-.74,0-1.05-.31-1.05-1.05Z"/><path id="_Compound_Path_3" data-name="&lt;Compound Path&gt;" class="cls-2" d="M282.1,80.81c-5-1.89-9-4.21-11.88-7a1.21,1.21,0,0,1-.1-1.79l8-9.15a1,1,0,0,1,1.58-.11c6.2,4.94,12.4,7.36,18.71,7.36,7.25,0,11.67-3.36,11.67-8.51,0-4.52-2.94-6.83-11-8l-3.78-.53c-15-2.1-22.6-9.25-22.6-21.44,0-6.62,2.31-11.88,6.83-15.87s10.83-6,18.5-6c9.78,0,17.87,2.52,24.28,7.46a.94.94,0,0,1,.21,1.58l-6.41,9.56a1.05,1.05,0,0,1-1.47.32C309,25,303.44,23.2,298,23.2c-6.2,0-9.57,3.15-9.57,7.78,0,4.21,3.15,6.73,11.14,7.88l3.78.53c15,2,22.49,9.25,22.49,21.65,0,13.46-10.09,22.5-28.07,22.5A46.8,46.8,0,0,1,282.1,80.81Z"/></g><g id="_Group_3" data-name="&lt;Group&gt;"><g id="_Group_4" data-name="&lt;Group&gt;"><rect id="_Rectangle_" data-name="&lt;Rectangle&gt;" class="cls-3" x="58.45" y="32.13" width="59.13" height="25.63" rx="12.82" ry="12.82" transform="translate(118.48 138.96) rotate(-135)"/><rect id="_Rectangle_2" data-name="&lt;Rectangle&gt;" class="cls-4" x="58.45" y="55.81" width="59.13" height="25.63" rx="12.82" ry="12.82" transform="translate(198.78 54.92) rotate(135)"/></g><g id="_Group_5" data-name="&lt;Group&gt;"><rect id="_Rectangle_3" data-name="&lt;Rectangle&gt;" class="cls-5" x="-4.91" y="11.84" width="59.13" height="25.63" rx="12.82" ry="12.82" transform="translate(-10.21 24.66) rotate(-45)"/><rect id="_Rectangle_4" data-name="&lt;Rectangle&gt;" class="cls-6" x="-4.91" y="35.53" width="59.13" height="25.63" rx="12.82" ry="12.82" transform="translate(41.41 -3.28) rotate(45)"/></g></g></g></g></g></svg>