<svg width="197" height="36" viewBox="0 0 197 36" fill="none" xmlns="http://www.w3.org/2000/svg">
<path fill-rule="evenodd" clip-rule="evenodd" d="M72.5119 20.2053L72.3533 20.2252V20.1854L69.6369 12.5762H67.3765L64.8385 20.2252L64.6799 20.2053V20.1854L63.2721 12.5762H60.6548L63.2919 23.4239H65.8101L68.4868 15.4172L68.5265 15.5364L71.1438 23.4239H73.6223L76.4577 12.5762H73.7413L72.5119 20.2053Z" fill="#091D70"/>
<path d="M82.8429 12.5762C81.2566 12.5762 79.7299 12.7152 78.3022 13.0133V27.4172H80.9195V22.8477L81.0385 22.9073C81.7721 23.245 82.5256 23.4239 83.2394 23.4239C84.9446 23.4239 86.2334 22.947 87.0861 22.0133C87.9387 21.0795 88.3749 19.6292 88.3749 17.7219C88.3749 16.0133 87.9188 14.702 87.0067 13.8477C86.0748 13.0133 84.6869 12.5762 82.8429 12.5762ZM83.2196 21.2782C82.4066 21.2782 81.6532 21.0795 80.9394 20.702L80.8997 20.6821V14.8212L80.9592 14.8013C81.4946 14.702 82.1489 14.6623 82.942 14.6623C84.8257 14.6623 85.7774 15.6954 85.7774 17.7219C85.7972 20.0861 84.9248 21.2782 83.2196 21.2782Z" fill="#091D70"/>
<path d="M96.821 8.58301H91.0312V23.4241H96.821C99.2599 23.4241 101.124 22.7684 102.333 21.477C103.543 20.1857 104.177 18.1989 104.177 15.5963C104.177 13.2717 103.563 11.5035 102.353 10.3314C101.124 9.17903 99.2599 8.58301 96.821 8.58301ZM96.821 21.179H93.6485V10.828H96.821C99.9737 10.828 101.56 12.4373 101.56 15.5963C101.56 19.3115 99.9539 21.179 96.821 21.179Z" fill="#091D70"/>
<path d="M110.76 12.5762C109.59 12.5762 108.261 12.755 106.834 13.0927V15.1192C108.261 14.7815 109.57 14.6225 110.76 14.6225C112.227 14.6225 112.961 15.1391 112.961 16.1921V17.1258L112.861 17.106C112.128 16.9669 111.374 16.8874 110.641 16.8874C107.528 16.8874 105.941 17.9603 105.941 20.0861C105.941 22.3113 107.27 23.4437 109.887 23.4437C111.017 23.4437 112.068 23.1258 113 22.4702L113.06 22.4305L113.099 22.4702L114.051 23.4239H115.538V16.1126C115.578 13.7682 113.952 12.5762 110.76 12.5762ZM112.961 20.702L112.921 20.7219C112.128 21.298 111.235 21.596 110.304 21.596C109.134 21.596 108.539 21.0795 108.539 20.0464C108.539 19.0927 109.233 18.596 110.621 18.596C111.414 18.596 112.167 18.6755 112.881 18.8146L112.941 18.8345V20.702H112.961Z" fill="#091D70"/>
<path fill-rule="evenodd" clip-rule="evenodd" d="M120.555 12.5364L120.139 10.7881H118.235V20.5431C118.235 22.4901 119.108 23.4239 120.912 23.4239H123.291V21.3775H122.241C121.309 21.3775 120.833 20.8212 120.833 19.7484V14.6027H123.291V12.5563H120.535L120.555 12.5364Z" fill="#091D70"/>
<path d="M129.775 12.5762C128.605 12.5762 127.276 12.755 125.849 13.0927V15.1192C127.276 14.7815 128.585 14.6225 129.775 14.6225C131.242 14.6225 131.976 15.1391 131.976 16.1921V17.1258L131.876 17.106C131.143 16.9669 130.389 16.8874 129.656 16.8874C126.543 16.8874 124.957 17.9603 124.957 20.0861C124.957 22.3113 126.285 23.4437 128.902 23.4437C130.032 23.4437 131.083 23.1258 132.015 22.4702L132.075 22.4305L132.114 22.4702L133.066 23.4239H134.553V16.1126C134.593 13.7682 132.987 12.5762 129.775 12.5762ZM131.995 20.702L131.956 20.7219C131.163 21.298 130.27 21.596 129.339 21.596C128.169 21.596 127.574 21.0795 127.574 20.0464C127.574 19.0927 128.268 18.596 129.656 18.596C130.449 18.596 131.222 18.6755 131.916 18.8146L131.976 18.8345V20.702H131.995Z" fill="#091D70"/>
<path fill-rule="evenodd" clip-rule="evenodd" d="M145.876 8.58301H134.673V10.828H138.956V23.4241H141.573V10.828H145.876V8.58301Z" fill="#091D70"/>
<path d="M150.179 12.5762C149.009 12.5762 147.68 12.755 146.253 13.0927V15.1192C147.68 14.7815 148.989 14.6225 150.179 14.6225C151.646 14.6225 152.379 15.1391 152.379 16.1921V17.1258L152.28 17.106C151.547 16.9669 150.793 16.8874 150.06 16.8874C146.947 16.8874 145.36 17.9603 145.36 20.0861C145.36 22.3113 146.689 23.4437 149.306 23.4437C150.436 23.4437 151.487 23.1258 152.419 22.4702L152.479 22.4305L152.518 22.4702L153.47 23.4239H154.957V16.1126C154.997 13.7682 153.371 12.5762 150.179 12.5762ZM152.379 20.702L152.34 20.7219C151.547 21.298 150.654 21.596 149.723 21.596C148.553 21.596 147.958 21.0795 147.958 20.0464C147.958 19.0927 148.652 18.596 150.04 18.596C150.833 18.596 151.586 18.6755 152.3 18.8146L152.36 18.8345V20.702H152.379Z" fill="#091D70"/>
<path d="M163.225 12.5764C162.233 12.5764 161.301 12.8545 160.489 13.4108L160.35 13.4903V8.58301H157.732V22.987C159.438 23.285 161.044 23.4241 162.511 23.4241C164.276 23.4241 165.604 22.9472 166.477 22.0135C167.349 21.0797 167.805 19.6492 167.805 17.7817C167.845 14.3247 166.278 12.5764 163.225 12.5764ZM162.67 21.3578C161.817 21.3578 161.083 21.2585 160.429 21.04L160.37 21.0201V15.3181L160.409 15.2982C161.182 14.9208 162.055 14.7221 163.007 14.7221C164.494 14.7221 165.267 15.7353 165.267 17.7221C165.267 20.1261 164.375 21.3578 162.67 21.3578Z" fill="#091D70"/>
<path d="M172.763 8.58301H170.146V23.4241H172.763V8.58301Z" fill="#091D70"/>
<path d="M180.138 12.5762C176.768 12.5762 175.062 14.3643 175.062 17.8808C175.062 19.7285 175.558 21.1192 176.53 22.053C177.501 22.9669 178.988 23.4437 180.951 23.4437C182.3 23.4437 183.47 23.3444 184.402 23.1457V21.1192C183.331 21.3179 182.24 21.4172 181.15 21.4172C178.83 21.4172 177.66 20.6027 177.66 18.9934V18.9139H184.977C185.036 18.4967 185.056 18.0596 185.056 17.6424C185.076 14.2649 183.41 12.5762 180.138 12.5762ZM182.538 17.1258H177.68V17.0265C177.819 15.3974 178.632 14.5828 180.158 14.5828C181.745 14.5828 182.538 15.3775 182.538 16.947V17.1258Z" fill="#091D70"/>
<path fill-rule="evenodd" clip-rule="evenodd" d="M192.433 16.9277H190.648C189.716 16.9277 189.26 16.5304 189.26 15.7357C189.26 14.9211 190.053 14.5039 191.6 14.5039C192.988 14.5039 194.296 14.7423 195.506 15.1992V13.0734C194.316 12.6761 193.027 12.4575 191.679 12.4575C188.487 12.4575 186.861 13.59 186.861 15.835C186.861 18.0006 187.932 19.0535 190.132 19.0535H192.115C192.968 19.0535 193.404 19.4509 193.404 20.2456C193.404 21.0602 192.77 21.4774 191.52 21.4774C189.974 21.4774 188.566 21.239 187.376 20.782V22.9079C188.566 23.3052 189.934 23.5237 191.421 23.5237C194.475 23.5237 196.002 22.3913 196.002 20.1463C196.021 18.0204 194.812 16.9277 192.433 16.9277Z" fill="#091D70"/>
<path fill-rule="evenodd" clip-rule="evenodd" d="M0 9V15.6159C0 16.9272 1.07071 18 2.37936 18H8.98208V24.6159C8.98208 25.9272 10.0528 27 11.3614 27H17.9642V9H0Z" fill="#008CFF"/>
<path fill-rule="evenodd" clip-rule="evenodd" d="M41.3018 0H12.6305C10.6278 0 9.00195 1.62914 9.00195 3.63576V9H17.984L26.9661 18V9H35.9482V18H26.9661L43.8794 34.947C44.5337 34.2914 44.9501 33.3775 44.9501 32.3642V3.63576C44.9303 1.62914 43.3044 0 41.3018 0Z" fill="#5DD3FF"/>
<path fill-rule="evenodd" clip-rule="evenodd" d="M17.9844 32.3642C17.9844 34.3709 19.6103 36 21.6129 36H26.9665L17.9844 27V32.3642Z" fill="#5DD3FF"/>
<path fill-rule="evenodd" clip-rule="evenodd" d="M17.9839 18H26.966L17.9839 9V18Z" fill="#00A5FF"/>
<path fill-rule="evenodd" clip-rule="evenodd" d="M26.966 18V27H17.9839L26.966 36H41.3016C42.3128 36 43.2051 35.5828 43.8793 34.9272L26.966 18Z" fill="#00A5FF"/>
</svg>
