<svg width="319" height="384" viewBox="0 0 319 384" fill="none" xmlns="http://www.w3.org/2000/svg">
<mask id="mask0" mask-type="alpha" maskUnits="userSpaceOnUse" x="0" y="0" width="319" height="384">
<rect width="318.494" height="384" fill="#C4C4C4"/>
</mask>
<g mask="url(#mask0)">
<path d="M123.031 175.384L140.3 185.379C146.049 188.722 151.809 192.054 157.523 195.453C168.964 202.23 180.462 208.927 191.869 215.771L190.638 215.952L219.562 184.329L248.735 152.931C258.448 142.45 268.296 132.105 278.145 121.748C283.058 116.564 288.004 111.414 293.008 106.297L300.507 98.6401C301.761 97.3638 303.026 96.1102 304.302 94.8565L306.233 92.993C306.888 92.3944 307.509 91.7281 308.255 91.2424C307.532 91.762 306.945 92.4509 306.312 93.0721L304.471 95.0147L300.823 98.9337L293.572 106.828L279.127 122.651C269.482 133.189 259.905 143.794 250.203 154.275L221.211 185.831L192.083 217.262L191.541 217.849L190.864 217.432C179.491 210.542 168.208 203.495 156.88 196.526C151.21 193.048 145.574 189.513 139.939 185.989L123.031 175.384Z" fill="#008CFF"/>
<path d="M245.133 127.102L191.237 131.348V136.589H355.759C355.759 136.589 355.759 130.015 355.759 121.726L301.445 131.167L245.133 127.102Z" fill="#008CFF"/>
<path d="M232.935 121.997L191.237 127.779V131.348L245.133 127.102L301.445 131.167L355.759 121.726C355.759 117.129 355.759 98.9792 355.759 94.6196L304.935 122.279L271.335 115.638L232.935 121.997Z" fill="#A9DBF7"/>
<path d="M191.237 127.779L232.935 121.997L271.335 115.638L304.935 122.279L355.759 94.6196C355.759 98.9791 355.759 51.4309 355.759 49.4431L327.896 77.7123L301.829 111.685L265.406 109.245L239.429 116.869L218.75 115.57L191.237 121.104V127.779Z" fill="#D4EEFC"/>
<path d="M157.4 112.905V64.5545C157.4 64.4303 157.502 64.3286 157.626 64.3286H159.027C159.151 64.3286 159.253 64.4303 159.253 64.5545V112.916C159.253 113.04 159.151 113.142 159.027 113.142H157.626C157.502 113.131 157.4 113.04 157.4 112.905Z" fill="#A9DBF7"/>
<g opacity="0.6">
<g opacity="0.6">
<path opacity="0.6" d="M364.817 136.735H176.77" stroke="#A9DBF7" stroke-width="0.5" stroke-miterlimit="10"/>
<path opacity="0.6" d="M364.817 117.535H176.77" stroke="#A9DBF7" stroke-width="0.5" stroke-miterlimit="10"/>
<path opacity="0.6" d="M364.817 98.3354H176.77" stroke="#A9DBF7" stroke-width="0.5" stroke-miterlimit="10"/>
<path opacity="0.6" d="M364.817 79.1355H176.77" stroke="#A9DBF7" stroke-width="0.5" stroke-miterlimit="10"/>
<path opacity="0.6" d="M364.817 59.9353H176.77" stroke="#A9DBF7" stroke-width="0.5" stroke-miterlimit="10"/>
<path opacity="0.6" d="M364.817 40.7354H176.77" stroke="#A9DBF7" stroke-width="0.5" stroke-miterlimit="10"/>
</g>
<g opacity="0.6">
<path opacity="0.6" d="M180.621 136.679V141.106" stroke="#A9DBF7" stroke-width="0.5" stroke-miterlimit="10"/>
<path opacity="0.6" d="M207.547 136.679V141.106" stroke="#A9DBF7" stroke-width="0.5" stroke-miterlimit="10"/>
<path opacity="0.6" d="M234.46 136.679V141.106" stroke="#A9DBF7" stroke-width="0.5" stroke-miterlimit="10"/>
<path opacity="0.6" d="M261.374 136.679V141.106" stroke="#A9DBF7" stroke-width="0.5" stroke-miterlimit="10"/>
<path opacity="0.6" d="M288.3 136.679V141.106" stroke="#A9DBF7" stroke-width="0.5" stroke-miterlimit="10"/>
<path opacity="0.6" d="M315.213 136.679V141.106" stroke="#A9DBF7" stroke-width="0.5" stroke-miterlimit="10"/>
</g>
</g>
<path d="M165.701 38.9055H171.179C171.495 38.9055 171.744 39.154 171.744 39.4702V41.9888C171.744 42.305 171.495 42.5535 171.179 42.5535H165.701C165.385 42.5535 165.137 42.305 165.137 41.9888V39.4702C165.137 39.154 165.385 38.9055 165.701 38.9055Z" fill="#A9DBF7"/>
<path d="M165.701 58.1057H171.179C171.495 58.1057 171.744 58.3542 171.744 58.6704V61.189C171.744 61.5052 171.495 61.7537 171.179 61.7537H165.701C165.385 61.7537 165.137 61.5052 165.137 61.189V58.6704C165.137 58.3542 165.385 58.1057 165.701 58.1057Z" fill="#A9DBF7"/>
<path d="M165.701 77.3057H171.179C171.495 77.3057 171.744 77.5541 171.744 77.8704V80.389C171.744 80.7052 171.495 80.9537 171.179 80.9537H165.701C165.385 80.9537 165.137 80.7052 165.137 80.389V77.8704C165.137 77.5541 165.385 77.3057 165.701 77.3057Z" fill="#A9DBF7"/>
<path d="M165.701 96.5056H171.179C171.495 96.5056 171.744 96.7541 171.744 97.0703V99.5889C171.744 99.9051 171.495 100.154 171.179 100.154H165.701C165.385 100.154 165.137 99.9051 165.137 99.5889V97.0703C165.137 96.7541 165.385 96.5056 165.701 96.5056Z" fill="#A9DBF7"/>
<path d="M165.701 115.706H171.179C171.495 115.706 171.744 115.954 171.744 116.27V118.789C171.744 119.105 171.495 119.354 171.179 119.354H165.701C165.385 119.354 165.137 119.105 165.137 118.789V116.27C165.137 115.954 165.385 115.706 165.701 115.706Z" fill="#A9DBF7"/>
<path d="M165.701 134.906H171.179C171.495 134.906 171.744 135.154 171.744 135.47V137.989C171.744 138.305 171.495 138.554 171.179 138.554H165.701C165.385 138.554 165.137 138.305 165.137 137.989V135.47C165.137 135.154 165.385 134.906 165.701 134.906Z" fill="#A9DBF7"/>
<path d="M175.686 143.376H185.568C185.884 143.376 186.133 143.625 186.133 143.941V145.59C186.133 145.906 185.884 146.155 185.568 146.155H175.686C175.37 146.155 175.121 145.906 175.121 145.59V143.941C175.121 143.625 175.37 143.376 175.686 143.376Z" fill="#A9DBF7"/>
<path d="M202.599 143.376H212.481C212.797 143.376 213.046 143.625 213.046 143.941V145.59C213.046 145.906 212.797 146.155 212.481 146.155H202.599C202.283 146.155 202.034 145.906 202.034 145.59V143.941C202.034 143.625 202.294 143.376 202.599 143.376Z" fill="#A9DBF7"/>
<path d="M229.525 143.376H239.407C239.723 143.376 239.972 143.625 239.972 143.941V145.59C239.972 145.906 239.723 146.155 239.407 146.155H229.525C229.208 146.155 228.96 145.906 228.96 145.59V143.941C228.96 143.625 229.208 143.376 229.525 143.376Z" fill="#A9DBF7"/>
<path d="M256.439 143.376H266.321C266.637 143.376 266.886 143.625 266.886 143.941V145.59C266.886 145.906 266.637 146.155 266.321 146.155H256.439C256.122 146.155 255.874 145.906 255.874 145.59V143.941C255.874 143.625 256.122 143.376 256.439 143.376Z" fill="#A9DBF7"/>
<path d="M283.352 143.376H293.234C293.55 143.376 293.799 143.625 293.799 143.941V145.59C293.799 145.906 293.55 146.155 293.234 146.155H283.352C283.036 146.155 282.787 145.906 282.787 145.59V143.941C282.787 143.625 283.047 143.376 283.352 143.376Z" fill="#A9DBF7"/>
<path d="M310.278 143.376H320.16C320.476 143.376 320.725 143.625 320.725 143.941V145.59C320.725 145.906 320.476 146.155 320.16 146.155H310.278C309.961 146.155 309.713 145.906 309.713 145.59V143.941C309.713 143.625 309.961 143.376 310.278 143.376Z" fill="#A9DBF7"/>
<path d="M228.553 157.72H239.113C239.237 157.72 239.339 157.821 239.339 157.946V160.272C239.339 160.396 239.237 160.498 239.113 160.498H228.553C228.429 160.498 228.327 160.396 228.327 160.272V157.946C228.327 157.821 228.429 157.72 228.553 157.72Z" fill="#A9DBF7"/>
<path d="M226.046 161.65H219.688V156.568H225.809C225.933 156.568 226.035 156.669 226.035 156.794V161.65H226.046Z" fill="#008CFF"/>
<path d="M256.506 157.72H267.066C267.19 157.72 267.292 157.821 267.292 157.946V160.272C267.292 160.396 267.19 160.498 267.066 160.498H256.506C256.382 160.498 256.28 160.396 256.28 160.272V157.946C256.28 157.821 256.382 157.72 256.506 157.72Z" fill="#A9DBF7"/>
<path d="M253.999 161.65H247.641V156.568H253.773C253.898 156.568 253.999 156.669 253.999 156.794V161.65Z" fill="#A9DBF7"/>
<path d="M282.291 157.72H292.851C292.976 157.72 293.077 157.821 293.077 157.946V160.272C293.077 160.396 292.976 160.498 292.851 160.498H282.291C282.167 160.498 282.065 160.396 282.065 160.272V157.946C282.065 157.821 282.167 157.72 282.291 157.72Z" fill="#A9DBF7"/>
<path d="M279.783 161.65H273.425V156.568H279.558C279.682 156.568 279.783 156.669 279.783 156.794V161.65Z" fill="#D4EEFC"/>
<path d="M373.196 177.157L325.648 177.292L278.1 177.597C246.397 177.823 214.706 177.846 183.003 177.767L159.24 177.665L153.3 177.631L150.329 177.62C149.821 177.608 149.38 177.62 148.804 177.597C148.195 177.552 147.596 177.292 147.144 176.886C146.692 176.479 146.376 175.914 146.275 175.316C146.218 174.999 146.229 174.706 146.229 174.48V173.735L146.241 170.764L146.275 164.824L146.455 117.275C146.523 101.43 146.467 85.5727 146.421 69.727L146.354 45.9642L146.32 34.0828L146.308 28.1421V26.6513C146.331 26.1656 146.241 25.68 146.399 25.0588C146.681 23.8842 147.822 23.0033 149.019 23.0145C212.413 22.7548 275.807 22.5176 339.201 22.608L362.975 22.6193H368.916H371.886C372.405 22.6193 372.812 22.608 373.433 22.6305C374.111 22.6757 374.777 22.9581 375.274 23.4211C375.782 23.8729 376.132 24.5054 376.257 25.1717C376.291 25.3411 376.302 25.5105 376.302 25.68V26.064V26.8094L376.291 29.7797L376.257 35.7204L375.986 83.2687L375.692 130.817L375.602 154.591L375.568 166.472L375.557 172.413V173.904C375.534 174.401 375.613 174.898 375.477 175.406C375.229 176.423 374.235 177.179 373.196 177.157ZM373.196 176.987C374.156 176.999 375.071 176.298 375.285 175.361C375.41 174.909 375.331 174.401 375.353 173.904V172.413L375.342 166.472L375.308 154.591L375.218 130.817L374.924 83.2687L374.653 35.7204L374.619 29.7797L374.608 26.8094V26.064V25.7025C374.608 25.6235 374.596 25.5444 374.585 25.4767C374.529 25.1717 374.371 24.8894 374.145 24.6861C373.919 24.4715 373.614 24.3473 373.309 24.3247H371.886H368.916H362.975L339.201 24.336C275.796 24.4376 212.402 24.2004 149.008 23.9407C148.217 23.9294 147.449 24.5054 147.268 25.2847C147.167 25.6235 147.223 26.1543 147.201 26.6513V28.1421L147.189 34.0828L147.156 45.9642L147.088 69.7383C147.043 85.584 146.986 101.441 147.054 117.287L147.235 164.835L147.268 170.776L147.28 173.746C147.291 174.209 147.257 174.819 147.314 175.135C147.381 175.508 147.573 175.858 147.867 176.106C148.149 176.366 148.511 176.513 148.895 176.536H150.34L153.311 176.524L159.252 176.49L183.026 176.377C214.728 176.298 246.42 176.321 278.122 176.547L325.67 176.852L373.196 176.987Z" fill="#D4EEFC"/>
<path d="M220.918 248.569C243.179 250.241 265.428 251.912 287.689 253.595C288.863 253.685 293.336 253.143 294.375 253.685C294.104 264.245 294.996 278.024 294.285 287.15C290.704 290.832 278.834 286.947 274.396 288.155C270.454 289.239 268.534 292.921 265.575 295.361C261.724 298.534 256.912 297.789 252.824 295.372C249.594 293.475 246.815 290.843 243.461 289.194C239.158 287.071 236.436 285.682 233.906 281.435C228.767 272.806 221.189 267.046 214.006 259.965C212.967 258.937 211.894 257.842 211.442 256.452C210.99 255.063 211.397 253.279 212.707 252.624" fill="#91C5D8"/>
<path d="M174.748 261.557C216.807 265.137 235.409 264.426 262.978 261.015C262.978 268.887 262.978 285.173 262.978 285.173" fill="white"/>
<path d="M151.233 256.836C185.138 265.375 220.557 267.566 255.23 263.274C257.714 262.969 260.583 262.755 262.345 264.573C263.881 266.165 263.915 268.673 263.847 270.898C263.621 278.261 263.395 285.614 263.169 292.978C263.034 297.292 262.819 301.889 260.38 305.412C257.398 309.738 251.762 311.342 246.59 311.195C241.417 311.048 236.38 309.478 231.252 308.789C217.507 306.971 203.062 311.986 193.236 321.97C188.888 326.397 185.33 331.784 180.045 334.98C174.759 338.177 168.265 338.775 162.189 337.883C156.112 336.991 150.307 334.709 144.581 332.451C142.413 331.592 140.109 330.644 138.765 328.701C137.522 326.905 137.319 324.59 137.184 322.388C135.794 300.206 136.619 277.877 139.612 255.865C145.507 255.594 151.437 256.238 157.14 257.785" fill="#D4EEFC"/>
<path d="M142.706 253.685C147.766 256.328 153.797 257.672 159.568 259.14C159.365 259.389 159.161 260.36 158.969 260.609C157.388 260.134 155.784 259.66 154.147 259.649C152.498 259.637 150.781 260.157 149.686 261.399C148.511 262.732 148.274 264.618 148.093 266.391C147.743 269.666 147.551 273.01 147.088 276.251C145.857 284.789 143.384 293.328 141.373 301.708C140.357 305.988 139.318 310.269 138.233 314.538L138.595 263.353L139.668 255.481" fill="#91C5D8"/>
<path d="M181.355 262.111C184.416 262.404 184.619 262.483 185.477 265.589C187.149 271.632 188.662 277.787 189.25 284.044C189.498 286.755 189.588 289.567 190.707 292.051C191.429 293.655 192.548 295.056 193.293 296.659C195.62 301.629 193.982 307.457 192.322 312.686C191.475 315.363 190.628 318.028 189.769 320.705C189.306 322.162 188.436 323.924 186.912 323.867C185.263 323.799 184.608 321.732 184.461 320.095C184.1 316.164 184.133 312.2 184.54 308.27C185.071 303.255 186.212 298.15 185.048 293.249C184.382 290.448 182.993 287.873 181.728 285.286C179.13 279.978 176.973 274.444 175.301 268.786C174.929 267.509 174.567 266.188 174.759 264.867C175.279 261.094 178.633 261.851 181.355 262.111Z" fill="#91C5D8"/>
<path d="M138.144 249.766C138.166 250.015 138.403 250.308 138.618 250.512C138.844 250.737 139.115 250.929 139.375 251.11C139.917 251.472 140.493 251.788 141.091 252.07C142.277 252.646 143.508 253.109 144.762 253.55C147.269 254.397 149.81 255.142 152.374 255.797C154.938 256.464 157.524 257.051 160.111 257.604C162.697 258.18 165.295 258.722 167.904 259.231C178.283 261.354 188.843 262.314 199.437 262.935C210.042 263.556 220.681 263.409 231.286 262.845C241.891 262.212 252.485 261.241 263.011 260.044L263.87 259.942V260.8L263.994 281.706L263.937 302.611L263.666 323.517L263.463 333.975L263.181 344.433H263.011L262.729 333.975L262.526 323.517L262.255 302.611L262.198 281.706L262.322 260.8L263.181 261.568C252.564 262.608 241.937 263.138 231.309 263.477C220.681 263.85 210.042 264.053 199.392 263.929C188.764 263.782 178.034 262.946 167.621 260.575C165.012 260.032 162.415 259.445 159.817 258.835C157.231 258.192 154.656 257.503 152.092 256.746C149.539 255.989 146.987 255.165 144.513 254.16C143.282 253.651 142.051 253.109 140.877 252.454C140.289 252.138 139.713 251.776 139.183 251.359C138.912 251.144 138.652 250.929 138.426 250.67C138.211 250.399 137.963 250.15 137.963 249.721L138.144 249.766Z" fill="#00A5FF"/>
<path d="M138.155 323.201C137.85 320.151 137.68 317.102 137.579 314.041C137.488 310.992 137.432 307.942 137.533 304.881C137.658 301.832 137.906 298.783 137.963 295.722C138.03 292.672 137.917 289.623 137.771 286.562C137.612 283.513 137.488 280.464 137.443 277.403C137.387 274.353 137.319 271.304 137.341 268.243C137.432 262.144 137.624 256.034 138.155 249.936H138.324C138.866 256.034 139.058 262.144 139.137 268.243C139.16 271.293 139.092 274.342 139.035 277.403C138.99 280.452 138.866 283.502 138.708 286.562C138.561 289.612 138.459 292.661 138.516 295.722C138.584 298.771 138.821 301.821 138.945 304.881C139.047 307.931 138.99 310.98 138.9 314.041C138.81 317.09 138.629 320.14 138.324 323.201H138.155Z" fill="#00A5FF"/>
<path d="M218.41 248.614L263.519 260.778C250.192 262.416 234.481 263.285 218.41 263.285C174.137 263.285 137.702 256.656 137.702 248.614C137.702 240.562 174.137 234.113 218.41 233.943C263.101 233.763 299.434 240.426 299.118 248.614C299.05 250.308 297.491 252.003 294.306 253.606L218.41 248.614Z" fill="#DDF6FF"/>
<path d="M293.719 317.249C293.527 314.594 293.415 311.94 293.358 309.286C293.268 306.632 293.245 303.978 293.256 301.324C293.189 296.016 293.629 290.719 293.866 285.422C294.092 280.125 293.923 274.817 293.765 269.508C293.64 264.2 293.64 258.903 293.64 253.595L294.487 254.51C290.614 254.284 286.751 254.013 282.877 253.73L271.278 252.838C267.415 252.545 263.553 252.206 259.69 251.856C255.828 251.528 251.965 251.144 248.103 250.738L248.114 250.568C251.988 250.658 255.873 250.771 259.747 250.93C263.621 251.076 267.495 251.223 271.368 251.426L282.99 252.014C286.864 252.228 290.738 252.454 294.6 252.714L295.459 252.77L295.436 253.629C295.323 258.937 295.188 264.234 294.939 269.531C294.657 274.828 294.363 280.136 294.465 285.433C294.578 290.741 294.894 296.05 294.713 301.346C294.657 304.001 294.578 306.655 294.42 309.298C294.295 311.952 294.126 314.594 293.866 317.249H293.719Z" fill="#00A5FF"/>
<path d="M298.644 332.722C298.113 325.697 297.966 318.672 298.079 311.635C298.18 308.123 298.418 304.611 298.531 301.098C298.632 297.586 298.61 294.073 298.485 290.561C298.18 283.536 298.09 276.511 298.056 269.486C298.045 265.973 298.124 262.461 298.237 258.948C298.327 255.436 298.485 251.923 298.689 248.411L299.378 248.456C299.287 248.874 299.152 249.213 298.994 249.563C298.836 249.913 298.655 250.241 298.44 250.557C298.022 251.189 297.514 251.743 296.938 252.217L296.825 252.093C297.322 251.562 297.729 250.963 298.056 250.331C298.214 250.015 298.35 249.687 298.463 249.348C298.564 249.021 298.655 248.659 298.689 248.354L299.378 248.4C299.547 251.912 299.683 255.425 299.75 258.937C299.841 262.45 299.886 265.962 299.852 269.475C299.762 276.499 299.626 283.524 299.265 290.549C299.107 294.062 299.061 297.574 299.14 301.087C299.242 304.599 299.445 308.112 299.524 311.624C299.581 318.649 299.389 325.674 298.802 332.699L298.644 332.722Z" fill="#00A5FF"/>
<path d="M232.37 243.667C236.945 243.746 244.817 246.073 243.269 248.411C240.446 249.608 229.513 249.122 218.772 248.591C206.688 249.303 195.845 248.196 184.946 250.026C180.711 250.737 179.582 250.963 176.623 252.172C179.288 255.221 182.484 258.225 184.224 261.93C181.874 261.918 179.74 261.263 177.334 261.331C174.33 261.41 171.405 260.699 168.468 260.168C160.427 258.711 156.802 258.688 148.704 256.339C146.93 255.831 144.005 254.837 142.526 253.741C141.046 252.646 140.064 250.658 140.696 248.919C141.442 246.886 143.904 246.152 146.027 245.734C150.296 244.898 154.599 244.221 158.914 243.701C162.742 243.238 166.56 243.385 170.321 242.707C178.949 241.149 187.612 239.714 196.365 239.116C206.597 238.427 216.988 238.912 226.859 241.668" fill="#91C5D8"/>
<path d="M279.263 243.577C279.297 243.701 276.112 225.8 274.858 219.826C274.926 217.883 274.858 213.783 274.858 213.783L279.805 231.142L279.263 243.577Z" fill="#D34646"/>
<path d="M274.52 212.846C275.525 218.414 278.28 225.868 279.286 231.368C284.255 231.188 300.428 230.194 309.238 229.629C304.291 225.055 281.228 206.634 278.371 207.707C275.502 208.769 274.52 212.846 274.52 212.846Z" fill="#FC5959"/>
<path d="M173.855 143.286C173.855 143.286 182.981 122.764 186.279 115.897C189.012 108.929 191.124 103.711 196.975 101.814C201.153 100.876 209.33 100.311 214.548 101.102C210.132 107.133 206.62 114.802 206.258 122.278C206.258 122.278 198.985 132.748 198.556 133.177C198.127 133.607 187.284 151.361 185.048 155.393" fill="#00D593"/>
<path d="M186.075 153.642C186.437 153.032 184.573 151.858 184.246 151.598C183.387 150.92 182.721 150.017 182.077 149.147C181.038 147.746 179.999 146.346 178.96 144.946C180.631 145.07 182.269 145.522 183.771 146.267C184.223 146.493 184.663 146.741 185.149 146.843C186.188 147.035 186.764 146.199 187.397 145.522C187.882 145.002 188.266 144.415 188.707 143.861C189.068 143.398 189.475 142.743 189.983 142.438C190.152 142.969 189.96 143.737 189.949 144.302C189.927 145.115 189.96 145.928 190.164 146.719C189.441 147.972 186.075 153.642 186.075 153.642Z" fill="#0EAA76"/>
<path d="M223.629 45.6251C219.506 43.6487 214.424 44.1004 210.437 46.3593C206.45 48.6181 203.536 52.5033 201.966 56.8063C200.397 61.1094 200.103 65.7964 200.577 70.348C200.781 72.3809 201.074 74.6397 199.843 76.2661C198.443 78.107 195.789 78.2313 193.496 78.4346C191.632 78.604 189.712 78.9541 188.165 80.0044C186.618 81.0548 185.511 82.9522 185.895 84.7931C186.381 87.1084 189.227 89.5028 191.452 90.3047C200.284 93.5122 207.478 95.0708 216.773 94.3141" fill="#EF8137"/>
<path d="M214.717 49.0923C213.927 48.5953 213.102 48.121 212.232 47.7596C211.792 47.5789 211.329 47.432 210.866 47.3304C210.516 47.2513 209.68 47.1949 209.375 47.0255C211.159 45.8509 216.005 47.816 216.908 48.1775C218.93 46.3026 222.115 45.3991 223.278 45.4782C222.826 46.4495 220.895 47.1384 220.183 48.0193C219.37 49.0358 218.806 50.2895 218.794 51.5883C218.794 51.2269 215.09 49.3295 214.717 49.0923Z" fill="#E06934"/>
<path d="M217.563 49.296C219.969 46.7435 223.267 45.0381 226.745 44.5524C230.224 44.0668 233.861 44.8009 236.865 46.608C239.237 48.031 241.349 50.3802 241.371 53.1473C241.394 55.1237 240.377 57.2583 241.383 58.9637C242.207 60.3642 243.992 60.7595 245.561 61.1548C249.029 62.0357 252.349 63.5153 255.32 65.5143C257.556 67.0277 259.634 68.88 260.899 71.263C262.085 73.4993 262.762 77.9492 261.712 80.3548C261.283 81.3261 260.729 82.4103 261.159 83.3703C261.599 84.3755 262.909 84.7143 263.485 85.6517C263.96 86.4197 263.824 87.4588 263.338 88.2268C262.853 88.9948 262.085 89.5369 261.294 89.9887C258.177 91.7619 254.484 92.3492 250.904 92.1684C247.323 91.9877 243.822 91.0616 240.4 89.9774C238.424 89.3449 236.108 88.7012 234.392 89.8757C233.635 90.384 233.127 91.1746 232.528 91.8635C229.761 94.9694 224.758 95.5567 221.065 93.6367C217.371 91.7167 215.045 87.6621 214.638 83.5172C214.243 79.5416 215.519 75.4306 218.072 72.3699" fill="#EF8137"/>
<path d="M232.167 83.6297C233.477 84.9849 234.991 86.137 236.64 87.0518C239.011 88.3732 241.519 89.6946 244.128 90.4852C245.539 90.9144 247.042 91.705 248.498 91.9308C247.188 91.7275 245.743 91.4226 244.568 91.1289C243.077 90.7562 241.609 90.3045 240.141 89.8414C238.729 89.4009 237.464 89.0282 235.985 89.3897C234.595 89.7285 233.534 90.7788 232.596 91.7614C231.535 92.8908 230.213 93.7831 228.756 94.3591C228 94.6527 227.503 93.049 227.356 92.5068C226.735 90.361 226.249 88.1021 226.588 85.8659C226.735 84.8607 228.508 80.4334 229.716 80.9304C230.089 81.0885 230.338 81.4273 230.575 81.7548C231.06 82.4212 231.591 83.0424 232.167 83.6297Z" fill="#E06934"/>
<path d="M220.241 83.5508C219.891 82.1955 218.332 81.4049 216.954 81.5969C215.576 81.7889 214.413 82.7715 213.622 83.9235C212.843 85.0755 212.369 86.4082 211.838 87.6957C211.307 88.9833 210.686 90.2708 209.669 91.2308C208.179 92.6425 206.067 93.1395 204.045 93.4783C206.801 94.0543 211.16 94.5174 213.961 94.3367C216.773 94.156 217.835 91.4228 218.309 88.6444C218.547 88.6557 218.784 88.667 219.021 88.6783" fill="#E06934"/>
<path d="M214.469 86.2501C213.701 88.1927 212.82 90.1014 211.849 91.9536C211.589 92.4506 211.307 92.9701 210.832 93.2976C209.895 93.9527 209.285 94.0882 208.212 94.1108C207.342 94.1334 203.118 93.5461 202.396 93.3993C199.086 92.699 195.845 91.6713 192.683 90.4741C196.974 91.1291 202.746 90.0336 204.869 86.2501C206.789 82.8393 205.185 79.9254 204.124 76.5823C203.028 73.1263 202.226 69.5687 201.752 65.9771C201.639 65.1527 201.548 64.2943 201.786 63.4924C202.023 62.6906 202.678 61.9564 203.502 61.8887" fill="#E06934"/>
<path d="M213.542 89.4688C213.825 95.0255 211.995 101.418 209.996 103.169C209.996 103.169 207.624 104.208 206.834 104.998C206.043 105.789 205.399 106.274 205.399 106.274C205.399 106.274 209.533 113.107 215.734 114.056C221.934 115.005 233.296 101.836 233.296 101.836C226.949 91.6034 226.542 86.5888 228.631 75.1592" fill="#FFC1AF"/>
<path d="M263.146 149.441C263.813 158.905 265.507 168.087 267.642 177.168C268.782 182.035 270.047 186.881 271.346 191.715C272.464 195.882 274.825 200.897 274.181 205.256C273.469 210.09 273.797 211.073 273.085 215.907C273.085 215.918 274.124 214.935 274.215 214.8C274.825 213.941 275.265 212.947 275.796 212.044C276.925 210.113 278.495 208.611 280.709 209.887C282.979 211.197 285.464 212.259 287.768 213.591C289.699 214.709 291.596 215.884 293.494 217.047C294.171 217.465 295.041 218.561 295.786 218.403C295.628 216.403 295.143 213.84 294.013 212.168C292.138 209.345 288.513 205.38 284.458 203.946C283.114 203.472 279.354 203.155 279.105 201.337C276.349 181.245 278.303 167.805 272.622 147.408" fill="#FFC1AF"/>
<path d="M277.129 176.275L277.254 179.268C275.966 180.025 274.148 180.409 272.691 180.545C271.584 180.646 270.647 180.522 270.172 181.787C269.912 182.476 269.958 183.244 270.014 183.989C270.071 184.735 270.127 185.491 269.901 186.203C269.19 182.374 268.275 178.579 267.168 174.841" fill="#FF9796"/>
<path d="M89.624 330.034C90.4711 331.208 91.849 331.908 93.2607 332.236C94.6725 332.563 96.1407 332.541 97.5864 332.518C105.797 332.394 113.997 332.27 122.208 332.146C122.479 332.146 122.772 332.134 122.987 331.965C123.36 331.671 123.269 331.027 122.919 330.7C122.569 330.372 122.072 330.271 121.598 330.192C114.064 328.882 106.294 328.893 98.761 330.226" fill="#D9DEE8"/>
<path d="M176.261 280.362C180.349 285.806 182.19 292.673 182.631 299.472C183.071 306.271 182.201 313.07 181.321 319.824C185.149 317.192 187.589 312.912 188.865 308.45C190.141 303.989 190.39 299.302 190.616 294.672C185.816 289.092 181.467 283.129 177.616 276.861" fill="#FFC1AF"/>
<path d="M191.7 293.667C192.49 294.265 193.236 294.977 193.529 295.948C193.755 296.716 193.676 297.541 193.597 298.342C193.134 302.736 192.671 307.141 191.564 311.41C190.457 315.679 188.684 319.846 185.861 323.246C185.161 324.093 184.359 324.906 183.342 325.335C182.326 325.765 181.061 325.742 180.225 325.008C179.141 324.048 179.197 322.376 179.344 320.931C179.604 318.435 179.728 315.939 179.931 313.431C180.01 312.505 180.214 311.681 180.123 310.766C180.022 309.693 180.078 308.643 180.394 307.604C180.507 307.231 180.665 306.858 180.982 306.644C181.264 306.452 181.614 306.429 181.942 306.406C182.258 306.384 182.574 306.361 182.902 306.339C183.128 306.327 183.342 306.305 183.568 306.293C183.963 306.271 184.359 306.248 184.743 306.339C185.127 306.44 185.488 306.677 185.635 307.05C185.793 307.468 185.646 307.931 185.646 308.372C185.646 308.812 185.94 309.354 186.38 309.286C189.938 307.265 189.848 295.688 189.972 294.932C190.096 294.231 189.893 293.509 189.961 292.808C189.972 292.718 189.994 292.616 190.085 292.605C190.13 292.605 190.164 292.628 190.198 292.639C190.706 292.978 191.214 293.305 191.7 293.667Z" fill="#091D70"/>
<path d="M186.064 289.104L186.889 290.132C186.889 290.132 185.409 294.57 182.258 295.688C182.156 294.977 181.897 293.384 181.795 293.113" fill="#FF9796"/>
<path d="M116.639 310.811C116.47 315.046 116.086 319.778 112.912 322.613C109.4 325.753 103.719 325.324 100.161 328.407C106.181 328.204 112.201 328.001 118.22 327.797C118.751 327.775 119.305 327.752 119.768 327.492C120.626 327.007 121.981 325.9 122.117 324.929C122.715 320.535 123.19 315.374 123.924 310.743" fill="#FFC1AF"/>
<path d="M123.167 316.402L122.795 319.519C122.795 319.519 118.695 320.196 115.408 318.909C115.679 318.175 116.052 316.797 116.052 316.797" fill="#FF9796"/>
<path d="M122.896 323.381C121.157 324.149 119.282 324.68 117.419 325.098C115.917 325.437 109.535 326.092 107.819 326.081C108.462 325.708 108.451 325.821 108.993 325.211C108.417 324.601 107.412 323.878 106.509 323.765C105.537 323.935 105.255 323.991 103.798 324.206C102.951 324.33 102.217 324.42 101.37 324.545C99.653 324.793 97.9363 325.087 96.2422 325.482C94.277 325.934 90.0079 326.668 89.285 328.995C88.0766 332.857 105.04 331.31 110.891 330.869C116.741 330.429 118.345 331.174 120.321 331.389C122.309 331.615 123.19 330.44 123.258 328.949C123.371 326.6 123.63 324.883 122.896 323.381Z" fill="#091D70"/>
<path d="M213.306 209.04C211.533 208.159 149.313 222.13 126.635 232.577C125.268 233.209 124.297 234.44 123.981 235.908C120.412 252.624 114.414 302.092 113.827 316.594C115.205 317.057 121.451 317.057 122.829 316.594C124.206 316.131 141.701 258.35 143.226 250.105C151.086 250.105 207.885 245.712 233.737 242.979C239.994 242.323 239.079 235.818 240.141 235.197C245.63 231.989 228.7 208.882 228.7 208.882" fill="#091D5B"/>
<path d="M233.409 100.684C233.42 100.672 241.349 101.271 245.889 103.089C250.723 105.032 253.817 107.799 255.963 112.554C257.341 115.615 258.742 119.342 260.153 122.391C262.141 126.66 269.912 138.485 271.594 141.998C273.582 146.877 277.309 159.074 278.36 176.637C275.694 177.698 271.357 178.229 265.631 177.45C262.74 170.425 263.113 154.918 261.972 153.823C258.087 150.084 255.026 146.651 252.824 144.211C249.311 140.089 246.939 137.604 243.506 134.103C243.506 134.103 238.649 161.164 240.649 179.37C240.863 180.962 241.033 182.679 241.496 184.192C242.049 186.033 243.404 196.006 244.15 199.925C244.827 203.483 247.323 207.018 245.686 208.848C244.952 209.672 242.218 208.215 241.157 208C241.157 208 220.76 203.822 209.567 202.534C209.138 200.682 210.098 177.371 211.961 164.518C213.814 151.665 215.813 138.248 219.099 131.246C222.386 124.255 230.089 107.257 230.089 107.257L232.37 103.259L233.409 100.684Z" fill="#00D593"/>
<path d="M191.136 135.233C192.57 127.609 193.767 122.854 194.953 117.591C196.037 112.791 194.117 106.128 199.798 104.422C200.747 104.14 207.648 103.338 207.919 102.626C207.851 103.236 207.795 103.699 207.795 103.699C207.795 103.699 207.004 119.534 207.219 122.098C207.433 124.673 206.146 158.081 206.146 158.081C206.146 158.081 205.186 184.531 204.858 186.135C204.531 187.739 202.757 201.597 202.757 201.597L191.373 200.603C191.373 200.603 193.62 187.965 194.795 178.975C195.608 172.729 196.105 166.495 194.422 160.339C193.259 156.059 191.441 152.818 190.537 148.469C189.735 144.584 190.413 139.095 191.136 135.233Z" fill="#00D593"/>
<path d="M191.429 200.196C191.734 197.723 192.175 195.272 192.559 192.81C192.988 190.359 193.428 187.908 193.79 185.458C194.535 180.556 195.123 175.632 194.987 170.719C194.897 165.817 194.038 160.916 192.412 156.296C191.497 153.992 190.729 151.541 190.3 149.079C189.905 146.595 189.747 144.076 190.04 141.591C190.051 144.087 190.334 146.549 190.944 148.944C191.508 151.361 192.333 153.642 193.372 155.912C195.292 160.599 196.207 165.648 196.331 170.685C196.433 175.733 195.789 180.737 194.795 185.627C194.298 188.078 193.756 190.506 193.191 192.934L191.429 200.196Z" fill="#0EAA76"/>
<path d="M213.521 92.2924C215 91.547 219.066 90.5079 221.664 88.5992C224.262 86.6905 226.396 84.635 226.396 84.635L227.514 83.3813C227.514 83.3813 227.48 84.3075 227.503 85.4708C225.944 88.9832 222.827 94.4948 216.277 94.7771C213.069 94.6642 213.521 92.2924 213.521 92.2924Z" fill="#FF9796"/>
<path d="M230.337 65.7513L228.033 74.4704C229.411 71.9518 233.33 69.4671 234.268 73.9509C234.968 77.3052 233.319 82.3424 227.141 83.4831C224.645 86.1033 221.878 88.5429 218.738 90.3612C216.841 91.468 214.785 92.349 212.628 92.7895C211.07 93.1057 207.749 93.7043 206.981 91.773C206.766 91.2309 206.687 90.5984 206.518 90.0337C206.281 89.2431 206.044 88.4638 205.806 87.6732C205.219 85.7306 204.654 83.7767 204.203 81.8003C203.412 78.3443 202.43 73.7702 204.27 70.4723C203.198 64.1363 203.277 63.3005 205.411 59.1104C205.874 58.9523 215.711 53.7683 223.493 58.5005" fill="#FFC1AF"/>
<path d="M214.164 67.084C214.164 67.084 216.016 64.7236 222.68 69.2751L214.164 67.084Z" fill="#EF8137"/>
<path d="M202.339 64.4635C202.339 64.4635 203.92 62.6 209.612 66.1915L202.339 64.4635Z" fill="#EF8137"/>
<path d="M215.982 69.964C215.553 69.8736 215.146 70.0205 215.022 70.2802C214.683 70.9692 214.841 71.6355 215.203 72.3245C215.474 72.844 216.185 73.1489 216.682 72.6633C217.36 72.0082 216.965 70.0318 215.982 69.964Z" fill="black"/>
<path d="M155.186 218.877C158.292 220.774 161.025 223.304 163.024 226.342C164.798 229.041 165.938 232.102 167.079 235.129C169.462 241.499 171.845 247.869 174.239 254.227L157.671 243.667L147.145 227.415L143.022 222.604" fill="white"/>
<path d="M229.411 75.5318C230.078 74.6508 231.343 73.9506 231.896 75.3059C232.382 76.5031 231.907 78.5021 229.186 79.4283C229.186 79.4395 229.287 75.6899 229.411 75.5318Z" fill="#FF9796"/>
<path d="M214.627 49.4875C214.537 53.2485 215.836 57.032 218.219 59.9459C220.602 62.8598 224.047 64.8814 227.751 65.5478C226.531 68.0099 226.588 71.9628 228.09 74.2668C228.09 74.2668 228.96 71.5224 231.185 71.353C232.133 68.8683 232.291 67.4678 232.291 67.4678L234.234 59.1101" fill="#EF8137"/>
<path d="M228.96 85.4257C230.139 85.4257 231.094 84.47 231.094 83.2911C231.094 82.1122 230.139 81.1565 228.96 81.1565C227.781 81.1565 226.825 82.1122 226.825 83.2911C226.825 84.47 227.781 85.4257 228.96 85.4257Z" fill="#FFD255"/>
<path d="M241.428 158.036C240.401 166.992 240.581 176.739 241.971 185.661C237.396 175.09 240.491 148.786 240.491 148.786C241.643 138.305 243.563 132.579 243.563 132.579L247.843 137.785C247.843 137.785 244.986 145.047 242.931 151.609C242.332 153.507 241.846 155.72 241.474 157.866C241.451 157.911 241.428 157.968 241.428 158.036Z" fill="#0EAA76"/>
<path d="M207.568 104.998C207.568 104.998 208.517 110.036 214.164 110.645C219.811 111.255 228.733 106.636 233.307 101C232.844 102.22 221.787 124.537 218.885 132.161C213.046 144.708 209.488 180.33 209.657 202.263C208.212 202.218 206.021 202.06 202.938 201.608C205.343 184.328 206.36 153.326 206.879 142.766C207.489 130.399 207.568 104.998 207.568 104.998Z" fill="white"/>
<path d="M198.963 114.926C198.816 114.61 198.669 114.293 198.511 113.977C197.63 112.17 196.647 110.239 197.009 108.274C197.957 103.123 204.395 101.508 208.924 101.034C209.771 100.944 210.799 100.887 211.578 100.853C210.053 103.327 208.325 105.586 207.941 108.545C206.71 118.133 209.218 155.935 204.869 185.288C205.796 177.201 199.663 144.019 196.534 136.475C196.037 135.266 195.563 133.708 196.478 132.77C197.415 131.822 198.929 132.262 200.036 132.601C200.42 132.714 203.695 133.821 203.695 133.798C203.311 127.282 201.696 120.844 198.963 114.926Z" fill="#2EEDA8"/>
<path d="M266.953 153.586C266.975 153.608 266.975 153.642 266.964 153.676C266.953 153.721 266.908 153.755 266.874 153.789C266.173 154.342 265.439 154.851 264.886 155.54C264.479 156.036 263.971 157.403 263.214 157.414C262.909 157.426 262.65 157.166 262.537 156.884C262.424 156.601 262.435 156.285 262.413 155.98C262.288 154.297 261.328 153.495 260.526 152.163C260.12 151.485 259.645 150.852 259.137 150.254C258.776 149.836 258.019 149.316 258.008 148.74C260.267 150.096 262.921 150.751 265.541 150.615C265.778 150.604 266.027 150.593 266.207 150.74C266.648 151.101 265.36 151.903 265.146 152.05C264.807 152.276 264.468 152.479 264.118 152.693C264.028 152.75 263.711 152.885 263.677 152.976C263.587 153.315 264.129 153.326 264.355 153.315C265.146 153.281 265.925 153.326 266.704 153.439C266.806 153.473 266.919 153.518 266.953 153.586Z" fill="#0EAA76"/>
<path d="M260.91 152.287C260.842 152.23 260.786 152.174 260.729 152.106C260.526 151.869 260.323 151.632 260.312 151.338C260.312 151.169 260.379 151.067 260.515 150.977L260.91 152.287Z" fill="#D9DEE8"/>
<path d="M242.84 131.54C245.641 135.007 248.758 138.147 251.751 141.456C254.676 144.833 257.658 148.04 260.797 151.18L261.972 152.355L262.559 152.931C262.616 152.987 262.638 152.987 262.751 153.134C262.853 153.258 262.921 153.382 262.943 153.461C263.034 153.653 263.068 153.8 263.113 153.958C263.384 155.156 263.463 156.251 263.553 157.369L263.971 164.021C264.107 166.235 264.287 168.437 264.558 170.64C264.807 172.842 265.168 175.022 265.857 177.145C264.005 173.057 263.485 168.516 262.932 164.123C262.661 161.909 262.503 159.684 262.277 157.482C262.153 156.398 262.062 155.257 261.837 154.297C261.803 154.196 261.769 154.071 261.735 154.015C261.712 153.958 261.712 153.97 261.724 153.981C261.769 154.015 261.667 153.924 261.633 153.879L261.023 153.303L259.826 152.129C258.256 150.536 256.72 148.91 255.229 147.261C253.716 145.623 252.327 143.828 250.949 142.122L246.702 136.972C245.358 135.221 244.026 133.437 242.84 131.54Z" fill="#0EAA76"/>
<path d="M216.672 56.0723C216.22 57.9584 216.378 59.9913 217.112 61.7984C217.846 63.5942 219.168 65.1527 220.817 66.1805C218.23 63.8765 216.999 60.1607 217.699 56.7725" fill="#EF8137"/>
<path d="M216.671 56.366C215.146 58.7264 214.661 61.7307 215.35 64.4526C215.361 62.1598 215.79 59.8671 216.603 57.7213" fill="#EF8137"/>
<path d="M236.402 187.118C236.402 187.118 229.75 193.985 218.603 189.411L236.402 187.118Z" fill="#0EAA76"/>
<path d="M210.573 69.8511C209.331 72.7198 207.535 75.3626 205.265 77.7795C207.309 78.2313 210.449 78.7621 210.449 78.7621" fill="#FF9796"/>
<path d="M214.932 70.2123C215.542 69.7153 216.445 69.6927 217.19 69.9525C217.936 70.2236 218.568 70.7318 219.02 71.3417L218.693 71.2965C219.065 71.1497 219.461 71.0367 219.867 70.9464C219.585 71.2513 219.28 71.5224 218.952 71.7596L218.828 71.8612L218.636 71.7144C218.354 71.4998 218.083 71.2965 217.8 71.1158C217.518 70.9351 217.236 70.7544 216.931 70.6301C216.321 70.3591 215.688 70.1671 214.932 70.2123Z" fill="black"/>
<path d="M205.953 68.5524C205.524 68.462 205.117 68.6088 204.993 68.8686C204.654 69.5576 204.812 70.2239 205.173 70.9129C205.445 71.4324 206.156 71.7373 206.653 71.2517C207.319 70.5966 206.935 68.6201 205.953 68.5524Z" fill="black"/>
<path d="M208.675 69.8283L207.681 69.3878C207.354 69.2636 207.049 69.1281 206.732 69.0603C206.416 68.9699 206.111 68.9361 205.795 68.9361C205.49 68.9361 205.163 69.0038 204.914 69.1055L204.609 69.2297L204.519 69.0377C204.327 68.6537 204.157 68.2471 204.033 67.8066C204.383 68.089 204.7 68.3939 204.982 68.7215L204.587 68.6537C204.948 68.3601 205.343 68.2471 205.75 68.2132C206.156 68.1681 206.574 68.2584 206.947 68.3826C207.692 68.6537 208.291 69.1845 208.675 69.8283Z" fill="black"/>
<path d="M223.244 133.832C223.244 133.832 229.479 123.939 235.487 117.817C226.791 125.542 221.132 134.069 221.663 133.934C222.781 133.889 223.244 133.832 223.244 133.832Z" fill="#0EAA76"/>
<path d="M235.149 100.774C238.435 101.204 239.734 101.678 241.632 102.627C242.625 103.124 243.902 103.835 244.5 104.773C245.584 106.467 244.376 108.669 243.1 110.228C239.734 114.339 235.713 117.829 231.885 121.488C229.953 123.329 228.056 125.215 226.317 127.248C224.713 129.111 222.499 131.506 221.765 133.877C224.916 134.51 231.523 131.754 230.529 137.582C230.247 139.22 229.231 140.62 228.282 141.987C218.987 155.348 214.593 170.561 210.584 186.113C212.244 172.933 212.03 157.369 215.361 144.449C219.28 129.224 226.08 114.508 233.556 100.684C233.556 100.684 235.668 100.842 236.888 101.068" fill="#2EEDA8"/>
<path d="M151.075 250.162C150.995 250.162 143.496 250.534 143.496 250.534C143.282 251.393 143.078 252.24 142.864 253.098C142.694 253.776 142.525 254.465 142.367 255.142C142.299 255.436 141.825 257.277 141.757 257.571C141.655 257.988 141.441 251.302 142.186 249.405C143.507 246.062 148.454 246.107 149.211 246.005C149.968 247.632 151.052 250.162 151.075 250.162Z" fill="#071851"/>
<path d="M123.145 316.503C123.28 316.323 123.438 315.905 123.551 315.6L123.901 314.572L124.556 312.505L125.776 308.338L128.182 299.991L133.061 283.321C134.71 277.776 136.551 272.275 138.267 266.741C139.995 261.219 141.678 255.651 142.841 250.015L142.898 249.755L143.169 249.744C150.736 249.439 158.303 248.535 165.87 247.914L188.583 245.96C196.15 245.316 203.739 244.819 211.318 244.3C218.896 243.769 226.486 243.317 234.087 242.888L234.109 243.091C226.587 244.243 219.032 245.17 211.465 245.96C203.897 246.762 196.33 247.519 188.752 248.095C181.174 248.648 173.584 249.168 165.983 249.574C162.188 249.789 158.382 249.947 154.587 250.083C150.781 250.229 146.986 250.365 143.169 250.421L143.497 250.15C142.198 255.843 140.605 261.388 139.239 267.035C137.816 272.659 136.404 278.284 134.777 283.841C133.151 289.397 131.401 294.931 129.571 300.432C128.645 303.176 127.707 305.921 126.702 308.654C126.205 310.02 125.674 311.364 125.144 312.72L124.308 314.741C124.161 315.08 124.014 315.408 123.845 315.735L123.585 316.221C123.472 316.379 123.449 316.537 123.201 316.707L123.145 316.503Z" fill="#071851"/>
<path d="M164.413 227.958C196.172 235.875 207.636 250.376 234.731 245.046C250.045 242.471 245.754 208.746 245.754 208.746C239.519 206.781 220.579 203.562 220.579 203.562C187.171 199.214 169.473 198.604 142.164 198.909C142.164 198.909 130.565 200.287 129.955 210.655C129.345 221.023 170.117 277.437 179.276 293.802C183.399 293.802 188.368 287.218 187.34 284.767C185.816 281.108 165.882 232.475 165.882 232.475" fill="#091D70"/>
<path d="M164.21 227.732C174.962 231.007 191.824 237.264 204.338 242.764C200.453 240.132 187.86 234.452 178.023 230.103C175.199 228.861 162.922 220.684 158.337 220.955L164.21 227.732Z" fill="#071851"/>
<path d="M155.187 218.877C158.338 220.334 161.195 222.581 163.352 225.439C165.532 228.307 166.819 231.662 168.051 234.869L171.699 244.526C172.884 247.767 174.014 251.054 174.827 254.431C173.223 251.347 171.71 248.253 170.253 245.124C168.785 241.996 167.418 238.822 166.176 235.569C164.99 232.328 163.838 229.143 162.076 226.32C160.28 223.496 157.897 221.034 155.187 218.877Z" fill="#071851"/>
<path d="M200.159 240.697C202.271 241.691 204.44 242.516 206.665 243.137C208.867 243.803 211.114 244.3 213.385 244.661C214.514 244.876 215.655 244.955 216.784 245.125C217.925 245.192 219.066 245.35 220.206 245.339L221.923 245.396C222.499 245.407 223.064 245.373 223.64 245.373C224.78 245.373 225.921 245.271 227.062 245.181C228.214 245.147 229.287 244.899 230.405 244.741C230.97 244.684 231.489 244.481 232.02 244.345C232.551 244.176 233.093 244.063 233.612 243.86C235.702 243.103 237.599 241.94 239.282 240.494C242.591 237.524 244.681 233.198 245.46 228.613C245.505 233.266 243.8 238.122 240.366 241.623C238.65 243.363 236.538 244.695 234.29 245.633C233.737 245.881 233.138 246.005 232.551 246.197C231.963 246.356 231.387 246.593 230.789 246.661C229.603 246.841 228.394 247.135 227.22 247.169C222.499 247.53 217.699 247.293 213.091 246.186C208.472 245.158 203.999 243.385 200.159 240.697Z" fill="#071851"/>
<path d="M238.864 57.7663C238.728 58.9522 239.248 60.2849 240.343 60.7366C240.886 60.9625 241.495 60.9512 242.083 60.8947C242.309 60.8721 242.58 60.8044 242.625 60.5785C242.681 60.3074 242.354 60.138 242.105 60.0138C241.382 59.6411 240.998 58.8279 240.84 58.0373C240.716 57.4274 240.953 55.4397 240.05 55.451C239.27 55.4623 238.932 57.1903 238.864 57.7663Z" fill="#E06934"/>
<path d="M258.335 81.3597C258.03 81.45 257.714 81.5404 257.454 81.7324C257.194 81.9244 257.025 82.2632 257.127 82.5682C257.217 82.8392 257.488 82.986 257.748 83.1103C259.16 83.8218 260.616 84.443 262.107 84.9625C261.96 84.0929 260.402 84.1154 260.221 83.2458C260.12 82.7376 260.571 82.3084 260.921 81.9244C261.305 81.4952 262.491 79.7446 261.497 79.7559C261.125 79.7559 260.549 80.3319 260.232 80.5126C259.623 80.874 258.99 81.1564 258.335 81.3597Z" fill="#E06934"/>
<path d="M218.071 51.1139C216.174 48.6857 213.238 47.0932 210.177 46.7996C207.105 46.5172 203.931 47.5337 201.616 49.5666C197.821 52.8871 196.534 58.4212 192.694 61.6965C191.09 63.0744 189.373 63.4132 186.854 63.1422C192.852 64.825 199.538 64.7008 205.591 63.5262C208.426 62.9728 211.148 62.0805 213.52 60.4316C215.892 58.7826 217.541 55.7671 217.755 52.8871C218.015 53.0904 218.263 53.2824 218.523 53.4857" fill="#EF8137"/>
<path d="M229.219 205.188C229.276 205.358 229.456 205.527 229.614 205.618C233.353 207.865 237.306 209.977 240.197 213.252C241.406 214.619 242.388 216.155 243.258 217.748C244.014 219.148 244.545 220.661 245.133 222.141C245.234 222.401 245.822 223.146 245.934 222.898C246.409 221.746 246.014 213.569 245.776 211.784C245.652 210.802 245.494 209.751 244.873 208.972C244.274 208.227 243.337 207.854 242.422 207.617C238.209 206.555 234.053 205.392 229.727 204.816C229.569 204.793 229.389 204.782 229.276 204.895C229.185 204.985 229.174 205.087 229.219 205.188Z" fill="#071851"/>
<path d="M241.078 183.617C241.078 183.617 246.804 200.942 251.683 208.046C248.938 211.378 234.166 206.612 222.601 203.641" fill="#00D593"/>
<path d="M228.101 74.2105C228.937 72.9681 230.179 72.0081 231.58 71.4999C231.117 71.1949 230.496 71.3531 229.999 71.5789C229.502 71.8048 228.993 72.1211 228.44 72.0985C227.853 72.0872 227.435 71.658 227.13 71.2175C226.983 72.1888 227.582 73.4312 228.101 74.2105Z" fill="#E06934"/>
<path d="M206.19 63.0631C208.957 61.0753 211.736 59.0989 214.503 57.1111C215.96 56.0721 215.813 57.7549 215.158 58.5906C214.469 59.4942 213.565 60.2735 212.628 60.9059C211.679 61.561 210.64 62.0805 209.556 62.4419C208.754 62.7243 206.789 62.6339 206.19 63.0631Z" fill="#E06934"/>
<path d="M194.117 120.629C194.365 121.883 194.309 123.171 194.196 124.424C194.083 125.678 193.857 126.909 193.597 128.14C193.033 130.58 192.31 132.974 191.146 135.233C191.282 132.692 191.756 130.263 192.287 127.846C192.57 126.638 192.852 125.441 193.168 124.244L194.117 120.629Z" fill="#0EAA76"/>
<path d="M270.544 141.851C272.984 146.832 274.689 152.275 274.723 157.821C273.006 156.364 272.103 154.15 271.617 151.948C271.131 149.745 270.973 147.475 270.431 145.284C269.799 142.754 268.647 140.394 267.45 138.079C266.648 136.52 265.823 134.984 264.965 133.448C264.344 132.33 263.18 130.975 263.067 129.676C266.06 133.143 268.522 137.728 270.544 141.851Z" fill="#2EEDA8"/>
<path d="M264.818 173.147C265.53 174.299 266.592 175.214 267.777 175.858C268.963 176.501 270.262 176.919 271.584 177.202C269.562 177.077 267.529 176.964 265.507 176.84C265.157 175.948 264.976 174.999 264.976 174.039" fill="#0EAA76"/>
<path d="M253.039 66.2822C257.624 68.0667 260.866 72.8441 260.82 77.757C258.731 74.1768 256.145 70.8789 253.174 67.9876C252.96 67.7731 252.734 67.5585 252.621 67.2761C252.519 66.9938 252.576 66.621 252.835 66.4629C253.242 66.2145 253.716 66.6211 254.021 66.9825" fill="#FFA466"/>
<path d="M207.162 47.9292C205.185 48.4036 203.514 49.7024 202.136 51.1932C200.758 52.6841 199.617 54.3669 198.296 55.9142C200.453 54.1975 202.633 52.4695 205.072 51.1932C207.252 50.0412 209.432 49.6573 211.792 49.1603C211.612 47.5904 208.336 47.6469 207.162 47.9292Z" fill="#FFA466"/>
<path d="M231.06 62.1256C229.298 63.7858 226.463 63.8762 224.249 62.9049C222.996 62.3515 221.573 61.4254 220.714 60.3411C219.574 58.9068 219.924 58.4663 221.561 59.1326C224.746 60.4315 227.57 61.7642 231.06 62.1256Z" fill="#FFA466"/>
<path d="M190.175 80.2188C188.887 80.9078 187.792 81.9242 187.498 83.2682C187.351 83.9685 187.374 84.7026 187.408 85.4254C187.419 85.5948 187.431 85.7755 187.566 85.8772C188.052 86.2273 188.594 84.7139 188.729 84.4541C189.192 83.528 189.814 82.7261 190.661 82.1275C191.079 81.8339 195.472 79.8009 193.721 79.2927C193.507 79.2362 193.292 79.2475 193.066 79.2814C192.163 79.4056 191.112 79.7219 190.175 80.2188Z" fill="#FFA466"/>
<path d="M239.723 208.283L224.826 205.911L209.94 203.63C204.982 202.862 200.002 202.218 195.032 201.518C192.547 201.19 190.051 200.863 187.555 200.592C185.071 200.23 182.563 200.038 180.067 199.699C182.586 199.699 185.105 199.745 187.623 199.858C190.142 199.982 192.649 200.174 195.168 200.366C200.193 200.795 205.197 201.405 210.177 202.139C215.158 202.907 220.128 203.743 225.052 204.782C227.514 205.301 229.976 205.832 232.427 206.397C234.855 206.995 237.306 207.583 239.723 208.283Z" fill="#071851"/>
<path d="M244.353 203.912C243.687 204.319 242.839 204.533 242.049 204.567C241.281 204.601 237.78 204.206 238.231 205.663C238.649 206.984 240.807 207.233 241.936 207.436C244.353 207.876 246.013 208.091 247.944 207.955C248.43 207.922 248.983 207.842 249.232 207.425C249.526 206.939 248.995 205.832 248.69 205.346C248.148 204.488 247.877 203.46 247.447 202.546C247.188 202.003 246.713 200.964 246.183 200.626C245.618 200.264 245.731 201.484 245.719 201.721C245.64 202.636 245.132 203.426 244.353 203.912Z" fill="#2EEDA8"/>
<path d="M247.889 118.495C248.781 117.49 249.696 116.462 250.836 115.75C251.977 115.039 253.411 114.655 254.699 115.039C255.795 115.366 256.653 116.191 257.477 116.993C256.156 115.694 255.49 109.561 252.847 110.6C250.712 111.458 248.691 116.53 247.889 118.495Z" fill="#2EEDA8"/>
<path d="M239.654 52.684C238.909 51.5998 238.559 50.3349 237.712 49.2845C237.305 48.7763 236.842 48.3019 236.345 47.884C236.04 47.6243 235.284 46.8563 234.877 46.845C236.526 46.8901 238.13 47.8614 239.214 49.0586C240.343 50.3123 241.021 51.9725 241.089 53.6553C240.49 53.6101 239.982 53.181 239.654 52.684Z" fill="#FFA466"/>
<path d="M279.286 231.368C279.286 235.107 279.286 239.85 279.286 243.577C288.175 243.622 299.627 242.504 309.17 241.838C309.159 237.704 309.17 233.672 309.17 229.539L279.286 231.368Z" fill="#EA4E4E"/>
<path d="M280.009 209.243C283.95 212.552 288.163 216.381 292.105 219.69C290.445 215.443 287.598 212.654 285.486 209.401" fill="#FFC1AF"/>
<path d="M290.851 214.009C292.082 215.071 295.143 218.154 295.29 218.38C294.906 217.928 294.16 217.567 293.675 217.228C293.121 216.844 292.568 216.46 292.003 216.087C291.427 215.703 290.851 215.331 290.275 214.958C289.925 214.732 289.496 214.574 289.213 214.258C288.92 213.93 288.694 213.49 288.434 213.128C287.824 212.315 287.158 211.558 286.424 210.858C287.135 211.084 289.654 212.981 290.851 214.009Z" fill="#FF9796"/>
<path d="M294.386 215.116C293.968 214.246 293.844 213.388 293.212 212.586C292.647 211.875 291.879 211.197 291.021 210.858C292.432 212.021 293.596 213.456 294.386 215.116Z" fill="#FF9796"/>
<path d="M279.58 209.209C279.467 209.164 279.365 209.13 279.286 209.107C278.835 208.972 278.326 208.961 277.909 209.164C277.558 209.345 277.299 209.65 277.05 209.966C276.813 210.271 276.079 210.971 276.124 211.366C276.869 210.61 277.592 209.74 278.71 209.571C279.354 209.469 279.919 209.808 280.54 209.819C280.416 209.559 279.953 209.345 279.58 209.209Z" fill="#FF9796"/>
<path d="M223.064 150.694C219.71 157.301 214.842 168.449 212.063 181.166C215.689 170.222 215.971 168.821 218.704 161.842C221.855 153.789 224.882 147.125 223.064 150.694Z" fill="#0EAA76"/>
<path d="M207.535 82.6475C208.178 82.5458 208.528 82.6362 210.844 83.4832C214.176 84.703 215.407 83.8559 215.407 83.8559C215.407 83.8559 212.888 85.7533 209.059 85.5049C207.693 85.4145 206.947 85.0305 206.541 84.4997C206.484 83.5284 206.959 82.7378 207.535 82.6475Z" fill="#FC5959"/>
<path d="M230.733 84.4882C230.473 85.1997 229.694 85.7531 228.836 85.7531C227.977 85.787 227.119 85.2675 226.701 84.4995C226.283 83.7202 226.34 82.7263 226.848 82.0261C227.322 81.3146 228.226 80.987 228.96 81.1564C228.226 81.3259 227.684 81.8002 227.412 82.3649C227.141 82.9296 227.164 83.5847 227.446 84.0929C227.717 84.6124 228.248 84.9964 228.869 85.0868C229.479 85.1884 230.18 85.0077 230.733 84.4882Z" fill="#BC983F"/>
<path d="M241.156 149.983C240.931 152.095 239.959 154.072 238.683 155.766C237.407 157.46 235.837 158.917 234.278 160.351C235.555 159.538 237.407 160.396 238.672 159.572C239.203 159.233 239.519 158.657 239.824 158.104C240.411 157.019 240.998 155.935 241.597 154.851" fill="#0EAA76"/>
<path d="M172.68 139.66C183.85 148.481 186.301 153.247 186.301 153.247C186.301 153.247 181.919 163.265 174.521 161.797C170.998 161.096 165.802 154.376 161.273 147.408C160.539 143.715 167.361 137.356 172.68 139.66Z" fill="#00D593"/>
<path d="M158.19 125.306C158.8 124.323 159.693 125.577 159.693 125.577C159.693 125.577 172.308 140.372 174.047 142.958C175.267 144.777 174.962 147.171 172.353 148.933C169.157 151.101 165.859 150.153 162.844 144.528C158.823 135.346 154.294 129.586 154.294 129.586" fill="#FFC1AF"/>
<path d="M154.543 119.67L141.724 110.612C141.724 110.612 140.82 109.968 139.883 109.968C139.07 109.968 133.795 110.047 132.406 110.07C132.203 110.07 132.045 110.217 132 110.409L131.548 111.538L152.803 125.814L154.543 119.67Z" fill="#008CFF"/>
<path d="M154.317 121.59L141.453 112.419C141.453 112.419 140.549 111.775 139.612 111.775C138.675 111.775 132.045 111.9 132.045 111.9L152.781 125.837L154.317 121.59Z" fill="#091D70"/>
<path d="M147.292 123.272C146.354 123.385 145.575 121.838 145.146 121.206C144.287 119.918 141.487 115.943 140.222 116.338C139.928 117.027 143.87 125.836 145.338 127.101C146.162 127.813 147.292 127.203 148.308 127.598C149.076 127.892 149.325 128.626 150.149 128.829C151.132 129.089 152.16 128.502 153.153 128.886C153.763 129.123 153.797 129.597 154.441 129.665C155.085 129.721 155.683 129.292 156.338 129.281C156.858 129.27 157.355 129.541 157.874 129.529C159.094 129.507 160.461 128.513 160.822 127.35C160.98 126.841 161.206 126.39 161.319 125.859C161.455 125.226 161.5 124.571 161.534 123.916C161.545 123.735 161.545 123.543 161.488 123.374C161.409 123.126 161.24 122.922 161.048 122.753C160.517 122.245 159.907 121.782 159.218 121.533L158.303 121.748" fill="#FFC1AF"/>
<path d="M158.19 126.808C158.461 125.407 158.744 123.995 158.766 122.561C158.789 121.127 158.54 119.67 157.818 118.427C157.727 118.269 157.614 118.111 157.434 118.077C157.106 118.021 156.643 118.371 156.564 118.698C156.564 118.698 156.564 123.397 155.954 124.549" fill="#FFC1AF"/>
<path d="M148.5 123.408C148.85 122.109 149.596 120.505 150.002 119.297C150.397 118.088 151.12 115.434 152.668 115.434C153.661 116.259 152.893 121.319 152.374 123.555" fill="#FFC1AF"/>
<path d="M152.905 124.142C153.357 121.612 153.809 119.082 154.261 116.564C154.283 116.428 154.317 116.293 154.407 116.191C154.611 116.01 154.927 116.146 155.142 116.304C155.853 116.858 156.316 117.682 156.553 118.54C156.79 119.399 156.824 120.314 156.79 121.217C156.734 122.674 156.508 124.131 156.113 125.531" fill="#FFC1AF"/>
<path d="M189.882 147.216C188.572 149.825 187.307 152.287 185.76 154.772C184.032 157.55 181.931 159.877 179.266 161.074C182.948 157.573 184.89 150.265 180.903 146.312C181.931 146.516 182.868 147.047 183.862 147.385C184.856 147.724 186.02 147.86 186.912 147.295" fill="#0EAA76"/>
<path d="M160.912 127.011C160.765 127.429 160.607 127.835 160.279 128.163C160.652 128.14 160.539 128.965 160.957 128.908C161.601 128.829 162.516 129.01 162.809 129.281C162.47 128.727 160.912 127.011 160.912 127.011Z" fill="#FF9796"/>
<path d="M165.068 147.679C167.203 149.644 168.908 150.017 170.986 149.452C173.065 148.887 174.894 146.674 174.521 144.087C173.934 145.691 171.992 147.069 170.297 147.205C168.603 147.329 166.921 146.663 165.531 145.669C164.187 144.709 163.25 143.41 162.053 142.303C162.922 144.641 163.769 146.482 165.068 147.679Z" fill="#FF9796"/>
<path d="M156.948 121.195C157.005 120.494 156.835 119.5 156.587 118.631C156.824 118.54 157.129 119.015 157.197 119.15C157.547 120.02 157.694 121.195 157.084 122.019C157.005 122.121 156.926 122.211 156.824 122.29C156.892 121.782 156.937 121.432 156.948 121.195Z" fill="#FF9796"/>
<path d="M146.444 122.742C145.654 122.053 145.168 120.596 144.287 120.031C144.355 120.539 144.716 121.262 144.886 121.748C145.055 122.234 145.349 122.697 145.778 122.979C146.173 123.25 146.67 123.352 147.156 123.34C147.449 123.329 147.754 123.284 148.037 123.216C147.495 123.329 146.851 123.103 146.444 122.742Z" fill="#FF9796"/>
<path d="M161.172 128.863C161.601 128.694 160.81 127.35 160.81 127.35C160.336 128.185 159.082 129.507 157.863 129.529C157.343 129.541 156.846 129.27 156.327 129.281C155.683 129.292 154.983 129.699 154.339 129.642C154.339 129.642 154.689 130.071 155.389 129.857C155.999 129.71 156.123 129.62 156.496 129.62C156.869 129.62 157.863 130.015 158.529 129.789C159.195 129.563 159.76 129.123 159.997 129.021C160.234 128.908 160.901 128.976 161.172 128.863Z" fill="#FF9796"/>
<path d="M174.296 88.046H100.162C99.5405 88.046 99.0322 87.5378 99.0322 86.9166V42.5872C99.0322 41.966 99.5405 41.4578 100.162 41.4578H174.296C174.917 41.4578 175.426 41.966 175.426 42.5872V86.9166C175.426 87.5378 174.929 88.046 174.296 88.046Z" fill="#008CFF"/>
<path d="M125.811 75.2385L104.126 76.9891V81.1453H170.343C170.343 81.1453 170.343 79.4399 170.343 76.0178L148.478 76.9101L125.811 75.2385Z" fill="#071851"/>
<path d="M120.909 72.1326L104.126 75.5208V76.9891L125.822 75.2385L148.489 76.91L170.355 76.0178C170.355 74.1204 170.355 66.6437 170.355 64.8479L149.901 72.2568L136.382 69.5237L120.909 72.1326Z" fill="#203FA0"/>
<path d="M104.126 75.521L120.909 72.144L136.371 69.5238L149.89 72.257L170.343 64.848C170.343 66.6438 170.343 49.0476 170.343 48.2344L160.134 59.8786L148.647 65.8984L133.988 64.8932L123.529 68.033L115.194 67.4908L104.126 72.7652V75.521Z" fill="#D4EEFC"/>
<path d="M104.328 85.4485C109.761 89.2207 115.182 93.0268 120.58 96.8555L136.754 108.376H136.426L153.22 96.8443C158.834 93.0155 164.458 89.2207 170.105 85.4485C164.582 89.3901 159.037 93.3092 153.469 97.2057L136.742 108.839C136.641 108.906 136.516 108.906 136.415 108.839L120.321 97.2057C114.978 93.3092 109.648 89.3901 104.328 85.4485Z" fill="#061544"/>
<path d="M146.941 85.4485C145.304 89.345 143.655 93.2414 141.96 97.1153L136.844 108.714C136.776 108.861 136.618 108.918 136.472 108.861C136.415 108.839 136.359 108.793 136.336 108.737L130.373 97.1266C128.396 93.2527 126.454 89.3563 124.545 85.4485C126.646 89.2546 128.724 93.0833 130.768 96.9233L136.844 108.466L136.336 108.477L141.576 96.9233C143.327 93.0946 145.123 89.2659 146.941 85.4485Z" fill="#061544"/>
<path d="M308.255 91.2422C309.396 91.8295 310.401 92.6539 311.462 93.3768L314.568 95.6582L320.724 100.311L332.944 109.731C341.087 116.01 349.151 122.391 357.226 128.761L381.418 147.916L405.475 167.24L404.165 167.252L429.384 146.007C437.776 138.915 446.258 131.912 454.683 124.865L480.005 103.756C488.43 96.6972 496.923 89.7288 505.394 82.7264L505.891 82.3198L506.388 82.7151L534.25 104.693L562 126.819L533.652 105.461L505.416 83.9575L506.41 83.9349C498.041 91.0502 489.684 98.1994 481.269 105.258L456.05 126.502C447.636 133.573 439.267 140.688 430.807 147.713L405.486 168.821L404.831 169.364L404.176 168.833L380.221 149.396L356.334 129.879L332.413 110.397L320.43 100.684L314.41 95.8615L311.383 93.4784C310.356 92.7217 309.384 91.8634 308.255 91.2422Z" fill="#008CFF"/>
<path d="M308.447 97.3073C311.516 97.3073 314.004 94.779 314.004 91.6602C314.004 88.5415 311.516 86.0132 308.447 86.0132C305.378 86.0132 302.891 88.5415 302.891 91.6602C302.891 94.779 305.378 97.3073 308.447 97.3073Z" fill="#008CFF"/>
</g>
</svg>
