<?xml version="1.0" encoding="utf-8"?>
<!-- Generator: Adobe Illustrator 16.0.4, SVG Export Plug-In . SVG Version: 6.00 Build 0)  -->
<!DOCTYPE svg PUBLIC "-//W3C//DTD SVG 1.1//EN" "http://www.w3.org/Graphics/SVG/1.1/DTD/svg11.dtd">
<svg version="1.1" id="Layer_1" xmlns="http://www.w3.org/2000/svg" xmlns:xlink="http://www.w3.org/1999/xlink" x="0px" y="0px"
	 width="432.799px" height="192.799px" viewBox="0 0 432.799 192.799" enable-background="new 0 0 432.799 192.799"
	 xml:space="preserve">
<g>
	<path fill="#33006F" d="M63.891,21.86"/>
	<path fill="#4B2E83" d="M57.335,0v7.886h5.542l-6.188,23.028c0,0-7.571-30.485-7.679-30.914h-8.009
		c-0.114,0.418-8.306,30.915-8.306,30.915l-5.7-23.029h5.772V0H9.618v7.886h5.13c0,0,8.852,35.405,8.958,35.835H36.13
		c0.111-0.419,5.933-22.548,5.933-22.548s5.531,22.121,5.637,22.548h12.426c0.11-0.422,9.425-35.835,9.425-35.835h5.086V0H57.335z"
		/>
	<g>
		<g>
			<g>
				<path fill="#4B2E83" d="M194.383,9.796l0.551,0.551v2.149c-0.087,0.065-0.324,0.313-0.897,0.313
					c-1.221,0-1.944-1.437-1.944-2.753c0-1.33,0.724-2.754,1.944-2.754c0.302,0,0.519,0.086,0.722,0.302l0.876,0.874V7.15
					c-0.387-0.206-0.863-0.368-1.598-0.368c-1.729,0-3.154,1.502-3.154,3.273c0,1.771,1.426,3.272,3.154,3.272
					c1.211,0,1.437-0.227,1.868-0.465v-2.516l0.552-0.551H194.383z M180.494,6.869l0.54,0.551v5.271l-0.54,0.55h2.062l-0.551-0.55
					V7.42l0.551-0.551H180.494z M175.028,10.088h2.409v2.604l-0.551,0.55h2.063l-0.539-0.55V7.42l0.539-0.551h-2.063l0.551,0.551
					V9.57h-2.409V7.42l0.55-0.551h-2.073l0.551,0.551v5.271l-0.551,0.55h2.073l-0.55-0.55V10.088z M172.133,11.308
					c0-0.745-0.42-1.069-0.616-1.188l-1.534-0.95c-0.497-0.303-0.659-0.703-0.659-0.994c0-0.421,0.357-0.885,0.972-0.885
					c0.217,0,0.238,0.011,0.421,0.097l0.648,0.798l0.637-1.08l-1.264-0.238c-0.194-0.032-0.206-0.043-0.497-0.043
					c-0.864,0-1.827,0.551-1.827,1.706c0,0.574,0.325,1.135,0.854,1.458l1.535,0.952c0.302,0.184,0.443,0.54,0.443,0.832
					c0,0.398-0.249,1.123-1.102,1.123c-0.204,0-0.334-0.033-0.518-0.13l-0.703-0.887l-0.636,1.167l1.318,0.238
					c0.151,0.033,0.28,0.043,0.475,0.043C171.518,13.328,172.133,12.334,172.133,11.308 M164.325,8.371l0.853,2.549h-1.728
					L164.325,8.371z M162.845,12.702l0.421-1.264h2.084l0.422,1.264l-0.541,0.54h2.16l-0.561-0.562l-1.976-5.811h-0.594
					l-2.031,5.811l-0.562,0.562h1.718L162.845,12.702z M155.98,13.242l1.318-4.136l1.286,4.136h0.594l1.846-5.812l0.551-0.561
					h-1.707l0.542,0.541l-1.308,4.233L157.85,7.41l0.539-0.541h-2.16l0.551,0.561l0.216,0.703l-1.091,3.51l-1.252-4.233l0.541-0.541
					h-2.161l0.552,0.561l1.803,5.812H155.98z M146.906,9.422c0.27-1.723,0.467-2.1,0.719-2.1c0.215,0,0.439,0.116,0.655,0.323
					c0.089,0.089,0.232,0.081,0.323,0c0.081-0.072,0.225-0.224,0.225-0.412c0-0.216-0.243-0.396-0.583-0.396
					c-0.575,0-1.14,0.351-1.508,0.763c-0.384,0.439-0.619,1.076-0.744,1.821h-0.548L145.183,9.7l0.028,0.089h0.708
					c-0.117,0.781-0.214,1.48-0.376,2.593c-0.234,1.58-0.395,2.172-0.53,2.307c-0.071,0.071-0.144,0.107-0.224,0.107
					c-0.108,0-0.306-0.107-0.421-0.161c-0.109-0.045-0.207,0-0.271,0.063c-0.08,0.07-0.17,0.242-0.17,0.394
					c0,0.206,0.225,0.288,0.386,0.288c0.197,0,0.628-0.143,1.041-0.584c0.385-0.413,0.817-1.282,1.148-3.023
					c0.126-0.637,0.216-1.194,0.341-1.984L147.75,9.7l0.207-0.278H146.906z M142.122,9.593c0.359,0,0.593,0.324,0.593,0.987
					c0.018,1.184-0.521,2.198-0.862,2.315c-0.063,0.018-0.125,0.037-0.216,0.037c-0.412,0-0.646-0.44-0.646-1.131
					c0-1.356,0.583-2.037,0.861-2.154C141.934,9.61,142.023,9.593,142.122,9.593 M142.427,9.207c-0.295,0-0.727,0.098-1.122,0.331
					c-0.637,0.379-1.283,1.176-1.283,2.379c0,0.655,0.305,1.399,1.265,1.399c0.449,0,1.059-0.26,1.445-0.61
					c0.601-0.529,0.951-1.409,0.951-2.208C143.684,9.754,143.227,9.207,142.427,9.207 M131.481,7.43l1.62,2.852v2.41l-0.551,0.55
					h2.063l-0.54-0.55v-2.398l1.566-2.873l0.552-0.551h-1.707l0.54,0.541l-1.221,2.278L132.55,7.41l0.541-0.541h-2.161L131.481,7.43
					z M128.187,12.691V7.388h1.069l0.724,0.734V6.869h-4.569v1.253l0.724-0.734h1.08v5.303l-0.551,0.55h2.063L128.187,12.691z
					 M121.901,6.869l0.54,0.551v5.271l-0.54,0.55h2.063l-0.551-0.55V7.42l0.551-0.551H121.901z M120.433,11.308
					c0-0.745-0.422-1.069-0.616-1.188l-1.534-0.95c-0.497-0.303-0.658-0.703-0.658-0.994c0-0.421,0.355-0.885,0.971-0.885
					c0.216,0,0.238,0.011,0.422,0.097l0.647,0.798l0.638-1.08l-1.264-0.238c-0.194-0.032-0.205-0.043-0.497-0.043
					c-0.865,0-1.825,0.551-1.825,1.706c0,0.574,0.324,1.135,0.853,1.458l1.534,0.952c0.302,0.184,0.443,0.54,0.443,0.832
					c0,0.398-0.249,1.123-1.102,1.123c-0.205,0-0.335-0.033-0.518-0.13l-0.703-0.887l-0.636,1.167l1.317,0.238
					c0.151,0.033,0.281,0.043,0.476,0.043C119.816,13.328,120.433,12.334,120.433,11.308 M112.115,7.388h0.638
					c0.637,0,1.091,0.582,1.091,1.23c0,0.616-0.476,1.178-1.091,1.178h-0.638V7.388z M115.171,12.691l-1.403-2.561
					c0.703-0.227,1.188-0.854,1.188-1.512c0-1.101-1.125-1.75-2.204-1.75h-2.16l0.551,0.551v5.271l-0.551,0.55h2.073l-0.551-0.55
					v-2.376h0.713l1.522,2.927h1.372L115.171,12.691z M109.157,13.242v-1.253l-0.724,0.735h-1.75v-2.635h1.253l0.551,0.551V9.02
					l-0.551,0.55h-1.253V7.388h1.75l0.724,0.734V6.869h-3.997l0.551,0.551v5.271l-0.551,0.55H109.157z M101.023,6.869h-2.16
					l0.55,0.561l1.805,5.812h0.594l1.847-5.812l0.562-0.561h-1.717l0.54,0.541l-1.307,4.233l-1.252-4.233L101.023,6.869z
					 M95.666,6.869l0.54,0.551v5.271l-0.54,0.55h2.063l-0.551-0.55V7.42l0.551-0.551H95.666z M89.941,12.691V8.145l3.267,5.104
					h0.417V7.42l0.55-0.551h-1.706L93.02,7.42v3.64l-2.647-4.191h-1.598l0.551,0.551v5.271l-0.551,0.55h1.717L89.941,12.691z
					 M82.619,11.535c0,1.102,1.015,1.848,2.105,1.848c1.091,0,2.105-0.746,2.105-1.848V7.42l0.552-0.551h-1.717l0.551,0.551v4.114
					c0,0.713-0.604,1.275-1.307,1.275c-0.713,0-1.318-0.562-1.318-1.275V7.42l0.55-0.551h-2.073l0.551,0.551V11.535z"/>
				<polygon fill="#4B2E83" points="185.729,12.715 185.729,8.167 188.996,13.271 189.412,13.271 189.412,7.443 189.962,6.893 
					188.256,6.893 188.807,7.443 188.807,11.084 186.161,6.893 184.562,6.893 185.113,7.443 185.113,12.715 184.562,13.266 
					186.279,13.266 				"/>
				<polygon fill="#4B2E83" points="210.688,12.687 210.688,8.14 213.957,13.244 214.374,13.244 214.374,7.416 214.924,6.866 
					213.217,6.866 213.768,7.416 213.768,11.056 211.122,6.866 209.523,6.866 210.073,7.416 210.073,12.687 209.523,13.238 
					211.24,13.238 				"/>
				<polygon fill="#4B2E83" points="200.237,12.715 200.237,7.411 201.306,7.411 202.029,8.145 202.029,6.893 197.46,6.893 
					197.46,8.145 198.185,7.411 199.264,7.411 199.264,12.715 198.713,13.266 200.775,13.266 				"/>
				<path fill="#4B2E83" d="M204.14,10.11c0-1.264,0.324-2.798,1.545-2.798c1.21,0,1.533,1.534,1.533,2.798
					s-0.323,2.798-1.533,2.798C204.464,12.908,204.14,11.374,204.14,10.11 M202.942,10.11c0,1.663,1.058,3.327,2.743,3.327
					c1.675,0,2.733-1.664,2.733-3.327s-1.059-3.327-2.733-3.327C204,6.783,202.942,8.447,202.942,10.11"/>
			</g>
		</g>
		<g>
			<path fill="#4B2E83" d="M87.514,32.216l0.813-0.813v-4.342h-4.313v4.342l0.813,0.813h-2.759l0.813-0.813v-8.656l-0.813-0.813
				h2.759l-0.813,0.813v3.543h4.313v-3.543l-0.813-0.813h2.759l-0.813,0.813v8.656l0.813,0.813H87.514z"/>
			<path fill="#4B2E83" d="M99.527,22.82v6.507c0,2.019-1.656,3.107-3.326,3.107c-1.757,0-3.18-1.19-3.18-3.107V22.82l-0.887-0.886
				h2.978l-0.886,0.886v6.507c0,1.393,1.061,2.266,2.266,2.266c1.176,0,2.121-0.873,2.121-2.266V22.82l-0.886-0.886h2.687
				L99.527,22.82z"/>
			<path fill="#4B2E83" d="M109.709,32.216l0.813-0.813v-7.829l-3.253,5.636l-3.267-5.636v7.829l0.812,0.813h-2.542l0.813-0.813
				v-8.656l-0.813-0.813h2.12l3.094,5.403l3.108-5.403h1.873l-0.813,0.813v8.656l0.813,0.813H109.709z"/>
			<path fill="#4B2E83" d="M119.675,32.216l0.798-0.798l-0.711-2.179h-3.413l-0.741,2.179l0.799,0.798h-2.498l0.828-0.828
				l3.268-9.455h0.552l3.196,9.455l0.827,0.828H119.675z M118.092,24.097l-1.481,4.373h2.905L118.092,24.097z"/>
			<path fill="#4B2E83" d="M131.558,22.82v10.079l-5.81-9.266v7.697l0.886,0.886h-2.687l0.886-0.886V22.82l-0.886-0.886h2.063
				l4.633,7.421V22.82l-0.886-0.886h2.687L131.558,22.82z"/>
			<path fill="#4B2E83" d="M143.993,32.216l-2.469-4.792h-1.54v3.979l0.813,0.813h-2.759l0.812-0.813v-8.656l-0.812-0.813h3.195
				c1.7,0,3.252,1.031,3.252,2.774c0,0.974-0.754,2.063-1.859,2.469l2.295,4.226l0.813,0.813H143.993z M141.233,22.704h-1.249v3.951
				h1.249c1.075,0,1.976-0.858,1.976-1.976C143.209,23.575,142.337,22.704,141.233,22.704z"/>
			<path fill="#4B2E83" d="M147.189,32.216l0.813-0.813v-8.656l-0.813-0.813h6.159v1.874l-1.104-1.104h-3.109v3.66h2.31l0.814-0.812
				v2.396l-0.814-0.813h-2.31v4.313h3.109l1.104-1.104v1.874H147.189z"/>
			<path fill="#4B2E83" d="M158.011,32.304c-0.291,0-0.799-0.058-0.799-0.058l-1.976-0.377l0.886-1.612l0.987,1.176
				c0.189,0.087,0.61,0.145,0.901,0.145c1.162,0,1.729-0.813,1.729-1.83c0-0.508-0.204-1.103-0.944-1.655l-1.83-1.38
				c-0.988-0.741-1.336-1.568-1.336-2.338c0-1.003,0.827-2.527,2.614-2.527c0.261,0,0.77,0.072,0.915,0.102l1.685,0.319
				l-0.959,1.438l-0.916-1.002c-0.173-0.072-0.45-0.13-0.711-0.13c-0.711,0-1.525,0.421-1.525,1.496
				c0,0.523,0.363,1.162,1.162,1.757l1.83,1.38c0.639,0.479,1.147,1.119,1.147,2.121C160.872,31.287,159.246,32.304,158.011,32.304z
				"/>
			<path fill="#4B2E83" d="M167.192,32.434c-2.645,0-4.126-2.744-4.126-5.359c0-2.614,1.481-5.358,4.126-5.358
				c2.643,0,4.124,2.744,4.124,5.358C171.316,29.69,169.835,32.434,167.192,32.434z M167.192,22.486
				c-2.062,0-2.775,2.469-2.775,4.589c0,2.121,0.712,4.589,2.775,4.589c2.061,0,2.773-2.469,2.773-4.589
				C169.965,24.955,169.253,22.486,167.192,22.486z"/>
			<path fill="#4B2E83" d="M180.656,22.82v6.507c0,2.019-1.656,3.107-3.325,3.107c-1.758,0-3.181-1.19-3.181-3.107V22.82
				l-0.886-0.886h2.978l-0.887,0.886v6.507c0,1.393,1.061,2.266,2.267,2.266c1.175,0,2.12-0.873,2.12-2.266V22.82l-0.886-0.886
				h2.687L180.656,22.82z"/>
			<path fill="#4B2E83" d="M189.358,32.216l-2.469-4.792h-1.539v3.979l0.814,0.813h-2.76l0.813-0.813v-8.656l-0.813-0.813h3.193
				c1.7,0,3.255,1.031,3.255,2.774c0,0.974-0.756,2.063-1.86,2.469l2.295,4.226l0.813,0.813H189.358z M186.598,22.704h-1.248v3.951
				h1.248c1.076,0,1.977-0.858,1.977-1.976C188.574,23.575,187.703,22.704,186.598,22.704z"/>
			<path fill="#4B2E83" d="M196.695,32.362c-2.658,0-4.053-2.687-4.053-5.287s1.38-5.287,4.285-5.287c0.77,0,1.626,0.247,2.222,0.61
				v1.743l-1.118-1.118c-0.363-0.363-0.742-0.494-1.264-0.494c-1.975,0-2.774,2.483-2.774,4.545c0,2.078,0.872,4.546,2.774,4.546
				c0.522,0,0.901-0.13,1.264-0.493l1.118-1.12v1.743C198.568,32.115,197.813,32.362,196.695,32.362z"/>
			<path fill="#4B2E83" d="M201.242,32.216l0.813-0.813v-8.656l-0.813-0.813h6.158v1.874l-1.103-1.104h-3.109v3.66h2.31l0.814-0.812
				v2.396l-0.814-0.813h-2.31v4.313h3.109l1.103-1.104v1.874H201.242z"/>
			<path fill="#4B2E83" d="M212.063,32.304c-0.29,0-0.798-0.058-0.798-0.058l-1.975-0.377l0.886-1.612l0.987,1.176
				c0.188,0.087,0.61,0.145,0.9,0.145c1.163,0,1.729-0.813,1.729-1.83c0-0.508-0.204-1.103-0.944-1.655l-1.829-1.38
				c-0.989-0.741-1.336-1.568-1.336-2.338c0-1.003,0.827-2.527,2.614-2.527c0.261,0,0.77,0.072,0.915,0.102l1.686,0.319
				l-0.959,1.438l-0.915-1.002c-0.174-0.072-0.45-0.13-0.711-0.13c-0.711,0-1.525,0.421-1.525,1.496
				c0,0.523,0.363,1.162,1.162,1.757l1.83,1.38c0.639,0.479,1.147,1.119,1.147,2.121C214.924,31.287,213.298,32.304,212.063,32.304z
				"/>
		</g>
		
			<line fill="#4B2E83" stroke="#4B2E83" stroke-width="0.5" stroke-miterlimit="10" x1="82.068" y1="17.28" x2="214.923" y2="17.28"/>
	</g>
	<g>
		<path fill="#33006F" d="M63.891,21.86"/>
		<path fill="#4B2E83" d="M57.335,0v7.886h5.542l-6.188,23.028c0,0-7.571-30.485-7.679-30.914h-8.009
			c-0.114,0.418-8.306,30.915-8.306,30.915l-5.7-23.029h5.772V0H9.618v7.886h5.13c0,0,8.852,35.405,8.958,35.835H36.13
			c0.111-0.419,5.933-22.548,5.933-22.548s5.531,22.121,5.637,22.548h12.426c0.11-0.422,9.425-35.835,9.425-35.835h5.086V0H57.335z"
			/>
	</g>
</g>
<line fill="#B9A677" stroke="#B9A677" stroke-miterlimit="10" x1="288.288" y1="-0.412" x2="273.299" y2="55.527"/>
<g>
	<g>
		<g>
			<g>
				<path fill="#85754D" d="M194.383,63.353l0.551,0.551v2.149c-0.087,0.065-0.324,0.313-0.897,0.313
					c-1.221,0-1.944-1.437-1.944-2.753c0-1.33,0.724-2.754,1.944-2.754c0.302,0,0.519,0.086,0.722,0.302l0.876,0.874v-1.327
					c-0.387-0.206-0.863-0.368-1.598-0.368c-1.729,0-3.154,1.502-3.154,3.273c0,1.771,1.426,3.272,3.154,3.272
					c1.211,0,1.437-0.227,1.868-0.465v-2.516l0.552-0.551H194.383z M180.494,60.425l0.54,0.551v5.271l-0.54,0.55h2.062l-0.551-0.55
					v-5.271l0.551-0.551H180.494z M175.028,63.644h2.409v2.604l-0.551,0.55h2.063l-0.539-0.55v-5.271l0.539-0.551h-2.063
					l0.551,0.551v2.149h-2.409v-2.149l0.55-0.551h-2.073l0.551,0.551v5.271l-0.551,0.55h2.073l-0.55-0.55V63.644z M172.133,64.864
					c0-0.745-0.42-1.069-0.616-1.188l-1.534-0.95c-0.497-0.303-0.659-0.703-0.659-0.994c0-0.421,0.357-0.885,0.972-0.885
					c0.217,0,0.238,0.011,0.421,0.097l0.648,0.798l0.637-1.08l-1.264-0.238c-0.194-0.032-0.206-0.043-0.497-0.043
					c-0.864,0-1.827,0.551-1.827,1.706c0,0.574,0.325,1.135,0.854,1.458l1.535,0.952c0.302,0.184,0.443,0.54,0.443,0.832
					c0,0.398-0.249,1.123-1.102,1.123c-0.204,0-0.334-0.033-0.518-0.13l-0.703-0.887l-0.636,1.167l1.318,0.238
					c0.151,0.033,0.28,0.043,0.475,0.043C171.518,66.884,172.133,65.891,172.133,64.864 M164.325,61.927l0.853,2.549h-1.728
					L164.325,61.927z M162.845,66.258l0.421-1.264h2.084l0.422,1.264l-0.541,0.54h2.16l-0.561-0.562l-1.976-5.811h-0.594
					l-2.031,5.811l-0.562,0.562h1.718L162.845,66.258z M155.98,66.798l1.318-4.136l1.286,4.136h0.594l1.846-5.812l0.551-0.561
					h-1.707l0.542,0.541l-1.308,4.233l-1.252-4.233l0.539-0.541h-2.16l0.551,0.561l0.216,0.703l-1.091,3.51l-1.252-4.233
					l0.541-0.541h-2.161l0.552,0.561l1.803,5.812H155.98z M146.906,62.978c0.27-1.723,0.467-2.1,0.719-2.1
					c0.215,0,0.439,0.116,0.655,0.323c0.089,0.089,0.232,0.081,0.323,0c0.081-0.072,0.225-0.224,0.225-0.412
					c0-0.216-0.243-0.396-0.583-0.396c-0.575,0-1.14,0.351-1.508,0.763c-0.384,0.439-0.619,1.076-0.744,1.821h-0.548l-0.261,0.278
					l0.028,0.089h0.708c-0.117,0.781-0.214,1.48-0.376,2.593c-0.234,1.58-0.395,2.172-0.53,2.307
					c-0.071,0.071-0.144,0.107-0.224,0.107c-0.108,0-0.306-0.107-0.421-0.161c-0.109-0.045-0.207,0-0.271,0.063
					c-0.08,0.07-0.17,0.242-0.17,0.394c0,0.206,0.225,0.288,0.386,0.288c0.197,0,0.628-0.143,1.041-0.584
					c0.385-0.413,0.817-1.282,1.148-3.023c0.126-0.637,0.216-1.194,0.341-1.984l0.906-0.089l0.207-0.278H146.906z M142.122,63.149
					c0.359,0,0.593,0.324,0.593,0.987c0.018,1.184-0.521,2.198-0.862,2.315c-0.063,0.018-0.125,0.037-0.216,0.037
					c-0.412,0-0.646-0.44-0.646-1.131c0-1.356,0.583-2.037,0.861-2.154C141.934,63.167,142.023,63.149,142.122,63.149
					 M142.427,62.763c-0.295,0-0.727,0.098-1.122,0.331c-0.637,0.379-1.283,1.176-1.283,2.379c0,0.655,0.305,1.399,1.265,1.399
					c0.449,0,1.059-0.26,1.445-0.61c0.601-0.529,0.951-1.409,0.951-2.208C143.684,63.311,143.227,62.763,142.427,62.763
					 M131.481,60.986l1.62,2.852v2.41l-0.551,0.55h2.063l-0.54-0.55v-2.398l1.566-2.873l0.552-0.551h-1.707l0.54,0.541l-1.221,2.278
					l-1.253-2.278l0.541-0.541h-2.161L131.481,60.986z M128.187,66.248v-5.303h1.069l0.724,0.734v-1.253h-4.569v1.253l0.724-0.734
					h1.08v5.303l-0.551,0.55h2.063L128.187,66.248z M121.901,60.425l0.54,0.551v5.271l-0.54,0.55h2.063l-0.551-0.55v-5.271
					l0.551-0.551H121.901z M120.433,64.864c0-0.745-0.422-1.069-0.616-1.188l-1.534-0.95c-0.497-0.303-0.658-0.703-0.658-0.994
					c0-0.421,0.355-0.885,0.971-0.885c0.216,0,0.238,0.011,0.422,0.097l0.647,0.798l0.638-1.08l-1.264-0.238
					c-0.194-0.032-0.205-0.043-0.497-0.043c-0.865,0-1.825,0.551-1.825,1.706c0,0.574,0.324,1.135,0.853,1.458l1.534,0.952
					c0.302,0.184,0.443,0.54,0.443,0.832c0,0.398-0.249,1.123-1.102,1.123c-0.205,0-0.335-0.033-0.518-0.13l-0.703-0.887
					l-0.636,1.167l1.317,0.238c0.151,0.033,0.281,0.043,0.476,0.043C119.816,66.884,120.433,65.891,120.433,64.864 M112.115,60.944
					h0.638c0.637,0,1.091,0.582,1.091,1.23c0,0.616-0.476,1.178-1.091,1.178h-0.638V60.944z M115.171,66.248l-1.403-2.561
					c0.703-0.227,1.188-0.854,1.188-1.512c0-1.101-1.125-1.75-2.204-1.75h-2.16l0.551,0.551v5.271l-0.551,0.55h2.073l-0.551-0.55
					v-2.376h0.713l1.522,2.927h1.372L115.171,66.248z M109.157,66.798v-1.253l-0.724,0.735h-1.75v-2.635h1.253l0.551,0.551v-1.619
					l-0.551,0.55h-1.253v-2.182h1.75l0.724,0.734v-1.253h-3.997l0.551,0.551v5.271l-0.551,0.55H109.157z M101.023,60.425h-2.16
					l0.55,0.561l1.805,5.812h0.594l1.847-5.812l0.562-0.561h-1.717l0.54,0.541l-1.307,4.233l-1.252-4.233L101.023,60.425z
					 M95.666,60.425l0.54,0.551v5.271l-0.54,0.55h2.063l-0.551-0.55v-5.271l0.551-0.551H95.666z M89.941,66.248v-4.547l3.267,5.104
					h0.417v-5.828l0.55-0.551h-1.706l0.551,0.551v3.64l-2.647-4.191h-1.598l0.551,0.551v5.271l-0.551,0.55h1.717L89.941,66.248z
					 M82.619,65.091c0,1.102,1.015,1.848,2.105,1.848c1.091,0,2.105-0.746,2.105-1.848v-4.114l0.552-0.551h-1.717l0.551,0.551v4.114
					c0,0.713-0.604,1.275-1.307,1.275c-0.713,0-1.318-0.562-1.318-1.275v-4.114l0.55-0.551h-2.073l0.551,0.551V65.091z"/>
				<polygon fill="#85754D" points="185.729,66.271 185.729,61.724 188.996,66.828 189.412,66.828 189.412,61 189.962,60.449 
					188.256,60.449 188.807,61 188.807,64.64 186.161,60.449 184.562,60.449 185.113,61 185.113,66.271 184.562,66.822 
					186.279,66.822 				"/>
				<polygon fill="#85754D" points="210.688,66.243 210.688,61.696 213.957,66.8 214.374,66.8 214.374,60.972 214.924,60.422 
					213.217,60.422 213.768,60.972 213.768,64.612 211.122,60.422 209.523,60.422 210.073,60.972 210.073,66.243 209.523,66.794 
					211.24,66.794 				"/>
				<polygon fill="#85754D" points="200.237,66.271 200.237,60.967 201.306,60.967 202.029,61.701 202.029,60.449 197.46,60.449 
					197.46,61.701 198.185,60.967 199.264,60.967 199.264,66.271 198.713,66.822 200.775,66.822 				"/>
				<path fill="#85754D" d="M204.14,63.666c0-1.264,0.324-2.798,1.545-2.798c1.21,0,1.533,1.534,1.533,2.798
					s-0.323,2.798-1.533,2.798C204.464,66.464,204.14,64.93,204.14,63.666 M202.942,63.666c0,1.663,1.058,3.327,2.743,3.327
					c1.675,0,2.733-1.664,2.733-3.327s-1.059-3.327-2.733-3.327C204,60.339,202.942,62.003,202.942,63.666"/>
			</g>
		</g>
		<g>
			<path fill="#85754D" d="M87.514,85.772l0.813-0.813v-4.342h-4.313v4.342l0.813,0.813h-2.759l0.813-0.813v-8.656l-0.813-0.813
				h2.759l-0.813,0.813v3.543h4.313v-3.543l-0.813-0.813h2.759l-0.813,0.813v8.656l0.813,0.813H87.514z"/>
			<path fill="#85754D" d="M99.527,76.376v6.507c0,2.019-1.656,3.107-3.326,3.107c-1.757,0-3.18-1.19-3.18-3.107v-6.507
				l-0.887-0.886h2.978l-0.886,0.886v6.507c0,1.393,1.061,2.266,2.266,2.266c1.176,0,2.121-0.873,2.121-2.266v-6.507l-0.886-0.886
				h2.687L99.527,76.376z"/>
			<path fill="#85754D" d="M109.709,85.772l0.813-0.813v-7.829l-3.253,5.636l-3.267-5.636v7.829l0.812,0.813h-2.542l0.813-0.813
				v-8.656l-0.813-0.813h2.12l3.094,5.403l3.108-5.403h1.873l-0.813,0.813v8.656l0.813,0.813H109.709z"/>
			<path fill="#85754D" d="M119.675,85.772l0.798-0.798l-0.711-2.179h-3.413l-0.741,2.179l0.799,0.798h-2.498l0.828-0.828
				l3.268-9.455h0.552l3.196,9.455l0.827,0.828H119.675z M118.092,77.653l-1.481,4.373h2.905L118.092,77.653z"/>
			<path fill="#85754D" d="M131.558,76.376v10.079l-5.81-9.266v7.697l0.886,0.886h-2.687l0.886-0.886v-8.511l-0.886-0.886h2.063
				l4.633,7.421v-6.535l-0.886-0.886h2.687L131.558,76.376z"/>
			<path fill="#85754D" d="M143.993,85.772l-2.469-4.792h-1.54v3.979l0.813,0.813h-2.759l0.812-0.813v-8.656l-0.812-0.813h3.195
				c1.7,0,3.252,1.031,3.252,2.774c0,0.974-0.754,2.063-1.859,2.469l2.295,4.226l0.813,0.813H143.993z M141.233,76.26h-1.249v3.951
				h1.249c1.075,0,1.976-0.858,1.976-1.976C143.209,77.131,142.337,76.26,141.233,76.26z"/>
			<path fill="#85754D" d="M147.189,85.772l0.813-0.813v-8.656l-0.813-0.813h6.159v1.874l-1.104-1.104h-3.109v3.66h2.31l0.814-0.812
				v2.396l-0.814-0.813h-2.31v4.313h3.109l1.104-1.104v1.874H147.189z"/>
			<path fill="#85754D" d="M158.011,85.86c-0.291,0-0.799-0.058-0.799-0.058l-1.976-0.377l0.886-1.612l0.987,1.176
				c0.189,0.087,0.61,0.145,0.901,0.145c1.162,0,1.729-0.813,1.729-1.83c0-0.508-0.204-1.103-0.944-1.655l-1.83-1.38
				c-0.988-0.741-1.336-1.568-1.336-2.338c0-1.003,0.827-2.527,2.614-2.527c0.261,0,0.77,0.072,0.915,0.102l1.685,0.319
				l-0.959,1.438l-0.916-1.002c-0.173-0.072-0.45-0.13-0.711-0.13c-0.711,0-1.525,0.421-1.525,1.496
				c0,0.523,0.363,1.162,1.162,1.757l1.83,1.38c0.639,0.479,1.147,1.119,1.147,2.121C160.872,84.843,159.246,85.86,158.011,85.86z"
				/>
			<path fill="#85754D" d="M167.192,85.99c-2.645,0-4.126-2.744-4.126-5.359c0-2.614,1.481-5.358,4.126-5.358
				c2.643,0,4.124,2.744,4.124,5.358C171.316,83.246,169.835,85.99,167.192,85.99z M167.192,76.042
				c-2.062,0-2.775,2.469-2.775,4.589c0,2.121,0.712,4.589,2.775,4.589c2.061,0,2.773-2.469,2.773-4.589
				C169.965,78.511,169.253,76.042,167.192,76.042z"/>
			<path fill="#85754D" d="M180.656,76.376v6.507c0,2.019-1.656,3.107-3.325,3.107c-1.758,0-3.181-1.19-3.181-3.107v-6.507
				l-0.886-0.886h2.978l-0.887,0.886v6.507c0,1.393,1.061,2.266,2.267,2.266c1.175,0,2.12-0.873,2.12-2.266v-6.507l-0.886-0.886
				h2.687L180.656,76.376z"/>
			<path fill="#85754D" d="M189.358,85.772l-2.469-4.792h-1.539v3.979l0.814,0.813h-2.76l0.813-0.813v-8.656l-0.813-0.813h3.193
				c1.7,0,3.255,1.031,3.255,2.774c0,0.974-0.756,2.063-1.86,2.469l2.295,4.226l0.813,0.813H189.358z M186.598,76.26h-1.248v3.951
				h1.248c1.076,0,1.977-0.858,1.977-1.976C188.574,77.131,187.703,76.26,186.598,76.26z"/>
			<path fill="#85754D" d="M196.695,85.918c-2.658,0-4.053-2.687-4.053-5.287s1.38-5.287,4.285-5.287c0.77,0,1.626,0.247,2.222,0.61
				v1.743l-1.118-1.118c-0.363-0.363-0.742-0.494-1.264-0.494c-1.975,0-2.774,2.483-2.774,4.545c0,2.078,0.872,4.546,2.774,4.546
				c0.522,0,0.901-0.13,1.264-0.493l1.118-1.12v1.743C198.568,85.671,197.813,85.918,196.695,85.918z"/>
			<path fill="#85754D" d="M201.242,85.772l0.813-0.813v-8.656l-0.813-0.813h6.158v1.874l-1.103-1.104h-3.109v3.66h2.31l0.814-0.812
				v2.396l-0.814-0.813h-2.31v4.313h3.109l1.103-1.104v1.874H201.242z"/>
			<path fill="#85754D" d="M212.063,85.86c-0.29,0-0.798-0.058-0.798-0.058l-1.975-0.377l0.886-1.612l0.987,1.176
				c0.188,0.087,0.61,0.145,0.9,0.145c1.163,0,1.729-0.813,1.729-1.83c0-0.508-0.204-1.103-0.944-1.655l-1.829-1.38
				c-0.989-0.741-1.336-1.568-1.336-2.338c0-1.003,0.827-2.527,2.614-2.527c0.261,0,0.77,0.072,0.915,0.102l1.686,0.319
				l-0.959,1.438l-0.915-1.002c-0.174-0.072-0.45-0.13-0.711-0.13c-0.711,0-1.525,0.421-1.525,1.496
				c0,0.523,0.363,1.162,1.162,1.757l1.83,1.38c0.639,0.479,1.147,1.119,1.147,2.121C214.924,84.843,213.298,85.86,212.063,85.86z"
				/>
		</g>
		
			<line fill="#85754D" stroke="#85754D" stroke-width="0.5" stroke-miterlimit="10" x1="82.068" y1="70.836" x2="214.923" y2="70.836"/>
	</g>
	<g>
		<path fill="#85754D" d="M63.891,75.417"/>
		<path fill="#85754D" d="M57.335,53.556v7.886h5.542L56.689,84.47c0,0-7.571-30.485-7.679-30.914h-8.009
			c-0.114,0.418-8.306,30.915-8.306,30.915l-5.7-23.029h5.772v-7.886H9.618v7.886h5.13c0,0,8.852,35.405,8.958,35.835H36.13
			c0.111-0.419,5.933-22.548,5.933-22.548S47.594,96.85,47.7,97.277h12.426c0.11-0.422,9.425-35.835,9.425-35.835h5.086v-7.886
			H57.335z"/>
	</g>
</g>
</svg>
