<svg width="64" height="64" viewBox="0 0 64 64" fill="none" xmlns="http://www.w3.org/2000/svg">
<rect width="64" height="64" fill="white"/>
<path d="M7.37476 12.2258C7.37476 11.1213 8.27019 10.2258 9.37476 10.2258H28C29.1046 10.2258 30 11.1213 30 12.2258V16.1129C30 17.2175 29.1046 18.1129 28 18.1129H9.37475C8.27019 18.1129 7.37476 17.2175 7.37476 16.1129V12.2258Z" fill="#BDE1FF"/>
<path fill-rule="evenodd" clip-rule="evenodd" d="M6.57477 12.2258C6.57477 10.6794 7.82837 9.42583 9.37477 9.42583H28C29.5464 9.42583 30.8 10.6794 30.8 12.2258V16.1129C30.8 17.6593 29.5464 18.9129 28 18.9129H9.37477C7.82837 18.9129 6.57477 17.6593 6.57477 16.1129V12.2258ZM9.37477 11.0258C8.71203 11.0258 8.17477 11.5631 8.17477 12.2258V16.1129C8.17477 16.7757 8.71203 17.3129 9.37477 17.3129H28C28.6627 17.3129 29.2 16.7757 29.2 16.1129V12.2258C29.2 11.5631 28.6627 11.0258 28 11.0258H9.37477Z" fill="#091E6F"/>
<path d="M36.2104 13.0445C36.2104 12.0368 36.2104 12.5555 36.2104 12.4182C36.2104 11.7864 37.6824 10.6952 38.9269 10.6H37.7493C36.0498 10.6 34.6715 10.9214 34.6715 11.3176V17.3953C34.6715 17.7916 36.0498 18.1129 37.7493 18.1129H38.9269C37.6824 18.0178 36.2104 16.7092 36.2104 16.0774C36.2104 15.9417 36.2104 15.9445 36.2104 14.9383C36.2104 14.0055 36.2104 13.1163 36.2104 13.0445Z" fill="#BDE1FF"/>
<path d="M36.2104 24.7445C36.2104 23.7368 36.2104 24.2555 36.2104 24.1182C36.2104 23.4864 37.6824 22.3952 38.9269 22.3H37.7493C36.0498 22.3 34.6715 22.6214 34.6715 23.0176V29.0953C34.6715 29.4915 36.0498 29.8129 37.7493 29.8129H38.9269C37.6824 29.7177 36.2104 28.4092 36.2104 27.7774C36.2104 27.6416 36.2104 27.6445 36.2104 26.6383C36.2104 25.7055 36.2104 24.8163 36.2104 24.7445Z" fill="#BDE1FF"/>
<path d="M9.61604 48.5187C9.61604 47.511 9.61604 48.0297 9.61604 47.8924C9.61604 47.2606 11.088 46.1694 12.3325 46.0742H11.1549C9.45547 46.0742 8.07715 46.3956 8.07715 46.7918V52.8695C8.07715 53.2657 9.45547 53.5871 11.1549 53.5871H12.3325C11.088 53.4919 9.61604 52.1834 9.61604 51.5516C9.61604 51.4158 9.61604 51.4187 9.61604 50.4125C9.61604 49.4797 9.61604 48.5905 9.61604 48.5187Z" fill="#BDE1FF"/>
<path d="M9.61604 36.8187C9.61604 35.811 9.61604 36.3297 9.61604 36.1924C9.61604 35.5606 11.088 34.4694 12.3325 34.3742H11.1549C9.45547 34.3742 8.07715 34.6956 8.07715 35.0918V41.1695C8.07715 41.5657 9.45547 41.8871 11.1549 41.8871H12.3325C11.088 41.7919 9.61604 40.4833 9.61604 39.8515C9.61604 39.7158 9.61604 39.7187 9.61604 38.7125C9.61604 37.7796 9.61604 36.8905 9.61604 36.8187Z" fill="#BDE1FF"/>
<path fill-rule="evenodd" clip-rule="evenodd" d="M6.57477 24.1129C6.57477 22.5665 7.82837 21.3129 9.37477 21.3129H28C29.5464 21.3129 30.8 22.5665 30.8 24.1129V28C30.8 29.5464 29.5464 30.8 28 30.8H9.37477C7.82837 30.8 6.57477 29.5464 6.57477 28V24.1129ZM9.37477 22.9129C8.71203 22.9129 8.17477 23.4502 8.17477 24.1129V28C8.17477 28.6627 8.71203 29.2 9.37477 29.2H28C28.6627 29.2 29.2 28.6627 29.2 28V24.1129C29.2 23.4502 28.6627 22.9129 28 22.9129H9.37477Z" fill="#008CFF"/>
<path fill-rule="evenodd" clip-rule="evenodd" d="M6.57477 36C6.57477 34.4536 7.82837 33.2 9.37477 33.2H28C29.5464 33.2 30.8 34.4536 30.8 36V39.8871C30.8 41.4335 29.5464 42.6871 28 42.6871H9.37477C7.82837 42.6871 6.57477 41.4335 6.57477 39.8871V36ZM9.37477 34.8C8.71203 34.8 8.17477 35.3373 8.17477 36V39.8871C8.17477 40.5498 8.71203 41.0871 9.37477 41.0871H28C28.6627 41.0871 29.2 40.5498 29.2 39.8871V36C29.2 35.3373 28.6627 34.8 28 34.8H9.37477Z" fill="#091E6F"/>
<path fill-rule="evenodd" clip-rule="evenodd" d="M6.57477 47.8871C6.57477 46.3407 7.82837 45.0871 9.37477 45.0871H54.6252C56.1716 45.0871 57.4252 46.3407 57.4252 47.8871V51.7742C57.4252 53.3206 56.1716 54.5742 54.6252 54.5742H9.37477C7.82837 54.5742 6.57477 53.3206 6.57477 51.7742V47.8871ZM9.37477 46.6871C8.71203 46.6871 8.17477 47.2243 8.17477 47.8871V51.7742C8.17477 52.4369 8.71203 52.9742 9.37477 52.9742H54.6252C55.288 52.9742 55.8252 52.4369 55.8252 51.7742V47.8871C55.8252 47.2243 55.288 46.6871 54.6252 46.6871H9.37477Z" fill="#091E6F"/>
<path fill-rule="evenodd" clip-rule="evenodd" d="M33.2 12.2258C33.2 10.6794 34.4536 9.42583 36 9.42583H54.6252C56.1716 9.42583 57.4252 10.6794 57.4252 12.2258V16.1129C57.4252 17.6593 56.1716 18.9129 54.6252 18.9129H36C34.4536 18.9129 33.2 17.6593 33.2 16.1129V12.2258ZM36 11.0258C35.3373 11.0258 34.8 11.5631 34.8 12.2258V16.1129C34.8 16.7757 35.3373 17.3129 36 17.3129H54.6252C55.288 17.3129 55.8252 16.7757 55.8252 16.1129V12.2258C55.8252 11.5631 55.288 11.0258 54.6252 11.0258H36Z" fill="#091E6F"/>
<path fill-rule="evenodd" clip-rule="evenodd" d="M33.2 24.1129C33.2 22.5665 34.4536 21.3129 36 21.3129H54.6252C56.1716 21.3129 57.4252 22.5665 57.4252 24.1129V28C57.4252 29.5464 56.1716 30.8 54.6252 30.8H36C34.4536 30.8 33.2 29.5464 33.2 28V24.1129ZM36 22.9129C35.3373 22.9129 34.8 23.4502 34.8 24.1129V28C34.8 28.6627 35.3373 29.2 36 29.2H54.6252C55.288 29.2 55.8252 28.6627 55.8252 28V24.1129C55.8252 23.4502 55.288 22.9129 54.6252 22.9129H36Z" fill="#091E6F"/>
<path d="M34 36C34 34.8954 34.8954 34 36 34H54.6252C55.7298 34 56.6252 34.8954 56.6252 36V39.8871C56.6252 40.9917 55.7298 41.8871 54.6252 41.8871H36C34.8954 41.8871 34 40.9917 34 39.8871V36Z" fill="#BDE1FF"/>
<path fill-rule="evenodd" clip-rule="evenodd" d="M33.2 36C33.2 34.4536 34.4536 33.2 36 33.2H54.6252C56.1716 33.2 57.4252 34.4536 57.4252 36V39.8871C57.4252 41.4335 56.1716 42.6871 54.6252 42.6871H36C34.4536 42.6871 33.2 41.4335 33.2 39.8871V36ZM36 34.8C35.3373 34.8 34.8 35.3373 34.8 36V39.8871C34.8 40.5498 35.3373 41.0871 36 41.0871H54.6252C55.288 41.0871 55.8252 40.5498 55.8252 39.8871V36C55.8252 35.3373 55.288 34.8 54.6252 34.8H36Z" fill="#091E6F"/>
<rect x="9.37195" y="24.171" width="14.8557" height="3.57151" rx="1.78576" fill="#008CFF"/>
<rect x="9.37195" y="36.4435" width="8.97256" height="3" rx="1.5" fill="#091E6F"/>
<rect x="10.2048" y="48.3306" width="17.1972" height="3" rx="1.5" fill="#091E6F"/>
<rect x="28.7808" y="48.3306" width="10.4385" height="3" rx="1.5" fill="#091E6F"/>
</svg>
