<svg width="54" height="54" viewBox="0 0 54 54" fill="none" xmlns="http://www.w3.org/2000/svg">
<path d="M34.9797 29.1262C36.248 28.8976 44.5016 29.031 50.4468 29.1262C51.1074 29.2215 52.5078 29.6977 52.8249 30.8406C53.142 31.9836 52.957 44.8418 52.8249 51.1281C52.8249 51.6996 52.3507 52.6139 50.4482 52.8425C48.5458 53.0711 30.6294 52.8425 30.6294 52.8425C30.6294 52.8425 28.3563 53.2635 28.161 50.2308C27.7988 44.6079 28.161 33.6154 28.1608 33.1538" stroke="#091D70" stroke-width="2" stroke-linecap="round"/>
<path d="M35.1429 48.8214L35.1429 41.6785C35.1429 41.25 34.7143 40.9643 34.0714 40.9643C33.4285 40.9643 33 41.25 33 41.6785L33 48.8214C33 49.25 33.4285 49.5357 34.0714 49.5357C34.7143 49.5357 35.1429 49.25 35.1429 48.8214Z" fill="#091D70"/>
<path d="M37.2856 34.7006L37.2856 48.2995C37.2856 49.0412 37.7142 49.5357 38.3571 49.5357C39 49.5357 39.4285 49.0412 39.4285 48.2995L39.4285 34.7005C39.4285 33.9587 39 33.4643 38.3571 33.4643C37.7142 33.4643 37.2856 33.9589 37.2856 34.7006Z" fill="#7DD0FA"/>
<path d="M41.5715 37.75L41.5715 48.4643C41.5715 49.1072 42.0001 49.5357 42.643 49.5357C43.2858 49.5357 43.7144 49.1072 43.7144 48.4643L43.7144 37.75C43.7144 37.1071 43.2858 36.6786 42.643 36.6786C42.0001 36.6786 41.5715 37.1071 41.5715 37.75Z" fill="#091D70"/>
<path d="M45.8572 40.6964L45.8572 48.7322C45.8572 49.2143 46.2857 49.5357 46.9286 49.5357C47.5715 49.5357 48 49.2143 48 48.7322L48 40.6964C48 40.2142 47.5715 39.8928 46.9286 39.8928C46.2857 39.8928 45.8572 40.2142 45.8572 40.6964Z" fill="#091D70"/>
<rect width="32.4324" height="30" rx="4.05405" fill="#091D70"/>
<path d="M17.8001 13.3873C17.8001 10.7273 18.4749 8.80356 19.8246 7.61607C21.2098 6.42858 23.4297 5.83484 26.4843 5.83484H27.5676V12.5679C27.5676 18.0897 25.9929 21.6284 22.8437 23.1841C21.7426 23.7303 20.4225 24.0034 18.8834 24.0034H17.8001V13.3873ZM14.2946 24.0034C11.3229 24.0034 9.10894 22.9644 7.6527 20.8863C6.30302 18.9625 5.62817 16.1897 5.62817 12.5679V5.83484H6.71147C9.76603 5.83484 11.9859 6.42858 13.3711 7.61607C14.7208 8.80356 15.3956 10.7273 15.3956 13.3873V24.0034H14.2946Z" fill="white"/>
<g style="mix-blend-mode:luminosity" opacity="0.6">
<path d="M18.24 10.1476C17.9468 11.0675 17.8002 12.1474 17.8002 13.3872V24.0034H18.8835C20.4226 24.0034 21.7427 23.7303 22.8437 23.184C25.3682 21.9371 26.8808 19.4159 27.3817 15.6204C25.5392 12.6992 22.1852 10.6071 18.24 10.1476Z" fill="#C0C5CB"/>
<path d="M14.9559 10.1476C15.2491 11.0675 15.3957 12.1474 15.3957 13.3872V24.0034H14.2946C11.323 24.0034 9.109 22.9643 7.65276 20.8862C6.71134 19.5444 6.09825 17.7895 5.81348 15.6215C7.65578 12.6997 11.0101 10.6071 14.9559 10.1476Z" fill="#C0C5CB"/>
</g>
<path d="M13.8663 16.2353C14.464 18.3818 14.2469 21.0223 12.4152 21.1142C10.2619 21.2223 8.13875 20.3617 7.47413 18.3902C6.8095 16.4187 7.70165 14.3381 9.46681 13.743C11.232 13.148 13.308 14.2302 13.8663 16.2353Z" fill="#232B36"/>
<path d="M14.1236 16.9298C14.6839 18.9262 14.5172 21.3719 12.8718 21.4374C10.9376 21.5144 9.0201 20.6938 8.40153 18.8588C7.78295 17.0239 8.56243 15.1046 10.1425 14.5719C11.7227 14.0392 13.6002 15.0649 14.1236 16.9298Z" fill="white"/>
<path d="M14.2747 20.1198C14.5173 19.2245 14.4271 18.0113 14.1236 16.9298C14.1102 16.882 14.0959 16.8348 14.0808 16.7881C13.6571 16.4026 13.094 16.1677 12.4761 16.1677C11.1587 16.1677 10.0908 17.2356 10.0908 18.553C10.0908 19.8704 11.1587 20.9383 12.4761 20.9383C13.1938 20.9383 13.8374 20.6214 14.2747 20.1198Z" fill="#232B36"/>
<path d="M10.3532 17.5824C10.3532 17.0622 10.775 16.6404 11.2953 16.6404C11.8156 16.6404 12.2373 17.0622 12.2373 17.5824C12.2373 18.1027 11.8156 18.5245 11.2953 18.5245C10.775 18.5245 10.3532 18.1027 10.3532 17.5824Z" fill="white"/>
<path d="M19.4443 16.2353C18.8466 18.3818 19.0637 21.0223 20.8954 21.1142C23.0487 21.2223 25.1718 20.3618 25.8365 18.3903C26.5011 16.4187 25.6089 14.3381 23.8438 13.743C22.0786 13.148 20.0026 14.2302 19.4443 16.2353Z" fill="#232B36"/>
<path d="M19.1869 16.9299C18.6266 18.9263 18.7933 21.3719 20.4387 21.4374C22.3729 21.5144 24.2904 20.6938 24.909 18.8589C25.5276 17.024 24.7481 15.1046 23.168 14.572C21.5879 14.0393 19.7103 15.0649 19.1869 16.9299Z" fill="white"/>
<path d="M19.0358 20.1199C18.7932 19.2245 18.8834 18.0113 19.1869 16.9299C19.2003 16.8821 19.2146 16.8348 19.2298 16.7881C19.6535 16.4027 20.2165 16.1677 20.8344 16.1677C22.1518 16.1677 23.2197 17.2357 23.2197 18.553C23.2197 19.8704 22.1518 20.9384 20.8344 20.9384C20.1167 20.9384 19.4731 20.6214 19.0358 20.1199Z" fill="#232B36"/>
<path d="M22.9606 17.5733C22.9606 17.048 22.5347 16.6221 22.0094 16.6221C21.484 16.6221 21.0581 17.048 21.0581 17.5733C21.0581 18.0987 21.484 18.5245 22.0094 18.5245C22.5347 18.5245 22.9606 18.0987 22.9606 17.5733Z" fill="white"/>
</svg>
