<svg width="488" height="252" viewBox="0 0 488 252" fill="none" xmlns="http://www.w3.org/2000/svg">
<rect width="488" height="252" fill="white"/>
<path fill-rule="evenodd" clip-rule="evenodd" d="M315.353 130.599C315.353 127.541 314.137 124.604 311.972 122.443C309.81 120.277 306.874 119.065 303.813 119.065C286.633 119.065 254.522 119.065 237.342 119.065C234.281 119.065 231.348 120.281 229.183 122.443C227.017 124.604 225.805 127.541 225.805 130.599C225.805 133.657 227.021 136.594 229.183 138.755C231.348 140.921 234.281 142.133 237.342 142.133C254.522 142.133 286.633 142.133 303.813 142.133C306.874 142.133 309.807 140.917 311.972 138.755C314.137 136.594 315.353 133.661 315.353 130.599Z" fill="#FFD721"/>
<path d="M238.047 139.764C243.109 139.764 247.212 135.661 247.212 130.599C247.212 125.537 243.109 121.434 238.047 121.434C232.986 121.434 228.883 125.537 228.883 130.599C228.883 135.661 232.986 139.764 238.047 139.764Z" fill="#EBF6FF"/>
<path fill-rule="evenodd" clip-rule="evenodd" d="M404.243 99.1566C404.243 96.0984 403.027 93.1621 400.865 91.0002C398.7 88.8351 395.767 87.6223 392.706 87.6223C369.291 87.6223 316.438 87.6223 293.023 87.6223C289.962 87.6223 287.029 88.8384 284.863 91.0002C282.698 93.1621 281.486 96.0984 281.486 99.1566C281.486 102.215 282.702 105.151 284.863 107.313C287.029 109.475 289.962 110.691 293.023 110.691C316.438 110.691 369.291 110.691 392.706 110.691C395.767 110.691 398.7 109.475 400.865 107.313C403.027 105.151 404.243 102.218 404.243 99.1566Z" fill="#00A777"/>
<path d="M293.725 108.321C298.787 108.321 302.89 104.218 302.89 99.1566C302.89 94.095 298.787 89.9918 293.725 89.9918C288.663 89.9918 284.56 94.095 284.56 99.1566C284.56 104.218 288.663 108.321 293.725 108.321Z" fill="#EBF6FF"/>
<path fill-rule="evenodd" clip-rule="evenodd" d="M195.799 162.041C195.799 155.671 190.632 150.504 184.261 150.504C165.985 150.504 130.574 150.504 112.297 150.504C105.924 150.504 100.76 155.668 100.76 162.041C100.76 168.412 105.927 173.579 112.297 173.579C130.574 173.579 165.985 173.579 184.261 173.579C190.632 173.579 195.799 168.412 195.799 162.041Z" fill="#33A4FF" fill-opacity="0.1"/>
<path fill-rule="evenodd" clip-rule="evenodd" d="M475 67.7173C475 61.347 469.833 56.1797 463.462 56.1797C443.327 56.1797 401.998 56.1797 381.859 56.1797C375.486 56.1797 370.322 61.3437 370.322 67.7173C370.322 74.0875 375.489 79.2548 381.859 79.2548C401.995 79.2548 443.324 79.2548 463.462 79.2548C469.833 79.2548 475 74.0875 475 67.7173Z" fill="#70BA02"/>
<path d="M382.564 76.8821C387.626 76.8821 391.729 72.7788 391.729 67.7173C391.729 62.6557 387.626 58.5525 382.564 58.5525C377.503 58.5525 373.4 62.6557 373.4 67.7173C373.4 72.7788 377.503 76.8821 382.564 76.8821Z" fill="#EBF6FF"/>
<path fill-rule="evenodd" clip-rule="evenodd" d="M156.251 99.1587C156.251 92.7885 151.084 87.6212 144.714 87.6212C134.442 87.6212 119.49 87.6212 109.215 87.6212C102.841 87.6212 97.677 92.7852 97.677 99.1587C97.677 105.529 102.844 110.696 109.215 110.696C119.487 110.696 134.438 110.696 144.714 110.696C151.087 110.696 156.251 105.529 156.251 99.1587Z" fill="#FFD721"/>
<path d="M109.92 108.324C114.981 108.324 119.085 104.22 119.085 99.1588C119.085 94.0972 114.981 89.994 109.92 89.994C104.858 89.994 100.755 94.0972 100.755 99.1588C100.755 104.22 104.858 108.324 109.92 108.324Z" fill="white"/>
<path fill-rule="evenodd" clip-rule="evenodd" d="M103.891 68.5941C103.891 65.5359 102.675 62.5996 100.509 60.4377C98.3443 58.2759 95.4113 57.0598 92.3498 57.0598C75.2922 57.0598 43.5301 57.0598 26.4759 57.0598C23.4143 57.0598 20.4813 58.2759 18.3162 60.4377C16.1543 62.5996 14.9383 65.5326 14.9383 68.5941C14.9383 71.6523 16.1543 74.5886 18.3162 76.7505C20.4813 78.9156 23.4143 80.1284 26.4759 80.1284C43.5334 80.1284 75.2955 80.1284 92.3498 80.1284C95.4113 80.1284 98.3443 78.9123 100.509 76.7505C102.675 74.5886 103.891 71.6523 103.891 68.5941Z" fill="#F96701"/>
<path d="M27.745 77.8183C32.8066 77.8183 36.9098 73.7151 36.9098 68.6535C36.9098 63.5919 32.8066 59.4887 27.745 59.4887C22.6835 59.4887 18.5802 63.5919 18.5802 68.6535C18.5802 73.7151 22.6835 77.8183 27.745 77.8183Z" fill="white"/>
<path fill-rule="evenodd" clip-rule="evenodd" d="M176.814 226.317L176.952 226.017L177.984 225.2C179.892 224.607 181.81 224.05 183.724 223.506L183.945 223.443C185.975 222.919 188.008 222.418 190.042 221.937L190.582 221.812C195.694 221.232 200.914 220.843 206.134 220.655C208.015 220.589 209.9 220.609 211.782 220.622C213.835 220.639 215.888 220.669 217.942 220.708L218.047 220.711C221.099 220.83 224.15 220.959 227.202 221.199L227.383 221.212C228.148 221.301 228.916 221.39 229.68 221.483L229.71 221.486C230.735 221.664 231.76 221.842 232.784 222.023L233.447 222.138C234.89 222.438 236.334 222.741 237.78 223.041L237.873 223.061C239.946 223.546 242.018 224.03 244.091 224.514C244.942 224.712 245.795 224.91 246.645 225.108L247.318 225.262L251.447 226.284C253.563 226.175 255.678 226.119 257.797 226.162C258.259 226.202 258.723 226.212 259.182 226.278C260.671 226.485 262.615 226.907 264.059 227.276C269.691 228.723 270.429 229.016 276.269 230.779L276.381 230.815L277.455 231.62L277.781 232.219L277.903 232.865C277.775 233.544 277.762 233.544 277.455 234.108L276.377 234.912L276.269 234.948C270.429 236.711 269.691 237.004 264.059 238.451C263.291 238.649 262.378 238.86 261.472 239.044L261.307 239.173C261.248 239.189 261.192 239.206 261.132 239.222C257.379 240.231 253.602 241.107 249.826 241.885L249.677 241.915C246.411 242.528 243.136 243.062 239.857 243.533L239.662 243.559C238.199 243.737 236.736 243.902 235.273 244.057L234.96 244.09C233.743 244.185 232.527 244.268 231.311 244.347L230.992 244.367C229.327 244.396 227.663 244.376 226.002 244.33L225.834 244.324C223.554 244.208 221.277 244.067 218.999 243.905L218.933 243.899C216.61 243.691 214.29 243.457 211.97 243.203L211.842 243.19C209.983 242.953 208.128 242.702 206.272 242.442L206.101 242.419C205.267 242.261 204.433 242.103 203.599 241.941C199.015 241.051 194.52 239.819 189.986 238.58L189.821 238.533C185.741 237.202 181.665 235.808 177.598 234.322H177.595C177.209 234.078 176.787 233.913 176.438 233.587C175.785 232.981 175.235 232.018 175.024 230.97C174.902 230.364 174.945 229.408 174.945 229.408C175.083 228.924 175.153 228.393 175.357 227.955C175.808 226.966 176.197 226.716 176.814 226.317Z" fill="#025FF2" fill-opacity="0.1"/>
<path d="M354.705 37.8437C354.705 31.4735 349.541 26.3061 343.168 26.3061C328.671 26.3061 303.935 26.3061 289.438 26.3061C283.064 26.3061 277.9 31.4702 277.9 37.8437C277.9 44.2139 283.064 49.3813 289.438 49.3813C303.935 49.3813 328.671 49.3813 343.168 49.3813C349.538 49.3813 354.705 44.2172 354.705 37.8437Z" stroke="#33A4FF" stroke-opacity="0.5" stroke-width="1.45002" stroke-miterlimit="4.4" stroke-dasharray="5.8 5.8"/>
<path d="M182.66 37.8437C182.66 31.4735 177.492 26.3061 171.122 26.3061C156.625 26.3061 131.889 26.3061 117.392 26.3061C111.019 26.3061 105.855 31.4702 105.855 37.8437C105.855 44.2139 111.022 49.3813 117.392 49.3813C131.889 49.3813 156.625 49.3813 171.122 49.3813C177.496 49.3813 182.66 44.2172 182.66 37.8437Z" stroke="#F43C39" stroke-opacity="0.5" stroke-width="1.45002" stroke-miterlimit="4.4" stroke-dasharray="5.8 5.8"/>
<path fill-rule="evenodd" clip-rule="evenodd" d="M226.566 234.164C225.867 234.602 225.403 235.314 225.07 236.181C224.813 236.843 224.681 237.545 224.681 238.257C224.681 239.041 225.083 239.769 225.749 240.188C226.549 240.689 227.495 240.926 228.672 240.933C230.665 240.943 231.585 240.583 232.728 239.835C232.91 239.717 233.137 239.68 233.345 239.736C233.842 239.868 234.742 240.109 234.992 240.175C235.035 240.188 235.081 240.194 235.124 240.198C238.357 240.475 241.738 240.221 243.462 238.863C243.637 238.718 243.739 238.501 243.739 238.273C243.745 238.207 243.745 238.138 243.745 238.066C243.745 237.716 243.511 237.413 243.175 237.321C241.32 236.823 235.536 235.268 235.088 235.146C235.068 235.139 235.052 235.136 235.032 235.129C234.689 235.007 231.216 233.788 230.329 233.478C230.194 233.432 230.053 233.422 229.914 233.452C229.146 233.61 226.566 234.164 226.566 234.164Z" fill="#313647"/>
<path fill-rule="evenodd" clip-rule="evenodd" d="M198.32 226.446L198.241 226.274C200.08 224.864 202.037 223.941 205.092 223.348C205.221 223.321 205.356 223.325 205.485 223.354C205.587 223.377 205.725 223.41 205.87 223.45C206.134 223.509 206.358 223.677 206.486 223.911C206.615 224.149 206.638 224.425 206.549 224.679C205.791 226.877 204.746 228.281 203.553 229.276C203.379 229.421 203.22 229.589 203.092 229.777C203.092 229.777 201.27 232.433 201.227 232.496C199.965 234.286 198.462 234.302 197.302 234.21C196.105 234.114 195.43 233.613 194.771 232.872C194.382 232.44 194.164 231.877 194.164 231.297C194.164 231.217 194.164 231.138 194.168 231.063C194.168 230.413 194.273 229.767 194.478 229.151C194.754 228.311 195.137 227.606 195.707 227.144C195.792 227.075 195.895 227.029 196 227.002C196.531 226.874 198.32 226.446 198.32 226.446Z" fill="#313647"/>
<path fill-rule="evenodd" clip-rule="evenodd" d="M230.88 231.32C231.12 230.4 230.567 229.461 229.647 229.22C228.728 228.98 227.785 229.533 227.548 230.453C227.225 231.699 226.783 233.389 226.457 234.635C226.217 235.554 226.77 236.494 227.69 236.734C228.609 236.975 229.548 236.421 229.789 235.502C230.115 234.256 230.557 232.562 230.88 231.32Z" fill="#FFC1B1"/>
<path fill-rule="evenodd" clip-rule="evenodd" d="M200.347 224.458C200.617 223.546 200.096 222.59 199.183 222.32C198.271 222.049 197.315 222.57 197.045 223.48C196.679 224.712 196.181 226.39 195.819 227.622C195.549 228.535 196.069 229.491 196.979 229.761C197.892 230.031 198.847 229.51 199.118 228.601C199.483 227.368 199.981 225.691 200.347 224.458Z" fill="#FF9898"/>
<path fill-rule="evenodd" clip-rule="evenodd" d="M186.618 44.8664C188.055 38.6576 184.189 32.4621 177.98 31.0219C163.856 27.7495 139.759 22.1702 125.634 18.8978C119.426 17.4609 113.227 21.3266 111.79 27.532C110.353 33.7407 114.219 39.9363 120.427 41.3764C134.552 44.6489 158.649 50.2282 172.773 53.5006C178.979 54.9374 185.178 51.0718 186.618 44.8664Z" fill="#F43C39"/>
<path fill-rule="evenodd" clip-rule="evenodd" d="M195.45 62.1184C195.45 62.1184 185.075 66.5476 183.003 68.1525C180.346 64.4253 178.669 64.0595 177.69 63.2554C176.711 62.4513 159.15 53.1843 157.004 51.0752C154.859 48.966 152.994 45.4135 151.817 44.471C149.721 42.7903 148.093 41.8708 146.851 41.1557C146.264 40.8162 144.511 40.5295 143.842 39.9726C142.138 38.5522 140.925 37.2934 140.925 37.2934C139.693 36.1366 137.844 37.557 138.909 38.7038C138.909 38.7038 138.912 38.7071 138.915 38.7104C138.919 38.7137 140.158 39.9462 140.929 41.159C141.304 41.7522 141.914 42.9847 142.033 43.4461C142.666 45.8551 143.15 46.7317 143.147 46.3824L135.817 44.4743C135.817 44.4743 139.354 49.4208 140.925 50.2282C145.477 52.568 149.606 51.7573 151.817 52.5812C154.028 53.4051 168.763 76.5297 180.346 78.9255C191.93 81.3213 196.465 78.6157 200.732 77.8017C205 76.9877 195.45 62.1184 195.45 62.1184Z" fill="#FF9898"/>
<path fill-rule="evenodd" clip-rule="evenodd" d="M232.221 147.881C228.224 174.498 214.995 202.438 201.448 225.226C200.08 227.526 194.705 226.983 195.809 222.998C198.343 213.847 200.594 198.875 201.326 190.775C201.444 189.388 201.731 188.017 202.186 186.698C204.967 178.47 209.696 178.446 209.07 172.346C207.083 153.012 210.171 127.732 211.634 128.351" fill="#001B69"/>
<path fill-rule="evenodd" clip-rule="evenodd" d="M251.948 120.139C254.495 159.82 247.581 197.814 231.868 231.57C230.863 233.732 226.767 233.201 226.523 230.469C226.523 230.469 226.961 212.377 227.149 199.281C227.172 197.524 227.449 195.781 227.966 194.1C230.544 185.713 233.948 182.998 232.732 178.199C225.287 155.404 224.549 144.766 223.715 140.944C219.533 141.171 206.47 134.616 209.126 120.142C209.413 118.584 208.602 116.55 210.52 115.595C220.44 110.645 250.696 109.023 251.948 115.08" fill="#003180"/>
<path fill-rule="evenodd" clip-rule="evenodd" d="M223.05 112.233C235.526 110.345 251.058 110.77 251.948 115.074V118.3L251.941 118.32C241.696 113.907 221.553 116.343 208.961 121.161C209.007 120.825 209.06 120.485 209.126 120.139C209.413 118.58 208.602 116.547 210.52 115.591C212.718 114.494 215.918 113.561 219.579 112.836L223.05 112.233Z" fill="#001B69"/>
<path d="M247.44 111.169H245.166V118.722H247.44V111.169Z" fill="#003180"/>
<path fill-rule="evenodd" clip-rule="evenodd" d="M225.238 111.469L222.977 111.699L223.738 119.216L225.999 118.986L225.238 111.469Z" fill="#003180"/>
<path fill-rule="evenodd" clip-rule="evenodd" d="M216.06 112.645L213.796 112.876L214.557 120.393L216.821 120.162L216.06 112.645Z" fill="#003180"/>
<path fill-rule="evenodd" clip-rule="evenodd" d="M346.15 19.8337C344.39 13.7107 338 10.168 331.877 11.9278C317.94 15.9286 294.167 22.7503 280.23 26.751C274.104 28.5075 270.564 34.8975 272.324 41.0239C274.084 47.1469 280.474 50.6863 286.597 48.9298C300.534 44.929 324.307 38.1073 338.241 34.1066C344.367 32.3501 347.91 25.9601 346.15 19.8337Z" fill="#0981F3"/>
<path fill-rule="evenodd" clip-rule="evenodd" d="M223.349 42.7507C223.349 42.7507 223.01 48.7749 225.969 54.018C228.761 58.9646 213.479 59.6896 213.479 59.6896C213.479 59.6896 216.742 52.4197 216.007 46.2934C215.275 40.167 223.349 42.7507 223.349 42.7507Z" fill="#FFC1B1"/>
<path fill-rule="evenodd" clip-rule="evenodd" d="M229.476 52.9602C223.794 49.9711 218.146 49.8986 213.269 52.0078C212.112 52.5153 211.288 53.5764 211.09 54.8254C210.632 57.5805 209.861 62.4282 209.861 62.4282L230.511 61.4329L229.476 52.9602Z" fill="url(#paint0_linear)"/>
<path fill-rule="evenodd" clip-rule="evenodd" d="M223.672 23.271C223.672 23.271 232.844 30.32 231.855 38.8851C230.942 46.791 226.273 47.6874 223.672 48.0433C221.072 48.3992 215.944 47.6116 211.304 40.0385C204.025 28.1681 217.378 17.3456 223.672 23.271Z" fill="#FFC1B1"/>
<path fill-rule="evenodd" clip-rule="evenodd" d="M223.837 48.0203C223.293 46.099 223.277 43.9866 223.32 42.8496C223.326 42.7112 223.419 42.5893 223.55 42.5431C223.682 42.497 223.827 42.5365 223.92 42.6453C224.72 43.4856 226.421 44.9455 229.044 45.7233C227.36 47.4007 225.307 47.8126 223.837 48.0203Z" fill="#FF9898"/>
<path fill-rule="evenodd" clip-rule="evenodd" d="M201.418 30.8803C201.461 26.5401 204.005 23.9037 206.826 22.4701C209.643 21.0366 215.424 18.677 216.788 15.7967C218.152 12.9165 217.974 6.90875 222.591 7.00102C228.362 7.11636 228.5 15.6583 227.881 19.1087C227.261 22.5558 224.839 26.0853 223.356 27.3046C221.873 28.524 218.736 28.8898 218.736 28.8898C218.736 28.8898 219.711 31.6152 219.006 33.1245C216.851 32.8609 216.781 34.937 216.781 34.937C216.781 36.2948 219.682 40.3384 221.616 37.613C221.616 37.613 223.56 43.189 220.37 45.832C217.18 48.4717 215.763 48.4651 214.409 47.3974C213.054 46.3296 213.753 42.4837 211.571 40.5394C209.39 38.5885 201.345 37.9557 201.418 30.8803Z" fill="#001B69"/>
<path fill-rule="evenodd" clip-rule="evenodd" d="M229.851 54.921C229.851 54.921 249.157 57.0334 263.054 63.2125C268.593 59.7291 270.258 59.8906 272.917 59.2777C283.868 56.7467 287.276 56.5589 291.754 54.3937C300.484 50.1788 302.484 48.6134 302.484 48.6134C302.484 48.6134 303.404 44.7511 305.154 43.0341C306.907 41.3138 310.232 38.6972 310.232 38.6972L313.699 34.1296C313.699 34.1296 313.857 32.5379 313.959 31.5262C313.979 31.3186 314.088 31.1274 314.259 31.0055C314.427 30.8836 314.642 30.8374 314.846 30.8803C315.479 31.0187 315.963 31.5328 316.059 32.1754C316.233 33.5529 316.21 35.0886 315.854 36.3376C315.854 36.3376 315.218 39.4717 314.038 41.0502C315.116 40.7239 321.704 38.8488 321.704 38.8488C321.704 38.8488 319.318 44.0887 316.375 46.9656C313.432 49.8426 307.79 51.5003 306.568 52.1429C305.348 52.7855 276.176 80.8797 249.476 75.1356C222.783 69.3949 229.851 54.921 229.851 54.921Z" fill="#FFC1B1"/>
<path fill-rule="evenodd" clip-rule="evenodd" d="M236.011 70.1298C236.522 68.4524 237.342 66.8442 238.42 65.3908C241.419 61.3538 254.739 56.3908 254.739 61.6669C254.739 63.8321 252.646 67.7603 253.925 69.24C255.748 71.3425 272.314 69.5069 276.829 67.7109C295.175 60.4113 303.391 54.7826 309.026 48.2344C309.026 48.2344 307.527 51.3025 306.943 51.9748C306.792 52.0407 306.666 52.0968 306.568 52.1495C305.348 52.7921 276.176 80.8863 249.476 75.1422C243.399 73.8306 239.072 72.0708 236.011 70.1298Z" fill="#FF9898"/>
<path fill-rule="evenodd" clip-rule="evenodd" d="M255.336 60.1279C260.688 67.5395 245.215 80.6853 245.215 80.6853C245.215 80.6853 243.116 79.6867 240.931 78.6519C248.474 93.7388 250.083 103.474 251.819 111.801C253.754 116.771 251.819 116.629 251.819 116.629C251.819 116.629 248.741 113.159 236.482 113.548C225.083 113.888 213.535 116.125 209.202 119.859C207.323 117.76 209.64 114.949 209.663 111.795C209.739 101.404 208.216 87.1313 203.26 80.6886C200.993 81.6476 194.145 85.154 194.145 85.154C194.145 85.154 182.129 73.4417 186.354 66.218C195.829 57.6035 230.188 48.7683 255.336 60.1279Z" fill="#0981F3"/>
<path fill-rule="evenodd" clip-rule="evenodd" d="M317.571 45.6342C317.189 46.1154 316.79 46.5668 316.378 46.9689C313.709 49.5822 308.809 51.1871 307.016 51.9418C307.411 50.9894 307.823 50.0403 308.235 49.0945C308.459 48.5804 308.693 47.5225 309.181 47.1864C310.611 46.1945 314.797 46.5273 317.571 45.6342Z" fill="#FF9898"/>
<path d="M247.878 119.361C249.641 160.226 242.144 194.898 230.24 231.669" stroke="#0981F3" stroke-opacity="0.5" stroke-width="0.725012" stroke-miterlimit="4.4"/>
<path d="M227.04 160.183C220.202 182.717 210.721 203.304 199.338 224.116" stroke="#0981F3" stroke-opacity="0.5" stroke-width="0.725012" stroke-miterlimit="4.4"/>
<path d="M219.013 34.1033C217.184 34.4625 218.093 36.6738 220.117 37.2868" stroke="#FF9898" stroke-width="1.45002" stroke-miterlimit="4.4"/>
<path d="M219.138 28.9128C225.379 27.5946 229.242 23.3731 229.654 15.042" stroke="#001B69" stroke-width="1.45002" stroke-miterlimit="4.4"/>
<path d="M219.138 28.9129C224.098 28.5866 227.877 26.316 230.059 21.4584" stroke="#001B69" stroke-width="1.45002" stroke-miterlimit="4.4"/>
<path d="M283.802 47.1041C288.864 47.1041 292.967 43.0008 292.967 37.9393C292.967 32.8777 288.864 28.7745 283.802 28.7745C278.741 28.7745 274.637 32.8777 274.637 37.9393C274.637 43.0008 278.741 47.1041 283.802 47.1041Z" fill="white"/>
<path d="M123.525 39.3333C128.587 39.3333 132.69 35.2301 132.69 30.1685C132.69 25.1069 128.587 21.0037 123.525 21.0037C118.464 21.0037 114.36 25.1069 114.36 30.1685C114.36 35.2301 118.464 39.3333 123.525 39.3333Z" fill="#EBF6FF"/>
<defs>
<linearGradient id="paint0_linear" x1="228.226" y1="57.7881" x2="216.036" y2="53.9698" gradientUnits="userSpaceOnUse">
<stop stop-color="#0054F2"/>
<stop offset="1" stop-color="#0981F3"/>
</linearGradient>
</defs>
</svg>
