<svg width="269" height="186" viewBox="0 0 269 186" fill="none" xmlns="http://www.w3.org/2000/svg">
<mask id="mask0" mask-type="alpha" maskUnits="userSpaceOnUse" x="0" y="0" width="269" height="186">
<path d="M268.869 3C268.869 1.34314 267.526 0 265.869 0H0.868896V186H265.869C267.526 186 268.869 184.657 268.869 183V3Z" fill="white"/>
</mask>
<g mask="url(#mask0)">
<path d="M95.5125 213.665C95.6403 211.204 95.8659 208.757 96.1516 206.326C96.4298 203.894 96.7606 201.47 97.1365 199.054C97.4824 196.63 97.9335 194.229 98.347 191.82C98.8057 189.418 99.2568 187.017 99.7906 184.631L99.9786 183.795L100.776 183.81C101.926 183.833 103.076 183.886 104.219 183.946C105.369 183.998 106.52 184.059 107.663 184.149C109.963 184.3 112.256 184.503 114.557 184.811C112.256 185.12 109.963 185.316 107.663 185.474C106.512 185.557 105.362 185.624 104.219 185.677C103.069 185.737 101.918 185.79 100.776 185.813L101.76 184.992C101.415 187.416 100.986 189.817 100.573 192.226C100.114 194.628 99.6853 197.037 99.1515 199.423C98.6553 201.817 98.0989 204.203 97.5049 206.574C96.911 208.953 96.2644 211.317 95.5125 213.665Z" fill="#061544"/>
<path d="M110.286 184.894C104.775 185.226 99.2639 185.436 93.7528 185.595C90.9934 185.692 88.2416 185.73 85.4823 185.798C82.723 185.873 79.9712 185.881 77.2119 185.926L78.1968 185.196C76.9562 189.501 75.633 193.777 74.3323 198.061C72.994 202.336 71.6707 206.612 70.2722 210.865C69.588 212.996 68.8888 215.126 68.167 217.241C67.4603 219.364 66.746 221.487 66.0017 223.602C64.5431 227.84 63.0318 232.056 61.4229 236.241C62.4454 231.868 63.5657 227.532 64.731 223.203C65.3024 221.035 65.9039 218.882 66.5129 216.722C67.1069 214.561 67.7234 212.408 68.355 210.263C69.588 205.957 70.8963 201.674 72.1895 197.391C73.5203 193.115 74.8285 188.831 76.2194 184.578L76.46 183.833L77.2043 183.848C79.9637 183.893 82.7155 183.908 85.4748 183.976C88.2341 184.044 90.9859 184.081 93.7452 184.179C99.2564 184.345 104.767 184.563 110.286 184.894Z" fill="#061544"/>
<path d="M69.5807 101.554C66.1297 103.429 60.6862 106.199 58.8968 108.879C55.7691 113.584 56.0247 118.454 56.13 121.661C56.4082 130.386 56.3781 139.118 56.2127 147.843C56.0473 156.627 55.4608 164.991 56.9269 173.7C57.8893 179.399 59.8667 184.751 66.4304 185.06C71.4077 185.542 105.828 184.789 115.294 185.858L117.173 179.587L126.008 155.129C126.008 155.129 101.76 153.812 97.4371 151.554C93.1139 149.295 88.7907 128.97 88.2268 123.325" fill="#008CFF" fill-opacity="0.58"/>
<path d="M66.4306 121.262C65.002 122.256 63.5509 123.197 62.0923 124.138C60.6337 125.071 59.1676 125.997 57.6864 126.9L57.9721 126.411C58.0549 129.174 58.0924 131.929 58.0849 134.692C58.0924 136.069 58.0774 137.454 58.0549 138.832C58.0398 140.209 58.0173 141.595 57.9646 142.972L56.9571 142.37C58.9646 141.316 60.9796 140.3 63.0171 139.306C65.0471 138.305 67.0997 137.349 69.1899 136.445C67.3102 137.718 65.393 138.93 63.4532 140.112C61.5209 141.293 59.5736 142.445 57.6113 143.567L56.6263 144.131L56.6038 142.965C56.5737 141.587 56.5737 140.202 56.5812 138.824C56.5737 137.447 56.5812 136.062 56.6113 134.684C56.6489 131.921 56.7165 129.166 56.8444 126.403L56.8594 126.057L57.1301 125.914C58.6563 125.101 60.2052 124.311 61.7465 123.528C63.2953 122.76 64.8516 121.985 66.4306 121.262Z" fill="#008CFF"/>
<path d="M71.8137 164.298C69.5506 165.714 67.2499 167.061 64.9342 168.371C63.7838 169.033 62.6109 169.666 61.4456 170.321C60.2877 170.968 59.1073 171.585 57.9344 172.225L56.9795 172.744L56.9194 171.63C56.8141 169.62 56.769 167.611 56.6938 165.601L56.5585 159.563L56.551 159.119L56.9269 158.916C59.393 157.599 61.8666 156.296 64.3628 155.032C66.8589 153.774 69.3777 152.54 71.934 151.388C69.6032 152.954 67.2274 154.437 64.844 155.897C62.4531 157.35 60.0396 158.773 57.6186 160.166L57.987 159.526L58.1975 165.555C58.2351 167.565 58.3028 169.575 58.3178 171.593L57.3103 170.998C58.5058 170.418 59.6937 169.816 60.8967 169.252C62.0997 168.687 63.2951 168.1 64.5056 167.55C66.9191 166.406 69.3476 165.315 71.8137 164.298Z" fill="#008CFF"/>
<path d="M58.7993 180.423C59.897 179.497 61.0624 178.691 62.2503 177.946C63.4383 177.193 64.6563 176.486 65.8968 175.838C67.1374 175.183 68.4081 174.581 69.7013 174.024C70.9945 173.467 72.3102 172.963 73.7012 172.579C72.6034 173.512 71.438 174.31 70.2501 175.063C69.0622 175.816 67.8442 176.523 66.6036 177.171C65.363 177.826 64.0924 178.428 62.7992 178.985C61.506 179.535 60.1903 180.046 58.7993 180.423Z" fill="#008CFF"/>
<path d="M58.4082 180.235C58.4082 180.235 65.423 181.74 68.1823 183.374C70.9417 185.007 70.9417 185.007 70.9417 185.007C70.9417 185.007 77.0844 180.491 85.7307 184.879C88.1141 183.999 93.0012 181.364 99.0161 184.631C101.648 183.63 110.67 181.996 114.677 185.384C108.79 186.008 71.8214 185.888 69.5658 185.888C67.3102 185.888 64.9268 185.64 63.0472 184.631C61.1675 183.622 58.4082 180.235 58.4082 180.235Z" fill="#008CFF"/>
<path d="M91.7754 41.4751C89.6927 39.9996 88.0462 37.9747 85.9485 36.5293C84.3094 35.4001 82.2268 34.6398 80.2193 35.0162C78.1893 35.4002 76.7608 36.8229 74.5879 37.0412C73.0316 37.1993 71.4301 37.1767 69.9565 37.6886C67.5355 38.5317 65.7987 40.6847 64.5506 42.9279C61.4154 48.5813 60.9793 54.596 62.1071 60.7914C62.8288 64.7434 62.5055 68.8762 61.2048 72.6777C59.7688 76.8782 56.9568 80.2883 54.8967 84.1726C51.5585 90.4583 50.4457 97.8958 51.7841 104.889C51.4983 103.399 53.6336 100.508 54.4757 99.4013C55.8441 97.6097 57.6711 96.2698 59.4004 94.847C55.4757 99.168 54.393 105.86 56.7613 111.205C57.5508 105.747 61.8815 101.592 65.9415 97.8657C69.9941 94.1319 74.2721 89.8787 74.8736 84.3985C74.8887 86.6643 76.0691 90.2626 78.1818 91.4068C81.0389 92.9576 84.9635 92.7694 88.1063 92.7694C86.3319 92.4156 85.2267 90.5186 85.0914 88.7194C84.956 86.9128 85.5425 85.1437 85.9635 83.3822C87.1139 78.5494 87.0011 73.5133 86.8883 68.545C86.7906 64.4273 86.9635 60.2719 86.7906 56.1693C86.7304 54.6713 86.6252 53.2184 86.0838 51.8333C85.6553 50.7267 84.9184 49.2362 85.3019 48.0167C85.7906 46.4434 88.0311 46.0143 89.4146 46.1724" fill="#091D5B"/>
<path d="M87.3769 48.9801C86.001 46.5185 84.0763 44.3656 81.7906 42.717C81.1816 42.2728 80.5049 41.8588 79.7456 41.8136C78.7456 41.7534 77.8283 42.3707 77.0614 43.0181C73.9187 45.6603 71.6706 49.349 70.7684 53.3537C70.0917 56.3498 70.1744 59.5115 70.9714 62.4774C71.7007 65.1949 73.2119 67.7393 73.6329 70.5321C74.6028 76.9458 69.4 83.1487 65.8212 87.9138C63.0318 91.6325 62.4979 95.7803 62.0017 100.237C63.3776 96.8041 66.0467 96.518 69.2421 93.7854C70.4902 92.7165 71.8736 90.2624 72.8134 88.915C73.0691 88.5461 75.3773 84.7747 75.1442 84.6091C75.8058 85.0758 76.0615 86.6039 76.3998 87.3567C76.8058 88.2601 77.2945 89.1257 77.9261 89.8861C79.3245 91.5647 81.1515 92.8972 83.2041 93.6499C83.0387 90.8421 84.5725 88.2601 85.407 85.5726C86.392 82.3959 86.392 79.0159 86.392 75.6887C86.3845 70.0052 86.1965 64.3292 86.8957 58.6759C87.1814 56.3573 87.2792 54.0011 86.9709 51.675C86.8431 50.719 86.6326 49.7555 86.1213 48.9349C85.6101 48.1219 84.7379 47.4821 83.7755 47.467" fill="#05163F"/>
<path d="M85.1517 40.9781C84.3472 39.6833 83.2796 39.0585 81.9488 38.7197C79.6482 39.3746 78.0993 40.8049 77.4452 42.461C78.5053 43.4698 79.1143 44.7645 79.6331 46.2249" fill="#FC5959"/>
<path d="M79.0164 42.002C80.0088 42.1073 80.9637 41.6707 81.881 41.2718C82.7982 40.8803 83.8133 40.519 84.7681 40.79C82.7156 41.9869 80.8058 43.4398 79.1066 45.0959C79.4224 44.7872 78.1969 43.2064 77.9939 42.9881C77.7382 42.7171 77.3097 42.4837 77.5954 42.0998C77.8886 41.7159 78.6405 41.9643 79.0164 42.002Z" fill="#DD4545"/>
<path d="M100.693 42.3858C98.0084 40.8426 95.8505 40.1501 92.1213 39.9619C88.3846 39.7737 84.0464 40.4361 81.0916 42.7246C76.6255 46.1798 75.1368 54.9873 76.7082 60.4149C78.2796 65.8424 81.693 69.0944 86.4824 72.0829" fill="#091D5B"/>
<path opacity="0.6" d="M67.3929 105.732C65.9945 107.147 63.9945 110.655 63.5509 111.792C60.739 119.026 63.2577 127.322 65.6185 134.127C67.3704 139.186 69.1673 143.476 69.4831 148.866C69.7914 154.188 64.1825 163.794 67.4681 173.204C68.8816 176.027 75.4754 179.572 79.9715 181.108C84.1067 182.523 91.8133 185.346 115.783 183.652C118.579 172.353 80.0768 168.77 73.4228 167.016C72.8589 166.865 72.4605 166.353 72.4454 165.774C72.3477 161.686 72.7086 156.432 72.6108 154.663C73.6935 152.186 75.4077 149.898 75.6483 147.203C75.8889 144.508 74.6108 141.948 73.671 139.411C71.8815 134.609 71.2349 129.467 70.6034 124.386C69.8139 118.198 68.1598 111.92 67.3929 105.732Z" fill="#008CFF"/>
<path d="M112.467 153.76C112.467 153.76 112.196 165.443 94.7906 168.657C79.0692 171.563 71.9266 167.821 71.9717 167.016C71.9792 166.88 70.3928 161.129 70.7988 160.459" fill="#061544"/>
<path d="M71.257 161.776C71.3698 171.63 76.8057 177.547 85.9558 181.176C93.294 184.081 105.594 183.72 115.797 183.743L117.925 177.592L122.308 165.676L118.677 165.051L122.436 163.922L126.571 154.264C126.571 154.264 120.308 154.136 116.421 153.511C112.534 152.886 109.782 151.877 109.782 151.877L99.0081 161.159C99.0081 161.159 83.4672 161.031 80.2116 160.278" fill="#091D5B"/>
<path d="M118.181 165.171C118.527 164.9 118.88 164.75 119.226 164.607C119.572 164.479 119.925 164.389 120.286 164.336C121.023 164.215 121.865 164.336 122.534 164.66L123.181 164.976L122.925 165.405C122.188 166.624 121.745 168.145 120.948 169.462C121.271 167.964 121.406 166.466 122.008 164.946L122.391 165.683C121.647 165.789 121.053 165.811 120.361 165.789C119.662 165.759 118.91 165.631 118.181 165.171Z" fill="#091D70"/>
<path d="M118.805 164.818C118.933 164.833 119.339 164.193 123.444 163.207C123.083 164.908 122.639 164.991 122.639 164.991L118.805 164.818Z" fill="#05163F"/>
<path opacity="0.25" d="M172.39 164.389H151.353C151.06 164.389 150.819 164.148 150.819 163.854V135.166C150.819 134.872 151.06 134.631 151.353 134.631H166.713C166.969 134.631 167.187 134.812 167.24 135.06L172.916 163.749C172.976 164.08 172.728 164.389 172.39 164.389Z" fill="#091D70"/>
<path d="M168.487 163.116H147.45C147.157 163.116 146.916 162.876 146.916 162.582V133.894C146.916 133.6 147.157 133.359 147.45 133.359H162.811C163.066 133.359 163.284 133.54 163.337 133.788L169.014 162.477C169.081 162.808 168.826 163.116 168.487 163.116Z" fill="white"/>
<path d="M161.022 134.789C161.443 136.942 161.841 139.103 162.21 141.271L163.3 147.767L164.307 154.279C164.631 156.447 164.931 158.622 165.217 160.805C164.796 158.652 164.397 156.492 164.029 154.324L162.939 147.827L161.931 141.316C161.601 139.148 161.3 136.972 161.022 134.789Z" fill="#091D70"/>
<path d="M157.721 134.97C158.014 137.13 158.285 139.291 158.533 141.459L159.247 147.955L159.871 154.459C160.067 156.627 160.24 158.803 160.398 160.978C160.105 158.818 159.834 156.658 159.586 154.49L158.872 147.993L158.247 141.489C158.044 139.314 157.872 137.145 157.721 134.97Z" fill="#091D70"/>
<path d="M153.969 135.241C154.142 137.341 154.3 139.434 154.428 141.534L154.781 147.835L155.052 154.136C155.127 156.236 155.187 158.336 155.218 160.444C155.045 158.344 154.887 156.251 154.759 154.151L154.406 147.85L154.135 141.549C154.06 139.441 154.007 137.341 153.969 135.241Z" fill="#091D70"/>
<path d="M150.308 135.595C150.383 137.672 150.443 139.75 150.473 141.828L150.541 148.061L150.519 154.294C150.504 156.371 150.458 158.449 150.398 160.527C150.323 158.449 150.263 156.371 150.233 154.294L150.165 148.061L150.187 141.828C150.202 139.75 150.248 137.672 150.308 135.595Z" fill="#091D70"/>
<path d="M166.022 157.847C163.074 158.005 160.135 158.012 157.187 158.035C154.24 158.012 151.3 158.005 148.353 157.847C151.3 157.689 154.24 157.681 157.187 157.659C160.127 157.681 163.074 157.689 166.022 157.847Z" fill="#091D70"/>
<path d="M165.931 153.646C162.984 153.805 160.044 153.812 157.097 153.835C154.15 153.812 151.21 153.805 148.263 153.646C151.21 153.488 154.15 153.481 157.097 153.458C160.037 153.481 162.984 153.488 165.931 153.646Z" fill="#091D70"/>
<path d="M164.503 149.627C161.796 149.785 159.089 149.792 156.383 149.815C153.676 149.792 150.969 149.785 148.263 149.627C150.969 149.469 153.676 149.461 156.383 149.438C159.089 149.461 161.796 149.469 164.503 149.627Z" fill="#091D70"/>
<path d="M164.503 145.742C161.796 145.9 159.089 145.908 156.383 145.93C153.676 145.908 150.969 145.9 148.263 145.742C150.969 145.584 153.676 145.577 156.383 145.554C159.089 145.577 161.796 145.584 164.503 145.742Z" fill="#091D70"/>
<path d="M163.518 141.587C160.977 141.745 158.428 141.752 155.887 141.775C153.345 141.752 150.796 141.745 148.255 141.587C150.796 141.429 153.345 141.421 155.887 141.399C158.435 141.421 160.977 141.429 163.518 141.587Z" fill="#091D70"/>
<path d="M162.631 137.296C160.232 137.454 157.841 137.462 155.443 137.484C153.044 137.462 150.654 137.454 148.255 137.296C150.654 137.138 153.044 137.13 155.443 137.108C157.834 137.13 160.232 137.138 162.631 137.296Z" fill="#091D70"/>
<path opacity="0.1" d="M176.322 135.219C182.089 137.635 187.405 140.797 191.81 145.268C194.209 147.7 196.352 150.538 199.419 152.058C204.201 154.422 210.622 151.561 208.006 145.878C200.201 128.895 177.518 124.198 159.413 123.889C154.15 123.799 146.782 123.852 146.842 125.229C146.985 128.504 157.639 129.475 160.029 130.077C165.556 131.462 171.059 133.013 176.322 135.219Z" fill="#091D70"/>
<path d="M209.84 116.407C200.832 116.821 191.833 117.054 182.825 117.182C173.818 117.295 164.818 117.393 155.811 117.212L149.06 117.047L145.684 116.964L144.842 116.941C144.578 116.949 144.323 116.934 144.06 116.964C143.541 116.994 143.03 117.107 142.533 117.242C140.541 117.829 138.789 119.365 138.06 121.375L135.857 127.759L131.466 140.548L127.195 153.383C125.782 157.666 124.368 161.95 122.91 166.211C121.466 170.479 119.993 174.739 118.504 178.993L114.045 191.76L109.489 204.489C103.294 221.419 96.9031 238.281 90.2341 255.038L90.0236 254.963C95.3543 237.724 101.271 220.689 107.241 203.676L111.828 190.954L116.497 178.262C118.045 174.032 119.609 169.801 121.196 165.586C122.752 161.355 124.376 157.155 125.977 152.939C129.18 144.515 132.338 136.069 135.195 127.525C135.94 125.387 136.571 123.257 137.27 121.081C138.037 118.816 139.887 116.934 142.18 116.136C142.751 115.948 143.345 115.782 143.947 115.722C144.248 115.677 144.556 115.669 144.849 115.654L145.691 115.631L149.067 115.549L155.819 115.383C164.826 115.202 173.826 115.293 182.833 115.413C191.84 115.533 200.84 115.767 209.847 116.188V116.407H209.84Z" fill="#061544"/>
<path opacity="0.5" d="M228.05 108.186V9.99379C228.05 8.52587 226.125 7.96881 225.351 9.21843C224.419 10.7165 223.479 12.207 222.546 13.705C206.434 39.4801 180.375 48.8221 146.842 50.5459C146.962 65.6768 147.391 94.5835 148.135 109.805C157.082 111.31 164.322 113.697 173.285 116.595C185.465 120.532 196.863 125.44 206.63 133.713C214.539 140.413 221.734 147.316 228.05 155.536C228.05 154.497 228.05 153.466 228.05 153.466C228.05 153.466 228.05 135.346 228.05 108.186Z" fill="#42BEE5"/>
<path opacity="0.4" d="M171.675 85.9341C171.683 87.116 171.683 88.2978 171.683 89.4872C164.097 87.4547 155.571 86.1825 147.451 86.1374C147.27 80.499 146.827 65.9855 146.917 61.3183C155.307 60.9042 163.097 59.4137 171.39 57.2231C171.465 59.7826 171.623 71.9098 171.675 85.9341Z" fill="#071972"/>
<path d="M107.632 151.531C109.233 151.9 110.797 152.239 112.369 152.51C113.94 152.766 115.511 152.992 117.098 153.165L121.88 153.699C123.481 153.887 125.098 154.098 126.707 154.46C125.083 154.723 123.459 154.836 121.827 154.874C120.196 154.911 118.564 154.836 116.932 154.663C115.301 154.46 113.677 154.158 112.098 153.654C110.519 153.15 108.985 152.472 107.632 151.531Z" fill="#091D70"/>
<path d="M112.031 155.468C111.873 156.01 111.685 156.507 111.504 156.936C111.429 157.109 111.354 157.275 111.279 157.418C111.121 157.727 110.94 158.028 110.73 158.336C109.098 160.76 105.82 163.177 98.0987 165.262C85.287 168.725 75.2497 167.046 70.2499 162.221C69.9792 159.006 72.5731 149.709 72.5731 149.709C70.9641 141.135 67.5582 133.449 66.1748 124.777C64.7463 114.946 64.1222 104.445 68.3025 95.7955C70.1822 91.9036 75.1821 88.1473 76.979 86.9428C78.9489 85.6179 81.3022 85.3996 83.4976 86.318C83.9337 86.7321 84.5803 87.8612 85.5502 89.1334L93.6251 88.0118L97.3769 88.2753L110.159 111.935C110.159 111.935 110.82 124.228 110.031 131.266C109.79 133.404 109.354 137.048 109.279 139.329C109.241 140.601 109.519 149.1 112.136 151.448C112.572 152.781 112.384 154.241 112.031 155.468Z" fill="#F78334"/>
<path d="M112.061 155.498C111.911 155.973 111.73 156.454 111.504 156.936C111.685 156.507 111.873 156.01 112.031 155.468L112.061 155.498Z" fill="#153AAD"/>
<path d="M87.407 71.6538C87.5875 71.7441 94.3241 79.3397 95.4369 79.9193C96.5496 80.4989 99.5571 81.7711 99.5571 81.7711C99.5571 81.7711 96.5421 88.4709 96.6699 88.8548C97.5346 93.7328 93.7302 93.7177 91.4746 93.0779C87.7228 92.0089 82.6628 87.3568 82.5952 84.3456C84.2116 83.1713 85.6477 81.8615 86.6402 79.1364C87.1289 77.7814 87.6101 73.8068 87.6101 73.8068L87.407 71.6538Z" fill="#FFC1AF"/>
<path d="M154.684 58.7061C160.022 58.2619 165.285 57.321 170.51 56.2219C173.127 55.695 175.743 55.1153 178.315 54.3851C179.6 54.0087 180.871 53.5947 182.142 53.1882C183.405 52.7591 184.645 52.2472 185.901 51.7805C190.856 49.7781 195.75 47.6252 200.487 45.141C202.885 43.9667 205.201 42.6267 207.547 41.3395C208.735 40.7147 209.855 39.992 211.005 39.307L214.464 37.2594C214.479 37.2444 214.501 37.2519 214.517 37.267C214.524 37.282 214.524 37.3046 214.509 37.3197L211.208 39.6231C210.096 40.3684 209.013 41.1739 207.848 41.8363C205.539 43.2139 203.261 44.6442 200.848 45.8185C199.645 46.4207 198.479 47.0907 197.254 47.6327L193.57 49.2738C192.359 49.8534 191.081 50.2825 189.833 50.7793C188.577 51.2611 187.329 51.7504 186.044 52.1494L182.224 53.4216C180.939 53.813 179.66 54.1969 178.382 54.6185L174.525 55.7702C173.247 56.1767 171.931 56.4703 170.638 56.8166C169.984 56.9822 169.33 57.1252 168.676 57.2532C168.022 57.3887 167.36 57.5242 166.698 57.6447C165.375 57.878 164.044 58.0737 162.721 58.2695C160.052 58.5932 157.375 58.834 154.684 58.7663C154.661 58.7663 154.646 58.7512 154.646 58.7287C154.646 58.7211 154.661 58.7061 154.684 58.7061Z" fill="#EFF2F9"/>
<path d="M155.488 69.6063C160.713 68.9288 165.894 67.9577 171.074 67.0017C173.66 66.5124 176.262 66.0682 178.826 65.4434C180.119 65.1724 181.382 64.7885 182.652 64.4498C183.931 64.1261 185.186 63.712 186.442 63.3131C188.961 62.5377 191.442 61.6419 193.938 60.8138C195.178 60.3772 196.411 59.903 197.645 59.4513L199.502 58.7813L201.336 58.0587C206.268 56.2068 211.065 54.0464 215.9 51.9085C215.915 51.9009 215.937 51.9085 215.952 51.9235C215.96 51.9386 215.952 51.9612 215.937 51.9762L212.449 53.8506L210.689 54.769C210.095 55.0626 209.501 55.3411 208.9 55.6197L205.298 57.2833C204.08 57.8027 202.847 58.277 201.622 58.7738C196.705 60.731 191.675 62.3721 186.555 63.697C184.006 64.4046 181.434 64.9918 178.886 65.6843C177.6 65.993 176.329 66.3392 175.051 66.6704L171.194 67.5964C169.893 67.8448 168.608 68.1308 167.307 68.3567C165.999 68.5599 164.698 68.7858 163.39 68.9664C160.773 69.3202 158.142 69.6213 155.495 69.6665C155.473 69.6665 155.458 69.6515 155.458 69.6289C155.45 69.6289 155.465 69.6138 155.488 69.6063Z" fill="#EFF2F9"/>
<path d="M156.014 79.2568C161.044 78.361 166.074 77.5103 171.127 76.8102C173.653 76.4715 176.194 76.208 178.721 75.8316C181.247 75.4778 183.758 75.0337 186.269 74.5745C191.292 73.6486 196.314 72.7754 201.359 71.9849C206.396 71.187 211.449 70.4719 216.524 69.8696C216.547 69.8696 216.562 69.8847 216.569 69.8997C216.569 69.9223 216.562 69.9374 216.539 69.9374C211.539 70.9988 206.524 71.9247 201.487 72.7452C196.449 73.5808 191.397 74.311 186.337 74.9735C183.811 75.3122 181.277 75.651 178.758 76.08C176.239 76.479 173.736 76.9909 171.217 77.42C166.18 78.233 161.12 78.9256 156.022 79.3245C155.999 79.3245 155.984 79.3095 155.984 79.2869C155.984 79.2794 155.999 79.2643 156.014 79.2568Z" fill="#EFF2F9"/>
<path d="M155.21 88.9149C157.677 88.3805 160.18 88.0944 162.684 87.846C165.188 87.6051 167.699 87.4244 170.218 87.3266L173.992 87.2438C175.247 87.2287 176.511 87.2137 177.766 87.1685C180.277 87.1158 182.789 86.9878 185.3 86.8749C187.811 86.7469 190.322 86.6415 192.841 86.5964C195.352 86.5362 197.871 86.4985 200.382 86.5136C205.412 86.5286 210.442 86.6942 215.464 87.033C215.487 87.033 215.502 87.0556 215.502 87.0706C215.502 87.0932 215.487 87.1083 215.464 87.1083C210.434 87.2362 205.412 87.2814 200.39 87.2889C195.367 87.319 190.345 87.304 185.315 87.2814C182.804 87.2739 180.285 87.304 177.781 87.4244C175.27 87.5298 172.766 87.7632 170.263 87.9438C165.255 88.2977 160.233 88.4859 155.233 88.9827C155.21 88.9827 155.195 88.9676 155.188 88.9526C155.18 88.9375 155.195 88.9149 155.21 88.9149Z" fill="#EFF2F9"/>
<path d="M155.751 96.9547C160.721 96.6009 165.728 96.7665 170.683 97.2558C173.164 97.5118 175.623 97.9032 178.089 98.2344L185.487 99.2356C187.961 99.5518 190.419 99.9658 192.863 100.425L196.532 101.148C197.75 101.411 198.96 101.705 200.178 101.983C205.02 103.15 209.802 104.573 214.494 106.259C214.516 106.267 214.524 106.289 214.516 106.304C214.509 106.319 214.486 106.334 214.471 106.327C209.644 105.092 204.832 103.88 199.998 102.736C195.163 101.614 190.306 100.583 185.427 99.6421C184.209 99.4088 182.983 99.1679 181.758 99.0023C180.532 98.8066 179.299 98.6184 178.066 98.4979C176.833 98.3474 175.593 98.2269 174.352 98.1441C173.111 98.0387 171.871 97.9559 170.638 97.8882C168.164 97.7 165.691 97.5268 163.209 97.3763C160.728 97.2408 158.255 97.1203 155.766 97.045C155.744 97.045 155.729 97.03 155.729 97.0074C155.721 96.9698 155.736 96.9547 155.751 96.9547Z" fill="#EFF2F9"/>
<path d="M202.111 41.4976C202.367 47.0155 202.443 52.5333 202.382 58.0512C202.337 60.8139 202.209 63.5691 202.202 66.3317C202.164 69.0944 202.217 71.8496 202.277 74.6123C202.412 80.1302 202.48 85.648 202.458 91.1659C202.443 96.6838 202.337 102.202 202.104 107.719C202.104 107.742 202.089 107.757 202.066 107.757C202.044 107.757 202.029 107.742 202.029 107.719C201.795 102.202 201.69 96.6838 201.675 91.1659C201.652 85.648 201.72 80.1302 201.855 74.6123C201.916 71.8496 201.968 69.0944 201.931 66.3317C201.923 63.5691 201.795 60.8139 201.75 58.0512C201.69 52.5333 201.773 47.0155 202.021 41.4976C202.021 41.475 202.036 41.46 202.059 41.46C202.096 41.46 202.111 41.475 202.111 41.4976Z" fill="#EFF2F9"/>
<path d="M185.51 49.5371C185.766 54.4754 185.841 59.4136 185.781 64.3518C185.736 66.8209 185.608 69.29 185.601 71.7592C185.563 74.2283 185.616 76.6974 185.676 79.1665C185.811 84.1047 185.879 89.0429 185.856 93.9812C185.841 98.9194 185.736 103.858 185.503 108.796C185.503 108.818 185.488 108.833 185.465 108.833C185.442 108.833 185.427 108.818 185.427 108.796C185.194 103.858 185.089 98.9194 185.074 93.9812C185.051 89.0429 185.119 84.1047 185.254 79.1665C185.314 76.6974 185.367 74.2283 185.33 71.7592C185.322 69.29 185.194 66.8209 185.149 64.3518C185.089 59.4136 185.171 54.4754 185.42 49.5371C185.42 49.5146 185.435 49.4995 185.457 49.4995C185.495 49.507 185.51 49.5221 185.51 49.5371Z" fill="#EFF2F9"/>
<path d="M169.18 51.9537C169.436 56.4854 169.511 61.0246 169.451 65.5564C169.406 67.8222 169.278 70.0881 169.27 72.3615C169.232 74.6273 169.285 76.8932 169.345 79.1666C169.488 83.6983 169.541 88.2376 169.541 92.7693C169.503 97.301 169.413 101.84 169.18 106.372C169.18 106.395 169.157 106.41 169.142 106.41C169.119 106.41 169.104 106.395 169.104 106.372C168.864 101.84 168.781 97.301 168.743 92.7693C168.743 88.2376 168.796 83.6983 168.939 79.1666C168.999 76.9007 169.052 74.6349 169.014 72.3615C169.007 70.0956 168.879 67.8297 168.833 65.5564C168.773 61.0246 168.856 56.4854 169.104 51.9537C169.104 51.9311 169.119 51.916 169.142 51.916C169.165 51.916 169.18 51.9311 169.18 51.9537Z" fill="#EFF2F9"/>
<path d="M144.526 105.145C152.119 106.191 159.781 107.072 167.217 109.142C170.931 110.181 174.517 111.566 178.126 112.876C181.712 114.246 185.284 115.669 188.772 117.295C192.269 118.906 195.644 120.78 198.862 122.911C199.674 123.43 200.449 124.01 201.246 124.552C202.013 125.131 202.802 125.696 203.554 126.298C205.073 127.495 206.509 128.767 207.967 130.024C210.877 132.539 213.681 135.188 216.313 138.004C218.945 140.819 221.35 143.838 223.599 146.947C223.614 146.962 223.606 146.984 223.591 146.999C223.576 147.015 223.553 147.007 223.538 146.992C221.102 144.026 218.584 141.128 215.884 138.41C213.2 135.678 210.343 133.126 207.456 130.611C204.539 128.112 201.652 125.621 198.471 123.49C195.314 121.345 192.013 119.395 188.599 117.656C181.773 114.178 174.457 111.657 167.059 109.737C159.653 107.795 152.037 106.763 144.518 105.213C144.495 105.205 144.488 105.19 144.488 105.168C144.488 105.16 144.511 105.145 144.526 105.145Z" fill="#EFF2F9"/>
<path d="M148.894 119.824L153.18 119.282C156.639 119.297 160.09 117.95 162.631 115.594C163.992 114.329 164.841 112.763 165.969 111.318C167.21 109.737 168.541 108.224 169.954 106.801C167.014 107.577 164.924 110.64 161.894 110.866C160.736 110.957 159.556 110.603 158.413 110.844C156.052 111.333 154.909 115.135 152.541 115.586L149.075 116.301" fill="#FFC1AF"/>
<path d="M165.187 109.406C165.187 109.406 162.781 111.634 161.638 113.147Z" fill="#FFC1AF"/>
<path d="M158.496 116.332C160.969 115.895 163.578 116.241 165.864 117.303C162.593 117.935 159.293 118.432 155.977 118.786" fill="#FFC1AF"/>
<path d="M112.497 117.814C114.504 119.199 117.481 120.434 119.775 121.119C123.782 122.323 126.376 113.606 123.444 111.739C115.414 107.268 112.158 97.5343 107.376 93.2435C104.121 90.3077 101.128 89.4269 96.903 88.1021L96.7602 88.3881" fill="#F78334"/>
<path d="M112.82 100.568C117.369 107.629 119.211 110.648 125.85 112.454C132.744 114.329 139.955 114.69 149.638 114.02C152.052 114.826 153.165 121.541 151.067 121.932C143.774 123.272 139.128 124.258 125.94 123.987C122.662 123.919 118.534 123.543 113.888 121.842C112.128 121.194 110.407 120.321 110.407 120.321L107.286 118.891" fill="#F78334"/>
<path d="M111.279 157.418C110.993 158.02 110.767 158.382 110.767 158.382C110.767 158.382 110.752 158.366 110.73 158.336C110.941 158.028 111.121 157.727 111.279 157.418Z" fill="#153AAD"/>
<path d="M135.271 137.115C144.466 136.656 154.217 137.281 161.939 142.295C153.721 142.897 145.406 142.227 137.383 140.322C136.639 140.142 135.895 139.953 135.165 139.72" fill="#FFC1AF"/>
<path d="M143.827 136.746C147.714 135.693 151.744 135.173 155.766 135.196C153.631 136.001 151.511 136.844 149.406 137.733" fill="#FFC1AF"/>
<path d="M144.195 46.0518C144.488 51.0126 144.624 55.9659 144.639 60.9267C144.624 63.4033 144.541 65.8875 144.571 68.3717C144.571 70.8558 144.676 73.3325 144.782 75.8091C145.015 80.7624 145.195 85.7232 145.316 90.6765C145.443 95.6373 145.496 100.591 145.504 105.559C145.504 105.581 145.488 105.597 145.466 105.597C145.443 105.597 145.428 105.581 145.428 105.559C144.955 100.613 144.692 95.6524 144.541 90.6991C144.376 85.7383 144.338 80.7775 144.376 75.8166C144.391 73.3325 144.398 70.8558 144.316 68.3717C144.263 65.895 144.105 63.4109 144.022 60.9342C143.895 55.9734 143.917 51.0126 144.128 46.0518C144.128 46.0292 144.143 46.0142 144.165 46.0142C144.18 46.0217 144.195 46.0367 144.195 46.0518Z" fill="#EFF2F9"/>
<path d="M96.9484 83.3445C98.5197 83.7586 99.0836 83.0509 99.2716 82.4261C99.437 81.8841 99.8355 81.0636 99.8355 81.0636C99.8355 81.0636 95.5349 80.085 94.1063 78.3837C92.6778 76.6824 86.6028 71.5786 86.6028 71.5786C86.6028 71.5786 91.3846 82.1175 96.9484 83.3445Z" fill="#FF9796"/>
<path d="M86.7381 90.3529C83.46 87.2665 82.6856 83.9844 82.6856 83.9844C82.6856 83.9844 77.4978 85.8964 74.6558 89.0431" fill="#F78334"/>
<path d="M73.9562 109.858C78.0764 119.937 82.5274 132.644 94.4819 139.291C98.4216 141.482 104.73 142.829 109.166 143.635C119.18 145.456 139.42 143.906 139.458 141.489C138.924 139.878 138.887 136.596 141.969 136.22C140.924 134.413 133.939 136.468 125.684 134.074C122.857 133.254 119.053 132.087 116.399 130.589C112.564 128.421 106.767 125.643 103.812 122.369C101.053 119.312 93.0534 111.792 90.9632 108.247" fill="#F78334"/>
<path d="M167.796 82.2907C167.803 83.4726 167.803 84.0071 167.803 85.1965C158.608 83.7662 148.962 83.3597 139.864 83.5855C139.864 74.507 139.594 65.7597 139.594 56.6812C149.232 56.5307 157.939 54.9498 167.277 52.4807C167.36 55.0477 167.736 68.2665 167.796 82.2907Z" fill="#2EEDA8"/>
<path opacity="0.4" d="M220.689 139.216C214.802 132.381 207.968 125.681 200.742 121.526C200.712 113.268 200.675 112.545 200.652 103.655C206.629 103.256 215.486 99.981 221.088 96.458C220.952 107.29 220.652 137.003 220.689 139.216Z" fill="#071972"/>
<path d="M217.877 131.041C211.99 125.854 204.975 120.223 197.795 117.506C197.765 109.248 197.818 106.297 197.795 97.399C203.772 97 212.629 93.7254 218.231 90.2024C218.095 101.035 217.84 128.827 217.877 131.041Z" fill="#FFE57C"/>
<path d="M78.0917 127.533C78.9563 131.568 81.9337 135.467 85.4824 137.567C93.7529 142.46 102.114 142.061 99.6625 141.037C95.2641 139.208 91.1665 136.957 88.1891 133.984C84.4073 130.205 81.5352 125.523 79.0014 120.863C78.6255 120.17 77.4526 117.852 76.8511 116.467C76.5879 120.005 77.1443 122.512 78.0917 127.533Z" fill="#E06934"/>
<path d="M74.2195 109.993C76.0691 113.93 77.7532 117.927 79.7456 121.759C81.7681 125.56 84.0237 129.257 86.9109 132.411C87.595 133.239 88.3996 133.939 89.1364 134.707L90.3469 135.745L90.9559 136.265L91.5949 136.739L92.8806 137.695L94.234 138.546C95.1287 139.14 96.061 139.607 97.0384 140.051C98.9932 140.917 101.053 141.579 103.128 142.159C105.204 142.776 107.309 143.266 109.421 143.778C105.121 143.213 100.82 142.43 96.7076 140.849C95.685 140.45 94.655 139.991 93.7302 139.396L92.3092 138.553L90.9559 137.597L90.2792 137.116L89.6476 136.581L88.3845 135.512C87.6101 134.729 86.768 134.007 86.0613 133.163C84.5651 131.545 83.2869 129.738 82.0914 127.902C80.9261 126.042 79.8885 124.115 78.9562 122.143C78.0465 120.155 77.1968 118.153 76.4074 116.128C75.6781 114.088 74.9187 112.048 74.2195 109.993Z" fill="#E06934"/>
<path d="M90.3171 107.132C92.2945 109.85 94.347 112.5 96.5274 115.021C98.7229 117.528 101.054 119.907 103.595 122.045C106.114 124.198 108.843 126.11 111.707 127.796C114.58 129.467 117.587 130.928 120.7 132.207C117.452 131.342 114.279 130.137 111.286 128.564C108.279 127.006 105.46 125.086 102.873 122.895C100.294 120.69 97.9484 118.228 95.8658 115.571C93.7531 112.929 91.9261 110.083 90.3171 107.132Z" fill="#E06934"/>
<path d="M109.662 114.517C110.354 117.385 111.429 117.468 113.715 119.335C116 121.194 119.993 122.414 122.639 123.716C119.263 123.784 116.053 122.813 112.91 121.571C112.151 121.27 111.068 120.946 110.948 120.14C110.888 119.741 110.369 117.747 110.414 117.34" fill="#E06934"/>
<path d="M109.211 108.608C109.278 110.166 109.534 111.642 109.872 113.125C110.211 114.608 110.594 116.091 110.865 117.634C110.978 118.409 111.09 119.184 111.121 119.982C111.151 120.773 111.105 121.593 111.008 122.354C110.842 123.889 110.639 125.417 110.324 126.923C110.173 125.365 110.128 123.822 110.128 122.278C110.166 120.765 110.015 119.312 109.752 117.814C109.504 116.324 109.173 114.818 109 113.26C108.82 111.732 108.805 110.113 109.211 108.608Z" fill="#E06934"/>
<path d="M158.285 68.3341C158.292 69.659 157.766 70.9764 156.841 71.9475C155.924 72.9261 154.608 73.5358 153.232 73.581C151.864 73.6337 150.45 73.1143 149.435 72.1432C148.413 71.1721 147.811 69.7644 147.811 68.3417C147.811 66.9189 148.413 65.5037 149.435 64.5401C150.458 63.5615 151.864 63.0496 153.232 63.1023C154.608 63.14 155.924 63.7572 156.841 64.7359C157.766 65.6844 158.292 67.0017 158.285 68.3341ZM158.285 68.3341C158.285 67.0092 157.728 65.6994 156.766 64.7961C155.811 63.8927 154.503 63.4185 153.232 63.4637C151.954 63.5088 150.736 64.0809 149.894 64.9843C149.037 65.8801 148.555 67.0996 148.563 68.3266C148.555 69.5536 149.037 70.7731 149.894 71.6765C150.736 72.5873 151.961 73.1594 153.24 73.1971C154.51 73.2498 155.818 72.7755 156.773 71.8647C157.721 70.9689 158.277 69.659 158.285 68.3341Z" fill="#091D70"/>
<path d="M143.579 78.4288C144.736 76.8856 146.218 75.5532 147.954 74.6197C148.819 74.1455 149.759 73.8218 150.721 73.5809C151.684 73.355 152.684 73.2798 153.669 73.2948C155.646 73.355 157.586 73.8745 159.353 74.695C161.119 75.5155 162.773 76.5845 164.164 77.9244C163.375 77.3749 162.555 76.8705 161.713 76.4264C160.879 75.9672 160.014 75.5607 159.127 75.2219C157.36 74.5444 155.511 74.0777 153.646 74.0401C151.781 73.9648 149.917 74.3638 148.202 75.1241C147.36 75.5306 146.526 75.9822 145.774 76.5694C144.992 77.1189 144.293 77.7814 143.579 78.4288Z" fill="#091D70"/>
<path d="M213.11 108.706C213.118 109.564 213.058 110.422 212.885 111.265C212.72 112.108 212.441 112.936 211.975 113.667C211.517 114.397 210.885 115.022 210.148 115.496C209.404 115.985 208.502 116.196 207.622 116.188C205.848 116.188 204.088 115.315 202.938 113.93C201.787 112.545 201.148 110.783 201.021 109.007C200.908 107.23 201.299 105.363 202.404 103.903C202.93 103.165 203.667 102.593 204.434 102.157C205.216 101.728 206.111 101.464 207.005 101.479C208.825 101.479 210.426 102.563 211.449 103.933C212.501 105.288 213.11 106.989 213.11 108.706ZM213.11 108.706C213.095 106.989 212.449 105.296 211.366 103.993C210.291 102.691 208.675 101.773 207.02 101.878C205.381 101.968 203.87 102.985 202.968 104.302C202.051 105.634 201.712 107.328 201.825 108.954C201.93 110.588 202.487 112.206 203.479 113.501C204.457 114.803 205.983 115.699 207.644 115.797C209.306 115.97 210.93 114.999 211.892 113.614C212.862 112.184 213.103 110.4 213.11 108.706Z" fill="#091D70"/>
<path d="M204.674 107.531C205.05 108.201 205.411 108.879 205.795 109.534C205.99 109.857 206.178 110.189 206.381 110.505C206.486 110.663 206.584 110.813 206.697 110.964C206.802 111.099 206.938 111.265 207.005 111.303C207.005 111.318 207.02 111.265 206.855 111.31C206.832 111.325 206.87 111.295 206.892 111.265C206.945 111.212 206.998 111.137 207.05 111.062C207.156 110.919 207.261 110.761 207.366 110.603L207.99 109.654L209.216 107.727C210.855 105.152 212.509 102.593 214.373 100.146C213.073 102.932 211.531 105.574 209.877 108.156C209.456 108.796 209.043 109.443 208.592 110.061C208.366 110.377 208.141 110.685 207.907 110.994C207.787 111.145 207.667 111.295 207.532 111.446C207.464 111.521 207.396 111.596 207.313 111.679C207.268 111.717 207.238 111.754 207.126 111.815C206.87 111.92 206.787 111.799 206.704 111.769C206.464 111.581 206.381 111.416 206.268 111.242C206.163 111.069 206.073 110.896 205.983 110.723C205.802 110.377 205.644 110.03 205.494 109.669C205.201 108.969 204.915 108.261 204.674 107.531Z" fill="#091D70"/>
<path d="M143.676 46.067C156.3 45.1787 168.931 43.4022 180.916 39.3673C186.893 37.3498 192.712 34.7678 198.051 31.3577C203.404 27.9853 208.223 23.7697 212.351 18.982C214.419 16.5957 216.336 14.0739 218.088 11.4467L219.358 9.45187C219.779 8.7819 220.215 8.09687 220.704 7.45701C220.952 7.13332 221.208 6.81715 221.509 6.51604C221.667 6.36548 221.824 6.22246 222.065 6.09448C222.17 6.03426 222.381 5.97404 222.554 6.01168C222.719 6.03426 222.869 6.11707 222.982 6.21493C223.396 6.62143 223.478 7.05051 223.591 7.45701C223.689 7.87104 223.742 8.27754 223.779 8.67651C223.862 9.48951 223.847 10.295 223.847 11.0854L223.854 13.4642L223.877 18.2217V27.7369C223.884 34.0828 223.824 40.4212 223.764 46.7671C223.712 53.113 223.659 59.4514 223.524 65.7973C223.524 65.8199 223.509 65.835 223.486 65.835C223.463 65.835 223.448 65.8199 223.448 65.7973C223.321 59.4514 223.268 53.113 223.208 46.7671C223.14 40.4212 223.088 34.0828 223.095 27.7369V18.2217L223.118 13.4642L223.125 11.0854C223.125 10.2875 223.148 9.50457 223.08 8.73673C223.05 8.35282 222.997 7.9689 222.922 7.60757C222.847 7.26129 222.712 6.87737 222.539 6.72682C222.501 6.69671 222.471 6.68165 222.441 6.67412C222.418 6.6666 222.426 6.6666 222.358 6.69671C222.245 6.75693 222.103 6.86985 221.967 6.99029C221.704 7.24623 221.456 7.53982 221.215 7.84093C220.734 8.45068 220.306 9.1056 219.877 9.76804L218.561 11.7554C216.749 14.3675 214.779 16.8818 212.659 19.2455C204.171 28.7456 193.103 35.7088 181.126 39.9544C175.119 42.0472 168.901 43.485 162.631 44.4636C159.495 44.9529 156.338 45.3142 153.18 45.6003C150.022 45.8713 146.849 46.0294 143.684 46.1348C143.661 46.1348 143.646 46.1197 143.646 46.0971C143.646 46.0896 143.661 46.067 143.676 46.067Z" fill="#EFF2F9"/>
<path d="M87.4822 61.4161C87.4822 62.7485 87.0461 66.5576 87.0461 66.5576C85.8883 64.4423 82.8583 61.657 82.0763 65.4359C81.5651 67.9126 83.0537 70.2085 86.798 71.699C87.3318 71.9098 87.6401 72.7078 87.9258 73.8972C90.0235 76.1028 92.4896 78.0073 95.1286 79.543C96.73 80.4689 98.4744 80.913 100.294 81.2894C101.602 81.5529 104.399 82.0497 105.046 80.4313C105.226 79.9796 105.767 78.3536 105.903 77.8793C106.098 77.2169 106.301 76.5545 106.504 75.892C107 74.251 107.474 72.6099 107.85 70.9387C108.512 68.0255 108.865 65.2628 107.316 62.485C108.211 57.1554 108.143 56.4478 106.346 52.9172C105.963 52.7893 97.6849 48.4307 91.1437 52.4204L84.6702 55.6724L85.6101 60.2869" fill="#FFC1AF"/>
<path d="M98.9633 59.647C98.9633 59.647 97.3994 57.6597 91.8056 61.4989Z" fill="#05163F"/>
<path d="M108.91 57.4264C108.91 57.4264 107.579 55.8607 102.79 58.8868Z" fill="#05163F"/>
<path d="M97.4369 62.0634C97.7978 61.9881 98.1361 62.1086 98.2489 62.3344C98.5271 62.9141 98.4068 63.4786 98.0985 64.0583C97.8655 64.4949 97.2715 64.7508 96.8505 64.3368C96.2866 63.7873 96.6099 62.1236 97.4369 62.0634Z" fill="#05163F"/>
<path d="M84.7532 66.6706C84.678 66.52 84.5878 66.3845 84.46 66.2791C84.3021 66.1587 84.0765 66.106 83.9111 66.2039C83.6254 66.377 83.7006 66.8136 83.8359 67.1222C84.1442 67.8148 84.8134 69.3203 85.678 69.3881C85.8284 68.6654 85.1291 67.4158 84.7983 66.7534C84.7833 66.7233 84.7682 66.6932 84.7532 66.6706Z" fill="#FF9796"/>
<path d="M98.5647 44.8325C98.6399 48.0017 97.5572 51.186 95.5573 53.64C93.5573 56.0941 90.6627 57.8029 87.55 58.3599C88.58 60.4301 87.0913 63.4412 87.0162 66.505C87.0162 66.505 86.5425 63.4036 84.6704 63.2605C83.8659 61.1753 83.738 59.9859 83.738 59.9859L82.099 52.955" fill="#091D5B"/>
<path d="M84.2642 71.4656C83.7604 71.985 83.5649 72.7378 83.6326 73.4002C83.7078 74.0702 83.9709 74.6724 84.407 75.1392C84.8281 75.6209 85.4897 75.9522 86.1964 75.922C86.8957 75.8995 87.5573 75.5231 87.9783 74.9886C88.3994 74.4541 88.6174 73.7992 88.6099 73.1518C88.6024 72.5044 88.3317 71.8947 87.8806 71.4656C87.437 71.0215 86.8205 70.7881 86.1588 70.7354C85.4972 70.6978 84.7604 70.9387 84.2642 71.4656ZM84.2191 71.4204C84.7153 70.901 85.3544 70.4569 86.1288 70.3138C86.8957 70.1482 87.7678 70.4042 88.3693 70.9688C88.9783 71.5258 89.279 72.3765 89.2339 73.1744C89.2039 73.9799 88.8129 74.7327 88.249 75.2445C87.6776 75.7564 86.9633 76.0651 86.2265 76.1403C85.4897 76.2232 84.6702 76.0651 84.0536 75.5457C83.4371 75.0262 83.1213 74.1681 83.2416 73.4002C83.3243 72.6098 83.7303 71.9474 84.2191 71.4204Z" fill="#BC902E"/>
<path d="M96.7002 50.4331C96.9107 52.6764 96.407 54.9724 95.2717 56.9145C94.1364 58.8567 92.377 60.43 90.3245 61.3409C93.6552 59.1202 95.6627 55.0552 95.407 51.0579" fill="#091D5B"/>
<path d="M96.8505 50.6138C98.1287 52.6011 98.5422 55.1304 97.9633 57.4189C97.9482 55.4842 97.5874 53.5571 96.9107 51.7505" fill="#091D5B"/>
<path d="M101.993 61.9656C103.038 64.3745 104.557 66.6027 106.459 68.6352C104.737 69.0191 102.098 69.4632 102.098 69.4632" fill="#FF9796"/>
<path d="M98.3243 62.2817C97.6927 62.2365 97.1514 62.3946 96.6476 62.6204C96.392 62.7258 96.1514 62.8839 95.9108 63.0345C95.6702 63.1926 95.4446 63.3657 95.204 63.5464L95.0462 63.6593L94.9409 63.584C94.6702 63.3807 94.4146 63.1624 94.1665 62.9065C94.5124 62.9818 94.8357 63.0872 95.1514 63.2076L94.8958 63.2453C95.0913 62.9968 95.3093 62.7559 95.5725 62.5602C95.8356 62.3645 96.1213 62.1914 96.4296 62.086C96.7454 61.9806 97.0837 61.9279 97.4145 61.9505C97.7453 61.9731 98.0762 62.0784 98.3243 62.2817Z" fill="#05163F"/>
<path d="M105.873 60.8742C106.234 60.7989 106.572 60.9194 106.685 61.1452C106.963 61.7249 106.843 62.2894 106.535 62.8691C106.301 63.3057 105.707 63.5616 105.286 63.1476C104.723 62.5905 105.046 60.9344 105.873 60.8742Z" fill="#05163F"/>
<path d="M103.587 61.9506C103.76 61.6871 103.963 61.4387 104.204 61.2354C104.452 61.0397 104.73 60.8591 105.046 60.7461C105.362 60.6408 105.7 60.573 106.046 60.6031C106.392 60.6332 106.715 60.7311 107.023 60.972L106.708 61.0322C106.941 60.7537 107.204 60.4977 107.49 60.2568C107.377 60.6182 107.241 60.9569 107.076 61.2806L107.001 61.4387L106.76 61.3408C106.55 61.258 106.272 61.1978 106.016 61.1978C105.753 61.1978 105.49 61.2279 105.226 61.3032C104.956 61.3634 104.7 61.4763 104.429 61.5817C104.144 61.6871 103.873 61.8151 103.587 61.9506Z" fill="#05163F"/>
<path d="M95.5877 44.5238C97.1215 42.8451 99.4447 41.9116 101.715 42.0622C103.986 42.2127 106.159 43.4398 107.467 45.3142C108.272 46.4735 108.76 47.8586 109.753 48.8673C111.091 50.2374 113.166 50.674 115.068 50.4632C116.971 50.2524 118.76 49.477 120.512 48.7092C117.865 50.9525 114.437 52.2397 110.978 52.3C113.452 53.926 116.444 54.739 119.399 54.5959C113.068 57.0425 105.392 58.1189 99.5274 54.0539C97.5275 52.6688 96.1441 50.132 95.9636 47.7005C95.7531 47.8661 95.535 48.0317 95.3245 48.2049" fill="#091D5B"/>
<path d="M104.933 72.6551C103.775 73.2498 104.399 72.5196 102.459 73.2272C99.655 74.251 97.9332 73.7617 97.9332 73.7617C97.9332 73.7617 100.046 75.3576 103.264 75.1393C104.414 75.064 106.181 74.4392 106.602 73.0767C106.55 72.8659 105.692 72.5422 104.933 72.6551Z" fill="#FC5959"/>
<path d="M92.6927 54.8894C90.7829 56.2896 89.8882 58.706 89.6176 61.0622C89.3469 63.4184 89.6101 65.7896 89.5123 68.1534C89.1289 65.895 88.0988 63.8098 87.4146 61.6343C86.7304 59.4588 86.4071 56.9972 87.4071 54.9421" fill="#091D5B"/>
<path d="M86.693 57.321C86.1216 58.5405 86.3246 59.9708 86.6178 61.2882C86.911 62.6055 87.2794 63.9605 87.0087 65.2779C87.1892 64.5552 87.3847 63.8401 87.5576 63.1174C87.7456 62.3496 87.5877 62.1614 87.302 61.4463C86.7682 60.1515 86.5576 58.7137 86.693 57.321Z" fill="#05163F"/>
<path d="M107.204 55.8983C106.324 55.7327 105.332 55.9284 104.414 55.7628C103.452 55.5897 102.52 55.2961 101.633 54.8971C99.9334 54.1293 98.2568 52.9022 97.2042 51.344C100.129 53.6249 103.557 55.2133 107.204 55.8983Z" fill="#05163F"/>
<path d="M108.956 50.6365C110.745 51.3516 112.67 51.7205 114.594 51.7129C113.482 51.9915 112.211 52.1947 111.061 52.0969C110.617 52.0592 110.286 51.9463 109.91 51.6828C109.595 51.4645 109.226 50.7494 108.956 50.6365Z" fill="#05163F"/>
<path d="M54.0174 98.4679C52.7468 100.169 51.9649 102.202 51.4611 104.272C51.8746 102.586 53.4987 100.696 54.5813 99.3712C55.7693 97.9184 57.6038 96.7741 58.6564 95.3439C57.2655 94.6664 54.7392 97.5043 54.0174 98.4679Z" fill="#05163F"/>
<path d="M63.4981 77.0437C62.0395 79.701 60.0245 81.997 58.2877 84.4811C56.551 86.9653 55.0623 89.7581 54.8893 92.7843C56.7088 90.0366 59.2727 87.8611 61.2426 85.2113C62.9418 82.9304 64.1673 80.2957 64.859 77.5405C65.4078 75.3424 66.265 71.443 65.2424 69.2976C65.5206 72.0377 64.8214 74.6423 63.4981 77.0437Z" fill="#05163F"/>
<path d="M91.5574 54.2347C92.8431 54.0766 93.8129 52.9098 94.1513 51.6602C94.4671 50.4934 94.3392 49.2663 94.1964 48.0845C94.0235 49.2061 93.7603 50.2976 93.3167 51.3515C93.0987 51.8484 92.1513 54.1594 91.5574 54.2347Z" fill="#18367F"/>
<path d="M104.512 43.3646C106.008 44.0872 107.211 45.3971 107.798 46.9478C105.775 45.7584 103.67 44.712 101.505 43.8237C100.467 43.4022 100.084 42.9129 101.467 42.7247C102.452 42.5817 103.64 42.943 104.512 43.3646Z" fill="#18367F"/>
<path d="M105.301 47.8511C107.61 49.1384 109.113 51.5397 111.391 52.8872C109.391 52.1495 107.677 50.8246 105.948 49.59C104.384 48.4759 102.805 47.55 100.986 46.9403C102.339 46.6015 104.129 47.1887 105.301 47.8511Z" fill="#18367F"/>
<path d="M65.9266 41.9944C64.8514 43.914 64.4529 46.1347 64.2574 48.3328C65.2424 46.5261 66.295 44.7571 67.4002 43.0257C68.0769 41.9718 68.9791 41.0007 69.9641 40.1877C70.3625 39.864 71.1219 39.5328 71.2648 39.0134C71.4151 38.4563 71.0467 38.1778 70.4979 38.2832C69.8588 38.4112 69.2272 38.7123 68.6784 39.051C67.528 39.7587 66.5882 40.8125 65.9266 41.9944Z" fill="#18367F"/>
<path d="M86.039 71.6389C86.5912 71.6389 87.0389 71.1906 87.0389 70.6377C87.0389 70.0847 86.5912 69.6365 86.039 69.6365C85.4867 69.6365 85.039 70.0847 85.039 70.6377C85.039 71.1906 85.4867 71.6389 86.039 71.6389Z" fill="#E2B442"/>
<path d="M58.7991 180.423C59.8592 178.247 59.7765 175.552 58.596 173.437C58.2953 172.895 57.9194 172.375 57.7991 171.766C57.581 170.689 58.1976 169.65 58.6036 168.627C59.8141 165.578 59.0472 161.844 56.7465 159.518C58.2126 155.287 59.6938 150.726 58.4833 146.42C58.2201 145.486 57.8291 144.575 57.769 143.604C57.6713 142.144 58.3179 140.759 58.7239 139.351C59.4306 136.912 59.4306 134.277 58.7239 131.838C58.2427 130.175 57.4307 128.541 57.5134 126.81C57.581 125.417 58.2126 124.13 58.6412 122.813C59.7464 119.372 59.378 115.488 57.6562 112.319C57.6562 112.319 56.4157 114.999 56.4157 124.408C56.4157 133.818 56.2803 151.253 56.2803 151.253C56.2803 151.253 56.2803 168.19 56.1525 170.072C56.0247 171.954 57.6562 177.728 57.9043 178.729C58.16 179.73 58.7991 180.423 58.7991 180.423Z" fill="#008CFF"/>
</g>
</svg>
