<svg width="101" height="71" viewBox="0 0 101 71" fill="none" xmlns="http://www.w3.org/2000/svg">
<path d="M90.8371 60.3529H4.6685V2.97584C4.6685 2.35126 5.1754 1.84436 5.79998 1.84436H90.8394V60.3529H90.8371Z" fill="#E2F0F7"/>
<path d="M92.6067 6.65973H6.50146V1.3418C6.50146 0.717228 7.00837 0.210327 7.63294 0.210327H92.6067V6.65973Z" fill="#008CFF"/>
<path d="M92.7674 58.6896L49.7193 58.796C42.5344 58.8073 35.3495 58.8367 28.1534 58.8163L6.58518 58.7824H6.47882V58.6783L6.51277 40.6539C6.52408 34.6458 6.54218 28.6376 6.52408 22.6295L6.49692 4.6051L6.49466 2.35121C6.49693 1.97329 6.49014 1.60669 6.49692 1.21973C6.51729 0.812399 6.76395 0.427698 7.11924 0.230821C7.29575 0.131251 7.49941 0.0792032 7.70308 0.0746773L8.26655 0.0724144L9.3935 0.0701514L11.6474 0.0656255L20.6585 0.0475219L56.7073 0.0090518L92.7561 0H92.9258V0.169721L92.7674 58.6896ZM92.7425 58.667L92.5841 0.169721L92.7538 0.339442L56.705 0.328128L20.6562 0.289658L11.6474 0.271554L9.3935 0.267028L8.26655 0.264765H7.70534C7.53335 0.267028 7.36137 0.310024 7.21202 0.396016C6.91105 0.563475 6.70059 0.887076 6.68249 1.23331C6.6757 1.59764 6.68022 1.98008 6.67796 2.35347L6.6757 4.60737L6.64628 22.6295C6.62818 28.6376 6.64628 34.6458 6.6576 40.6539L6.69154 58.6783L6.58744 58.5742L28.1036 58.5403C35.2703 58.5199 42.4461 58.5493 49.6242 58.5606L92.7425 58.667Z" fill="#008CFF"/>
<path d="M10.1675 4.18873C10.7261 4.18873 11.179 3.73585 11.179 3.17719C11.179 2.61853 10.7261 2.16565 10.1675 2.16565C9.6088 2.16565 9.15591 2.61853 9.15591 3.17719C9.15591 3.73585 9.6088 4.18873 10.1675 4.18873Z" fill="#F6F8FA"/>
<path d="M13.2654 4.18873C13.8241 4.18873 14.277 3.73585 14.277 3.17719C14.277 2.61853 13.8241 2.16565 13.2654 2.16565C12.7068 2.16565 12.2539 2.61853 12.2539 3.17719C12.2539 3.73585 12.7068 4.18873 13.2654 4.18873Z" fill="#F6F8FA"/>
<path d="M16.3634 4.18873C16.9221 4.18873 17.3749 3.73585 17.3749 3.17719C17.3749 2.61853 16.9221 2.16565 16.3634 2.16565C15.8047 2.16565 15.3519 2.61853 15.3519 3.17719C15.3519 3.73585 15.8047 4.18873 16.3634 4.18873Z" fill="#F6F8FA"/>
<path d="M89.2462 19.7103H44.8652V25.2681H89.2462V19.7103Z" fill="#DDF6FF"/>
<path d="M9.92302 18.9636C16.3837 18.8844 22.8467 18.8595 29.3075 18.8776C32.5389 18.8934 35.7682 18.9319 38.9997 18.9341C42.2312 18.9477 45.4604 18.916 48.6919 18.9092C55.1526 18.873 61.6156 18.8414 68.0763 18.8527C71.3078 18.8504 74.537 18.8708 77.7685 18.8889C81 18.9047 84.2292 18.9228 87.4607 18.9636V18.9862C84.2292 19.0269 81 19.0428 77.7685 19.0609C74.537 19.079 71.3078 19.0993 68.0763 19.0971C61.6156 19.1084 55.1526 19.0767 48.6919 19.0405C45.4604 19.0337 42.2312 19.0043 38.9997 19.0179C35.7682 19.0201 32.5389 19.0609 29.3075 19.0744C22.8467 19.0925 16.3837 19.0677 9.92302 18.9884V18.9636Z" fill="#A9DBF7"/>
<path d="M20.7761 14.5416H12.2493C12.1633 14.5416 12.0932 14.4715 12.0932 14.3855V12.4099C12.0932 12.3239 12.1633 12.2538 12.2493 12.2538H20.7761C20.8621 12.2538 20.9323 12.3239 20.9323 12.4099V14.3855C20.9323 14.4715 20.8644 14.5416 20.7761 14.5416Z" fill="#008CFF"/>
<path d="M80.7217 14.5416H53.4237C53.3377 14.5416 53.2676 14.4715 53.2676 14.3855V12.4099C53.2676 12.3239 53.3377 12.2538 53.4237 12.2538H80.7217C80.8077 12.2538 80.8778 12.3239 80.8778 12.4099V14.3855C80.8778 14.4715 80.8099 14.5416 80.7217 14.5416Z" fill="#008CFF"/>
<path d="M25.3406 14.5416H22.5639C22.4779 14.5416 22.4078 14.4715 22.4078 14.3855V12.4099C22.4078 12.3239 22.4779 12.2538 22.5639 12.2538H25.3406C25.4266 12.2538 25.4967 12.3239 25.4967 12.4099V14.3855C25.4967 14.4715 25.4266 14.5416 25.3406 14.5416Z" fill="#008CFF"/>
<path d="M48.0718 19.7103H10.0385V25.2681H48.0718V19.7103Z" fill="#DDF6FF"/>
<path d="M89.244 25.9221H50.6697V31.4799H89.244V25.9221Z" fill="white"/>
<path d="M51.3282 25.9221H10.0385V31.4799H51.3282V25.9221Z" fill="white"/>
<path d="M89.244 32.1339H50.6697V37.6917H89.244V32.1339Z" fill="#DDF6FF"/>
<path d="M51.4934 32.1339H10.0385V37.6917H51.4934V32.1339Z" fill="#DDF6FF"/>
<path d="M89.244 38.3433H50.6697V43.9011H89.244V38.3433Z" fill="white"/>
<path d="M51.2694 38.3433H10.0385V43.9011H51.2694V38.3433Z" fill="white"/>
<path d="M89.244 44.5553H50.6697V50.1131H89.244V44.5553Z" fill="#DDF6FF"/>
<path d="M51.0182 44.5553H10.0385V50.1131H51.0182V44.5553Z" fill="#DDF6FF"/>
<path d="M89.244 50.767H50.6697V56.3248H89.244V50.767Z" fill="white"/>
<path d="M51.9913 50.767H10.0385V56.3248H51.9913V50.767Z" fill="white"/>
<path d="M74.6525 23.4192H53.4215C53.3355 23.4192 53.2676 23.3513 53.2676 23.2653V21.4165C53.2676 21.3305 53.3355 21.2626 53.4215 21.2626H74.6525C74.7385 21.2626 74.8064 21.3305 74.8064 21.4165V23.2653C74.8064 23.3513 74.7385 23.4192 74.6525 23.4192Z" fill="#A9DBF7"/>
<path d="M39.6447 23.5667H17.8321C17.7461 23.5667 17.676 23.4966 17.676 23.4106V21.5663C17.676 21.4803 17.7461 21.4102 17.8321 21.4102H39.6447C39.7307 21.4102 39.8008 21.4803 39.8008 21.5663V23.4106C39.8008 23.4989 39.7329 23.5667 39.6447 23.5667Z" fill="#A9DBF7"/>
<path d="M68.6806 29.6309H53.3989C53.3264 29.6309 53.2676 29.5721 53.2676 29.4996V27.6033C53.2676 27.5309 53.3264 27.472 53.3989 27.472H68.6806C68.753 27.472 68.8118 27.5309 68.8118 27.6033V29.4996C68.8118 29.5721 68.753 29.6309 68.6806 29.6309Z" fill="#A9DBF7"/>
<path d="M39.6447 29.7782H17.8321C17.7461 29.7782 17.6759 29.708 17.6759 29.622V27.7777C17.6759 27.6917 17.7461 27.6216 17.8321 27.6216H39.6447C39.7306 27.6216 39.8008 27.6917 39.8008 27.7777V29.622C39.8008 29.708 39.7329 29.7782 39.6447 29.7782Z" fill="#A9DBF7"/>
<path d="M81.6563 35.8427H53.4441C53.3468 35.8427 53.2676 35.7635 53.2676 35.6662V33.8627C53.2676 33.7654 53.3468 33.6862 53.4441 33.6862H81.6541C81.7514 33.6862 81.8306 33.7654 81.8306 33.8627V35.6662C81.8328 35.7635 81.7536 35.8427 81.6563 35.8427Z" fill="#A9DBF7"/>
<path d="M39.6447 35.9901H17.8321C17.7461 35.9901 17.6759 35.9199 17.6759 35.8339V33.9896C17.6759 33.9036 17.7461 33.8335 17.8321 33.8335H39.6447C39.7306 33.8335 39.8008 33.9036 39.8008 33.9896V35.8339C39.8008 35.9199 39.7329 35.9901 39.6447 35.9901Z" fill="#A9DBF7"/>
<path d="M73.6364 42.0545H53.4192C53.3355 42.0545 53.2698 41.9867 53.2698 41.9052V40.0473C53.2698 39.9636 53.3377 39.8979 53.4192 39.8979H73.6364C73.7201 39.8979 73.7857 39.9658 73.7857 40.0473V41.9052C73.7857 41.9867 73.7179 42.0545 73.6364 42.0545Z" fill="#A9DBF7"/>
<path d="M39.6447 42.2016H17.8321C17.7461 42.2016 17.6759 42.1315 17.6759 42.0455V40.2012C17.6759 40.1152 17.7461 40.045 17.8321 40.045H39.6447C39.7306 40.045 39.8008 40.1152 39.8008 40.2012V42.0455C39.8008 42.1315 39.7329 42.2016 39.6447 42.2016Z" fill="#008CFF"/>
<path d="M67.3975 48.2663H53.3921C53.3219 48.2663 53.2676 48.2098 53.2676 48.1419V46.2342C53.2676 46.1641 53.3242 46.1097 53.3921 46.1097H67.3975C67.4676 46.1097 67.5219 46.1663 67.5219 46.2342V48.1419C67.5242 48.2098 67.4676 48.2663 67.3975 48.2663Z" fill="#A9DBF7"/>
<path d="M39.6447 48.4135H17.8321C17.7461 48.4135 17.6759 48.3434 17.6759 48.2574V46.4131C17.6759 46.3271 17.7461 46.257 17.8321 46.257H39.6447C39.7306 46.257 39.8008 46.3271 39.8008 46.4131V48.2574C39.8008 48.3434 39.7329 48.4135 39.6447 48.4135Z" fill="#A9DBF7"/>
<path d="M79.8188 54.4779H53.4396C53.3445 54.4779 53.2676 54.401 53.2676 54.306V52.4911C53.2676 52.396 53.3445 52.3191 53.4396 52.3191H79.8188C79.9138 52.3191 79.9908 52.396 79.9908 52.4911V54.306C79.9908 54.401 79.9138 54.4779 79.8188 54.4779Z" fill="#A9DBF7"/>
<path d="M39.6447 54.6253H17.8321C17.7461 54.6253 17.6759 54.5552 17.6759 54.4692V52.6249C17.6759 52.5389 17.7461 52.4688 17.8321 52.4688H39.6447C39.7306 52.4688 39.8008 52.5389 39.8008 52.6249V54.4692C39.8008 54.5552 39.7329 54.6253 39.6447 54.6253Z" fill="#A9DBF7"/>
<path d="M49.3459 59.3864C49.312 56.0191 49.2781 52.6541 49.2645 49.2869L49.2328 39.1873L49.2373 29.0878L49.278 18.9882V18.9226H49.3437L56.5104 18.9882L49.3437 19.0539L49.4093 18.9882L49.45 29.0878L49.4546 39.1873L49.4229 49.2869C49.4138 52.6541 49.3799 56.0191 49.3459 59.3864Z" fill="#A9DBF7"/>
<path d="M49.3392 43.9124L39.5655 43.9871L29.733 44.0165C26.4494 44.0187 23.1568 43.9893 19.8755 43.969C16.592 43.9486 13.3175 43.9373 10.0408 43.9576H9.98419V43.9011L9.96156 38.3433V38.2663H10.0408L19.8642 38.2143L29.6877 38.1962C32.9622 38.2052 36.2367 38.1916 39.5112 38.2188L49.3346 38.2754H49.4048V38.3455L49.3392 43.9124ZM49.3188 43.892L49.2577 38.3433L49.3278 38.4134L39.5044 38.47C36.2299 38.4971 32.9554 38.4836 29.6809 38.4926L19.8574 38.4745L10.034 38.4225L10.1109 38.3455L10.0883 43.9033L10.0317 43.8468C13.3017 43.8671 16.5762 43.8558 19.8416 43.8354C23.107 43.8151 26.3634 43.7857 29.6289 43.7879L39.441 43.8173L49.3188 43.892Z" fill="#008CFF"/>
<path d="M50.7693 47.366L40.7625 67.5085L36.1551 68.9591L34.5281 64.4128L44.5348 44.2703C44.9218 43.4918 45.8655 43.175 46.6416 43.562L50.061 45.2592C50.8394 45.6462 51.1562 46.5898 50.7693 47.366Z" fill="#5DD3FF"/>
<path d="M47.4699 49.45C46.9517 50.7693 46.3814 52.0637 45.7931 53.3468C45.2069 54.6321 44.5914 55.9016 43.9669 57.1689L43.0096 59.0584C42.6815 59.683 42.3624 60.3121 42.023 60.9322C41.3554 62.1768 40.6697 63.4124 39.9297 64.623C40.448 63.3037 41.016 62.0093 41.6066 60.7262C41.8963 60.0813 42.2063 59.4477 42.505 58.8072L43.4328 56.9041C44.0664 55.6414 44.7068 54.3832 45.3767 53.1408C46.0442 51.8939 46.7299 50.6584 47.4699 49.45Z" fill="#091D70"/>
<path d="M45.0441 48.4905C44.5258 49.8098 43.9556 51.1042 43.3672 52.3873C42.7811 53.6726 42.1656 54.9421 41.541 56.2094L40.5838 58.099C40.2556 58.7235 39.9366 59.3549 39.5971 59.9727C38.9296 61.2173 38.2439 62.4529 37.5039 63.6636C38.0221 62.3443 38.5901 61.0498 39.1808 59.7668C39.4704 59.1218 39.7804 58.4882 40.0791 57.8478L41.007 55.9446C41.6406 54.6819 42.281 53.4237 42.9508 52.1813C43.6184 50.9345 44.3041 49.6989 45.0441 48.4905Z" fill="#091D70"/>
<path d="M34.5303 64.4127C35.1051 64.5598 35.6528 64.7612 36.1913 64.9807C36.7322 65.1957 37.2595 65.4378 37.7799 65.6958C38.3004 65.9538 38.8118 66.2276 39.3097 66.5286C39.8098 66.825 40.3009 67.1418 40.7648 67.5107C40.19 67.3636 39.6423 67.1645 39.1038 66.945C38.5629 66.73 38.0356 66.4878 37.5152 66.2299C36.997 65.9696 36.4855 65.6958 35.9854 65.3971C35.4853 65.0961 34.9942 64.7793 34.5303 64.4127Z" fill="#091D70"/>
<path d="M37.0807 69.6695C37.3591 69.9614 37.6985 70.1786 38.0696 70.3121C38.4385 70.4479 38.8345 70.5045 39.226 70.5203C40.0112 70.543 40.801 70.3732 41.5478 70.1198C42.2968 69.8618 43.0164 69.5088 43.7202 69.1173C44.4217 68.7235 45.1119 68.2958 45.8247 67.893C46.5398 67.4948 47.2753 67.1146 48.047 66.8068C48.8164 66.5059 49.6242 66.2773 50.448 66.1958C51.2694 66.1098 52.1135 66.1551 52.9123 66.4018C53.3106 66.5262 53.6953 66.7027 54.0483 66.9313C54.4036 67.1621 54.7181 67.454 54.992 67.7641C55.5486 68.3773 56.0216 69.0539 56.6349 69.4975C57.2368 69.9568 58.0085 70.0293 58.796 69.9953C60.3823 69.9252 61.9392 69.4884 63.3445 68.7665C64.7566 68.0469 66.1008 67.0399 67.7097 66.5013C68.5154 66.2388 69.3775 66.1506 70.2148 66.2637C71.0476 66.3769 71.869 66.7616 72.3895 67.4133L72.3443 67.4563C72.0501 67.1779 71.7061 66.963 71.3372 66.8204C70.9684 66.6778 70.5746 66.6077 70.1831 66.5783C69.3956 66.5262 68.6059 66.6892 67.8749 66.963C66.3972 67.5332 65.1322 68.5787 63.6545 69.3594C62.1655 70.1447 60.4887 70.5543 58.8141 70.5837C58.3954 70.5905 57.9609 70.5746 57.5287 70.4705C57.0988 70.3732 56.6756 70.1696 56.3339 69.8935C55.9854 69.6219 55.7093 69.2938 55.4581 68.9634C55.2069 68.633 54.9761 68.2981 54.7272 67.9858C54.2429 67.3545 53.6048 66.8566 52.8422 66.6032C52.0863 66.3429 51.2626 66.2954 50.4683 66.3972C50.07 66.4493 49.6786 66.5421 49.2961 66.6665C48.9159 66.7955 48.5448 66.9517 48.1827 67.1259C47.4586 67.4767 46.7729 67.9044 46.0895 68.3411C44.7227 69.201 43.3061 70.1062 41.6903 70.5837C41.2898 70.7036 40.8757 70.7896 40.4593 70.8394C40.0429 70.8892 39.6175 70.9028 39.1966 70.853C38.7779 70.8055 38.3615 70.6946 37.9814 70.5068C37.6012 70.3235 37.2617 70.0496 37.0264 69.7079L37.0807 69.6695Z" fill="#091D70"/>
<path d="M44.5349 44.2703C44.9218 43.4918 45.8655 43.175 46.6417 43.562L50.061 45.2592C50.8395 45.6462 51.1563 46.5898 50.7693 47.366L50.4299 48.0585L44.1932 44.9401L44.5349 44.2703Z" fill="#091D70"/>
<path d="M44.5349 44.2703C44.9218 43.4918 45.8655 43.175 46.6417 43.562L50.061 45.2592C50.8395 45.6462 51.1563 46.5898 50.7693 47.366L50.4299 48.0585L44.1932 44.9401L44.5349 44.2703Z" stroke="#091D70" stroke-width="1.0777" stroke-miterlimit="10"/>
<path d="M21.8262 29.2191H0V68.7461H21.8262V29.2191Z" fill="#091D70"/>
<path d="M101 34.7158C101 39.5676 97.067 43.5028 92.213 43.5028C87.359 43.5028 83.426 39.5698 83.426 34.7158C83.426 30.3709 86.5805 26.7615 90.724 26.0555C91.2082 25.974 91.7038 25.931 92.213 25.931C97.067 25.9288 101 29.8618 101 34.7158Z" fill="#FFE57C"/>
<path d="M92.3849 30.0112C93.1068 30.0158 93.8559 30.2398 94.4374 30.7422C95.0235 31.2332 95.3675 32.0207 95.3336 32.7947C95.3155 33.1794 95.2159 33.5596 95.0507 33.899C94.8855 34.2384 94.6547 34.5417 94.3877 34.7974C93.8536 35.3088 93.1408 35.6392 92.3849 35.6777C92.0093 35.6958 91.6201 35.646 91.2603 35.5125C90.8982 35.379 90.5633 35.1662 90.2849 34.897C90.0043 34.6277 89.7758 34.3018 89.6196 33.942C89.4612 33.5822 89.3865 33.1884 89.3865 32.7947C89.3956 32.4032 89.4725 32.0094 89.6377 31.6542C89.7961 31.2966 90.0405 30.9843 90.3324 30.7377C90.914 30.2375 91.6608 30.009 92.3849 30.0112ZM92.3849 30.0565C92.0274 30.061 91.6699 30.1425 91.353 30.3009C91.034 30.457 90.7602 30.6856 90.5384 30.9481C90.1039 31.4776 89.8572 32.1316 89.8663 32.7947C89.8708 33.4532 90.1197 34.1117 90.5836 34.596C91.0475 35.0757 91.6925 35.388 92.3849 35.431C92.7289 35.4469 93.0842 35.4039 93.4123 35.2726C93.7404 35.1481 94.0414 34.9467 94.2858 34.6933C94.7769 34.1819 94.9941 33.4622 94.9579 32.7947C94.9285 32.1203 94.6773 31.4731 94.2383 30.9436C94.0143 30.6833 93.7405 30.4548 93.4214 30.2986C93.1 30.138 92.7425 30.0588 92.3849 30.0565Z" fill="#008CFF"/>
<path d="M86.0645 38.0788C86.5827 37.0265 87.5535 36.1892 88.6737 35.7864C89.2372 35.5873 89.8323 35.5284 90.4116 35.4877C90.5565 35.4719 90.7036 35.4719 90.8484 35.4673C90.9955 35.4583 91.138 35.4628 91.2829 35.4538C91.5703 35.447 91.8599 35.4221 92.1473 35.4062C92.7289 35.3655 93.2924 35.3203 93.8853 35.3248C94.4804 35.3293 95.0801 35.4266 95.6481 35.6235C96.7773 36.0218 97.7753 36.807 98.3614 37.8208L98.3252 37.848C97.5128 37.0265 96.551 36.4155 95.4942 36.0806C94.9692 35.9109 94.4238 35.7842 93.8694 35.7502C93.5956 35.7321 93.3014 35.7276 93.014 35.7117C92.7266 35.6982 92.437 35.6733 92.1496 35.6552C91.5748 35.6235 90.9932 35.5669 90.4275 35.6348C89.8595 35.7027 89.3186 35.9018 88.814 36.1372C88.3071 36.3703 87.816 36.635 87.3634 36.9632C86.9109 37.2935 86.499 37.6782 86.103 38.1037L86.0645 38.0788Z" fill="#008CFF"/>
<path d="M12.0547 38.5742H7.41793C6.72999 38.5742 6.17331 38.0175 6.17331 37.3296C6.17331 36.6416 6.72999 36.085 7.41793 36.085H12.0547C12.7427 36.085 13.2993 36.6416 13.2993 37.3296C13.3016 38.0153 12.7427 38.5742 12.0547 38.5742Z" fill="#DDF6FF"/>
<path d="M13.0188 39.9637C14.4748 39.9637 15.6551 38.7834 15.6551 37.3274C15.6551 35.8714 14.4748 34.691 13.0188 34.691C11.5627 34.691 10.3824 35.8714 10.3824 37.3274C10.3824 38.7834 11.5627 39.9637 13.0188 39.9637Z" fill="#008CFF"/>
<path d="M9.77139 47.7368H14.4082C15.0961 47.7368 15.6528 48.2935 15.6528 48.9814C15.6528 49.6694 15.0961 50.2261 14.4082 50.2261H9.77139C9.08345 50.2261 8.52676 49.6694 8.52676 48.9814C8.52676 48.2935 9.08345 47.7368 9.77139 47.7368Z" fill="#DDF6FF"/>
<path d="M8.80744 51.618C10.2634 51.618 11.4438 50.4377 11.4438 48.9817C11.4438 47.5257 10.2634 46.3453 8.80744 46.3453C7.35143 46.3453 6.1711 47.5257 6.1711 48.9817C6.1711 50.4377 7.35143 51.618 8.80744 51.618Z" fill="#2EEDA8"/>
<path d="M12.0547 61.8826H7.41793C6.72999 61.8826 6.17331 61.3259 6.17331 60.6379C6.17331 59.95 6.72999 59.3933 7.41793 59.3933H12.0547C12.7427 59.3933 13.2993 59.95 13.2993 60.6379C13.3016 61.3236 12.7427 61.8826 12.0547 61.8826Z" fill="#DDF6FF"/>
<path d="M13.0188 63.2722C14.4748 63.2722 15.6551 62.0919 15.6551 60.6359C15.6551 59.1798 14.4748 57.9995 13.0188 57.9995C11.5627 57.9995 10.3824 59.1798 10.3824 60.6359C10.3824 62.0919 11.5627 63.2722 13.0188 63.2722Z" fill="#A9DBF7"/>
<path d="M100.923 58.8234C100.923 63.6344 97.0239 67.5335 92.2129 67.5335C87.4019 67.5335 83.5028 63.6344 83.5028 58.8234C83.5028 54.517 86.6302 50.9393 90.7375 50.2377C91.2172 50.1563 91.7105 50.1133 92.2129 50.1133C97.0239 50.1133 100.923 54.0146 100.923 58.8234Z" fill="#008CFF"/>
<path d="M97.0624 61.7946C96.5012 61.781 96.0667 61.8376 95.7024 61.9915C95.5983 62.0345 95.4286 62.0345 95.415 62.1657C95.4716 62.2223 95.4784 62.3128 95.5282 62.3897C95.6119 62.53 95.759 62.7201 95.8925 62.8174C96.0396 62.9306 96.1867 63.0415 96.3406 63.1388C96.6144 63.3062 96.9221 63.4058 97.1892 63.5733C97.343 63.6706 97.4969 63.7973 97.6508 63.9037C97.7277 63.9602 97.7775 64.0507 97.8748 64.087V64.0666C97.8251 64.0032 97.8115 63.9127 97.7617 63.8426C97.6915 63.7724 97.6214 63.709 97.5512 63.6389C97.3476 63.3651 97.0964 63.1275 96.8226 62.9306C96.5985 62.7767 96.1075 62.5662 96.017 62.306C96.017 62.306 96.0102 62.2992 96.0034 62.2924C96.1573 62.2789 96.3406 62.2223 96.4876 62.1793C96.7253 62.1159 96.9425 62.1295 97.1892 62.0661C97.3023 62.039 97.4132 62.0028 97.5263 61.9688V61.9055C97.3996 61.7787 97.3091 61.6113 97.1756 61.4914C96.818 61.1836 96.4265 60.8826 96.0192 60.6292C95.802 60.4889 95.5214 60.3983 95.2906 60.2784C95.2068 60.2354 95.0665 60.215 95.0167 60.1449C94.89 59.991 94.8199 59.7874 94.7293 59.6041C94.5257 59.2194 94.3288 58.7917 94.1545 58.3843C94.0278 58.1105 93.9509 57.8367 93.797 57.5855C93.0751 56.3929 92.2899 55.671 91.0837 54.9627C90.8235 54.8156 90.5157 54.7523 90.1876 54.6753C90.0133 54.6686 89.8368 54.655 89.6626 54.6482C89.5495 54.5984 89.4386 54.4649 89.339 54.4038C88.9384 54.1503 87.9088 53.605 87.6146 54.3269C87.4245 54.7817 87.8952 55.232 88.0559 55.4629C88.1758 55.6235 88.3297 55.8068 88.4134 55.9879C88.4632 56.1078 88.4768 56.2323 88.5266 56.359C88.6397 56.6667 88.7438 57.0107 88.8909 57.2981C88.9679 57.4452 89.0516 57.5991 89.1512 57.7326C89.2077 57.8095 89.305 57.8457 89.3254 57.9702C89.2281 58.1105 89.2213 58.321 89.1647 58.4952C88.9113 59.2872 89.0109 60.2694 89.3684 60.8509C89.4816 61.0252 89.7463 61.4121 90.1039 61.2651C90.4184 61.1383 90.3483 60.74 90.4411 60.3893C90.4614 60.3056 90.4478 60.249 90.4908 60.1924V60.206C90.5881 60.4029 90.6877 60.5907 90.7782 60.7876C90.9955 61.1315 91.3734 61.4891 91.6902 61.7267C91.8577 61.8534 91.9912 62.0707 92.2016 62.1476V62.1272H92.188C92.145 62.0639 92.0839 62.0367 92.0274 61.9869C91.9006 61.8602 91.7603 61.7063 91.663 61.566C91.3689 61.1745 91.1086 60.7378 90.8778 60.2897C90.7647 60.0725 90.6673 59.8349 90.5768 59.6176C90.5338 59.5339 90.5338 59.4072 90.4637 59.3642C90.3596 59.5181 90.2034 59.6516 90.1265 59.8417C89.993 60.1426 89.9794 60.5138 89.9296 60.9007C89.9025 60.9075 89.916 60.9007 89.9025 60.9143C89.6784 60.8577 89.6015 60.6269 89.5178 60.43C89.3073 59.9322 89.2734 59.1334 89.4544 58.5586C89.5042 58.4115 89.7146 57.9498 89.6286 57.8095C89.5857 57.676 89.4453 57.5991 89.3684 57.495C89.2779 57.3615 89.1783 57.194 89.115 57.0469C88.9475 56.6554 88.8615 56.2187 88.6805 55.8272C88.5967 55.6439 88.4497 55.4561 88.3297 55.2863C88.1962 55.0963 88.0491 54.9627 87.945 54.7387C87.9111 54.6618 87.8613 54.535 87.9179 54.4513C87.9314 54.3947 87.9609 54.3744 88.0152 54.3608C88.1057 54.2839 88.3659 54.3812 88.4564 54.4242C88.7167 54.5283 88.9339 54.6278 89.1512 54.7749C89.2485 54.8451 89.3548 54.9786 89.4816 55.0125H89.6286C89.8527 55.0623 90.1061 55.0261 90.3166 55.0895C90.6877 55.2094 91.0249 55.3836 91.3259 55.5737C92.2446 56.1553 93.0004 56.9836 93.5119 57.9702C93.5956 58.1309 93.6318 58.278 93.7088 58.4477C93.8558 58.7917 94.0391 59.1424 94.1862 59.4773C94.3333 59.8077 94.4736 60.1426 94.6841 60.4165C94.7882 60.5635 95.2091 60.6405 95.3992 60.7174C95.5395 60.7808 95.7567 60.8374 95.8834 60.9143C96.1211 61.0614 96.3609 61.2288 96.585 61.3918C96.6913 61.48 97.0421 61.6543 97.0624 61.7946Z" fill="white"/>
<path d="M89.9138 55.7025C89.7938 55.7025 89.7101 55.7161 89.6264 55.7387V55.7523H89.64C89.6965 55.8654 89.7938 55.9424 89.864 56.0397C89.9206 56.1528 89.9681 56.2637 90.0247 56.3769C90.0314 56.3701 90.0382 56.3633 90.0382 56.3633C90.1355 56.2931 90.1853 56.18 90.1853 56.0125C90.1423 55.9628 90.1355 55.9152 90.1016 55.8654C90.0609 55.7953 89.9703 55.7591 89.9138 55.7025Z" fill="white"/>
</svg>
