<svg width="136" height="84" viewBox="0 0 136 84" fill="none" xmlns="http://www.w3.org/2000/svg">
<mask id="mask0" mask-type="alpha" maskUnits="userSpaceOnUse" x="0" y="0" width="136" height="84">
<rect width="136" height="84" rx="3" fill="#C4C4C4"/>
</mask>
<g mask="url(#mask0)">
<path d="M60.7519 70.9879C60.7519 70.9879 67.2159 56.589 69.5519 51.7709C71.4879 46.8814 72.9839 43.2203 77.1279 41.889C78.9365 41.4871 81.8024 41.1828 84.6015 41.1335C86.8628 41.0936 87.9774 43.6047 86.9095 45.5983C85.2665 48.6653 84.0818 52.0374 83.766 55.3833C83.7127 55.9474 83.5323 56.4929 83.2065 56.9565C81.9071 58.8054 78.4936 63.652 78.2479 63.8954C77.9439 64.1965 70.2639 76.6539 68.6799 79.483" fill="#00D593"/>
<path d="M70.4538 76.5077C70.4532 76.5086 68.1129 76.8212 68.112 76.8206V76.8206C67.504 76.3451 67.032 75.7112 66.576 75.101C66.5501 75.0664 66.5242 75.0318 66.4983 74.9972C65.6662 73.8863 66.5304 72.4679 67.776 73.0802V73.0802C68.096 73.2387 68.408 73.413 68.752 73.4844C69.488 73.6191 69.896 73.0327 70.344 72.5572C70.688 72.1927 70.96 71.7806 71.272 71.3923C71.2801 71.382 71.2882 71.3716 71.2964 71.3611C71.709 70.8287 72.1656 71.0279 72.152 71.7013V71.7013C72.1361 72.2716 72.16 72.8419 72.3038 73.3963C72.304 73.3969 72.3039 73.3974 72.3036 73.3979C72.0197 73.8857 71.1624 75.3225 70.4538 76.5077Z" fill="#0EAA76"/>
<path d="M96.008 2.4652C93.088 1.07841 89.488 1.39539 86.664 2.9803C83.84 4.5652 81.776 7.29124 80.664 10.3105C79.552 13.3297 79.352 16.6105 79.68 19.812C79.824 21.2384 80.032 22.8233 79.16 23.9645C78.168 25.2561 76.288 25.3433 74.664 25.486C73.344 25.6048 71.984 25.8505 70.888 26.5875C69.792 27.3245 69.008 28.6558 69.28 29.9475C69.624 31.572 71.64 33.252 73.216 33.8146C79.472 36.0652 84.568 37.1588 91.152 36.6278" fill="#EF8137"/>
<path d="M89.696 4.89833C89.136 4.54965 88.552 4.21682 87.936 3.96323C87.624 3.83644 87.296 3.73342 86.968 3.6621V3.6621C86.4902 3.55523 86.4579 3.20127 86.9474 3.1896C87.835 3.16845 88.9551 3.45751 89.8435 3.74536C90.7135 4.02721 91.6656 3.83853 92.4607 3.38666C92.6476 3.28041 92.8376 3.18237 93.0276 3.09256C94.2671 2.50677 94.4343 3.08301 93.568 4.1455V4.1455C92.992 4.85871 92.592 5.73833 92.584 6.64965C92.584 6.39606 89.96 5.06474 89.696 4.89833Z" fill="#E06934"/>
<path d="M91.712 5.04075C93.416 3.2498 95.752 2.0532 98.216 1.71244C100.68 1.37169 103.256 1.88678 105.384 3.15471C107.064 4.1532 108.56 5.8015 108.576 7.74301C108.592 9.1298 107.872 10.6275 108.584 11.8241C109.168 12.8068 110.432 13.0841 111.544 13.3615C114 13.9796 116.352 15.0177 118.456 16.4204C120.04 17.4823 121.512 18.7819 122.408 20.454C123.248 22.023 123.728 25.1453 122.984 26.8332C122.68 27.5147 122.288 28.2755 122.592 28.949C122.904 29.6543 123.832 29.8921 124.24 30.5498C124.576 31.0887 124.48 31.8177 124.136 32.3566C123.792 32.8955 123.248 33.2758 122.688 33.5928C120.48 34.837 117.864 35.249 115.328 35.1223C112.792 34.9955 110.312 34.3457 107.888 33.5849C106.488 33.1411 104.848 32.6894 103.632 33.5136C103.096 33.8702 102.736 34.4249 102.312 34.9083C100.352 37.0875 96.808 37.4996 94.192 36.1524C91.576 34.8053 89.928 31.9604 89.64 29.0521C89.36 26.2626 90.264 23.3781 92.072 21.2306" fill="#EF8137"/>
<path d="M102.056 29.1306C102.984 30.0816 104.056 30.8899 105.224 31.5318C106.904 32.4589 108.68 33.3861 110.528 33.9408C111.528 34.242 112.592 34.7967 113.624 34.9552C112.696 34.8125 111.672 34.5986 110.84 34.3925C109.784 34.131 108.744 33.814 107.704 33.4891C106.704 33.1801 105.808 32.9186 104.76 33.1721C103.776 33.4099 103.024 34.1469 102.36 34.8363C101.608 35.6287 100.672 36.2548 99.64 36.6589C99.104 36.865 98.752 35.7397 98.648 35.3593C98.208 33.8537 97.864 32.2687 98.104 30.6997C98.208 29.9944 99.464 26.888 100.32 27.2367C100.584 27.3476 100.76 27.5853 100.928 27.8152C101.272 28.2827 101.648 28.7186 102.056 29.1306Z" fill="#E06934"/>
<path d="M93.6079 29.0751C93.3599 28.1241 92.2559 27.5694 91.2799 27.7041C90.3039 27.8388 89.4799 28.5283 88.9199 29.3366C88.3679 30.1449 88.0319 31.08 87.6559 31.9834C87.2799 32.8868 86.8399 33.7901 86.1199 34.4637V34.4637C85.4648 35.0783 85.5491 36.5447 86.4453 36.6058C87.43 36.6729 88.3802 36.6928 89.1599 36.643C90.9825 36.527 91.7671 34.9116 92.1447 33.1445C92.2049 32.8627 92.4561 32.6592 92.7439 32.6728V32.6728" fill="#E06934"/>
<path d="M89.52 30.9692C88.976 32.3322 88.352 33.6714 87.664 34.9711C87.48 35.3198 87.28 35.6843 86.944 35.9141C86.28 36.3737 85.848 36.4688 85.088 36.4847C84.472 36.5005 81.48 36.0884 80.968 35.9854V35.9854C80.0832 35.8 80.2669 33.1975 81.0269 32.7079C81.7299 32.255 82.3175 31.6796 82.72 30.9692C84.08 28.576 82.9439 26.5314 82.1919 24.1858C81.4159 21.7609 80.848 19.2647 80.512 16.7447C80.432 16.1662 80.3679 15.5639 80.5359 15.0013C80.7039 14.4386 81.168 13.9235 81.752 13.876" fill="#E06934"/>
<path d="M88.864 33.2276C89.0489 36.8326 87.9549 40.9388 86.6696 42.5084C86.476 42.7449 86.2092 42.901 85.933 43.0319C85.3975 43.2858 84.4941 43.7454 84.112 44.1239V44.1239C83.5663 44.6644 83.4078 45.5169 83.8838 46.1196C85.0349 47.5772 87.3744 50.0183 90.416 50.4793C93.6298 50.9664 98.801 46.1497 101.344 43.5303C102.265 42.5825 102.366 41.1451 101.712 39.9967C98.3218 34.0346 98.2092 30.4637 99.552 23.1873" fill="#FFC1AF"/>
<path d="M124 75.3068C124.472 81.9475 125.672 88.3902 127.184 94.7615C127.992 98.177 128.888 101.577 129.808 104.968C130.6 107.892 132.272 111.411 131.816 114.47C131.323 117.787 131.534 118.519 131.072 121.722C131.051 121.868 131.096 121.894 131.204 121.794C131.424 121.587 131.795 121.232 131.84 121.166C132.272 120.564 132.584 119.866 132.96 119.232C133.76 117.877 134.872 116.823 136.44 117.719C138.048 118.638 139.808 119.383 141.44 120.318C142.808 121.103 144.152 121.927 145.496 122.743V122.743C146.438 123.318 147.079 122.863 146.838 121.786C146.637 120.886 146.327 119.998 145.864 119.32C144.536 117.338 141.968 114.557 139.096 113.551C138.144 113.218 135.48 112.996 135.304 111.72C133.352 97.6223 134.736 88.1921 130.712 73.8804" fill="#FFC1AF"/>
<path d="M102.705 41.6645C102.857 41.2897 103.142 41.1085 103.544 41.1461C105.085 41.2898 109.2 41.7626 111.776 42.7845C115.2 44.1475 117.392 46.089 118.912 49.4252C119.888 51.5728 120.88 54.1879 121.88 56.3275C123.288 59.323 128.792 67.6199 129.984 70.0845C131.308 73.303 133.72 81.0602 134.623 92.217C134.727 93.511 133.958 94.733 132.679 94.9591C131.265 95.2093 129.519 95.2995 127.474 95.1421C126.41 95.0602 125.494 94.3572 125.214 93.3274C123.754 87.9655 123.896 79.0737 123.168 78.3815C120.416 75.7584 118.248 73.3494 116.688 71.6377C115.73 70.5236 114.891 69.58 114.084 68.7005C112.442 66.9123 109.538 67.837 109.207 70.2421C108.298 76.8533 107.134 87.9192 108.064 96.3067C108.216 97.4241 108.336 98.6286 108.664 99.6905C109.056 100.982 110.016 107.98 110.544 110.729C111.024 113.226 112.792 115.706 111.632 116.99C111.113 117.567 109.182 116.549 108.428 116.396C108.425 116.396 108.426 116.396 108.424 116.395C108.348 116.38 96.2462 113.926 88.1417 112.824C86.8857 112.653 85.9683 111.72 85.978 110.453C86.0159 105.49 86.6668 93.2447 87.744 85.886C89.056 76.8679 90.472 67.4535 92.8 62.5403C94.9878 57.9303 99.9384 47.1192 100.527 45.8342C100.565 45.7491 100.607 45.668 100.654 45.5869L102.2 42.9033L102.705 41.6645Z" fill="#00D593"/>
<path d="M72.9918 65.3378C74.0078 59.9888 74.8559 56.6525 75.6959 52.9597C76.4639 49.5918 75.1039 44.9163 79.1279 43.7197C79.6579 43.5634 82.8112 43.1804 84.2137 42.7805C84.323 42.7493 84.8057 43.0997 84.7918 43.2125V43.2125C84.7916 43.2148 84.7919 43.2106 84.7918 43.2129C84.788 43.2884 84.2324 54.3289 84.3839 56.1216C84.5356 57.9255 83.6267 81.2953 83.6239 81.369C83.6238 81.3712 83.6239 81.3671 83.6238 81.3694C83.6211 81.443 82.9434 99.9306 82.7118 101.054C82.5672 101.78 81.989 106.091 81.5974 109.055C81.387 110.648 79.9616 111.793 78.3609 111.655L76.4351 111.488C74.6767 111.336 73.4268 109.708 73.7242 107.969C74.2638 104.812 75.0692 99.9313 75.5839 96.0295C76.1599 91.6473 76.5118 87.2729 75.3198 82.9541C74.4958 79.9507 73.2078 77.6763 72.5678 74.6254C71.9998 71.8993 72.4798 68.048 72.9918 65.3378Z" fill="#00D593"/>
<path d="M73.1999 110.92C73.4159 109.184 73.7279 107.465 73.9999 105.737C74.3039 104.017 74.6159 102.298 74.8719 100.578C75.3999 97.1389 75.8159 93.6838 75.7199 90.2367C75.6559 86.7974 75.0479 83.3582 73.8959 80.1171C73.2479 78.5004 72.7039 76.7808 72.3999 75.0533C72.1199 73.3099 72.0079 71.5427 72.2159 69.7993C72.2239 71.5506 72.4239 73.2782 72.8559 74.9582C73.2559 76.654 73.8399 78.2548 74.5759 79.8476C75.9359 83.1363 76.5839 86.6786 76.6719 90.2129C76.7439 93.7552 76.2879 97.2657 75.5839 100.697C75.2319 102.417 74.8479 104.12 74.4479 105.824L73.1999 110.92Z" fill="#0EAA76"/>
<path d="M89.3573 36.5294C88.6196 35.9544 89.3479 34.9826 90.2275 34.6646C91.5477 34.1872 93.3343 33.5504 94.6161 32.6174C96.3665 31.3434 97.82 29.9762 97.9575 29.846C97.9653 29.8386 97.9717 29.8319 97.9789 29.824V29.824C98.2438 29.5297 98.7442 29.7278 98.7478 30.1237C98.7484 30.1851 98.7492 30.2479 98.7502 30.312C98.7513 30.3846 98.7373 30.4556 98.7073 30.5217C97.5887 32.9894 95.3782 36.7567 90.8001 36.9521C90.1034 36.9303 89.6505 36.7579 89.3573 36.5294Z" fill="#FF9796"/>
<path d="M100.76 16.5862L100.735 16.6803C100.503 17.5514 103.358 21.4573 103.544 22.3394V22.3394C104.002 24.5144 103.04 27.6976 99.4377 28.7999C98.8361 28.984 98.264 29.2744 97.8172 29.7173C96.229 31.2914 94.4873 32.739 92.5441 33.8538C91.2001 34.6304 89.7441 35.2485 88.2161 35.5575C87.1121 35.7794 84.7601 36.1994 84.2161 34.8443C84.0641 34.4639 84.0081 34.0202 83.8881 33.6239C83.7201 33.0692 83.5521 32.5224 83.3841 31.9677C82.9681 30.6047 82.5681 29.2338 82.2481 27.847C81.7632 25.7476 81.1765 23.0601 81.8739 20.8749C82.0834 20.2183 82.2299 19.5262 82.1205 18.8457C81.6404 15.8607 81.6876 14.8942 82.5639 13.0163C82.8934 12.3102 83.4952 11.7364 84.2179 11.4451C86.4576 10.5425 91.6252 8.91627 95.9121 11.4987" fill="#FFC1AF"/>
<path d="M89.304 17.5215C89.304 17.5215 90.616 15.8646 95.336 19.0595Z" fill="#EF8137"/>
<path d="M80.9281 15.683C80.9281 15.683 82.0481 14.3749 86.0801 16.896Z" fill="#EF8137"/>
<path d="M90.592 19.5417C90.288 19.4783 90 19.5814 89.912 19.7637C89.672 20.2473 89.784 20.715 90.04 21.1986C90.232 21.5633 90.736 21.7774 91.088 21.4365C91.568 20.9767 91.288 19.5893 90.592 19.5417Z" fill="black"/>
<path d="M100.104 23.4487C100.576 22.8305 101.472 22.3392 101.864 23.2902C102.052 23.7499 102.037 24.3782 101.668 24.9594C100.978 26.0467 99.9491 25.3146 100.034 24.0298C100.055 23.7125 100.079 23.48 100.104 23.4487Z" fill="#FF9796"/>
<path d="M89.6319 5.1748C89.5679 7.81367 90.4879 10.4684 92.1759 12.5129C93.3396 13.9224 94.8607 15.0343 96.553 15.7423C97.6958 16.2203 98.4098 17.5997 98.3351 18.8361C98.3061 19.3162 98.322 19.8047 98.384 20.279C98.5107 21.2483 99.5971 21.3822 100.414 20.8447V20.8447C100.789 20.5978 101.466 20.2501 101.612 19.8253C101.933 18.8888 102.067 18.2511 102.117 17.9639C102.137 17.8486 102.157 17.7335 102.184 17.6196L103.52 11.9265" fill="#EF8137"/>
<path d="M99.7839 30.3907C100.619 30.3907 101.296 29.7202 101.296 28.893C101.296 28.0658 100.619 27.3953 99.7839 27.3953C98.9489 27.3953 98.2719 28.0658 98.2719 28.893C98.2719 29.7202 98.9489 30.3907 99.7839 30.3907Z" fill="#FFD255"/>
<path d="M108.616 81.3375V81.3375C108.278 84.2521 107.243 84.4014 107.407 81.4719C107.618 77.6983 107.941 74.9443 107.952 74.8498C107.953 74.8421 107.952 74.8433 107.953 74.8356C108.326 71.4815 108.812 68.8221 109.229 66.9222C109.564 65.3999 111.41 65.0199 112.405 66.2193V66.2193C112.87 66.78 112.993 67.5495 112.731 68.2295C112.058 69.9776 110.723 73.5292 109.68 76.8284C109.267 78.1237 108.931 79.629 108.67 81.0962C108.655 81.1774 108.616 81.2551 108.616 81.3375V81.3375Z" fill="#0EAA76"/>
<path d="M84.5873 50.6676C84.5945 49.9073 88.5479 48.0053 89.3039 48.0862V48.0862V48.0862C92.1562 48.3913 97.3147 52.8193 96.0956 55.4159C94.6354 58.526 93.3268 61.4162 92.6479 63.1824C88.7239 71.5353 86.2545 94.4611 86.1141 109.932C86.102 111.266 85.4442 112.364 84.1155 112.242V112.242C82.8266 112.124 81.4985 110.875 81.6528 109.59C83.1424 97.1862 83.7984 77.5811 84.1439 70.6235C84.4073 65.3336 84.5309 56.645 84.5873 50.6676Z" fill="white"/>
<path d="M78.5359 51.0895C78.4319 50.8677 78.3279 50.6458 78.2159 50.4239C77.5919 49.156 76.8959 47.8009 77.1519 46.422C77.8239 42.8084 82.3839 41.6752 85.5919 41.3424V41.3424C86.387 41.2584 86.8825 42.1266 86.459 42.8048C85.7247 43.9805 85.0836 45.1794 84.8959 46.6122C84.0239 53.3401 85.7999 79.8635 82.7199 100.459C83.3759 94.7854 79.0319 71.5031 76.8159 66.2095C76.4639 65.3616 76.1279 64.268 76.7759 63.6103C77.4399 62.9446 78.5119 63.2537 79.2959 63.4914C79.5679 63.5707 81.8879 64.3473 81.8879 64.3314C81.6159 59.759 80.4719 55.242 78.5359 51.0895Z" fill="#2EEDA8"/>
<path d="M126.649 78.1679C126.686 78.1921 126.718 78.2361 126.704 78.2784V78.2784C126.696 78.3101 126.664 78.3339 126.64 78.3577C126.144 78.746 125.624 79.1026 125.232 79.586C124.944 79.9347 124.584 80.8935 124.048 80.9015C123.832 80.9094 123.648 80.7271 123.568 80.529C123.488 80.3309 123.496 80.109 123.48 79.895C123.392 78.7143 122.712 78.1517 122.144 77.2166C121.856 76.7411 121.52 76.2973 121.16 75.8773V75.8773C120.77 75.431 121.027 75.1963 121.575 75.422C122.874 75.9574 124.292 76.2028 125.696 76.1309C125.864 76.123 126.04 76.115 126.168 76.2181C126.48 76.4717 125.568 77.0343 125.416 77.1373C125.176 77.2958 124.936 77.4384 124.688 77.589C124.624 77.6286 124.4 77.7237 124.376 77.7871C124.312 78.0249 124.696 78.0328 124.856 78.0249C125.391 78.0021 125.92 78.0301 126.447 78.1019C126.496 78.1085 126.544 78.1184 126.589 78.1373C126.611 78.1464 126.631 78.1565 126.649 78.1679Z" fill="#0EAA76"/>
<path d="M122.363 77.1315C122.379 77.183 122.323 77.2185 122.288 77.1773V77.1773C122.144 77.0108 122 76.8443 121.992 76.6382C121.992 76.6278 121.992 76.6177 121.993 76.608C122.004 76.4705 122.176 76.5169 122.217 76.6488L122.363 77.1315Z" fill="#D9DEE8"/>
<path d="M109.616 62.7466C111.6 65.1794 113.808 67.3824 115.928 69.7043C118 72.0738 120.112 74.3243 122.336 76.5273L123.168 77.3515L123.584 77.7556C123.624 77.7953 123.64 77.7953 123.72 77.8983C123.725 77.9045 123.73 77.9107 123.735 77.917C123.836 78.0448 123.896 78.2007 123.942 78.3568C123.954 78.397 123.964 78.4364 123.976 78.4768C124.168 79.3168 124.224 80.0855 124.288 80.87L124.584 85.5375C124.68 87.0907 124.808 88.636 125 90.1813C125.176 91.7266 125.432 93.256 125.92 94.7458C124.608 91.8771 124.24 88.6915 123.848 85.6088C123.656 84.0556 123.544 82.4945 123.384 80.9492C123.296 80.1885 123.232 79.3881 123.072 78.7145C123.051 78.6533 123.031 78.5803 123.01 78.5359C123.004 78.5226 122.993 78.4995 122.987 78.4864V78.4864C122.981 78.4748 123.003 78.4997 122.994 78.4905C122.988 78.4849 122.98 78.4766 122.971 78.4674C122.941 78.4379 122.913 78.407 122.882 78.3784L122.496 78.0171L121.648 77.193C120.536 76.0756 119.448 74.9345 118.392 73.7775C117.32 72.6285 116.336 71.3685 115.36 70.1719L112.376 66.5662C111.4 65.33 110.456 64.0779 109.616 62.7466Z" fill="#0EAA76"/>
<path d="M91.08 9.79468C90.76 11.1181 90.872 12.5445 91.392 13.8124V13.8124C91.5554 14.2084 92.0164 13.8444 91.9068 13.4303C91.6356 12.4061 91.5914 11.3241 91.808 10.286" fill="#EF8137"/>
<path d="M91.08 10.0007C90.8826 10.3035 90.7098 10.6214 90.5621 10.9504C90.2644 11.6138 90.7722 11.6308 91.032 10.9517V10.9517" fill="#EF8137"/>
<path d="M86.7599 19.4626C86.3604 20.3765 85.88 21.2578 85.3241 22.1063C84.4245 23.4794 86.6719 25.7151 86.6719 25.7151V25.7151" fill="#FF9796"/>
<path d="M91.264 20.0099C90.8473 19.8264 90.7956 19.3702 91.239 19.4739C91.3101 19.4905 91.38 19.5108 91.448 19.5343C91.9466 19.7139 92.3738 20.042 92.6893 20.4384C92.71 20.4645 92.6882 20.5018 92.6552 20.4972V20.4972C92.6169 20.492 92.611 20.4402 92.6475 20.4273C92.7499 20.3911 92.8544 20.3581 92.9606 20.3279C93.0767 20.295 93.1517 20.4281 93.0619 20.5086C92.9447 20.6137 92.8228 20.7118 92.696 20.8027V20.8027C92.6444 20.8446 92.5708 20.8458 92.5177 20.8056L92.472 20.771C92.272 20.6204 92.08 20.4777 91.88 20.3508C91.68 20.224 91.48 20.0971 91.264 20.0099V20.0099Z" fill="black"/>
<path d="M83.488 18.5515C83.184 18.4881 82.896 18.5911 82.808 18.7735C82.568 19.2571 82.68 19.7248 82.936 20.2084C83.128 20.5731 83.632 20.7871 83.984 20.4462C84.456 19.9864 84.184 18.5991 83.488 18.5515Z" fill="black"/>
<path d="M84.923 18.8615C85.1033 19.0173 84.9302 19.234 84.712 19.1382V19.1382C84.48 19.051 84.2641 18.9559 84.0401 18.9083C83.8161 18.8449 83.6 18.8211 83.376 18.8211C83.16 18.8211 82.9281 18.8687 82.7521 18.94L82.6744 18.9714C82.5967 19.0027 82.508 18.9682 82.472 18.8925V18.8925C82.4067 18.763 82.3451 18.6298 82.2889 18.4921C82.2311 18.3505 82.3871 18.2459 82.4972 18.352C82.5651 18.4175 82.6308 18.4844 82.6942 18.5527C82.7304 18.5917 82.6964 18.6529 82.644 18.644V18.644C82.5959 18.6358 82.5808 18.5756 82.6214 18.5486C82.8492 18.3971 83.0936 18.3344 83.344 18.3137C83.632 18.282 83.928 18.3454 84.192 18.4326C84.4659 18.5313 84.7118 18.6791 84.923 18.8615Z" fill="black"/>
<path d="M95.0004 64.4088C95.5818 64.3783 95.9149 64.074 96.2362 63.5884C97.5087 61.6658 101.009 56.548 104.408 53.1182C98.9124 57.954 95.1296 63.2376 94.6446 64.2535C94.5865 64.375 94.8658 64.4159 95.0004 64.4088V64.4088Z" fill="#0EAA76"/>
<path d="M104.168 41.1598C106.496 41.461 107.416 41.7938 108.76 42.4595C109.464 42.8081 110.368 43.3074 110.792 43.9651C111.56 45.1538 110.704 46.6991 109.8 47.7927C107.416 50.6772 104.568 53.1259 101.856 55.6934C100.488 56.9851 99.144 58.3085 97.912 59.7349C97.4401 60.2781 96.8936 60.8856 96.3786 61.5296C95.265 62.9222 96.2361 64.3886 98.0178 64.3165C99.7897 64.2448 101.32 64.5221 100.896 66.9859C100.696 68.1349 99.976 69.1176 99.304 70.0764C92.72 79.4512 89.608 90.1255 86.768 101.038C87.944 91.7896 87.792 80.8696 90.152 71.804C92.7664 61.7437 97.1901 51.9997 102.12 42.7971C102.676 41.7592 103.797 41.1316 104.963 41.2962C105.119 41.3181 105.267 41.3414 105.4 41.3659" fill="#2EEDA8"/>
<path d="M106.8 10.9834C106.704 11.8155 107.072 12.7506 107.848 13.0676C108.232 13.2261 108.664 13.2182 109.08 13.1785C109.24 13.1627 109.432 13.1151 109.464 12.9567C109.504 12.7665 109.272 12.6476 109.096 12.5604C108.584 12.2989 108.312 11.7284 108.2 11.1736C108.112 10.7457 108.28 9.351 107.64 9.35892C107.088 9.36684 106.848 10.5872 106.8 10.9834Z" fill="#E06934"/>
<path d="M120.592 27.5379C120.376 27.6013 120.152 27.6647 119.968 27.7994C119.784 27.9341 119.664 28.1719 119.736 28.3858C119.8 28.576 119.992 28.6791 120.176 28.7662C120.618 28.987 121.067 29.1953 121.521 29.3906C122.294 29.7232 122.101 29.6851 121.928 28.8613V28.8613C121.856 28.5047 122.176 28.2036 122.424 27.9341C122.696 27.633 123.536 26.4047 122.832 26.4126C122.568 26.4126 122.16 26.8168 121.936 26.9436C121.504 27.1972 121.056 27.3953 120.592 27.5379Z" fill="#E06934"/>
<path d="M92.072 6.32365C90.728 4.61987 88.648 3.50251 86.48 3.29648C84.304 3.09836 82.056 3.81157 80.416 5.23799C77.728 7.5678 76.816 11.4508 74.096 13.7489V13.7489C73.7563 14.038 73.8378 15.4961 74.2821 15.5362C77.2787 15.8067 80.3561 15.5854 83.232 15.0327C85.24 14.6444 87.168 14.0184 88.848 12.8614C90.3398 11.834 91.4279 10.0505 91.7594 8.24892C91.8126 7.95933 92.1593 7.80739 92.392 7.9878V7.9878" fill="#EF8137"/>
<path d="M98.7666 21.7916C98.9328 22.157 99.4257 22.1614 99.7045 21.8727C99.972 21.5956 100.272 21.3491 100.595 21.1391C100.998 20.8774 100.958 20.478 100.52 20.6753V20.6753C100.168 20.8339 99.808 21.0559 99.416 21.04V21.04C98.9972 21.032 98.517 21.164 98.6672 21.555C98.6979 21.6349 98.7313 21.714 98.7666 21.7916Z" fill="#E06934"/>
<path d="M83.656 14.7078C85.616 13.3131 87.584 11.9263 89.544 10.5316C90.576 9.80256 90.472 10.9833 90.008 11.5697C89.52 12.2037 88.88 12.7505 88.216 13.1943C87.544 13.6539 86.808 14.0184 86.04 14.272C85.472 14.4622 84.08 14.3988 83.656 14.7078Z" fill="#E06934"/>
<path d="M74.432 57.6272C74.5973 57.0032 75.2217 57.0619 75.1644 57.7048C75.163 57.7212 75.1615 57.7376 75.16 57.754C75.08 58.6336 74.92 59.4973 74.736 60.3611V60.3611C74.4581 61.5501 73.5437 61.3472 73.808 60.1551V60.1551C74.008 59.3072 74.208 58.4672 74.432 57.6272V57.6272Z" fill="#0EAA76"/>
<path d="M129.24 69.9816C130.263 72.0502 131.103 74.2327 131.624 76.4764C132.048 78.3013 130.407 78.8948 130 77.0661V77.0661C129.648 75.5209 129.544 73.928 129.16 72.3907C128.712 70.6156 127.896 68.9593 127.048 67.3348C126.48 66.2412 125.896 65.1635 125.288 64.0858V64.0858C124.827 63.2643 125.228 63.0406 125.757 63.8204C127.085 65.7817 128.239 67.9591 129.24 69.9816Z" fill="#2EEDA8"/>
<path d="M116.84 16.9585C117.336 17.1498 117.81 17.3902 118.257 17.6724C120.343 18.9892 118.711 19.8669 116.936 18.1551V18.1551C116.784 18.0045 116.624 17.854 116.544 17.6559C116.472 17.4577 116.512 17.1962 116.696 17.0853C116.984 16.9109 117.32 17.1962 117.536 17.4498" fill="#FFA466"/>
<path d="M84.344 4.08125C82.944 4.41408 81.76 5.3254 80.784 6.37144V6.37144C80.4433 6.73653 81.097 7.41603 81.5187 7.14858C81.9562 6.87113 82.4035 6.61003 82.864 6.37144C83.5559 6.00918 84.2479 5.75516 84.9514 5.55374C86.4439 5.1264 86.8388 3.93179 85.2869 3.97432C84.9114 3.98461 84.5718 4.02699 84.344 4.08125Z" fill="#FFA466"/>
<path d="M96.3485 12.6828C98.2044 13.4291 98.2826 15.3865 96.4481 14.5891V14.5891C95.5601 14.2008 94.5521 13.551 93.9441 12.7903C93.1361 11.7838 93.3841 11.4748 94.5441 11.9423C95.1597 12.1932 95.7562 12.4446 96.3485 12.6828Z" fill="#FFA466"/>
<path d="M72.312 26.7452C71.4 27.2286 70.624 27.9418 70.416 28.8848C70.312 29.3761 70.328 29.8912 70.352 30.3984C70.36 30.5172 70.368 30.644 70.464 30.7154C70.808 30.961 71.192 29.8991 71.288 29.7169C71.616 29.0671 72.056 28.5044 72.656 28.0844C72.952 27.8784 76.064 26.452 74.824 26.0954C74.672 26.0557 74.52 26.0637 74.36 26.0874C73.72 26.1667 72.976 26.3886 72.312 26.7452Z" fill="#FFA466"/>
<path d="M114.351 50.998C114.101 51.4908 114.81 51.9663 115.28 51.6758V51.6758C116.088 51.1766 117.104 50.9072 118.016 51.1766C118.792 51.4064 119.4 51.9849 119.984 52.5475C119.048 51.6362 118.576 47.3332 116.704 48.0622C115.846 48.3994 115.014 49.6906 114.351 50.998Z" fill="#2EEDA8"/>
<path d="M107.36 7.41729C106.832 6.65654 106.584 5.76899 105.984 5.03201C105.696 4.67541 105.368 4.34258 105.016 4.04937C104.8 3.8671 104.264 3.32824 103.976 3.32031C105.144 3.35201 106.28 4.03352 107.048 4.87352C107.563 5.43952 107.945 6.12365 108.165 6.85411C108.359 7.49967 107.733 7.97859 107.36 7.41729V7.41729Z" fill="#FFA466"/>
<path d="M95.608 76.1943C93.232 80.8302 89.784 88.6517 87.816 97.5747C90.384 89.8958 90.584 88.9132 92.52 84.0158C94.752 78.3577 96.896 73.6822 95.608 76.1943Z" fill="#0EAA76"/>
<path d="M84.608 28.4412C85.064 28.3698 85.312 28.4333 86.952 29.0279V29.0279C87.0393 29.0595 87.1814 30.3962 87.0892 30.4075C86.6573 30.46 86.1885 30.4791 85.688 30.4469C85.2677 30.4194 84.9303 30.353 84.6595 30.2562C84.0908 30.0528 83.7935 29.3703 84.095 28.847C84.2247 28.622 84.4077 28.4723 84.608 28.4412Z" fill="#FC5959"/>
<path d="M99.7199 30.153C100.075 30.2117 100.323 30.5267 99.9688 30.5945C99.8799 30.6116 99.7885 30.6206 99.6959 30.6206C99.0879 30.6444 98.4799 30.2798 98.1839 29.741C97.8879 29.1942 97.9279 28.4968 98.2879 28.0055C98.3403 27.9277 98.4 27.8564 98.4655 27.792C98.7138 27.5479 98.8397 27.9299 98.6879 28.2432V28.2432C98.4959 28.6394 98.5119 29.0991 98.7119 29.4557C98.9039 29.8202 99.2799 30.0896 99.7199 30.153V30.153Z" fill="#BC983F"/>
<path d="M108.424 75.6873C108.264 77.1691 107.576 78.5559 106.672 79.7446C106.413 80.0844 106.138 80.4107 105.851 80.7268C105.618 80.9827 106.373 82.6028 106.664 82.4152V82.4152C107.04 82.1774 107.264 81.7733 107.48 81.385C107.896 80.6242 108.312 79.8635 108.736 79.1027" fill="#0EAA76"/>
<path d="M59.5576 68.3154C59.8021 68.3949 60.0264 68.535 60.2282 68.6942C65.1893 72.6079 67.6439 75.3533 68.7564 76.7995C69.3112 77.5207 69.3592 78.4719 68.892 79.2527C67.7115 81.2259 65.0317 84.7328 61.224 83.9842C58.8108 83.5092 55.2907 79.0858 52.1606 74.374C51.9479 74.0538 51.7797 73.693 51.8079 73.3097C51.9938 70.7763 56.1219 67.1978 59.5576 68.3154Z" fill="#00D593"/>
<path d="M49.656 58.3801C49.9926 57.8429 50.4506 58.2583 50.6365 58.4679C50.6949 58.5338 50.7451 58.5994 50.8026 58.6662C51.7051 59.715 59.7256 69.046 60.888 70.7582C61.752 72.034 61.536 73.714 59.688 74.9502C57.424 76.4718 55.088 75.8061 52.952 71.8597C50.104 65.417 46.896 61.3755 46.896 61.3755" fill="#FFC1AF"/>
<path d="M46.6501 55.8941C46.9026 55.0106 46.5669 54.0642 45.8141 53.5373L37.9968 48.0657C37.9936 48.0634 37.9908 48.0615 37.9876 48.0593C37.9304 48.0199 37.3201 47.6106 36.688 47.6106C36.112 47.6106 32.376 47.6661 31.392 47.6819C31.2735 47.6819 31.1766 47.7517 31.1282 47.8516C31.1072 47.8949 31.0949 47.9421 31.0769 47.9868V47.9868C30.9064 48.4091 31.0561 48.8931 31.4353 49.1454L43.3855 57.0958C44.5999 57.9037 46.2493 57.2966 46.6501 55.8941V55.8941Z" fill="#203FA0"/>
<path d="M46.5031 56.885C46.7444 56.2242 46.5129 55.4836 45.9382 55.0777L37.8003 49.3308C37.8 49.3307 37.8001 49.3307 37.7999 49.3306C37.7928 49.3256 37.1562 48.8789 36.4959 48.8789V48.8789C34.8534 48.8789 34.231 51.0267 35.5982 51.9369L44.1758 57.6476C45.0155 58.2067 46.157 57.8327 46.5031 56.885V56.885Z" fill="#071851"/>
<path d="M41.936 56.9455C41.272 57.0248 40.72 55.9391 40.416 55.4953C40.0151 54.8997 39.0161 53.4842 38.1251 52.6684C37.4776 52.0754 36.9726 52.5833 37.2848 53.4039C38.0445 55.4014 39.7804 58.9735 40.552 59.6319C41.136 60.1312 41.936 59.7032 42.656 59.9806C43.2 60.1866 43.376 60.7017 43.96 60.8444C44.656 61.0266 45.384 60.6146 46.088 60.884C46.52 61.0504 46.544 61.3832 47 61.4308C47.456 61.4704 47.88 61.1693 48.344 61.1614C48.712 61.1534 49.064 61.3436 49.432 61.3357C50.296 61.3198 51.264 60.6225 51.52 59.8063C51.632 59.4497 51.792 59.1327 51.872 58.7602C51.968 58.3164 52 57.8568 52.024 57.3972C52.032 57.2704 52.032 57.1357 51.992 57.0168C51.936 56.8425 51.816 56.6998 51.68 56.581C51.4644 56.3765 51.2304 56.1825 50.9781 56.0213C50.612 55.7875 50.159 55.7774 49.736 55.8757V55.8757" fill="#FFC1AF"/>
<path d="M49.6561 59.426C49.8481 58.4434 50.0481 57.4528 50.0641 56.4464C50.0801 55.44 49.9041 54.4177 49.3921 53.546C49.3281 53.4351 49.2481 53.3242 49.1201 53.3004C48.9914 53.2784 48.8331 53.3442 48.7082 53.4464C48.5229 53.5979 48.5043 53.8556 48.5005 54.0949C48.4863 54.9713 48.4165 57.1968 48.0721 57.8411" fill="#FFC1AF"/>
<path d="M42.7921 57.0405C43.0401 56.1292 43.5681 55.0039 43.8561 54.156C44.0437 53.5879 44.3354 52.5644 44.8372 51.9508C45.277 51.413 46.0138 51.7523 46.0677 52.4449C46.1711 53.7727 45.8062 55.9918 45.5361 57.1435" fill="#FFC1AF"/>
<path d="M45.9119 57.5558C46.2319 55.7808 46.5519 54.0057 46.8719 52.2385C46.8879 52.1434 46.9119 52.0483 46.9759 51.977C47.1199 51.8502 47.3439 51.9453 47.4959 52.0562C47.9999 52.4445 48.3279 53.023 48.4959 53.6253C48.6639 54.2355 48.6879 54.8694 48.6639 55.5034C48.6239 56.5257 48.4639 57.5479 48.1839 58.5306" fill="#FFC1AF"/>
<path d="M72.1039 73.7455C71.1759 75.5761 70.2799 77.3036 69.1839 79.047V79.047C68.5247 80.0968 67.1854 78.9673 67.2835 77.7316C67.3591 76.7787 67.2598 75.8339 66.9413 74.9721C66.7112 74.3494 67.211 73.652 67.8399 73.8644V73.8644C68.5439 74.1021 69.3679 74.1972 69.9999 73.801" fill="#0EAA76"/>
<path d="M51.8247 59.8351C51.7159 59.7137 51.5209 59.7532 51.4536 59.9017V59.9017C51.3714 60.0833 51.3291 60.6582 51.4439 60.8211C51.4832 60.8769 51.5358 60.9115 51.6159 60.9007V60.9007C51.8346 60.8741 52.2114 60.271 52.0656 60.1058C51.9782 60.0067 51.8958 59.9143 51.8247 59.8351Z" fill="#FF9796"/>
<path d="M54.5281 74.0707C56.0401 75.4495 57.2481 75.711 58.7201 75.3148C59.0507 75.2258 59.3725 75.0784 59.6697 74.8828C60.5251 74.3199 59.2529 73.6569 58.2321 73.7378V73.7378C57.0321 73.825 55.8401 73.3575 54.8561 72.6601V72.6601C54.1534 72.1629 53.382 72.6647 53.8928 73.3576C54.0881 73.6224 54.2981 73.8607 54.5281 74.0707Z" fill="#FF9796"/>
<path d="M48.776 55.4875C48.8036 55.1485 48.755 54.7114 48.6644 54.2726C48.5957 53.9398 48.7988 53.7498 48.952 54.0532V54.0532C49.2 54.6633 49.304 55.4875 48.872 56.066V56.066C48.8117 56.1427 48.7104 56.0898 48.7229 55.9931C48.7514 55.7737 48.7701 55.6094 48.776 55.4875Z" fill="#FF9796"/>
<path d="M41.3361 56.5741C41.0691 56.3435 40.8512 55.9903 40.6286 55.641C40.3565 55.2138 40.0639 55.3987 40.2321 55.8764V55.8764C40.3521 56.2173 40.5601 56.5424 40.8641 56.7406C41.1441 56.9308 41.4961 57.0022 41.8401 56.9942C42.0481 56.9863 42.2641 56.9546 42.4641 56.907C42.0801 56.9863 41.6241 56.8278 41.3361 56.5741Z" fill="#FF9796"/>
<path d="M51.7679 60.8687V60.8687C52.2548 60.6783 51.1557 60.3543 50.7645 60.7011C50.3726 61.0485 49.8947 61.3278 49.4239 61.3365C49.0559 61.3444 48.7039 61.1541 48.3359 61.1621C48.1337 61.1656 47.9237 61.2236 47.7127 61.2837C47.4262 61.3654 47.3869 61.653 47.6719 61.5664V61.5664C48.1039 61.4633 48.1919 61.3999 48.4559 61.3999C48.7199 61.3999 49.4239 61.6774 49.8959 61.5188C50.3679 61.3603 50.7679 61.0511 50.9359 60.9797C51.1039 60.9004 51.5759 60.948 51.7679 60.8687Z" fill="#FF9796"/>
<path d="M11.552 32.1975L32.7669 45.6543C33.7365 46.2694 34.9722 46.277 35.9494 45.6739L57.952 32.0945" stroke="#061544" stroke-width="0.25" stroke-miterlimit="10" stroke-linecap="round" stroke-linejoin="round"/>
<path d="M41.688 32.0945L36.8333 41.7334C35.7636 43.8571 32.7665 43.9517 31.565 41.8997L25.824 32.0945" stroke="#061544" stroke-width="0.25" stroke-miterlimit="10" stroke-linecap="round" stroke-linejoin="round"/>
<path d="M61.064 35.3986H8.55195C8.11195 35.3986 7.75195 35.042 7.75195 34.6062V3.50241C7.75195 3.06656 8.11195 2.70996 8.55195 2.70996H61.064C61.504 2.70996 61.864 3.06656 61.864 3.50241V34.6062C61.864 35.042 61.512 35.3986 61.064 35.3986Z" fill="#D4EEFC"/>
<path d="M61.064 35.3986H8.55195C8.11195 35.3986 7.75195 35.042 7.75195 34.6062V3.50241C7.75195 3.06656 8.11195 2.70996 8.55195 2.70996H61.064C61.504 2.70996 61.864 3.06656 61.864 3.50241V34.6062C61.864 35.042 61.512 35.3986 61.064 35.3986Z" fill="url(#paint0_linear)"/>
<path d="M26.949 26.4291C26.7966 26.4179 26.6436 26.4185 26.4913 26.4306L12.7555 27.5291C11.9674 27.5921 11.36 28.25 11.36 29.0406V29.0406C11.36 29.878 12.0389 30.5569 12.8764 30.5569H56.5015C57.4749 30.5569 58.264 30.6678 58.264 29.6944V29.6944C58.264 28.6931 57.4309 26.9928 56.4303 27.0333L42.776 27.5852L26.949 26.4291Z" fill="#071851"/>
<path d="M23.248 24.2329L11.7953 26.5232C11.5422 26.5738 11.36 26.796 11.36 27.0541V27.0541C11.36 27.3701 11.6296 27.6189 11.9445 27.5937L26.4993 26.4304C26.6516 26.4183 26.8045 26.4177 26.9569 26.4289L42.784 27.585L55.3932 27.0753C57.0016 27.0103 58.272 25.6881 58.272 24.0784C58.272 23.8507 58.272 23.6187 58.272 23.3855C58.272 21.309 56.2133 19.8603 54.2588 20.5616L44.5688 24.0385C44.0554 24.2227 43.5014 24.2635 42.9665 24.1564L34.7481 22.5105C34.391 22.439 34.024 22.4331 33.6648 22.4931L23.248 24.2329Z" fill="#203FA0"/>
<path d="M11.36 25.3381C11.36 25.9964 11.9621 26.4903 12.6077 26.3616L23.248 24.2408L33.6556 22.4937C34.0155 22.4333 34.3835 22.4391 34.7414 22.5107L42.9585 24.1564C43.4934 24.2635 44.0474 24.2227 44.5608 24.0385L54.3682 20.5195C56.2655 19.8387 58.264 18.5469 58.264 16.5312V16.5312C58.264 13.8503 54.948 11.2108 53.1711 13.2183L51.4015 15.2174C51.1573 15.4933 50.8644 15.7218 50.5374 15.8916L43.6425 19.471C43.1543 19.7245 42.6058 19.8388 42.0569 19.8016L33.0519 19.1899C32.6949 19.1657 32.3364 19.2055 31.9934 19.3075L25.6175 21.2036C25.2779 21.3046 24.9231 21.3446 24.5695 21.3219L19.973 21.0257C19.466 20.9931 18.959 21.0897 18.4996 21.3066L11.9582 24.3943C11.593 24.5667 11.36 24.9343 11.36 25.3381V25.3381Z" fill="#008CFF"/>
</g>
<defs>
<linearGradient id="paint0_linear" x1="34.8105" y1="35.396" x2="34.8105" y2="2.70806" gradientUnits="userSpaceOnUse">
<stop stop-color="#00A5FF" stop-opacity="0.2"/>
<stop offset="0.4171" stop-color="#008CFF" stop-opacity="0.4"/>
<stop offset="1" stop-color="#008CFF" stop-opacity="0.5"/>
</linearGradient>
</defs>
</svg>
