<svg width="213" height="128" viewBox="0 0 213 128" fill="none" xmlns="http://www.w3.org/2000/svg">
<g clip-path="url(#clip0)">
<path d="M187.065 128H2.80332C1.78222 128 0.946777 127.157 0.946777 126.127V7.21877C0.946777 6.18885 1.78222 5.34619 2.80332 5.34619H187.065C188.086 5.34619 188.922 6.18885 188.922 7.21877V126.127C188.922 127.157 188.086 128 187.065 128Z" fill="white"/>
<path opacity="0.4" d="M51.0269 96.7749C51.0269 96.7749 63.9855 97.4771 67.5408 84.2474C72.1822 69.7349 72.767 46.7584 85.9113 45.1948C88.3805 44.9046 90.0607 47.0206 90.9704 48.9868C91.7966 50.7657 92.9569 52.6945 94.7578 53.6776C96.7164 54.745 99.3156 54.436 100.931 52.8817C101.859 51.9923 102.527 50.747 103.818 50.335C105.981 49.6515 107.187 51.7207 107.995 53.3499C108.524 54.4173 108.96 55.9621 110.334 56.1307C111.922 56.3179 113.76 54.4266 115.041 53.6401C116.6 52.6758 121.121 51.1496 120.87 54.4173C120.722 56.3928 119.487 58.1999 118.67 59.9507C117.241 63.0217 115.607 65.9898 113.936 68.9297C111.049 74.0138 107.986 79.0135 104.839 83.9384C104.709 84.1444 104.393 84.9028 104.152 85.0058L84.5004 93.4324L77.8446 96.0821L75.9881 97.0184L51.0269 96.7749Z" fill="#008CFF"/>
<path opacity="0.4" d="M180.289 72.1973C179.593 71.9632 179.947 12.4919 179.947 12.4919L169.947 15.49C169.947 15.49 169.947 15.49 157.447 18.488C148.447 21.4861 135.556 25.3267 135.556 25.3267C135.556 25.3267 133.875 31.4687 132.483 33.5754C131.091 35.682 120.415 48.556 114.15 59.0892C107.884 69.6225 85.8373 93.7319 73.3057 96.7749C101.739 97.0089 180.057 96.8123 180.057 96.8123L180.289 72.1973Z" fill="#A9DBF7"/>
<path d="M9.57959 77.1409V37.0491C9.57959 36.9461 9.66313 36.8618 9.76524 36.8618H10.9163C11.0184 36.8618 11.102 36.9461 11.102 37.0491V77.1409C11.102 77.2439 11.0184 77.3282 10.9163 77.3282H9.76524C9.66313 77.3282 9.57959 77.2439 9.57959 77.1409Z" fill="#A9DBF7"/>
<g opacity="0.6">
<g opacity="0.6">
<path opacity="0.6" d="M180.057 96.8872H25.4995" stroke="#A9DBF7" stroke-width="0.5" stroke-miterlimit="10"/>
<path opacity="0.6" d="M180.057 80.9705H25.4995" stroke="#A9DBF7" stroke-width="0.5" stroke-miterlimit="10"/>
<path opacity="0.6" d="M180.057 65.0535H25.4995" stroke="#A9DBF7" stroke-width="0.5" stroke-miterlimit="10"/>
<path opacity="0.6" d="M180.057 49.1365H25.4995" stroke="#A9DBF7" stroke-width="0.5" stroke-miterlimit="10"/>
<path opacity="0.6" d="M180.057 33.2197H25.4995" stroke="#A9DBF7" stroke-width="0.5" stroke-miterlimit="10"/>
<path opacity="0.6" d="M180.057 17.3027H25.4995" stroke="#A9DBF7" stroke-width="0.5" stroke-miterlimit="10"/>
</g>
<g opacity="0.6">
<path opacity="0.6" d="M28.6743 96.8499V100.52" stroke="#A9DBF7" stroke-width="0.5" stroke-miterlimit="10"/>
<path opacity="0.6" d="M50.7949 96.8499V100.52" stroke="#A9DBF7" stroke-width="0.5" stroke-miterlimit="10"/>
<path opacity="0.6" d="M72.916 96.8499V100.52" stroke="#A9DBF7" stroke-width="0.5" stroke-miterlimit="10"/>
<path opacity="0.6" d="M95.0459 96.8499V100.52" stroke="#A9DBF7" stroke-width="0.5" stroke-miterlimit="10"/>
<path opacity="0.6" d="M117.167 96.8499V100.52" stroke="#A9DBF7" stroke-width="0.5" stroke-miterlimit="10"/>
<path opacity="0.6" d="M139.287 96.8499V100.52" stroke="#A9DBF7" stroke-width="0.5" stroke-miterlimit="10"/>
<path opacity="0.6" d="M161.417 96.8499V100.52" stroke="#A9DBF7" stroke-width="0.5" stroke-miterlimit="10"/>
</g>
</g>
<path d="M16.4024 15.7952H20.9045C21.1644 15.7952 21.3686 16.0011 21.3686 16.2633V18.3512C21.3686 18.6134 21.1644 18.8194 20.9045 18.8194H16.4024C16.1425 18.8194 15.9382 18.6134 15.9382 18.3512V16.2633C15.9382 16.0011 16.1517 15.7952 16.4024 15.7952Z" fill="#A9DBF7"/>
<path d="M16.4024 31.7122H20.9045C21.1644 31.7122 21.3686 31.9181 21.3686 32.1803V34.2682C21.3686 34.5304 21.1644 34.7364 20.9045 34.7364H16.4024C16.1425 34.7364 15.9382 34.5304 15.9382 34.2682V32.1803C15.9382 31.9181 16.1517 31.7122 16.4024 31.7122Z" fill="#A9DBF7"/>
<path d="M16.4024 47.6289H20.9045C21.1644 47.6289 21.3686 47.8349 21.3686 48.0971V50.185C21.3686 50.4471 21.1644 50.6531 20.9045 50.6531H16.4024C16.1425 50.6531 15.9382 50.4471 15.9382 50.185V48.0971C15.9382 47.8349 16.1517 47.6289 16.4024 47.6289Z" fill="#A9DBF7"/>
<path d="M16.4024 63.5459H20.9045C21.1644 63.5459 21.3686 63.7519 21.3686 64.014V66.102C21.3686 66.3641 21.1644 66.5701 20.9045 66.5701H16.4024C16.1425 66.5701 15.9382 66.3641 15.9382 66.102V64.014C15.9382 63.7519 16.1517 63.5459 16.4024 63.5459Z" fill="#A9DBF7"/>
<path d="M16.4024 79.4629H20.9045C21.1644 79.4629 21.3686 79.6689 21.3686 79.931V82.019C21.3686 82.2811 21.1644 82.4871 20.9045 82.4871H16.4024C16.1425 82.4871 15.9382 82.2811 15.9382 82.019V79.931C15.9382 79.6689 16.1517 79.4629 16.4024 79.4629Z" fill="#A9DBF7"/>
<path d="M16.4024 95.3796H20.9045C21.1644 95.3796 21.3686 95.5856 21.3686 95.8478V97.9357C21.3686 98.1979 21.1644 98.4038 20.9045 98.4038H16.4024C16.1425 98.4038 15.9382 98.1979 15.9382 97.9357V95.8478C15.9382 95.5856 16.1517 95.3796 16.4024 95.3796Z" fill="#A9DBF7"/>
<path d="M24.6082 102.402H32.7306C32.9905 102.402 33.1947 102.608 33.1947 102.87V104.237C33.1947 104.499 32.9905 104.705 32.7306 104.705H24.6082C24.3483 104.705 24.144 104.499 24.144 104.237V102.87C24.144 102.608 24.3575 102.402 24.6082 102.402Z" fill="#A9DBF7"/>
<path d="M46.7293 102.402H54.8517C55.1116 102.402 55.3158 102.608 55.3158 102.87V104.237C55.3158 104.499 55.1116 104.705 54.8517 104.705H46.7293C46.4694 104.705 46.2651 104.499 46.2651 104.237V102.87C46.2651 102.608 46.4786 102.402 46.7293 102.402Z" fill="#A9DBF7"/>
<path d="M68.8592 102.402H76.9815C77.2415 102.402 77.4457 102.608 77.4457 102.87V104.237C77.4457 104.499 77.2415 104.705 76.9815 104.705H68.8592C68.5992 104.705 68.395 104.499 68.395 104.237V102.87C68.395 102.608 68.5992 102.402 68.8592 102.402Z" fill="#A9DBF7"/>
<path d="M90.9798 102.402H99.1021C99.3621 102.402 99.5663 102.608 99.5663 102.87V104.237C99.5663 104.499 99.3621 104.705 99.1021 104.705H90.9798C90.7198 104.705 90.5156 104.499 90.5156 104.237V102.87C90.5156 102.608 90.7291 102.402 90.9798 102.402Z" fill="#A9DBF7"/>
<path d="M113.1 102.402H121.223C121.483 102.402 121.687 102.608 121.687 102.87V104.237C121.687 104.499 121.483 104.705 121.223 104.705H113.1C112.84 104.705 112.636 104.499 112.636 104.237V102.87C112.636 102.608 112.85 102.402 113.1 102.402Z" fill="#A9DBF7"/>
<path d="M135.231 102.402H143.353C143.613 102.402 143.817 102.608 143.817 102.87V104.237C143.817 104.499 143.613 104.705 143.353 104.705H135.231C134.971 104.705 134.767 104.499 134.767 104.237V102.87C134.767 102.608 134.971 102.402 135.231 102.402Z" fill="#A9DBF7"/>
<path d="M157.351 102.402H165.474C165.734 102.402 165.938 102.608 165.938 102.87V104.237C165.938 104.499 165.734 104.705 165.474 104.705H157.351C157.091 104.705 156.887 104.499 156.887 104.237V102.87C156.887 102.608 157.101 102.402 157.351 102.402Z" fill="#A9DBF7"/>
<path d="M91.4249 114.284H100.104C100.206 114.284 100.29 114.368 100.29 114.471V116.4C100.29 116.503 100.206 116.587 100.104 116.587H91.4249C91.3228 116.587 91.2393 116.503 91.2393 116.4V114.471C91.2393 114.368 91.3228 114.284 91.4249 114.284Z" fill="#A9DBF7"/>
<path d="M89.3643 117.551H84.1382V113.338H89.1787C89.2808 113.338 89.3643 113.422 89.3643 113.525V117.551V117.551Z" fill="#A9DBF7"/>
<path d="M112.543 114.284H121.222C121.325 114.284 121.408 114.368 121.408 114.471V116.4C121.408 116.503 121.325 116.587 121.222 116.587H112.543C112.441 116.587 112.357 116.503 112.357 116.4V114.471C112.357 114.368 112.441 114.284 112.543 114.284Z" fill="#A9DBF7"/>
<path d="M110.483 117.551H105.256V113.338H110.297C110.399 113.338 110.483 113.422 110.483 113.525V117.551V117.551Z" fill="#008CFF"/>
<path opacity="0.2" d="M191.707 123.375L153.211 123.478L114.716 123.712C89.0493 123.88 63.3826 123.908 37.7158 123.796L18.4635 123.74L8.83728 123.712H7.63053C7.23137 123.73 6.67441 123.646 6.27525 123.384C5.85753 123.131 5.53263 122.738 5.35626 122.289C5.26344 122.064 5.21702 121.82 5.20774 121.577C5.19846 121.334 5.20774 121.165 5.20774 120.95L5.2263 116.1L5.34698 77.2718C5.42124 64.3323 5.37483 51.3835 5.3377 38.444L5.29128 19.0066L5.27272 9.29731L5.25415 4.44734V3.23016V2.62157C5.25415 2.41559 5.26344 2.15343 5.3377 1.92872C5.57905 0.992432 6.48875 0.299579 7.44488 0.308942C58.7783 0.112321 110.103 -0.0562109 161.436 -3.36006e-05L180.688 0.00932928L190.315 0.028055H191.521C191.688 0.028055 192.004 0.0280551 192.255 0.0935952C192.515 0.149773 192.765 0.262127 192.997 0.393208C193.452 0.674094 193.814 1.10479 194.009 1.61038C194.111 1.86318 194.167 2.12534 194.176 2.39686C194.185 2.66839 194.176 2.81819 194.176 3.03354L194.148 7.88351L193.953 46.7114L193.74 85.5393L193.675 104.958L193.656 114.667L193.647 119.517V120.734C193.628 121.137 193.693 121.549 193.573 121.961C193.341 122.785 192.542 123.393 191.707 123.375ZM191.707 123.253C192.487 123.262 193.229 122.691 193.424 121.933C193.536 121.558 193.48 121.146 193.489 120.744V119.527L193.48 114.677L193.461 104.967L193.396 85.5486L193.183 46.7208L192.988 7.89288L192.96 3.0429C192.96 2.85565 192.96 2.60285 192.951 2.47177C192.942 2.34069 192.914 2.20024 192.867 2.07853C192.765 1.82573 192.589 1.61038 192.357 1.4793C192.245 1.41376 192.115 1.35758 191.985 1.3295C191.846 1.30141 191.753 1.30141 191.521 1.30141H190.315L180.688 1.31077H161.436C110.103 1.37631 58.7783 1.19842 7.44488 1.01116C6.7858 1.00179 6.15458 1.4793 5.9782 2.12534C5.88538 2.41559 5.93179 2.82756 5.91323 3.23952V4.4567L5.90394 9.29731L5.88538 19.0066L5.82968 38.4252C5.79255 51.3647 5.75542 64.3136 5.8204 77.2531L5.94107 116.081L5.95964 120.931C5.95964 121.128 5.95964 121.352 5.96892 121.521C5.9782 121.68 6.00605 121.839 6.07103 121.989C6.19171 122.289 6.40521 122.551 6.68369 122.71C6.97146 122.878 7.24066 122.935 7.63981 122.925H8.84657L18.4727 122.897L37.7251 122.841C63.3918 122.729 89.0586 122.757 114.725 122.925L153.221 123.159L191.707 123.253Z" fill="#00A5FF"/>
</g>
<mask id="mask0" mask-type="alpha" maskUnits="userSpaceOnUse" x="70" y="33" width="143" height="95">
<rect x="70.5093" y="33.1035" width="142.438" height="94.8965" fill="#C4C4C4"/>
</mask>
<g mask="url(#mask0)">
<path d="M176.738 150.633C177.439 141.325 173.504 125.779 172.403 123.273L141.321 124.374C141.225 130.662 138.783 144.605 136.992 150.633L153.398 150.583L176.738 150.633Z" fill="#283C7C"/>
<path d="M172.841 124.645C173.302 125.847 173.773 127.529 173.942 128.754C163.695 131.08 154.167 131.978 140.979 129.595C141.231 128.241 141.147 127.8 141.316 126.237L141.574 124.013" fill="#071851"/>
<path d="M140.973 129.466C140.973 129.466 143.561 130.07 145.263 130.132C145.577 129.245 145.7 125.768 145.7 125.768L147.34 125.892C147.34 125.892 147.346 128.794 147.312 130.346C148.418 130.504 150.939 130.792 152.011 130.662C153.275 130.786 160.748 130.696 160.748 130.696C160.748 130.696 160.989 127.93 160.551 126.158C161.371 126.034 162.095 125.78 162.404 126.124C163.1 126.892 163.05 130.442 163.05 130.442C163.05 130.442 168.597 130.284 169.607 129.968C169.669 128.952 168.614 125.362 168.614 125.362L170.573 125.085C170.573 125.085 171.561 129.014 171.5 129.522C173.077 129.33 173.583 129.206 173.583 129.206L173.459 132.311L170.685 134.021L142.871 133.959L140.664 132.373" fill="#283C7C"/>
<path d="M202.778 121.896C202.256 122.15 201.33 122.269 201.229 122.946C201.195 123.189 201.066 123.781 201.066 123.781C201.066 123.781 199.864 124.363 199.421 124.611C199.376 123.889 199.37 123.431 199.454 122.714C199.561 121.783 199.696 121.094 200.409 120.084C200.903 119.384 200.897 118.882 200.763 117.431C200.763 117.431 199.022 115.382 198.977 115.15C198.932 114.919 202.503 114.253 202.503 114.253" fill="#FFC1AF"/>
<path d="M209.347 124.001C207.152 131.074 205.647 138.712 203.811 145.344L203.879 136.183L207.966 123.73" fill="#BF672B"/>
<path d="M203.368 121.71C198.449 123.956 193.194 126.942 188.579 129.759C191.105 131.165 199.797 134.879 203.895 136.251C204.889 133.067 206.534 127.637 208.084 124.109" fill="#FFA256"/>
<path d="M204.098 113.908C204.783 116.669 207.809 118.825 208.449 119.615C210.139 121.71 211.341 124.199 211.93 126.824C209.808 125.746 205.075 124.075 202.531 122.33C202.531 122.33 201.661 118.582 201.599 117.459" fill="#FFC1AF"/>
<path d="M200.734 117.567L200.858 118.509C200.858 118.509 202.711 118.464 203.514 118.142C204.283 117.832 204.957 117.188 205.473 116.534C204.856 115.771 204.339 115.117 204.339 115.117" fill="#FF9796"/>
<path d="M98.8579 77.4545C99.0993 76.969 98.8916 76.8166 98.7905 76.8335C98.5491 76.8674 98.0606 77.1666 97.8753 77.3077C96.4941 78.352 96.3481 78.5213 95.36 79.5995C94.9445 80.0511 94.821 80.5591 94.9613 80.6212C95.1017 80.6833 95.36 80.6607 95.5116 80.655C95.9776 80.6325 96.4436 80.5139 96.8647 80.3107" fill="#091D70"/>
<path d="M96.5614 80.6324C94.192 79.289 94.4896 79.1309 90.9861 78.1713C89.9811 77.8947 86.4607 75.5803 86.427 75.5182C86.354 75.394 86.4326 75.2303 86.5562 75.1513C86.6741 75.0723 86.82 75.0497 86.9548 74.9989C87.4264 74.8239 87.7015 74.2425 87.5443 73.7627C87.4433 73.4635 87.2075 73.2321 87.0166 72.9781C86.82 72.7297 86.6572 72.4136 86.7358 72.1031C86.8032 71.8435 87.0334 71.6516 87.2861 71.5669C87.5387 71.4822 87.8138 71.4935 88.0777 71.5217C90.0821 71.7362 91.8619 72.8934 93.4509 74.1466C93.7709 74.4006 94.6187 74.0224 94.8826 74.3385C96.6231 76.4101 97.8078 77.3528 99.2788 78.0189" fill="#FFC1AF"/>
<path d="M98.9082 77.8668C98.9082 77.8668 98.1502 77.4547 97.9481 77.291C97.673 78.5103 95.9998 79.5941 95.1801 79.7973C95.5675 80.0739 96.6006 80.7851 96.6006 80.7851" fill="#FF9796"/>
<path d="M91.7163 69.2412C94.1194 71.7983 94.737 74.1748 95.9722 75.8005L92.6764 76.5625" fill="#FFC1AF"/>
<path d="M70.5095 63.3822L91.0239 61.2012L92.5554 75.7802L72.041 77.9612L70.5095 63.3822Z" fill="#FC5959"/>
<path d="M165.077 125.582C156.548 125.215 153.673 119.271 145.162 118.566C145.437 118.588 145.6 110.849 145.824 109.579C146.453 106.023 140.81 88.2079 140.445 86.8588C137.408 88.1402 124.871 97.821 119.088 97.0984C109.784 94.0277 100.481 85.0525 94.9504 80.6382C96.5281 80.4632 98.9367 77.7763 98.9143 76.8562C99.6161 77.4771 100.155 77.7312 100.924 78.0755C105.427 80.0907 112.951 82.3994 117.004 84.4767C122.563 80.3278 133.792 70.7598 136.964 68.5922C140.069 66.4698 143.511 65.7868 147.694 66.1368C148.02 67.8528 148.654 67.8471 149.99 68.4568C150.249 69.3656 150.855 72.5097 151.023 73.3734C151.585 72.3743 152.303 70.9348 153.056 69.2019C154.291 68.6543 155.094 68.4906 155.723 67.96C156.705 67.1302 157.744 66.5658 158.48 65.6626" fill="#00A5FF"/>
<path d="M132.646 88.4395C130.788 90.2797 128.823 92.0578 127.52 94.3552C130.861 92.848 133.191 90.8498 136.217 89.3257C137.537 88.6596 138.845 87.7903 140.215 87.2315C141.046 86.8928 142.64 86.4243 143.045 85.5154C143.505 84.4825 141.08 83.6809 140.642 83.0205C139.99 82.0326 139.569 80.5706 139.114 79.4699C138.469 77.8893 137.941 76.2636 137.542 74.6041C137.351 73.8025 137.189 73.0009 137.06 72.1881C136.998 71.8212 136.554 70.2068 136.773 69.9302C134.864 72.3687 134.915 75.7669 135.078 78.8659C135.173 80.6892 135.252 82.5519 134.915 84.3583C134.567 86.1477 133.882 87.2145 132.646 88.4395Z" fill="url(#paint0_linear)"/>
<path d="M158.232 65.9505C156.07 63.4385 156.351 57.9575 156.351 57.9575L155.795 57.3647L147.581 62.6031C147.581 62.6031 147.901 65.5497 147.317 66.8819C147.317 66.8819 147.194 71.2509 149.389 72.2501C151.584 73.2492 156.592 71.9565 157.171 71.3356" fill="#FFC1AF"/>
<path d="M147.694 64.3249C147.694 64.3249 148.642 65.2506 150.669 64.9232C152.696 64.5958 153.769 63.6983 154.465 62.8177C155.481 61.5363 155.812 60.842 156.368 59.3292C156.368 58.8551 156.368 58.2285 156.368 57.8616C156.368 57.8616 153.387 61.4686 152.27 62.0613C151.152 62.654 149.064 63.5741 148.21 63.3765C147.357 63.179 147.621 63.3088 147.621 63.3088L147.694 64.3249Z" fill="#FF9796"/>
<path d="M157.609 53.4304C158.159 52.849 159.844 51.545 160.428 52.7587C160.574 53.0635 160.579 53.4135 160.579 53.7465C160.591 54.7456 160.158 55.7673 159.535 56.5463C158.715 57.5737 157.772 58.2002 156.307 58.0309C155.274 59.2163 153.567 61.113 152.562 61.9202C149.912 64.037 146.217 63.862 144.808 61.8637C139.676 54.5989 144.123 43.2246 144.123 43.2246L160.001 44.489L159.041 49.9532" fill="#FFC1AF"/>
<path d="M157.081 53.3457L158.85 51.37L159.507 48.6718L159.114 46.1711L157.806 45.3131L154.566 45.1156L149.917 45.0478C149.917 45.0478 146.318 44.0261 146.217 44.0261C146.122 44.0261 145.594 44.0939 145.594 44.0939L144.611 44.6188" fill="#FFC1AF"/>
<path d="M145.504 48.1752C144.347 48.0735 142.505 48.1582 142.107 49.254C142.107 49.254 144.162 48.949 145.633 49.1919C145.627 48.8586 145.504 48.1752 145.504 48.1752Z" fill="#091D70"/>
<path d="M146.61 51.8555L145.998 53.8255C145.784 54.469 145.571 55.1069 145.313 55.7278L145.111 56.2245L145.616 56.1229C146.441 55.9592 147.278 55.852 148.143 55.7278C147.295 55.4851 146.402 55.4568 145.526 55.5585L145.829 55.9536C146.121 55.3157 146.357 54.644 146.492 53.9553C146.627 53.2667 146.688 52.5554 146.61 51.8555Z" fill="#FF9796"/>
<path d="M155.65 67.9093C156.632 67.0795 157.441 66.2554 158.406 65.6119C159.698 64.7595 168.164 65.7869 169.927 66.2215C173.79 67.1755 177.283 68.6205 180.112 71.426C187.378 78.6344 192.043 87.2596 197.602 91.6061C199.342 99.5935 203.963 109.923 206.119 115.077C205.361 116.387 201.79 118.114 199.937 117.905C198.118 114.643 197.641 113.615 195.541 109.873C190.87 102.184 190.05 99.9886 188.809 97.917C186.507 96.297 181.258 95.3994 177.378 92.8819" fill="#00A5FF"/>
<path d="M149.317 70.2462L149.923 68.406L150.608 71.5897" fill="#0059A3"/>
<path d="M152.062 71.3469L153.089 69.1567L153.224 71.4767" fill="#0059A3"/>
<path d="M136.656 68.6487C134.977 72.2783 135.566 76.2014 136.56 82.3203C136.942 84.6742 138.009 88.0442 138.632 89.7263C139.424 91.8826 140.176 117.025 141.248 125.266C150.063 126.892 163.662 126.762 173.47 124.831C173.47 117.527 174.346 112.808 175.239 106.17C175.598 103.5 176.21 100.463 176.665 97.804C176.935 96.246 177.204 95.1397 177.417 92.9721C176.71 91.9786 176.193 91.3802 175.795 90.8157C172.819 86.5991 172.353 81.8349 172.6 76.6812C172.814 72.3008 174.459 68.7446 177.159 68.9986C174.026 66.7802 169.209 64.8384 159.445 65.0981C157.721 65.1432 156.941 69.2583 155.947 69.8228C154.953 70.3873 153.707 71.1211 151.983 71.2509C151.282 71.3017 150.131 71.2057 149.311 70.2518C148.491 69.2978 147.02 66.6504 147.02 66.0013C146.009 65.8884 140.754 65.6231 136.656 68.6487Z" fill="#091D70"/>
<path d="M147.379 64.5281C147.379 64.5281 147.705 67.2771 149.9 68.3609C149.771 69.8342 148.637 73.5146 148.637 73.5146C148.637 73.5146 147.514 71.0422 147.087 70.1729C146.655 69.3036 145.919 67.3222 146.02 66.5828C146.172 65.482 147.379 64.5281 147.379 64.5281Z" fill="#00A5FF"/>
<path d="M157.968 54.0344C157.968 54.0344 159.406 53.1143 159.114 54.4295C158.889 55.4456 158.064 56.535 157.019 56.6648" fill="#FF9796"/>
<path d="M163.117 44.8673C163.167 44.2858 163.162 43.5972 162.909 43.0779C162.606 42.4682 162.224 42.0562 161.315 41.8304C160.815 41.7062 159.928 41.7062 159.512 41.7288C159.366 41.1586 161.169 39.9337 161.635 39.9111C160.809 39.9506 159.995 40.2498 159.333 40.7522C159.321 40.2442 159.31 39.7361 159.299 39.2338C158.782 39.7361 158.266 40.2385 157.749 40.7466C157.132 39.1999 155.38 38.4661 153.757 38.0992C151.023 37.4782 148.193 37.4387 145.437 36.925C142.68 36.4114 139.878 35.3163 138.143 33.1035C137.756 34.9211 137.391 36.8178 137.812 38.6298C138.227 40.4417 139.659 42.1578 141.506 42.2819C139.856 42.4964 138.16 42.3892 136.543 41.9771C138.042 43.4109 139.833 44.5342 141.765 45.2737C140.995 45.539 139.536 45.7987 138.772 46.064C141.36 46.2502 144.589 47.0857 147.317 47.3961C148.738 47.5598 150.916 47.6219 152.348 47.5824C152.848 47.5711 156.037 47.2832 156.189 46.8034C155.998 47.43 155.84 48.6888 155.902 49.3379C155.964 49.9871 155.947 51.2402 157.3 53.8933C157.794 53.1312 158.788 52.2224 159.782 52.2563C159.709 52.2563 160.422 50.6024 160.484 50.4838C160.804 49.8403 161.146 49.2081 161.511 48.5928C162.005 47.7574 162.544 46.9389 162.87 46.0244C162.993 45.6519 163.083 45.2568 163.117 44.8673Z" fill="#091D70"/>
<path d="M144.813 58.8391C145.262 58.9634 145.723 58.9916 146.183 58.9747C146.643 58.9634 147.098 58.8843 147.542 58.777C148.429 58.5454 149.288 58.133 149.945 57.4722C149.49 57.5851 149.08 57.732 148.653 57.8506C148.232 57.9749 147.817 58.0935 147.39 58.1952C146.548 58.4268 145.7 58.6019 144.813 58.8391Z" fill="#FF9796"/>
<path d="M157.547 63.5625C157.547 63.5625 156.739 67.3106 153.05 69.1508C153.095 70.579 152.921 72.4248 153.016 74.2029C155.363 72.7861 156.879 71.5837 158.221 69.7097C159.484 67.9485 160.197 65.922 160.456 65.1713C159.215 63.9689 157.547 63.5625 157.547 63.5625Z" fill="#00A5FF"/>
<path d="M152.241 49.745C152.337 49.7563 152.432 49.7732 152.528 49.7845C151.27 48.5758 150.299 48.6096 147.952 48.7791C147.986 49.118 148.002 49.3044 148.047 49.7337C149.451 49.7619 150.855 49.5586 152.241 49.745Z" fill="#091D70"/>
<path d="M143.404 50.5457C143.685 50.6643 143.965 50.6982 144.246 50.7491C144.387 50.7547 144.527 50.7773 144.673 50.7773C144.819 50.7773 144.959 50.7829 145.111 50.7547C144.853 50.5852 144.561 50.5344 144.274 50.4892C143.988 50.4666 143.696 50.4497 143.404 50.5457Z" fill="#FF9796"/>
<path d="M149.3 50.608C149.58 50.7266 149.861 50.7605 150.142 50.8113C150.282 50.817 150.422 50.8396 150.568 50.8396C150.714 50.8396 150.855 50.8452 151.006 50.817C150.748 50.6475 150.456 50.5967 150.17 50.5515C149.883 50.5289 149.591 50.5119 149.3 50.608Z" fill="#FF9796"/>
<path d="M149.164 50.6813C149.4 50.3257 149.872 50.6474 150.012 51.0256C150.13 51.3361 150.175 51.8272 149.934 52.0925C149.703 52.3465 149.35 52.2111 149.209 51.9457C149.046 51.6409 148.985 51.1611 149.097 50.8281C149.114 50.766 149.136 50.7208 149.164 50.6813Z" fill="#091D70"/>
<path d="M143.387 50.5514C143.623 50.1958 144.094 50.5176 144.235 50.8958C144.353 51.2062 144.398 51.6973 144.156 51.9626C143.926 52.2166 143.572 52.0812 143.432 51.8159C143.269 51.5111 143.207 51.0312 143.32 50.6982C143.342 50.6418 143.365 50.5909 143.387 50.5514Z" fill="#091D70"/>
<path d="M145.644 48.1975L145.914 48.237C145.914 48.237 145.959 48.9544 145.931 49.1634C145.858 49.0165 145.644 48.1975 145.644 48.1975Z" fill="#091D70"/>
<path d="M147.918 49.6828C147.912 49.4795 147.851 48.9485 147.834 48.7904C147.75 48.7508 147.632 48.7339 147.632 48.7339C147.632 48.7339 147.699 49.2592 147.918 49.6828Z" fill="#091D70"/>
<path d="M138.02 34.8477C138.289 36.0839 139.104 37.1507 140.08 37.9466C141.057 38.7482 142.197 39.3183 143.326 39.8772C142.107 39.7812 140.923 39.2788 139.996 38.4773C139.07 37.6701 138.413 36.5637 138.143 35.3613" fill="#112F8C"/>
<path d="M140.058 40.4303C139.395 40.2779 138.806 39.7924 138.413 39.2279C138.199 38.9175 137.851 38.2457 137.739 37.4724C138.497 39.0191 139.126 39.6231 140.058 40.4303Z" fill="#112F8C"/>
<path d="M138.626 43.3826C139.187 43.7384 139.783 44.0717 140.434 44.2016C140.765 44.2637 141.108 44.2694 141.439 44.1959C141.764 44.1282 142.023 43.9587 142.242 43.7102C141.955 43.7497 141.675 43.8062 141.388 43.8231C141.091 43.8401 140.793 43.8401 140.496 43.8175C139.9 43.7723 139.317 43.6424 138.761 43.4334C138.71 43.4165 138.671 43.3995 138.626 43.3826Z" fill="#112F8C"/>
<path d="M161.623 42.8857C162.056 43.168 162.364 43.7437 162.376 44.2631C162.387 44.8219 162.101 45.3412 161.786 45.7985C161.466 46.2557 161.101 46.6903 160.893 47.2097C161.039 46.3629 161.331 45.2114 161.315 44.6921C161.258 43.247 160.731 42.7841 160.455 42.7503C160.86 42.5358 161.455 42.7785 161.623 42.8857Z" fill="#112F8C"/>
<path d="M149.709 38.2966C151.298 39.1038 154.706 40.2892 156.463 40.1086C156.418 39.3579 154.846 38.8329 154.043 38.6579C152.831 38.3926 150.882 38.4942 149.709 38.2966Z" fill="#112F8C"/>
<path d="M94.2144 77.0762C91.5137 76.6698 89.908 76.0771 87.2073 75.6707C86.9042 75.6255 86.0114 75.9585 85.7195 76.1787C86.4662 76.9633 86.7806 77.1327 87.7239 77.6012C88.3415 77.906 88.9759 78.16 89.6104 78.414C90.2336 78.6624 90.8681 78.4479 91.5306 78.5156C92.2885 78.5213 92.631 78.589 93.2262 78.7527" fill="#FFC1AF"/>
<path d="M172.061 84.1042C171.628 85.9388 171.538 89.3087 172.077 91.1094C172.616 92.9101 173.324 94.6769 173.61 96.5397C174.379 101.485 172.111 106.706 173.683 111.459C173.84 107.208 174.817 103.037 175.794 98.8992C176.148 97.3921 176.816 95.7043 176.912 94.1576C176.985 92.9892 176.013 92.8029 175.278 92.0521C173.346 90.0877 172.392 86.6444 172.061 84.1042Z" fill="#071851"/>
<path d="M138.435 68.5131C137.868 68.784 137.34 69.1961 137.043 69.7549C136.318 71.1153 136.644 73.0289 136.65 74.3159C136.992 73.2039 137.334 72.1258 137.868 71.0871C138.401 70.0372 139.266 69.134 139.766 68.1123C139.328 68.1123 138.845 68.3155 138.435 68.5131Z" fill="#112F8E"/>
<path d="M174.514 67.96C174.688 68.022 174.891 68.1237 174.919 68.3099C174.952 68.5301 174.717 68.6881 174.526 68.801C173.1 69.6252 172.269 71.1718 171.511 72.6395C171.348 71.4823 171.539 70.2743 172.05 69.2244C172.173 68.9704 172.319 68.6994 172.263 68.4228C172.134 67.7567 171.168 67.7455 170.966 67.1471C171.555 67.1019 172.044 67.1866 172.611 67.3447C173.156 67.4971 173.953 67.96 174.514 67.96Z" fill="#112F8E"/>
<path d="M186.002 94.5075C186.345 94.5752 186.693 94.626 187.035 94.6599C187.928 94.7446 189.045 94.6712 189.708 95.405C191.577 97.4823 192.201 101.642 192.981 105.187C192.06 104.425 190.449 100.039 189.157 98.3742C188.725 97.821 188.276 97.6686 187.703 97.3468C185.412 96.0485 182.673 95.501 180.298 94.372C179.45 93.9712 178.17 93.4011 177.322 92.8084C176.682 92.3568 176.238 91.3803 175.789 90.7593C175.188 89.9295 174.75 88.9699 174.357 88.016C173.947 87.0168 173.616 85.9838 173.369 84.9339C173.24 84.3807 173.133 83.8275 173.055 83.2687C173.004 82.9244 173.072 82.1736 172.903 81.8914C174.599 84.6855 176.21 87.8297 178.484 90.1948C180.41 92.1931 183.189 93.943 186.002 94.5075Z" fill="url(#paint1_linear)"/>
<path d="M201.588 119.638C202.655 123.77 204.867 127.129 206.506 130.871C206.899 128.41 206.669 125.859 205.849 123.505" fill="#FFC1AF"/>
<path d="M205.468 123.877C206.574 125.379 207.349 127.123 207.736 128.946C207.815 129.325 207.871 131.289 208.174 131.362C208.685 131.487 209.488 129.415 209.69 129.037C209.623 129.353 209.684 129.692 209.864 129.963C210.936 127.744 211.105 125.097 210.324 122.76C210.044 122.805 209.797 123.008 209.684 123.268" fill="#FFC1AF"/>
<path d="M209.819 123.753C210.42 124.73 211.015 125.706 211.616 126.683C211.459 126.423 211.037 126.44 210.858 126.237C210.701 126.062 210.729 125.836 210.684 125.605C210.555 124.933 210.257 124.284 209.819 123.753Z" fill="#FF9796"/>
<path d="M207.893 128.986C208.135 128.314 208.163 127.563 207.961 126.88C207.815 126.395 207.562 125.938 207.22 125.565C206.972 125.288 206.529 124.775 206.49 125.384C206.462 125.859 206.961 126.638 207.141 127.083C207.388 127.716 207.641 128.354 207.893 128.986Z" fill="#FF9796"/>
<path d="M209.476 125.176C209.729 125.791 210.06 126.225 210.111 126.925C210.161 127.586 210.015 128.229 209.718 128.816C210.088 127.665 209.925 126.276 209.476 125.176Z" fill="#FF9796"/>
<path d="M118.98 85.3233C118.256 84.7475 117.459 84.2677 116.645 83.8444C115.825 83.4154 114.983 83.0541 114.124 82.7154C113.265 82.3824 112.395 82.0945 111.507 81.8461C110.626 81.5921 109.722 81.4002 108.818 81.2534C109.666 81.6147 110.514 81.9534 111.367 82.2751L113.916 83.2573C114.764 83.5791 115.612 83.9178 116.454 84.2564C117.296 84.6064 118.144 84.9395 118.98 85.3233Z" fill="#5DD3FF"/>
<path d="M80.5263 65.5271L79.656 67.9262L77.1968 68.564C76.7533 68.6769 76.6354 69.2527 76.9947 69.5349L78.9935 71.1098L78.8363 73.6556C78.8082 74.1185 79.3192 74.4007 79.6897 74.1467L81.7952 72.7242L84.1589 73.6613C84.58 73.8306 85.0123 73.4411 84.8888 72.9952L84.1926 70.5397L85.8096 68.5753C86.1016 68.2197 85.8602 67.6834 85.4054 67.6722L82.8676 67.5762L81.5089 65.4199C81.2618 65.0304 80.6835 65.0981 80.5263 65.5271Z" fill="white"/>
</g>
<defs>
<linearGradient id="paint0_linear" x1="125.584" y1="83.3059" x2="142.253" y2="80.3825" gradientUnits="userSpaceOnUse">
<stop stop-color="#00A5FF" stop-opacity="0.3"/>
<stop offset="0.4213" stop-color="#008CFF" stop-opacity="0.9"/>
<stop offset="1" stop-color="#008CFF"/>
</linearGradient>
<linearGradient id="paint1_linear" x1="195.492" y1="100.818" x2="170.331" y2="86.3694" gradientUnits="userSpaceOnUse">
<stop stop-color="#00A5FF" stop-opacity="0.3"/>
<stop offset="0.4213" stop-color="#008CFF" stop-opacity="0.9"/>
<stop offset="1" stop-color="#008CFF"/>
</linearGradient>
<clipPath id="clip0">
<rect x="0.946777" width="193.229" height="128" fill="white"/>
</clipPath>
</defs>
</svg>
