<svg width="301" height="237" viewBox="0 0 301 237" fill="none" xmlns="http://www.w3.org/2000/svg">
<g clip-path="url(#clip0)">
<path d="M240.789 162.281H3.14114C1.8242 162.281 0.746704 161.213 0.746704 159.907V9.15216C0.746704 7.84642 1.8242 6.77808 3.14114 6.77808H240.789C242.106 6.77808 243.183 7.84642 243.183 9.15216V159.907C243.183 161.213 242.106 162.281 240.789 162.281Z" fill="white"/>
<path opacity="0.4" d="M65.3365 122.693C65.3365 122.693 82.0497 123.583 86.635 106.81C92.6211 88.4111 93.3754 59.281 110.328 57.2987C113.513 56.9307 115.68 59.6134 116.853 62.1062C117.918 64.3616 119.415 66.8069 121.737 68.0533C124.264 69.4065 127.616 69.0148 129.699 67.0443C130.896 65.9166 131.758 64.3379 133.422 63.8156C136.212 62.949 137.768 65.5724 138.81 67.6378C139.492 68.9911 140.055 70.9497 141.827 71.1634C143.874 71.4008 146.244 69.0029 147.897 68.0058C149.908 66.7832 155.738 64.8483 155.415 68.9911C155.224 71.4957 153.631 73.7867 152.578 76.0065C150.734 79.9 148.627 83.6629 146.472 87.3902C142.749 93.8359 138.798 100.175 134.739 106.419C134.572 106.68 134.165 107.641 133.853 107.772L108.508 118.455L99.9241 121.815L97.5297 123.002L65.3365 122.693Z" fill="#008CFF"/>
<path opacity="0.4" d="M232.049 91.5328C231.151 91.236 225.764 85.8943 225.764 85.8943C225.764 85.8943 224.566 87.9717 222.172 87.6749C219.778 87.3781 205.112 76.9915 201.221 72.5401C197.33 68.0887 174.355 32.1094 174.355 32.1094C174.355 32.1094 172.188 39.8964 170.392 42.5672C168.597 45.2381 154.829 61.5599 146.747 74.9142C138.666 88.2684 110.232 118.835 94.0698 122.693C130.741 122.989 231.75 122.74 231.75 122.74L232.049 91.5328Z" fill="#A9DBF7"/>
<path d="M11.8809 97.8005V46.9713C11.8809 46.8407 11.9886 46.7339 12.1203 46.7339H13.6048C13.7365 46.7339 13.8443 46.8407 13.8443 46.9713V97.8005C13.8443 97.9311 13.7365 98.0379 13.6048 98.0379H12.1203C11.9886 98.0379 11.8809 97.9311 11.8809 97.8005Z" fill="#A9DBF7"/>
<g opacity="0.6">
<g opacity="0.6">
<path opacity="0.6" d="M231.75 122.835H32.4131" stroke="#A9DBF7" stroke-width="0.5" stroke-miterlimit="10"/>
<path opacity="0.6" d="M231.75 102.656H32.4131" stroke="#A9DBF7" stroke-width="0.5" stroke-miterlimit="10"/>
<path opacity="0.6" d="M231.75 82.4758H32.4131" stroke="#A9DBF7" stroke-width="0.5" stroke-miterlimit="10"/>
<path opacity="0.6" d="M231.75 62.2959H32.4131" stroke="#A9DBF7" stroke-width="0.5" stroke-miterlimit="10"/>
<path opacity="0.6" d="M231.75 42.1162H32.4131" stroke="#A9DBF7" stroke-width="0.5" stroke-miterlimit="10"/>
<path opacity="0.6" d="M231.75 21.9365H32.4131" stroke="#A9DBF7" stroke-width="0.5" stroke-miterlimit="10"/>
</g>
<g opacity="0.6">
<path opacity="0.6" d="M36.5076 122.788V127.441" stroke="#A9DBF7" stroke-width="0.5" stroke-miterlimit="10"/>
<path opacity="0.6" d="M65.0372 122.788V127.441" stroke="#A9DBF7" stroke-width="0.5" stroke-miterlimit="10"/>
<path opacity="0.6" d="M93.5669 122.788V127.441" stroke="#A9DBF7" stroke-width="0.5" stroke-miterlimit="10"/>
<path opacity="0.6" d="M122.109 122.788V127.441" stroke="#A9DBF7" stroke-width="0.5" stroke-miterlimit="10"/>
<path opacity="0.6" d="M150.638 122.788V127.441" stroke="#A9DBF7" stroke-width="0.5" stroke-miterlimit="10"/>
<path opacity="0.6" d="M179.168 122.788V127.441" stroke="#A9DBF7" stroke-width="0.5" stroke-miterlimit="10"/>
<path opacity="0.6" d="M207.71 122.788V127.441" stroke="#A9DBF7" stroke-width="0.5" stroke-miterlimit="10"/>
</g>
</g>
<path d="M20.6804 20.0254H26.4869C26.8221 20.0254 27.0855 20.2865 27.0855 20.6189V23.266C27.0855 23.5984 26.8221 23.8595 26.4869 23.8595H20.6804C20.3452 23.8595 20.0818 23.5984 20.0818 23.266V20.6189C20.0818 20.2865 20.3571 20.0254 20.6804 20.0254Z" fill="#A9DBF7"/>
<path d="M20.6804 40.2051H26.4869C26.8221 40.2051 27.0855 40.4662 27.0855 40.7986V43.4457C27.0855 43.7781 26.8221 44.0392 26.4869 44.0392H20.6804C20.3452 44.0392 20.0818 43.7781 20.0818 43.4457V40.7986C20.0818 40.4662 20.3571 40.2051 20.6804 40.2051Z" fill="#A9DBF7"/>
<path d="M20.6804 60.3848H26.4869C26.8221 60.3848 27.0855 60.6459 27.0855 60.9783V63.6254C27.0855 63.9578 26.8221 64.2189 26.4869 64.2189H20.6804C20.3452 64.2189 20.0818 63.9578 20.0818 63.6254V60.9783C20.0818 60.6459 20.3571 60.3848 20.6804 60.3848Z" fill="#A9DBF7"/>
<path d="M20.6804 80.5647H26.4869C26.8221 80.5647 27.0855 80.8258 27.0855 81.1582V83.8053C27.0855 84.1377 26.8221 84.3988 26.4869 84.3988H20.6804C20.3452 84.3988 20.0818 84.1377 20.0818 83.8053V81.1582C20.0818 80.8258 20.3571 80.5647 20.6804 80.5647Z" fill="#A9DBF7"/>
<path d="M20.6804 100.744H26.4869C26.8221 100.744 27.0855 101.006 27.0855 101.338V103.985C27.0855 104.317 26.8221 104.579 26.4869 104.579H20.6804C20.3452 104.579 20.0818 104.317 20.0818 103.985V101.338C20.0818 101.006 20.3571 100.744 20.6804 100.744Z" fill="#A9DBF7"/>
<path d="M20.6804 120.924H26.4869C26.8221 120.924 27.0855 121.185 27.0855 121.518V124.165C27.0855 124.497 26.8221 124.758 26.4869 124.758H20.6804C20.3452 124.758 20.0818 124.497 20.0818 124.165V121.518C20.0818 121.185 20.3571 120.924 20.6804 120.924Z" fill="#A9DBF7"/>
<path d="M31.2638 129.827H41.7394C42.0746 129.827 42.338 130.088 42.338 130.42V132.154C42.338 132.486 42.0746 132.747 41.7394 132.747H31.2638C30.9285 132.747 30.6652 132.486 30.6652 132.154V130.42C30.6652 130.088 30.9405 129.827 31.2638 129.827Z" fill="#A9DBF7"/>
<path d="M59.7934 129.827H70.2691C70.6043 129.827 70.8677 130.088 70.8677 130.42V132.154C70.8677 132.486 70.6043 132.747 70.2691 132.747H59.7934C59.4582 132.747 59.1948 132.486 59.1948 132.154V130.42C59.1948 130.088 59.4702 129.827 59.7934 129.827Z" fill="#A9DBF7"/>
<path d="M88.3352 129.827H98.8108C99.1461 129.827 99.4094 130.088 99.4094 130.42V132.154C99.4094 132.486 99.1461 132.747 98.8108 132.747H88.3352C88 132.747 87.7366 132.486 87.7366 132.154V130.42C87.7366 130.088 88 129.827 88.3352 129.827Z" fill="#A9DBF7"/>
<path d="M116.865 129.827H127.34C127.676 129.827 127.939 130.088 127.939 130.42V132.154C127.939 132.486 127.676 132.747 127.34 132.747H116.865C116.53 132.747 116.266 132.486 116.266 132.154V130.42C116.266 130.088 116.542 129.827 116.865 129.827Z" fill="#A9DBF7"/>
<path d="M145.395 129.827H155.87C156.205 129.827 156.469 130.088 156.469 130.42V132.154C156.469 132.486 156.205 132.747 155.87 132.747H145.395C145.059 132.747 144.796 132.486 144.796 132.154V130.42C144.796 130.088 145.071 129.827 145.395 129.827Z" fill="#A9DBF7"/>
<path d="M173.936 129.827H184.412C184.747 129.827 185.01 130.088 185.01 130.42V132.154C185.01 132.486 184.747 132.747 184.412 132.747H173.936C173.601 132.747 173.338 132.486 173.338 132.154V130.42C173.338 130.088 173.601 129.827 173.936 129.827Z" fill="#A9DBF7"/>
<path d="M202.466 129.827H212.941C213.277 129.827 213.54 130.088 213.54 130.42V132.154C213.54 132.486 213.277 132.747 212.941 132.747H202.466C202.131 132.747 201.867 132.486 201.867 132.154V130.42C201.867 130.088 202.143 129.827 202.466 129.827Z" fill="#A9DBF7"/>
<path d="M117.439 144.891H128.633C128.765 144.891 128.873 144.997 128.873 145.128V147.573C128.873 147.704 128.765 147.811 128.633 147.811H117.439C117.308 147.811 117.2 147.704 117.2 147.573V145.128C117.2 144.997 117.308 144.891 117.439 144.891Z" fill="#A9DBF7"/>
<path d="M114.782 149.033H108.041V143.692H114.542C114.674 143.692 114.782 143.798 114.782 143.929V149.033Z" fill="#A9DBF7"/>
<path d="M144.676 144.891H155.87C156.002 144.891 156.11 144.997 156.11 145.128V147.573C156.11 147.704 156.002 147.811 155.87 147.811H144.676C144.544 147.811 144.437 147.704 144.437 147.573V145.128C144.437 144.997 144.544 144.891 144.676 144.891Z" fill="#A9DBF7"/>
<path d="M142.018 149.033H135.278V143.692H141.779C141.911 143.692 142.018 143.798 142.018 143.929V149.033Z" fill="#008CFF"/>
<path opacity="0.2" d="M246.775 156.417L197.126 156.547L147.478 156.844C114.375 157.058 81.2715 157.093 48.1684 156.951L23.3382 156.88L10.923 156.844H9.36663C8.85183 156.868 8.1335 156.761 7.61869 156.429C7.07994 156.108 6.66092 155.61 6.43345 155.04C6.31373 154.755 6.25387 154.446 6.24189 154.138C6.22992 153.829 6.24189 153.615 6.24189 153.342L6.26584 147.193L6.42148 97.9667C6.51725 81.5618 6.45739 65.145 6.4095 48.74L6.34964 24.097L6.3257 11.7873L6.30175 5.63843V4.09527V3.32369C6.30175 3.06254 6.31373 2.73017 6.4095 2.44528C6.72078 1.25824 7.89405 0.379824 9.12719 0.391695C75.3333 0.142415 141.527 -0.0712526 207.733 -2.99411e-05L232.564 0.0118405L244.979 0.0355814H246.535C246.751 0.0355814 247.158 0.0355814 247.481 0.118674C247.816 0.189897 248.14 0.332342 248.439 0.498529C249.025 0.854642 249.492 1.40068 249.744 2.04169C249.876 2.36219 249.947 2.69456 249.959 3.0388C249.971 3.38305 249.959 3.57297 249.959 3.84599L249.923 9.99488L249.672 59.2216L249.397 108.448L249.313 133.068L249.289 145.377L249.277 151.526V153.069C249.253 153.58 249.337 154.102 249.181 154.624C248.882 155.669 247.852 156.441 246.775 156.417ZM246.775 156.262C247.78 156.274 248.738 155.55 248.99 154.589C249.133 154.114 249.061 153.592 249.073 153.081V151.538L249.061 145.389L249.037 133.079L248.954 108.46L248.678 59.2335L248.427 10.0068L248.391 3.85786C248.391 3.62045 248.391 3.29995 248.379 3.13377C248.367 2.96758 248.331 2.78952 248.271 2.63521C248.14 2.31471 247.912 2.04169 247.613 1.8755C247.469 1.79241 247.302 1.72118 247.134 1.68557C246.954 1.64996 246.835 1.64996 246.535 1.64996H244.979L232.564 1.66183H207.733C141.527 1.74492 75.3333 1.51939 9.12719 1.28198C8.27716 1.27011 7.46305 1.8755 7.23558 2.69456C7.11586 3.06254 7.17572 3.58484 7.15178 4.10714V5.6503L7.13981 11.7873L7.11586 24.097L7.04403 48.7163C6.99614 65.1212 6.94825 81.538 7.03206 97.943L7.18769 147.17L7.21164 153.319C7.21164 153.568 7.21164 153.853 7.22361 154.066C7.23558 154.268 7.2715 154.47 7.3553 154.66C7.51094 155.04 7.7863 155.372 8.14547 155.574C8.5166 155.788 8.8638 155.859 9.3786 155.847H10.935L23.3501 155.811L48.1804 155.74C81.2834 155.598 114.386 155.633 147.49 155.847L197.138 156.144L246.775 156.262Z" fill="#00A5FF"/>
</g>
<g clip-path="url(#clip1)">
<path d="M239.612 237C240.831 221.006 233.994 194.294 232.082 189.988L178.088 191.879C177.922 202.684 173.679 226.641 170.568 237L199.067 236.913L239.612 237Z" fill="#283C7C"/>
<path d="M199.252 227.718C199.516 227.689 201.886 233.867 202.637 236.825C202.637 236.835 195.312 236.825 194.795 236.825C194.678 236.825 194.551 236.825 194.473 236.738C194.366 236.622 194.385 236.428 194.463 236.292C195.614 234.129 198.999 227.747 199.252 227.718Z" fill="#071851"/>
<path d="M232.843 192.345C233.643 194.411 234.462 197.301 234.755 199.406C216.955 203.402 200.403 204.944 177.493 200.851C177.931 198.523 177.785 197.767 178.078 195.08L178.526 191.259" fill="#071851"/>
<path d="M177.483 200.628C177.483 200.628 181.979 201.666 184.934 201.773C185.481 200.25 185.695 194.275 185.695 194.275L188.543 194.489C188.543 194.489 188.553 199.474 188.494 202.141C190.416 202.413 194.795 202.907 196.658 202.684C198.852 202.898 211.834 202.743 211.834 202.743C211.834 202.743 212.254 197.99 211.493 194.944C212.917 194.731 214.175 194.295 214.712 194.886C215.921 196.205 215.833 202.306 215.833 202.306C215.833 202.306 225.47 202.034 227.225 201.491C227.332 199.745 225.499 193.577 225.499 193.577L228.903 193.102C228.903 193.102 230.619 199.852 230.512 200.725C233.253 200.395 234.131 200.182 234.131 200.182L233.916 205.516L229.098 208.455L180.779 208.349L176.946 205.623" fill="#283C7C"/>
<path d="M199.691 201.879C198.829 201.879 198.131 201.154 198.131 200.259C198.131 199.365 198.829 198.64 199.691 198.64C200.553 198.64 201.252 199.365 201.252 200.259C201.252 201.154 200.553 201.879 199.691 201.879Z" fill="#283C7C"/>
<path d="M229.127 209.086C229.127 209.086 228.103 218.668 232.629 222.451L229.127 209.086Z" fill="#071851"/>
<path d="M260.182 201.133C260.475 201.181 286.76 211.375 286.76 211.375L286.604 227.99C286.399 227.65 265.615 215.536 260.153 211.996C260.153 208.892 260.221 204.256 260.221 201.133" fill="#EF8137"/>
<path d="M284.849 187.621C283.941 188.058 282.332 188.262 282.157 189.425C282.098 189.843 281.874 190.861 281.874 190.861C281.874 190.861 279.786 191.86 279.016 192.287C278.938 191.045 278.928 190.26 279.074 189.028C279.26 187.427 279.494 186.244 280.733 184.508C281.591 183.305 281.581 182.442 281.347 179.949C281.347 179.949 278.323 176.429 278.245 176.031C278.167 175.633 284.371 174.489 284.371 174.489" fill="#FFC1AF"/>
<path d="M296.26 191.239C292.446 203.392 289.832 216.515 286.643 227.912L286.76 212.17L293.861 190.774" fill="#BF672B"/>
<path d="M285.873 187.302C277.329 191.162 268.199 196.293 260.182 201.133C264.571 203.548 279.669 209.93 286.789 212.287C288.516 206.816 291.373 197.486 294.065 191.424" fill="#FFA256"/>
<path d="M287.141 173.897C288.33 178.64 293.588 182.345 294.699 183.703C297.635 187.301 299.722 191.579 300.747 196.089C297.06 194.236 288.838 191.365 284.419 188.368C284.419 188.368 282.908 181.928 282.8 179.998" fill="#FFC1AF"/>
<path d="M281.298 180.182L281.513 181.802C281.513 181.802 284.731 181.724 286.126 181.172C287.462 180.638 288.633 179.532 289.53 178.407C288.457 177.098 287.56 175.973 287.56 175.973" fill="#FF9796"/>
<path d="M104.322 111.26C104.742 110.426 104.381 110.164 104.205 110.193C103.786 110.251 102.937 110.765 102.616 111.008C100.216 112.802 99.9626 113.093 98.246 114.946C97.5242 115.722 97.3097 116.595 97.5535 116.701C97.7973 116.808 98.246 116.769 98.5093 116.759C99.3189 116.721 100.128 116.517 100.86 116.168" fill="#091D70"/>
<path d="M100.333 116.721C96.2171 114.412 96.734 114.141 90.6479 112.492C88.902 112.017 82.7866 108.04 82.7281 107.933C82.6013 107.72 82.7379 107.439 82.9524 107.303C83.1573 107.167 83.4109 107.128 83.6449 107.041C84.4642 106.74 84.9422 105.741 84.6691 104.917C84.4935 104.403 84.0839 104.005 83.7522 103.569C83.4109 103.142 83.128 102.599 83.2646 102.065C83.3816 101.619 83.7815 101.289 84.2204 101.144C84.6593 100.998 85.1372 101.018 85.5956 101.066C89.0776 101.435 92.1694 103.423 94.9297 105.576C95.4856 106.013 96.9584 105.363 97.4168 105.906C100.44 109.466 102.498 111.085 105.054 112.23" fill="#FFC1AF"/>
<path d="M104.41 111.968C104.41 111.968 103.093 111.26 102.742 110.979C102.264 113.074 99.3579 114.936 97.9339 115.285C98.6069 115.76 100.401 116.983 100.401 116.983" fill="#FF9796"/>
<path d="M91.9159 97.1477C96.0903 101.541 97.1632 105.625 99.309 108.418L93.5837 109.728" fill="#FFC1AF"/>
<path d="M55.0761 87.0777L90.7131 83.3325L93.3753 108.383L57.7383 112.128L55.0761 87.0777Z" fill="#FC5959"/>
<path d="M219.354 193.955C204.539 193.325 199.545 183.111 184.759 181.899C185.237 181.938 185.52 168.64 185.91 166.458C187.002 160.348 177.2 129.737 176.566 127.419C171.289 129.621 149.51 146.255 139.464 145.013C123.302 139.737 107.141 124.315 97.5339 116.73C100.275 116.43 104.459 111.813 104.42 110.232C105.639 111.299 106.575 111.735 107.912 112.327C115.734 115.79 128.803 119.757 135.845 123.326C145.501 116.197 165.008 99.7569 170.519 96.0324C175.912 92.3855 181.891 91.2119 189.158 91.8133C189.723 94.7618 190.825 94.7521 193.147 95.7996C193.595 97.3612 194.649 102.764 194.941 104.248C195.917 102.531 197.165 100.058 198.472 97.0799C200.618 96.1391 202.013 95.8578 203.105 94.9461C204.812 93.5203 206.616 92.5504 207.894 90.9985" fill="#00A5FF"/>
<path d="M163.019 130.135C159.79 133.297 156.376 136.352 154.114 140.299C159.917 137.71 163.965 134.276 169.222 131.657C171.514 130.513 173.786 129.019 176.166 128.059C177.61 127.477 180.38 126.672 181.082 125.11C181.882 123.336 177.668 121.958 176.907 120.823C175.776 119.126 175.045 116.614 174.254 114.723C173.133 112.007 172.216 109.214 171.524 106.362C171.192 104.985 170.909 103.607 170.685 102.211C170.577 101.58 169.807 98.8063 170.187 98.3311C166.871 102.521 166.959 108.36 167.242 113.685C167.408 116.818 167.544 120.018 166.959 123.122C166.354 126.197 165.164 128.03 163.019 130.135Z" fill="url(#paint0_linear)"/>
<path d="M207.465 91.4931C203.71 87.177 204.197 77.7591 204.197 77.7591L203.232 76.7407L188.963 85.7415C188.963 85.7415 189.519 90.8045 188.504 93.0935C188.504 93.0935 188.29 100.601 192.103 102.317C195.917 104.034 204.617 101.813 205.621 100.746" fill="#FFC1AF"/>
<path d="M189.158 88.6998C189.158 88.6998 190.806 90.2904 194.327 89.7279C197.848 89.1653 199.711 87.6232 200.92 86.1101C202.686 83.9084 203.261 82.7154 204.227 80.116C204.227 79.3013 204.227 78.2247 204.227 77.5942C204.227 77.5942 199.048 83.792 197.107 84.8104C195.166 85.8288 191.537 87.4098 190.055 87.0703C188.572 86.7308 189.031 86.9539 189.031 86.9539L189.158 88.6998Z" fill="#FF9796"/>
<path d="M206.382 69.9804C207.338 68.9814 210.264 66.7409 211.278 68.8262C211.532 69.35 211.542 69.9513 211.542 70.5236C211.561 72.2403 210.81 73.9959 209.728 75.3344C208.304 77.0996 206.665 78.1762 204.119 77.8852C202.325 79.9221 199.36 83.181 197.614 84.568C193.01 88.2051 186.592 87.9045 184.144 84.471C175.23 71.9881 182.954 52.4443 182.954 52.4443L210.537 54.6169L208.869 64.0057" fill="#FFC1AF"/>
<path d="M205.465 69.8348L208.538 66.4401L209.679 61.8039L208.996 57.5072L206.724 56.0329L201.096 55.6935L193.02 55.5771C193.02 55.5771 186.768 53.8215 186.592 53.8215C186.427 53.8215 185.51 53.9379 185.51 53.9379L183.803 54.8399" fill="#FFC1AF"/>
<path d="M185.354 60.9504C183.345 60.7758 180.145 60.9213 179.453 62.803C179.453 62.803 183.023 62.2792 185.578 62.6963C185.568 62.124 185.354 60.9504 185.354 60.9504Z" fill="#091D70"/>
<path d="M187.275 67.2744L186.212 70.6594C185.842 71.7651 185.471 72.8611 185.022 73.928L184.671 74.7816L185.549 74.607C186.983 74.3257 188.436 74.1414 189.938 73.928C188.465 73.511 186.914 73.4625 185.393 73.6371L185.92 74.316C186.427 73.22 186.836 72.0658 187.07 70.8825C187.305 69.6992 187.412 68.4771 187.275 67.2744Z" fill="#FF9796"/>
<path d="M202.978 94.8589C204.685 93.4331 206.09 92.017 207.767 90.9113C210.011 89.4467 224.719 91.212 227.781 91.9588C234.492 93.598 240.558 96.081 245.474 100.901C258.095 113.287 266.2 128.108 275.856 135.576C278.879 149.3 286.907 167.05 290.652 175.905C289.335 178.155 283.132 181.123 279.913 180.764C276.753 175.158 275.924 173.393 272.276 166.962C264.162 153.752 262.738 149.979 260.582 146.42C256.583 143.636 247.464 142.094 240.724 137.768" fill="#00A5FF"/>
<path d="M191.976 98.8741L193.03 95.7122L194.22 101.182" fill="#0059A3"/>
<path d="M196.746 100.765L198.531 97.0022L198.765 100.989" fill="#0059A3"/>
<path d="M169.982 96.1292C167.066 102.366 168.09 109.107 169.817 119.621C170.48 123.665 172.333 129.456 173.416 132.346C174.791 136.051 176.098 179.251 177.961 193.412C193.274 196.205 216.896 195.982 233.936 192.665C233.936 180.114 235.457 172.006 237.008 160.6C237.632 156.012 238.695 150.794 239.485 146.225C239.954 143.548 240.422 141.647 240.792 137.923C239.563 136.216 238.666 135.188 237.974 134.218C232.804 126.973 231.995 118.786 232.424 109.931C232.795 102.405 235.652 96.2941 240.344 96.7306C234.901 92.9188 226.533 89.5823 209.572 90.0285C206.577 90.106 205.222 97.1767 203.495 98.1467C201.769 99.1166 199.604 100.377 196.609 100.601C195.39 100.688 193.391 100.523 191.967 98.8838C190.543 97.2446 187.987 92.6957 187.987 91.5803C186.232 91.3863 177.102 90.9305 169.982 96.1292Z" fill="#091D70"/>
<path d="M188.611 89.0491C188.611 89.0491 189.177 93.7726 192.991 95.6348C192.766 98.1663 190.796 104.49 190.796 104.49C190.796 104.49 188.846 100.242 188.104 98.7482C187.353 97.2546 186.076 93.8502 186.251 92.5796C186.514 90.6882 188.611 89.0491 188.611 89.0491Z" fill="#00A5FF"/>
<path d="M207.006 71.0182C207.006 71.0182 209.503 69.4372 208.996 71.6971C208.606 73.443 207.172 75.3149 205.358 75.538" fill="#FF9796"/>
<path d="M215.95 55.2668C216.038 54.2678 216.028 53.0845 215.589 52.1921C215.063 51.1446 214.399 50.4366 212.819 50.0486C211.951 49.8352 210.41 49.8352 209.688 49.874C209.435 48.8944 212.566 46.7897 213.375 46.7509C211.942 46.8188 210.527 47.3329 209.376 48.1961C209.357 47.3232 209.337 46.4502 209.318 45.587C208.421 46.4502 207.523 47.3135 206.626 48.1864C205.553 45.5288 202.51 44.2679 199.691 43.6375C194.941 42.5706 190.026 42.5027 185.237 41.62C180.448 40.7374 175.581 38.8558 172.567 35.0537C171.894 38.1768 171.26 41.4358 171.991 44.5492C172.713 47.6626 175.2 50.6112 178.409 50.8245C175.542 51.1931 172.596 51.0088 169.787 50.3008C172.391 52.7644 175.503 54.6945 178.858 55.9651C177.522 56.421 174.986 56.8671 173.659 57.323C178.156 57.6431 183.764 59.0785 188.504 59.612C190.972 59.8933 194.756 60 197.243 59.9321C198.111 59.9127 203.651 59.418 203.914 58.5936C203.583 59.6702 203.31 61.8331 203.417 62.9485C203.524 64.0639 203.495 66.2171 205.846 70.7757C206.704 69.4663 208.43 67.9048 210.157 67.963C210.03 67.963 211.269 65.1211 211.376 64.9174C211.932 63.8117 212.527 62.7254 213.161 61.6682C214.019 60.2327 214.955 58.8264 215.521 57.2551C215.736 56.615 215.892 55.936 215.95 55.2668Z" fill="#091D70"/>
<path d="M184.154 79.2722C184.934 79.4856 185.734 79.5341 186.534 79.505C187.334 79.4856 188.124 79.3498 188.894 79.1656C190.435 78.7679 191.928 78.0599 193.069 76.925C192.279 77.119 191.567 77.3712 190.825 77.5749C190.094 77.7883 189.372 77.992 188.631 78.1665C187.168 78.5642 185.695 78.8649 184.154 79.2722Z" fill="#FF9796"/>
<path d="M206.275 87.3904C206.275 87.3904 204.87 93.8306 198.462 96.9926C198.54 99.4464 198.238 102.618 198.404 105.673C202.481 103.239 205.114 101.173 207.445 97.9528C209.64 94.9266 210.878 91.4446 211.327 90.1546C209.172 88.0887 206.275 87.3904 206.275 87.3904Z" fill="#00A5FF"/>
<path d="M197.058 63.647C197.224 63.6664 197.389 63.6955 197.555 63.7149C195.371 61.6392 193.683 61.6974 189.606 61.9884C189.665 62.5704 189.694 62.8904 189.772 63.6276C192.21 63.6761 194.649 63.3269 197.058 63.647Z" fill="#091D70"/>
<path d="M181.706 65.0241C182.194 65.2278 182.681 65.286 183.169 65.3733C183.413 65.383 183.657 65.4218 183.91 65.4218C184.164 65.4218 184.408 65.4315 184.671 65.383C184.222 65.092 183.715 65.0047 183.218 64.9271C182.72 64.8883 182.213 64.8592 181.706 65.0241Z" fill="#FF9796"/>
<path d="M191.947 65.1308C192.435 65.3345 192.922 65.3927 193.41 65.48C193.654 65.4897 193.898 65.5285 194.151 65.5285C194.405 65.5285 194.649 65.5382 194.912 65.4897C194.463 65.1987 193.956 65.1114 193.459 65.0338C192.961 64.995 192.454 64.9659 191.947 65.1308Z" fill="#FF9796"/>
<path d="M191.713 65.257C192.123 64.6459 192.942 65.1988 193.186 65.8486C193.391 66.3821 193.469 67.2259 193.049 67.6818C192.649 68.1182 192.035 67.8855 191.791 67.4296C191.508 66.9059 191.401 66.0814 191.596 65.5092C191.625 65.4025 191.664 65.3249 191.713 65.257Z" fill="#091D70"/>
<path d="M181.677 65.0339C182.086 64.4228 182.906 64.9757 183.149 65.6255C183.354 66.159 183.432 67.0028 183.013 67.4586C182.613 67.8951 181.999 67.6623 181.755 67.2065C181.472 66.6827 181.365 65.8583 181.56 65.286C181.599 65.189 181.638 65.1017 181.677 65.0339Z" fill="#091D70"/>
<path d="M185.598 60.9893L186.066 61.0572C186.066 61.0572 186.144 62.2889 186.095 62.6478C185.968 62.3956 185.598 60.9893 185.598 60.9893Z" fill="#091D70"/>
<path d="M189.548 63.5401C189.538 63.1909 189.431 62.2792 189.401 62.0076C189.255 61.9397 189.05 61.9106 189.05 61.9106C189.05 61.9106 189.167 62.8127 189.548 63.5401Z" fill="#091D70"/>
<path d="M172.352 38.0508C172.821 40.1749 174.235 42.008 175.932 43.3756C177.629 44.7529 179.609 45.7325 181.569 46.6927C179.453 46.5278 177.395 45.6646 175.786 44.2873C174.176 42.9004 173.035 40.9993 172.567 38.9334" fill="#112F8C"/>
<path d="M175.893 47.6432C174.742 47.3813 173.718 46.5471 173.035 45.5772C172.665 45.0438 172.06 43.8896 171.865 42.5608C173.181 45.2184 174.274 46.2562 175.893 47.6432Z" fill="#112F8C"/>
<path d="M173.406 52.7158C174.381 53.3269 175.415 53.8991 176.546 54.1222C177.122 54.2289 177.717 54.2386 178.292 54.1125C178.858 53.9961 179.307 53.7051 179.687 53.2784C179.19 53.3463 178.702 53.4433 178.204 53.4724C177.688 53.5015 177.171 53.5015 176.654 53.4627C175.62 53.3851 174.605 53.162 173.64 52.8031C173.552 52.774 173.484 52.7449 173.406 52.7158Z" fill="#112F8C"/>
<path d="M213.356 51.8622C214.107 52.3472 214.643 53.3365 214.663 54.2288C214.682 55.1891 214.185 56.0814 213.639 56.867C213.083 57.6526 212.449 58.3995 212.088 59.2918C212.342 57.8369 212.849 55.8583 212.82 54.966C212.722 52.483 211.805 51.6877 211.327 51.6295C212.029 51.2609 213.063 51.678 213.356 51.8622Z" fill="#112F8C"/>
<path d="M192.659 43.9771C195.419 45.364 201.34 47.4009 204.392 47.0905C204.314 45.8005 201.583 44.8985 200.189 44.5978C198.082 44.1419 194.698 44.3165 192.659 43.9771Z" fill="#112F8C"/>
<path d="M96.2562 110.61C91.5648 109.912 88.7754 108.893 84.084 108.195C83.5573 108.118 82.0065 108.69 81.4993 109.068C82.7965 110.416 83.3427 110.707 84.9813 111.512C86.0541 112.036 87.1563 112.472 88.2584 112.909C89.341 113.336 90.4432 112.967 91.5941 113.084C92.9108 113.093 93.5058 113.21 94.5396 113.491" fill="#FFC1AF"/>
<path d="M231.487 122.686C230.736 125.838 230.58 131.628 231.517 134.722C232.453 137.816 233.682 140.852 234.179 144.053C235.516 152.549 231.575 161.521 234.306 169.688C234.579 162.384 236.276 155.217 237.973 148.107C238.588 145.517 239.749 142.617 239.914 139.96C240.041 137.952 238.354 137.632 237.076 136.342C233.721 132.967 232.063 127.05 231.487 122.686Z" fill="#071851"/>
<path d="M173.074 95.8966C172.089 96.3622 171.172 97.0702 170.655 98.0305C169.397 100.368 169.963 103.656 169.973 105.867C170.568 103.957 171.163 102.104 172.089 100.319C173.016 98.5154 174.518 96.9636 175.386 95.208C174.625 95.208 173.786 95.5572 173.074 95.8966Z" fill="#112F8E"/>
<path d="M235.75 94.946C236.052 95.0527 236.403 95.2273 236.452 95.5474C236.511 95.9256 236.101 96.1972 235.769 96.3912C233.292 97.8073 231.848 100.465 230.532 102.987C230.249 100.998 230.58 98.9227 231.468 97.1186C231.683 96.6822 231.936 96.2166 231.839 95.7414C231.614 94.5969 229.937 94.5775 229.586 93.5493C230.61 93.4718 231.458 93.6172 232.443 93.8888C233.389 94.1507 234.774 94.946 235.75 94.946Z" fill="#112F8E"/>
<path d="M255.705 140.561C256.3 140.678 256.905 140.765 257.5 140.823C259.051 140.969 260.992 140.842 262.142 142.103C265.39 145.673 266.473 152.821 267.829 158.912C266.229 157.603 263.43 150.066 261.187 147.205C260.436 146.255 259.655 145.993 258.661 145.44C254.681 143.209 249.921 142.268 245.796 140.328C244.323 139.64 242.099 138.66 240.626 137.642C239.515 136.866 238.744 135.188 237.964 134.121C236.92 132.695 236.159 131.046 235.477 129.407C234.765 127.69 234.189 125.915 233.76 124.111C233.536 123.161 233.35 122.21 233.214 121.25C233.126 120.658 233.243 119.369 232.95 118.884C235.896 123.685 238.695 129.087 242.645 133.151C245.991 136.585 250.819 139.591 255.705 140.561Z" fill="url(#paint1_linear)"/>
<path d="M282.781 183.742C284.634 190.842 288.477 196.613 291.325 203.043C292.007 198.814 291.608 194.43 290.184 190.386" fill="#FFC1AF"/>
<path d="M289.52 191.026C291.442 193.606 292.788 196.603 293.461 199.736C293.597 200.386 293.695 203.761 294.222 203.887C295.109 204.1 296.504 200.541 296.855 199.891C296.738 200.434 296.845 201.016 297.157 201.482C299.02 197.67 299.313 193.121 297.957 189.105C297.469 189.183 297.04 189.532 296.845 189.978" fill="#FFC1AF"/>
<path d="M297.079 190.812C298.123 192.49 299.157 194.168 300.2 195.846C299.927 195.4 299.196 195.429 298.884 195.08C298.611 194.779 298.659 194.392 298.581 193.994C298.357 192.84 297.84 191.724 297.079 190.812Z" fill="#FF9796"/>
<path d="M293.734 199.804C294.153 198.649 294.202 197.359 293.851 196.186C293.597 195.352 293.158 194.566 292.563 193.926C292.134 193.451 291.364 192.568 291.296 193.615C291.247 194.43 292.115 195.769 292.427 196.535C292.856 197.621 293.295 198.717 293.734 199.804Z" fill="#FF9796"/>
<path d="M296.484 193.257C296.923 194.314 297.499 195.061 297.586 196.264C297.674 197.398 297.421 198.504 296.904 199.513C297.547 197.534 297.265 195.148 296.484 193.257Z" fill="#FF9796"/>
<path d="M139.279 124.781C138.02 123.791 136.635 122.967 135.221 122.24C133.797 121.502 132.334 120.882 130.842 120.3C129.35 119.727 127.838 119.233 126.297 118.806C124.765 118.37 123.195 118.04 121.625 117.788C123.098 118.408 124.57 118.99 126.053 119.543L130.481 121.231C131.954 121.784 133.427 122.366 134.89 122.948C136.353 123.549 137.825 124.121 139.279 124.781Z" fill="#5DD3FF"/>
<path d="M72.4773 90.7657L70.9655 94.8878L66.6935 95.9838C65.923 96.1778 65.7182 97.1671 66.3424 97.6521L69.8146 100.358L69.5415 104.732C69.4928 105.528 70.3803 106.013 71.0241 105.576L74.6816 103.132L78.7878 104.742C79.5193 105.033 80.2703 104.364 80.0557 103.598L78.8463 99.3785L81.6553 96.0032C82.1625 95.3922 81.7431 94.4708 80.953 94.4514L76.5445 94.2865L74.1842 90.5814C73.755 89.9121 72.7504 90.0285 72.4773 90.7657Z" fill="white"/>
</g>
<defs>
<linearGradient id="paint0_linear" x1="150.75" y1="121.314" x2="179.687" y2="116.183" gradientUnits="userSpaceOnUse">
<stop stop-color="#00A5FF" stop-opacity="0.3"/>
<stop offset="0.4213" stop-color="#008CFF" stop-opacity="0.9"/>
<stop offset="1" stop-color="#008CFF"/>
</linearGradient>
<linearGradient id="paint1_linear" x1="272.19" y1="151.405" x2="228.72" y2="126.167" gradientUnits="userSpaceOnUse">
<stop stop-color="#00A5FF" stop-opacity="0.3"/>
<stop offset="0.4213" stop-color="#008CFF" stop-opacity="0.9"/>
<stop offset="1" stop-color="#008CFF"/>
</linearGradient>
<clipPath id="clip0">
<rect x="0.746704" width="249.213" height="162.281" fill="white"/>
</clipPath>
<clipPath id="clip1">
<rect width="245.669" height="201.975" transform="matrix(-1 0 0 1 300.747 35.0247)" fill="white"/>
</clipPath>
</defs>
</svg>
