<svg width="588" height="381" viewBox="0 0 588 381" fill="none" xmlns="http://www.w3.org/2000/svg">
<g opacity="0.5">
<path d="M0 0H588V378C588 379.657 586.657 381 585 381H3C1.34314 381 0 379.657 0 378V0Z" fill="#F5F5F5"/>
<path d="M0 0H588V378C588 379.657 586.657 381 585 381H3C1.34314 381 0 379.657 0 378V0Z" fill="url(#paint0_linear)"/>
</g>
<path d="M378.394 249.024L334.367 377.024C333.698 378.972 335.145 381 337.204 381H585C586.657 381 588 379.657 588 378V250C588 248.343 586.657 247 585 247H381.231C379.95 247 378.811 247.813 378.394 249.024Z" fill="#C0C9DB" fill-opacity="0.34"/>
<mask id="mask0" mask-type="alpha" maskUnits="userSpaceOnUse" x="0" y="104" width="204" height="276">
<rect y="104" width="204" height="276" rx="3" fill="#C4C4C4"/>
</mask>
<g mask="url(#mask0)">
<path opacity="0.6" d="M139.072 361.875C139.044 369.486 115.918 375.561 87.4178 375.448C58.918 375.336 31.7649 367.627 31.793 360.016C42.3007 366.561 55.5791 369.486 84.0929 369.837C100.381 370.033 111.912 367.326 123.121 364.274C125.303 364.218 133.755 360.122 133.482 354.987C136.849 356.825 139.079 359.701 139.072 361.875Z" fill="#C1C7D0"/>
<path opacity="0.6" d="M110.558 355.836C110.558 357.218 133.608 358.929 132.079 360.185C125.436 365.621 105.508 369.57 81.9673 369.57" fill="#C1C7D0"/>
<path d="M134.541 356.411L134.499 332.386C134.499 332.386 134.057 335.936 131.427 337.339C131.336 344.353 131.469 353.605 131.427 361.188C134.057 358.866 134.541 356.411 134.541 356.411Z" fill="#EA4E4E"/>
<path d="M109.598 356.102L131.518 361.013L131.602 337.689L82.1499 332.337" fill="#CC3E3E"/>
<path d="M110.986 345.433C111.12 347.243 111.183 349.053 111.274 350.863C111.372 352.672 111.414 354.482 111.477 356.292C111.519 358.101 111.582 359.911 111.597 361.721C111.618 363.531 111.66 365.34 111.66 367.15V367.732L111.077 367.817C106.027 368.574 100.963 369.093 95.8701 369.416C93.3238 369.556 90.7775 369.654 88.2243 369.647C86.9476 369.64 85.671 369.612 84.4014 369.549C83.1248 369.507 81.8551 369.402 80.5925 369.276C83.1388 369.198 85.671 369.072 88.2032 368.883C90.7355 368.693 93.2607 368.476 95.7789 368.223C98.3041 367.985 100.822 367.69 103.34 367.41C105.859 367.108 108.377 366.813 110.881 366.47L110.299 367.143C110.299 365.333 110.341 363.524 110.362 361.714C110.383 359.904 110.446 358.094 110.481 356.285C110.544 354.475 110.586 352.665 110.685 350.856C110.79 349.046 110.86 347.236 110.986 345.433Z" fill="#42BEE5"/>
<path d="M89.6062 369.956C99.658 369.64 111.442 367.852 111.442 367.852L111.176 345.433C111.176 345.433 111.148 345.581 109.569 345.756C42.2304 353.472 29.415 334.708 29.415 334.708V338.678C29.415 339.71 29.415 340.748 29.415 341.779C29.415 344.522 29.415 347.271 29.415 350.014C29.415 351.171 29.415 352.329 29.415 353.486C29.415 355.191 29.2677 357.049 30.2778 358.529C30.6916 359.133 31.2177 359.659 31.7789 360.129C33.3922 361.468 35.3282 362.415 37.2502 363.215C39.9086 364.316 42.6864 365.137 45.4711 365.824C48.9363 366.68 52.4505 367.319 55.9788 367.838C60.0682 368.434 65.3782 369.156 69.4957 369.444C74.0481 369.739 84.0507 370.131 89.6062 369.956Z" fill="#EA4E4E"/>
<path d="M81.7923 332.428L111.267 345.419C102.562 347.166 92.293 348.092 81.7923 348.092C52.8717 348.092 29.0715 341.021 29.0715 332.428C29.0715 323.836 52.8717 316.955 81.7923 316.765C110.987 316.576 134.724 323.688 134.513 332.428C134.471 334.245 133.454 336.048 131.371 337.752L81.7923 332.428Z" fill="#FC5959"/>
<path d="M1.87352 233.733C0.510856 229.925 -0.707416 225.765 0.483784 221.902C2.06303 216.785 7.63098 213.708 12.9914 213.474C18.3428 213.239 23.5227 215.269 28.3958 217.498C51.949 228.255 72.3438 245.392 81.359 270.209C83.931 277.293 85.9163 284.585 87.2248 292.003C88.3619 298.437 90.4645 307.172 88.3258 313.543C87.0985 317.198 84.5536 320.005 80.5649 320.33C75.9625 320.709 72.0009 318.263 68.1205 316.106C54.9992 308.797 43.5836 298.274 33.6388 287.102C24.407 276.725 16.4747 265.192 10.1397 252.828C6.98124 246.656 4.2108 240.267 1.87352 233.733Z" fill="#18367F"/>
<path d="M86.6739 292.12C87.3056 294.944 87.829 297.787 88.2351 300.648C88.6051 303.247 88.8217 306.134 87.2876 308.273C85.8979 310.213 83.1274 311.026 80.9165 310.141C70.0152 304.537 53.3745 277.374 45.0902 263.513C41.6791 257.801 38.1686 252.142 35.0643 246.25C32.1314 240.7 28.3863 234.193 28.0976 227.795C27.8539 222.489 30.5702 218.581 36.1291 221.135C40.181 222.994 43.5922 225.954 47.3102 228.427C74.7439 246.656 81.115 267.321 86.6739 292.12Z" fill="#112B6D"/>
<path d="M95.4459 304.447C93.5057 305.611 91.1594 305.927 88.9394 304.889C87.1075 304.032 85.5824 302.588 84.3912 300.946C82.6134 298.491 81.5305 295.576 80.2761 292.833C78.9225 289.873 77.5959 286.904 76.4047 283.872C74.7533 279.657 73.2463 275.38 71.9017 271.057C71.2248 268.891 70.5931 266.726 69.9975 264.533C67.7415 256.239 66.0449 247.793 64.9259 239.274C63.7889 230.574 61.8667 197.997 65.6569 191.608C70.2051 183.946 79.3196 195.245 82.1803 198.936C93.8576 213.997 99.2632 232.289 101.79 250.924C103.73 265.201 104.741 279.883 101.402 293.898C100.698 296.849 99.7053 299.962 97.7832 302.353C97.1244 303.211 96.3212 303.915 95.4459 304.447Z" fill="#008CFF"/>
<path d="M147.489 273.232C141.912 282.789 129.991 295.323 118.214 286.904C112.682 282.951 111.816 276.291 112.005 269.974C112.321 259.578 115.651 249.291 121.472 240.673C124.233 236.576 127.789 232.695 132.499 231.206C138.636 229.266 145.666 232.036 149.7 237.045C153.733 242.062 155.024 248.894 154.221 255.283C153.418 261.672 150.737 267.673 147.489 273.232Z" fill="#091D5B"/>
<path d="M101.483 345.137C101.537 337.394 102.34 329.634 103.91 322.026C105.454 314.401 107.791 306.983 110.417 299.682C111.762 296.036 113.241 292.436 114.884 288.925C116.535 285.415 118.304 281.958 120.163 278.565C122.022 275.172 123.944 271.806 125.921 268.485C127.888 265.155 129.864 261.834 131.895 258.541C128.321 265.399 124.657 272.203 121.192 279.098C117.709 285.983 114.532 292.995 112.005 300.251C109.478 307.515 107.258 314.897 105.535 322.378C103.793 329.868 102.521 337.467 101.483 345.137Z" fill="#061544"/>
<path d="M43.9446 254.931C50.4962 260.733 56.2176 267.429 61.6592 274.261C67.1279 281.083 72.3258 288.158 76.9192 295.648C79.1933 299.402 81.314 303.265 83.2091 307.226C85.0681 311.188 86.918 315.168 88.4882 319.265C90.0765 323.362 91.4211 327.549 92.486 331.799C93.5238 336.059 94.3991 340.345 95.0128 344.677C93.0455 336.158 90.5819 327.784 87.1797 319.797C85.4741 315.808 83.6151 311.874 81.6659 307.975C79.7437 304.086 77.6411 300.287 75.376 296.587C70.8639 289.16 65.7742 282.094 60.5402 275.118C55.3061 268.151 50.0089 261.23 43.9446 254.931Z" fill="#061544"/>
<path d="M92.8833 279.955C94.0384 285.343 94.9679 290.775 95.6808 296.235C96.4118 301.694 96.9352 307.181 97.3413 312.677C97.7113 318.173 97.9549 323.678 97.991 329.191C98.0542 334.696 97.9008 340.21 97.5308 345.706L96.5832 329.236C96.2584 323.759 95.9425 318.281 95.5364 312.803C94.7964 301.857 93.8038 290.938 92.8833 279.955Z" fill="#061544"/>
<path d="M81.792 332.428L111.267 345.419C102.562 347.166 92.2927 348.092 81.792 348.092" fill="#FC5959"/>
</g>
<mask id="mask1" mask-type="alpha" maskUnits="userSpaceOnUse" x="107" y="18" width="481" height="362">
<path d="M588 21C588 19.3432 586.657 18 585 18H107V380H585C586.657 380 588 378.657 588 377V21Z" fill="white"/>
</mask>
<g mask="url(#mask1)">
<path d="M293.359 438.205C293.611 433.364 294.055 428.552 294.617 423.77C295.165 418.988 295.816 414.221 296.557 409.469C297.238 404.702 298.126 399.979 298.94 395.242C299.843 390.519 300.732 385.797 301.783 381.104L302.153 379.46L303.722 379.49C305.987 379.534 308.252 379.638 310.503 379.757C312.768 379.86 315.033 379.979 317.283 380.156C321.813 380.452 326.329 380.852 330.859 381.459C326.329 382.066 321.813 382.451 317.283 382.762C315.018 382.925 312.753 383.058 310.503 383.162C308.237 383.28 305.972 383.384 303.722 383.428L305.661 381.814C304.98 386.581 304.137 391.304 303.322 396.042C302.419 400.764 301.575 405.502 300.524 410.195C299.547 414.902 298.452 419.595 297.282 424.259C296.113 428.937 294.839 433.586 293.359 438.205Z" fill="#061544"/>
<path d="M322.449 381.622C311.597 382.273 300.746 382.688 289.894 382.999C284.461 383.191 279.042 383.265 273.609 383.398C268.176 383.546 262.757 383.561 257.324 383.65L259.263 382.214C256.821 390.682 254.215 399.091 251.654 407.515C249.019 415.924 246.413 424.333 243.659 432.697C242.312 436.887 240.935 441.077 239.514 445.237C238.123 449.412 236.716 453.587 235.251 457.747C232.378 466.082 229.403 474.372 226.235 482.603C228.248 474.002 230.454 465.475 232.749 456.962C233.874 452.698 235.058 448.464 236.257 444.215C237.427 439.966 238.641 435.732 239.884 431.513C242.312 423.045 244.888 414.621 247.435 406.197C250.055 397.788 252.631 389.365 255.37 381L255.844 379.534L257.309 379.564C262.742 379.653 268.161 379.682 273.594 379.816C279.027 379.949 284.446 380.023 289.879 380.215C300.731 380.541 311.583 380.97 322.449 381.622Z" fill="#061544"/>
<path d="M242.297 217.721C235.502 221.408 224.784 226.856 221.26 232.126C215.102 241.379 215.605 250.957 215.812 257.264C216.36 274.422 216.301 291.596 215.975 308.754C215.649 326.031 214.495 342.479 217.381 359.607C219.276 370.814 223.17 381.34 236.094 381.947C245.895 382.895 313.67 381.415 332.309 383.517L336.01 371.185L353.405 323.085C353.405 323.085 305.661 320.494 297.148 316.053C288.636 311.611 280.123 271.639 279.013 260.536" fill="#008CFF" fill-opacity="0.58"/>
<path d="M236.094 256.479C233.281 258.434 230.423 260.284 227.551 262.135C224.679 263.971 221.792 265.792 218.876 267.568L219.438 266.606C219.601 272.039 219.675 277.457 219.661 282.891C219.675 285.6 219.646 288.324 219.601 291.033C219.572 293.742 219.527 296.466 219.424 299.176L217.44 297.991C221.393 295.919 225.36 293.92 229.372 291.966C233.37 289.997 237.411 288.117 241.527 286.34C237.826 288.842 234.05 291.226 230.231 293.55C226.426 295.874 222.592 298.139 218.728 300.345L216.788 301.456L216.744 299.161C216.685 296.452 216.685 293.728 216.7 291.018C216.685 288.309 216.7 285.585 216.759 282.876C216.833 277.443 216.966 272.024 217.218 266.591L217.247 265.91L217.78 265.629C220.786 264.03 223.835 262.475 226.87 260.936C229.92 259.426 232.985 257.901 236.094 256.479Z" fill="#008CFF"/>
<path d="M246.694 341.117C242.238 343.9 237.708 346.55 233.148 349.126C230.883 350.429 228.574 351.672 226.279 352.96C223.999 354.234 221.675 355.448 219.365 356.706L217.485 357.727L217.367 355.536C217.159 351.584 217.07 347.631 216.922 343.678L216.656 331.805L216.641 330.931L217.381 330.532C222.237 327.941 227.108 325.38 232.023 322.892C236.938 320.42 241.898 317.992 246.931 315.727C242.342 318.806 237.663 321.723 232.97 324.595C228.263 327.452 223.51 330.25 218.743 332.989L219.469 331.731L219.883 343.589C219.957 347.542 220.091 351.495 220.12 355.462L218.136 354.293C220.49 353.153 222.829 351.968 225.198 350.858C227.567 349.748 229.921 348.593 232.304 347.512C237.057 345.262 241.838 343.115 246.694 341.117Z" fill="#008CFF"/>
<path d="M221.067 372.828C223.229 371.007 225.524 369.423 227.863 367.957C230.202 366.477 232.6 365.085 235.043 363.812C237.486 362.524 239.988 361.34 242.534 360.244C245.08 359.149 247.671 358.157 250.41 357.402C248.248 359.238 245.954 360.807 243.615 362.287C241.275 363.768 238.877 365.159 236.434 366.433C233.992 367.721 231.49 368.905 228.943 370C226.397 371.081 223.806 372.088 221.067 372.828Z" fill="#008CFF"/>
<path d="M220.298 372.458C220.298 372.458 234.11 375.419 239.544 378.631C244.977 381.844 244.977 381.844 244.977 381.844C244.977 381.844 257.072 372.961 274.097 381.592C278.79 379.86 288.413 374.679 300.257 381.104C305.438 379.135 323.204 375.922 331.095 382.584C319.503 383.813 246.709 383.576 242.268 383.576C237.826 383.576 233.133 383.088 229.432 381.104C225.731 379.12 220.298 372.458 220.298 372.458Z" fill="#008CFF"/>
<path d="M286 99.5667C281.899 96.665 278.657 92.6826 274.526 89.8401C271.299 87.6195 267.198 86.1242 263.245 86.8644C259.248 87.6195 256.435 90.4175 252.157 90.8468C249.092 91.1577 245.939 91.1133 243.037 92.12C238.27 93.7781 234.85 98.0122 232.393 102.424C226.219 113.542 225.361 125.371 227.581 137.555C229.003 145.327 228.366 153.455 225.805 160.931C222.977 169.192 217.44 175.899 213.384 183.538C206.811 195.9 204.62 210.526 207.255 224.28C206.692 221.348 210.897 215.664 212.555 213.487C215.249 209.964 218.847 207.329 222.252 204.531C214.524 213.028 212.392 226.189 217.055 236.701C218.61 225.967 227.137 217.795 235.132 210.467C243.111 203.124 251.535 194.76 252.719 183.982C252.749 188.438 255.073 195.515 259.233 197.765C264.859 200.815 272.587 200.445 278.775 200.445C275.281 199.749 273.105 196.018 272.839 192.48C272.572 188.927 273.727 185.448 274.556 181.983C276.821 172.479 276.599 162.575 276.377 152.804C276.185 144.706 276.525 136.534 276.185 128.465C276.066 125.519 275.859 122.662 274.793 119.938C273.949 117.761 272.498 114.83 273.253 112.432C274.216 109.338 278.627 108.494 281.351 108.805" fill="#091D5B"/>
<path d="M277.34 114.327C274.631 109.486 270.841 105.252 266.34 102.009C265.141 101.136 263.809 100.322 262.313 100.233C260.344 100.114 258.538 101.328 257.028 102.602C250.84 107.798 246.413 115.052 244.637 122.928C243.304 128.82 243.467 135.038 245.037 140.871C246.473 146.216 249.448 151.22 250.277 156.712C252.187 169.325 241.942 181.524 234.895 190.896C229.403 198.209 228.352 206.366 227.375 215.131C230.084 208.38 235.34 207.817 241.631 202.443C244.089 200.341 246.813 195.515 248.664 192.865C249.167 192.139 253.712 184.722 253.253 184.396C254.556 185.314 255.059 188.32 255.725 189.8C256.525 191.577 257.487 193.279 258.731 194.774C261.484 198.076 265.082 200.696 269.123 202.177C268.798 196.655 271.818 191.577 273.461 186.291C275.401 180.044 275.401 173.397 275.401 166.853C275.386 155.676 275.016 144.513 276.392 133.395C276.955 128.835 277.147 124.201 276.54 119.627C276.289 117.747 275.874 115.852 274.868 114.238C273.861 112.639 272.144 111.381 270.249 111.351" fill="#05163F"/>
<path d="M272.958 98.5895C271.374 96.0432 269.272 94.8144 266.651 94.1482C262.121 95.4362 259.071 98.249 257.783 101.506C259.871 103.49 261.07 106.036 262.091 108.908" fill="#FC5959"/>
<path d="M260.878 100.603C262.832 100.81 264.712 99.9515 266.518 99.1669C268.324 98.3971 270.323 97.6864 272.203 98.2194C268.161 100.573 264.401 103.431 261.055 106.688C261.677 106.081 259.264 102.972 258.864 102.542C258.361 102.009 257.517 101.55 258.08 100.795C258.657 100.04 260.137 100.529 260.878 100.603Z" fill="#DD4545"/>
<path d="M303.558 101.358C298.273 98.3231 294.024 96.9611 286.681 96.591C279.323 96.2209 270.781 97.5237 264.963 102.024C256.169 108.819 253.238 126.141 256.332 136.815C259.426 147.489 266.147 153.884 275.578 159.762" fill="#091D5B"/>
<path opacity="0.6" d="M237.99 225.938C235.237 228.721 231.299 235.62 230.425 237.856C224.888 252.083 229.848 268.397 234.496 281.781C237.946 291.729 241.484 300.168 242.106 310.768C242.713 321.235 231.669 340.125 238.138 358.631C240.922 364.182 253.905 371.155 262.758 374.175C270.901 376.959 286.075 382.51 333.272 379.179C338.779 356.958 262.965 349.911 249.863 346.461C248.753 346.165 247.968 345.159 247.939 344.019C247.746 335.98 248.457 325.646 248.265 322.167C250.396 317.297 253.772 312.796 254.246 307.496C254.719 302.196 252.203 297.162 250.352 292.173C246.829 282.728 245.555 272.617 244.312 262.624C242.757 250.454 239.5 238.107 237.99 225.938Z" fill="#008CFF"/>
<path d="M326.742 320.391C326.742 320.391 326.209 343.367 291.937 349.689C260.981 355.403 246.917 348.045 247.005 346.461C247.02 346.195 243.896 334.884 244.696 333.567" fill="#061544"/>
<path d="M245.598 336.157C245.82 355.536 256.524 367.173 274.541 374.309C288.99 380.023 313.211 379.312 333.3 379.357L337.49 367.262L346.121 343.826L338.97 342.597L346.373 340.377L354.515 321.382C354.515 321.382 342.183 321.131 334.529 319.902C326.875 318.673 321.457 316.689 321.457 316.689L300.242 334.943C300.242 334.943 269.641 334.692 263.231 333.211" fill="#091D5B"/>
<path d="M337.994 342.834C338.675 342.301 339.371 342.005 340.052 341.724C340.733 341.472 341.429 341.294 342.139 341.191C343.59 340.954 345.248 341.191 346.566 341.827L347.839 342.449L347.336 343.293C345.885 345.691 345.011 348.682 343.442 351.273C344.079 348.327 344.345 345.381 345.529 342.39L346.284 343.841C344.819 344.048 343.649 344.093 342.287 344.048C340.91 343.989 339.43 343.737 337.994 342.834Z" fill="#091D70"/>
<path d="M339.222 342.138C339.474 342.168 340.274 340.91 348.357 338.97C347.646 342.316 346.773 342.479 346.773 342.479L339.222 342.138Z" fill="#05163F"/>
<path opacity="0.25" d="M444.734 341.295H403.311C402.734 341.295 402.26 340.821 402.26 340.243V283.824C402.26 283.246 402.734 282.772 403.311 282.772H433.557C434.06 282.772 434.49 283.128 434.593 283.616L445.771 340.036C445.889 340.688 445.401 341.295 444.734 341.295Z" fill="#091D70"/>
<path d="M437.05 338.792H395.627C395.05 338.792 394.576 338.319 394.576 337.741V281.321C394.576 280.744 395.05 280.27 395.627 280.27H425.873C426.376 280.27 426.806 280.626 426.909 281.114L438.087 337.534C438.22 338.185 437.716 338.792 437.05 338.792Z" fill="white"/>
<path d="M422.35 283.083C423.179 287.317 423.963 291.566 424.689 295.83L426.835 308.606L428.819 321.412C429.456 325.676 430.048 329.954 430.611 334.248C429.781 330.014 428.997 325.765 428.271 321.501L426.125 308.725L424.141 295.919C423.49 291.655 422.897 287.377 422.35 283.083Z" fill="#091D70"/>
<path d="M415.851 283.438C416.428 287.687 416.961 291.936 417.449 296.2L418.856 308.976L420.085 321.767C420.47 326.031 420.81 330.31 421.121 334.588C420.544 330.339 420.011 326.09 419.522 321.827L418.116 309.05L416.887 296.259C416.487 291.981 416.147 287.717 415.851 283.438Z" fill="#091D70"/>
<path d="M408.463 283.971C408.804 288.102 409.115 292.218 409.366 296.348L410.062 308.739L410.595 321.131C410.743 325.261 410.861 329.392 410.921 333.537C410.58 329.406 410.269 325.291 410.018 321.16L409.322 308.769L408.789 296.378C408.641 292.232 408.537 288.102 408.463 283.971Z" fill="#091D70"/>
<path d="M401.253 284.667C401.401 288.753 401.52 292.839 401.579 296.925L401.712 309.183L401.668 321.442C401.638 325.528 401.549 329.614 401.431 333.7C401.283 329.614 401.164 325.528 401.105 321.442L400.972 309.183L401.016 296.925C401.046 292.839 401.135 288.753 401.253 284.667Z" fill="#091D70"/>
<path d="M432.194 328.429C426.391 328.74 420.602 328.755 414.799 328.8C408.996 328.755 403.207 328.74 397.404 328.429C403.207 328.119 408.996 328.104 414.799 328.059C420.588 328.104 426.391 328.119 432.194 328.429Z" fill="#091D70"/>
<path d="M432.016 320.168C426.213 320.479 420.424 320.494 414.621 320.539C408.818 320.494 403.029 320.479 397.226 320.168C403.029 319.858 408.818 319.843 414.621 319.798C420.409 319.843 426.213 319.858 432.016 320.168Z" fill="#091D70"/>
<path d="M429.203 312.263C423.874 312.574 418.544 312.589 413.214 312.633C407.885 312.589 402.555 312.574 397.226 312.263C402.555 311.952 407.885 311.937 413.214 311.893C418.544 311.937 423.874 311.952 429.203 312.263Z" fill="#091D70"/>
<path d="M429.203 304.624C423.874 304.935 418.544 304.949 413.214 304.994C407.885 304.949 402.555 304.935 397.226 304.624C402.555 304.313 407.885 304.298 413.214 304.254C418.544 304.298 423.874 304.313 429.203 304.624Z" fill="#091D70"/>
<path d="M427.265 296.452C422.261 296.763 417.242 296.777 412.238 296.822C407.234 296.777 402.215 296.763 397.211 296.452C402.215 296.141 407.234 296.126 412.238 296.082C417.257 296.126 422.261 296.141 427.265 296.452Z" fill="#091D70"/>
<path d="M425.518 288.013C420.795 288.324 416.087 288.339 411.365 288.383C406.642 288.339 401.934 288.324 397.211 288.013C401.934 287.702 406.642 287.687 411.365 287.643C416.072 287.687 420.795 287.702 425.518 288.013Z" fill="#091D70"/>
<path opacity="0.1" d="M452.477 283.927C463.832 288.679 474.299 294.897 482.974 303.691C487.697 308.473 491.916 314.054 497.957 317.045C507.372 321.693 520.015 316.068 514.863 304.89C499.496 271.491 454.831 262.253 419.182 261.646C408.819 261.469 394.31 261.572 394.429 264.282C394.71 270.722 415.688 272.631 420.396 273.816C431.277 276.54 442.114 279.589 452.477 283.927Z" fill="#091D70"/>
<path d="M518.475 246.931C500.739 247.745 483.018 248.204 465.283 248.455C447.547 248.678 429.826 248.87 412.09 248.515L398.796 248.189L392.148 248.026L390.49 247.982C389.972 247.997 389.469 247.967 388.951 248.026C387.929 248.085 386.922 248.307 385.945 248.574C382.022 249.729 378.573 252.749 377.137 256.702L372.799 269.256L364.153 294.409L355.744 319.65C352.961 328.074 350.178 336.498 347.306 344.877C344.463 353.271 341.562 361.651 338.63 370.015L329.851 395.124L320.88 420.158C308.681 453.453 296.097 486.615 282.965 519.57L282.551 519.422C293.047 485.52 304.698 452.017 316.453 418.559L325.484 393.54L334.677 368.579C337.727 360.259 340.806 351.939 343.93 343.648C346.995 335.328 350.193 327.067 353.346 318.777C359.653 302.211 365.87 285.6 371.496 268.797C372.962 264.592 374.205 260.403 375.582 256.124C377.092 251.668 380.734 247.967 385.25 246.398C386.375 246.028 387.544 245.702 388.729 245.583C389.321 245.495 389.928 245.48 390.505 245.45L392.163 245.406L398.81 245.243L412.105 244.917C429.841 244.562 447.562 244.74 465.297 244.976C483.033 245.213 500.754 245.672 518.49 246.501V246.931H518.475Z" fill="#061544"/>
<path d="M559.903 230.764V37.6542C559.903 34.7674 556.113 33.6718 554.589 36.1294C552.753 39.0755 550.902 42.0068 549.066 44.9529C517.34 95.6434 466.028 114.016 400 117.406C400.237 147.163 401.081 204.012 402.546 233.947C420.164 236.908 434.42 241.601 452.067 247.301C476.051 255.043 498.494 264.696 517.725 280.966C533.3 294.142 547.468 307.718 559.903 323.884C559.903 321.841 559.903 319.813 559.903 319.813C559.903 319.813 559.903 284.179 559.903 230.764Z" fill="#091D5B"/>
<path d="M554.333 230.764V37.6542C554.333 34.7674 550.543 33.6718 549.018 36.1294C547.182 39.0755 545.331 42.0068 543.496 44.9529C511.77 95.6434 460.457 114.016 394.429 117.406C394.666 147.163 395.51 204.012 396.976 233.947C414.593 236.908 428.85 241.601 446.497 247.301C470.48 255.043 492.923 264.696 512.155 280.966C527.729 294.142 541.897 307.718 554.333 323.884C554.333 321.841 554.333 319.813 554.333 319.813C554.333 319.813 554.333 284.179 554.333 230.764Z" fill="#3E5087"/>
<path opacity="0.4" d="M443.328 187.002C443.342 189.326 443.342 191.651 443.342 193.99C428.405 189.992 411.616 187.49 395.627 187.402C395.272 176.313 394.399 147.77 394.576 138.591C411.098 137.777 426.436 134.846 442.765 130.538C442.913 135.571 443.224 159.421 443.328 187.002Z" fill="#071972"/>
<path d="M317.222 316.008C320.376 316.734 323.455 317.4 326.549 317.933C329.643 318.436 332.737 318.88 335.861 319.221L345.277 320.272C348.43 320.642 351.613 321.057 354.781 321.767C351.583 322.285 348.386 322.507 345.173 322.582C341.96 322.656 338.748 322.507 335.535 322.167C332.323 321.767 329.125 321.175 326.016 320.183C322.907 319.191 319.887 317.859 317.222 316.008Z" fill="#091D70"/>
<path d="M325.883 323.751C325.572 324.817 325.202 325.794 324.847 326.638C324.699 326.979 324.551 327.304 324.403 327.586C324.092 328.193 323.736 328.785 323.322 329.392C320.109 334.159 313.655 338.911 298.45 343.012C273.224 349.822 253.46 346.521 243.615 337.031C243.082 330.709 248.189 312.426 248.189 312.426C245.021 295.563 238.315 280.448 235.591 263.393C232.778 244.059 231.549 223.406 239.78 206.396C243.481 198.742 253.326 191.355 256.865 188.986C260.743 186.38 265.377 185.951 269.7 187.757C270.559 188.571 271.832 190.792 273.742 193.294L289.642 191.088L297.029 191.606L322.197 238.137C322.197 238.137 323.5 262.313 321.945 276.155C321.471 280.359 320.613 287.525 320.465 292.01C320.391 294.512 320.938 311.227 326.09 315.846C326.949 318.466 326.579 321.338 325.883 323.751Z" fill="#F78334"/>
<path d="M325.943 323.81C325.647 324.743 325.291 325.691 324.847 326.638C325.202 325.794 325.573 324.817 325.883 323.751L325.943 323.81Z" fill="#153AAD"/>
<path d="M277.399 158.918C277.754 159.096 291.019 174.033 293.21 175.173C295.401 176.313 301.323 178.815 301.323 178.815C301.323 178.815 295.387 191.991 295.638 192.746C297.341 202.34 289.85 202.31 285.408 201.052C278.021 198.949 268.058 189.8 267.924 183.878C271.107 181.569 273.935 178.993 275.889 173.634C276.851 170.969 277.799 163.152 277.799 163.152L277.399 158.918Z" fill="#FFC1AF"/>
<path d="M409.869 133.454C420.381 132.581 430.744 130.73 441.033 128.569C446.185 127.532 451.337 126.392 456.4 124.956C458.932 124.216 461.433 123.402 463.935 122.602C466.423 121.759 468.865 120.752 471.338 119.834C481.094 115.896 490.732 111.662 500.058 106.776C504.781 104.467 509.341 101.832 513.96 99.3002C516.299 98.0714 518.505 96.6502 520.77 95.303L527.58 91.2761C527.61 91.2465 527.654 91.2613 527.684 91.291C527.698 91.3206 527.698 91.365 527.669 91.3946L521.17 95.9248C518.979 97.3904 516.847 98.9745 514.552 100.277C510.007 102.987 505.521 105.799 500.769 108.109C498.4 109.293 496.106 110.611 493.692 111.677L486.438 114.904C484.055 116.044 481.538 116.888 479.08 117.865C476.608 118.813 474.151 119.775 471.619 120.559L464.098 123.061C461.567 123.831 459.05 124.586 456.533 125.415L448.938 127.68C446.422 128.48 443.831 129.057 441.285 129.738C439.997 130.064 438.709 130.345 437.421 130.597C436.133 130.863 434.83 131.13 433.527 131.367C430.921 131.826 428.301 132.211 425.695 132.595C420.44 133.232 415.169 133.706 409.869 133.573C409.825 133.573 409.795 133.543 409.795 133.499C409.795 133.484 409.825 133.454 409.869 133.454Z" fill="#EFF2F9"/>
<path d="M411.453 154.891C421.742 153.559 431.943 151.649 442.143 149.769C447.236 148.806 452.358 147.933 457.406 146.704C459.953 146.171 462.44 145.416 464.942 144.75C467.459 144.113 469.931 143.299 472.403 142.514C477.363 140.99 482.248 139.228 487.163 137.599C489.606 136.741 492.034 135.808 494.462 134.92L498.119 133.602L501.731 132.181C511.443 128.539 520.888 124.29 530.407 120.086C530.437 120.071 530.481 120.086 530.511 120.115C530.526 120.145 530.511 120.189 530.481 120.219L523.612 123.905L520.148 125.711C518.978 126.289 517.809 126.836 516.624 127.384L509.533 130.656C507.135 131.678 504.707 132.61 502.294 133.587C492.611 137.437 482.707 140.664 472.625 143.269C467.607 144.661 462.544 145.816 457.525 147.178C454.993 147.785 452.491 148.466 449.974 149.117L442.38 150.938C439.819 151.427 437.287 151.989 434.726 152.433C432.15 152.833 429.589 153.277 427.013 153.633C421.861 154.328 416.679 154.921 411.468 155.009C411.424 155.009 411.394 154.98 411.394 154.935C411.379 154.935 411.409 154.906 411.453 154.891Z" fill="#EFF2F9"/>
<path d="M412.49 173.87C422.394 172.109 432.298 170.436 442.247 169.059C447.221 168.393 452.225 167.875 457.199 167.134C462.174 166.439 467.119 165.565 472.063 164.662C481.953 162.841 491.842 161.124 501.776 159.569C511.695 158 521.643 156.594 531.636 155.409C531.681 155.409 531.711 155.439 531.725 155.468C531.725 155.513 531.71 155.542 531.666 155.542C521.821 157.63 511.947 159.451 502.028 161.064C492.108 162.708 482.16 164.144 472.196 165.447C467.222 166.113 462.233 166.779 457.273 167.623C452.314 168.408 447.384 169.414 442.425 170.258C432.506 171.857 422.542 173.219 412.505 174.004C412.46 174.004 412.431 173.974 412.431 173.93C412.431 173.915 412.46 173.885 412.49 173.87Z" fill="#EFF2F9"/>
<path d="M410.905 192.865C415.761 191.814 420.691 191.251 425.62 190.762C430.55 190.289 435.495 189.933 440.455 189.741L447.886 189.578C450.359 189.548 452.846 189.519 455.318 189.43C460.263 189.326 465.208 189.075 470.152 188.853C475.097 188.601 480.042 188.394 485.001 188.305C489.946 188.186 494.906 188.112 499.85 188.142C509.754 188.172 519.659 188.497 529.548 189.164C529.592 189.164 529.622 189.208 529.622 189.238C529.622 189.282 529.592 189.312 529.548 189.312C519.644 189.563 509.754 189.652 499.865 189.667C489.976 189.726 480.086 189.696 470.182 189.652C465.237 189.637 460.278 189.696 455.348 189.933C450.403 190.141 445.473 190.6 440.543 190.955C430.684 191.651 420.794 192.021 410.949 192.998C410.905 192.998 410.875 192.968 410.86 192.939C410.846 192.909 410.875 192.865 410.905 192.865Z" fill="#EFF2F9"/>
<path d="M411.971 208.676C421.756 207.98 431.616 208.306 441.372 209.268C446.258 209.771 451.099 210.541 455.955 211.193L470.523 213.162C475.393 213.783 480.234 214.598 485.046 215.501L492.27 216.922C494.669 217.44 497.052 218.017 499.451 218.565C508.985 220.86 518.4 223.658 527.638 226.974C527.683 226.989 527.697 227.033 527.683 227.063C527.668 227.093 527.623 227.122 527.594 227.107C518.089 224.679 508.614 222.296 499.095 220.046C489.576 217.84 480.012 215.812 470.404 213.961C468.006 213.502 465.593 213.028 463.18 212.703C460.766 212.318 458.338 211.948 455.91 211.711C453.483 211.415 451.04 211.178 448.597 211.015C446.154 210.808 443.712 210.645 441.284 210.512C436.413 210.141 431.542 209.801 426.657 209.505C421.771 209.238 416.901 209.002 412 208.853C411.956 208.853 411.926 208.824 411.926 208.779C411.911 208.705 411.941 208.676 411.971 208.676Z" fill="#EFF2F9"/>
<path d="M503.256 99.6111C503.76 110.463 503.908 121.315 503.789 132.166C503.7 137.599 503.449 143.018 503.434 148.451C503.36 153.884 503.463 159.303 503.582 164.736C503.848 175.588 503.982 186.439 503.937 197.291C503.908 208.143 503.7 218.995 503.241 229.846C503.241 229.891 503.212 229.92 503.167 229.92C503.123 229.92 503.093 229.891 503.093 229.846C502.634 218.995 502.427 208.143 502.398 197.291C502.353 186.439 502.486 175.588 502.753 164.736C502.871 159.303 502.975 153.884 502.901 148.451C502.886 143.018 502.634 137.599 502.546 132.166C502.427 121.315 502.59 110.463 503.079 99.6111C503.079 99.5667 503.108 99.5371 503.153 99.5371C503.227 99.5371 503.256 99.5667 503.256 99.6111Z" fill="#EFF2F9"/>
<path d="M470.567 115.422C471.07 125.134 471.218 134.846 471.1 144.557C471.011 149.413 470.76 154.269 470.745 159.125C470.671 163.981 470.774 168.837 470.893 173.693C471.159 183.404 471.292 193.116 471.248 202.828C471.218 212.54 471.011 222.251 470.552 231.963C470.552 232.008 470.523 232.037 470.478 232.037C470.434 232.037 470.404 232.008 470.404 231.963C469.945 222.251 469.738 212.54 469.708 202.828C469.664 193.116 469.797 183.404 470.064 173.693C470.182 168.837 470.286 163.981 470.212 159.125C470.197 154.269 469.945 149.413 469.856 144.557C469.738 134.846 469.901 125.134 470.389 115.422C470.389 115.378 470.419 115.348 470.463 115.348C470.537 115.363 470.567 115.393 470.567 115.422Z" fill="#EFF2F9"/>
<path d="M438.412 120.175C438.915 129.087 439.063 138.014 438.945 146.926C438.856 151.382 438.604 155.839 438.589 160.31C438.515 164.766 438.619 169.222 438.737 173.693C439.019 182.605 439.122 191.532 439.122 200.445C439.048 209.357 438.871 218.284 438.412 227.196C438.412 227.241 438.367 227.27 438.338 227.27C438.293 227.27 438.264 227.241 438.264 227.196C437.79 218.284 437.627 209.357 437.553 200.445C437.553 191.532 437.657 182.605 437.938 173.693C438.056 169.237 438.16 164.781 438.086 160.31C438.071 155.853 437.819 151.397 437.731 146.926C437.612 138.014 437.775 129.087 438.264 120.175C438.264 120.13 438.293 120.101 438.338 120.101C438.382 120.101 438.412 120.13 438.412 120.175Z" fill="#EFF2F9"/>
<path d="M389.867 224.783C404.82 226.841 419.906 228.573 434.547 232.644C441.861 234.687 448.923 237.411 456.029 239.987C463.09 242.682 470.123 245.48 476.992 248.677C483.876 251.846 490.523 255.532 496.86 259.722C498.458 260.743 499.983 261.883 501.553 262.949C503.063 264.089 504.617 265.199 506.098 266.384C509.088 268.737 511.916 271.239 514.788 273.712C520.517 278.656 526.039 283.868 531.221 289.405C536.402 294.941 541.14 300.878 545.566 306.992C545.596 307.022 545.581 307.066 545.552 307.096C545.522 307.126 545.478 307.111 545.448 307.081C540.651 301.248 535.692 295.548 530.377 290.204C525.092 284.83 519.466 279.811 513.781 274.867C508.037 269.951 502.352 265.051 496.09 260.862C489.872 256.642 483.373 252.808 476.651 249.388C463.209 242.548 448.804 237.589 434.237 233.814C419.654 229.994 404.657 227.966 389.853 224.916C389.808 224.901 389.793 224.872 389.793 224.827C389.793 224.813 389.838 224.783 389.867 224.783Z" fill="#EFF2F9"/>
<path d="M398.471 253.652L406.91 252.586C413.72 252.616 420.515 249.966 425.519 245.332C428.198 242.845 429.871 239.765 432.092 236.923C434.535 233.814 437.155 230.838 439.938 228.04C434.15 229.565 430.034 235.591 424.068 236.035C421.788 236.212 419.464 235.517 417.213 235.99C412.565 236.953 410.315 244.429 405.651 245.317L398.826 246.724" fill="#FFC1AF"/>
<path d="M430.551 233.163C430.551 233.163 425.814 237.545 423.564 240.52L430.551 233.163Z" fill="#FFC1AF"/>
<path d="M417.377 246.783C422.247 245.924 427.384 246.605 431.885 248.693C425.445 249.936 418.946 250.913 412.417 251.609" fill="#FFC1AF"/>
<path d="M326.801 249.699C330.754 252.423 336.617 254.851 341.132 256.198C349.023 258.567 354.13 241.423 348.357 237.752C332.545 228.958 326.135 209.816 316.719 201.377C310.309 195.604 304.417 193.871 296.097 191.266L295.815 191.828" fill="#F78334"/>
<path d="M327.437 215.782C336.394 229.669 340.021 235.605 353.094 239.158C366.669 242.845 380.867 243.555 399.935 242.238C404.687 243.822 406.878 257.027 402.748 257.797C388.387 260.432 379.238 262.372 353.271 261.839C346.816 261.706 338.689 260.965 329.54 257.619C326.075 256.346 322.685 254.629 322.685 254.629L316.541 251.816" fill="#F78334"/>
<path d="M324.403 327.585C323.84 328.77 323.396 329.48 323.396 329.48C323.396 329.48 323.366 329.451 323.322 329.392C323.737 328.785 324.092 328.192 324.403 327.585Z" fill="#153AAD"/>
<path d="M371.644 287.658C389.75 286.755 408.951 287.983 424.156 297.843C407.974 299.028 391.6 297.71 375.804 293.964C374.338 293.609 372.873 293.239 371.437 292.78" fill="#FFC1AF"/>
<path d="M388.493 286.932C396.147 284.86 404.082 283.838 412.002 283.883C407.798 285.467 403.623 287.125 399.478 288.872" fill="#FFC1AF"/>
<path d="M389.218 108.568C389.795 118.324 390.062 128.065 390.091 137.822C390.062 142.692 389.899 147.578 389.958 152.463C389.958 157.349 390.165 162.219 390.373 167.09C390.832 176.831 391.187 186.588 391.424 196.329C391.675 206.085 391.779 215.826 391.794 225.597C391.794 225.642 391.764 225.671 391.72 225.671C391.675 225.671 391.646 225.642 391.646 225.597C390.713 215.871 390.195 206.115 389.899 196.373C389.573 186.617 389.499 176.861 389.573 167.105C389.603 162.219 389.618 157.349 389.455 152.463C389.351 147.593 389.04 142.707 388.877 137.836C388.626 128.08 388.67 118.324 389.085 108.568C389.085 108.523 389.114 108.494 389.159 108.494C389.188 108.509 389.218 108.538 389.218 108.568Z" fill="#EFF2F9"/>
<path d="M296.185 181.909C299.28 182.724 300.39 181.332 300.76 180.103C301.086 179.037 301.87 177.424 301.87 177.424C301.87 177.424 293.402 175.499 290.589 172.153C287.777 168.807 275.814 158.77 275.814 158.77C275.814 158.77 285.23 179.496 296.185 181.909Z" fill="#FF9796"/>
<path d="M276.082 195.692C269.627 189.622 268.102 183.167 268.102 183.167C268.102 183.167 257.887 186.928 252.291 193.116" fill="#F78334"/>
<path d="M250.912 234.051C259.025 253.874 267.789 278.864 291.328 291.936C299.086 296.244 311.507 298.894 320.242 300.478C339.961 304.061 379.815 301.011 379.889 296.259C378.838 293.091 378.764 286.636 384.834 285.896C382.776 282.343 369.022 286.385 352.767 281.677C347.201 280.063 339.709 277.768 334.483 274.822C326.933 270.559 315.519 265.096 309.701 258.656C304.267 252.645 288.516 237.855 284.4 230.883" fill="#F78334"/>
<path d="M435.688 179.837C435.703 182.161 435.703 183.212 435.703 185.551C417.597 182.738 398.603 181.939 380.689 182.383C380.689 164.529 380.156 147.326 380.156 129.472C399.136 129.176 416.279 126.067 434.667 121.211C434.83 126.259 435.57 152.256 435.688 179.837Z" fill="#2EEDA8"/>
<path opacity="0.4" d="M539.838 291.788C528.246 278.346 514.789 265.17 500.561 256.998C500.502 240.757 500.428 239.336 500.384 221.852C512.153 221.067 529.593 214.627 540.622 207.699C540.356 229.002 539.764 287.436 539.838 291.788Z" fill="#071972"/>
<path d="M534.301 275.711C522.709 265.51 508.897 254.437 494.758 249.092C494.699 232.852 494.803 227.048 494.758 209.549C506.528 208.765 523.968 202.325 534.997 195.396C534.73 216.7 534.227 271.358 534.301 275.711Z" fill="#FFE57C"/>
<path d="M259.056 268.812C260.759 276.747 266.621 284.416 273.609 288.546C289.894 298.169 306.357 297.384 301.53 295.371C292.87 291.773 284.801 287.347 278.939 281.499C271.492 274.067 265.837 264.859 260.847 255.695C260.107 254.333 257.798 249.773 256.613 247.049C256.095 254.007 257.191 258.937 259.056 268.812Z" fill="#E06934"/>
<path d="M251.431 234.317C255.073 242.06 258.39 249.921 262.313 257.457C266.295 264.933 270.736 272.202 276.421 278.405C277.769 280.034 279.353 281.41 280.804 282.921L283.187 284.964L284.386 285.985L285.645 286.918L288.176 288.798L290.841 290.471C292.603 291.64 294.438 292.558 296.363 293.432C300.212 295.134 304.269 296.437 308.355 297.577C312.441 298.791 316.586 299.753 320.746 300.76C312.278 299.65 303.81 298.11 295.712 295.001C293.698 294.216 291.67 293.313 289.849 292.144L287.051 290.486L284.386 288.605L283.054 287.658L281.81 286.607L279.323 284.505C277.798 282.965 276.14 281.544 274.748 279.886C271.802 276.703 269.286 273.15 266.932 269.537C264.637 265.881 262.594 262.091 260.758 258.212C258.967 254.303 257.294 250.365 255.74 246.383C254.303 242.371 252.808 238.359 251.431 234.317Z" fill="#E06934"/>
<path d="M283.128 228.691C287.021 234.036 291.063 239.247 295.356 244.207C299.679 249.136 304.269 253.815 309.272 258.019C314.232 262.253 319.606 266.014 325.246 269.33C330.902 272.616 336.824 275.488 342.953 278.005C336.557 276.303 330.31 273.934 324.417 270.84C318.496 267.775 312.944 264 307.851 259.692C302.773 255.354 298.154 250.513 294.053 245.287C289.893 240.091 286.296 234.495 283.128 228.691Z" fill="#E06934"/>
<path d="M321.22 243.215C322.582 248.855 324.699 249.018 329.2 252.69C333.7 256.346 341.562 258.745 346.773 261.306C340.126 261.439 333.804 259.529 327.616 257.087C326.121 256.494 323.989 255.858 323.752 254.274C323.633 253.489 322.612 249.566 322.701 248.767" fill="#E06934"/>
<path d="M320.332 231.593C320.465 234.658 320.968 237.559 321.635 240.476C322.301 243.392 323.056 246.309 323.589 249.344C323.811 250.869 324.033 252.394 324.092 253.963C324.151 255.517 324.063 257.131 323.87 258.626C323.544 261.646 323.145 264.652 322.523 267.613C322.227 264.548 322.138 261.513 322.138 258.478C322.212 255.503 321.916 252.645 321.398 249.699C320.909 246.768 320.258 243.807 319.917 240.742C319.562 237.737 319.532 234.554 320.332 231.593Z" fill="#E06934"/>
<path d="M416.96 152.389C416.974 154.995 415.938 157.586 414.117 159.495C412.311 161.42 409.72 162.619 407.011 162.708C404.317 162.812 401.533 161.79 399.535 159.88C397.521 157.97 396.337 155.202 396.337 152.404C396.337 149.606 397.521 146.823 399.535 144.928C401.548 143.003 404.317 141.996 407.011 142.1C409.72 142.174 412.311 143.388 414.117 145.313C415.938 147.178 416.974 149.769 416.96 152.389ZM416.96 152.389C416.96 149.784 415.864 147.208 413.969 145.431C412.089 143.655 409.513 142.722 407.011 142.811C404.494 142.899 402.096 144.025 400.438 145.801C398.75 147.563 397.803 149.961 397.817 152.374C397.803 154.788 398.75 157.186 400.438 158.962C402.096 160.754 404.509 161.879 407.026 161.953C409.528 162.057 412.104 161.124 413.984 159.332C415.849 157.571 416.945 154.995 416.96 152.389Z" fill="#091D70"/>
<path d="M388.003 172.242C390.283 169.207 393.199 166.587 396.619 164.751C398.322 163.818 400.172 163.182 402.067 162.708C403.962 162.264 405.931 162.116 407.871 162.145C411.764 162.264 415.584 163.285 419.063 164.899C422.542 166.513 425.799 168.615 428.538 171.25C426.983 170.169 425.37 169.177 423.711 168.304C422.068 167.401 420.366 166.601 418.619 165.935C415.14 164.603 411.498 163.685 407.826 163.611C404.155 163.463 400.483 164.247 397.108 165.743C395.45 166.542 393.806 167.43 392.326 168.585C390.786 169.666 389.409 170.969 388.003 172.242Z" fill="#091D70"/>
<path d="M524.916 231.786C524.931 233.474 524.812 235.161 524.472 236.819C524.146 238.477 523.598 240.106 522.681 241.542C521.777 242.978 520.534 244.207 519.083 245.139C517.617 246.102 515.841 246.516 514.109 246.501C510.615 246.501 507.151 244.784 504.886 242.06C502.62 239.336 501.362 235.872 501.11 232.378C500.888 228.884 501.658 225.213 503.834 222.341C504.871 220.89 506.322 219.765 507.832 218.906C509.371 218.062 511.133 217.544 512.895 217.573C516.478 217.573 519.631 219.705 521.644 222.4C523.717 225.065 524.916 228.41 524.916 231.786ZM524.916 231.786C524.886 228.41 523.613 225.079 521.481 222.518C519.364 219.957 516.181 218.151 512.924 218.358C509.697 218.536 506.721 220.534 504.945 223.125C503.139 225.746 502.472 229.077 502.695 232.274C502.902 235.487 503.997 238.67 505.952 241.216C507.876 243.777 510.881 245.539 514.153 245.732C517.425 246.072 520.623 244.162 522.518 241.438C524.428 238.625 524.901 235.117 524.916 231.786Z" fill="#091D70"/>
<path d="M508.304 229.476C509.044 230.794 509.755 232.126 510.51 233.414C510.895 234.051 511.265 234.702 511.665 235.324C511.872 235.635 512.065 235.931 512.287 236.227C512.494 236.494 512.76 236.819 512.894 236.893C512.894 236.923 512.923 236.819 512.597 236.908C512.553 236.938 512.627 236.879 512.672 236.819C512.775 236.716 512.879 236.568 512.982 236.42C513.19 236.138 513.397 235.827 513.604 235.517L514.833 233.651L517.246 229.861C520.474 224.798 523.73 219.765 527.402 214.953C524.841 220.431 521.806 225.627 518.549 230.705C517.72 231.963 516.906 233.237 516.017 234.451C515.573 235.072 515.129 235.679 514.67 236.286C514.433 236.582 514.196 236.879 513.93 237.175C513.797 237.323 513.663 237.471 513.501 237.634C513.412 237.708 513.353 237.782 513.13 237.9C512.627 238.107 512.464 237.87 512.301 237.811C511.828 237.441 511.665 237.115 511.443 236.775C511.235 236.434 511.058 236.094 510.88 235.753C510.525 235.072 510.214 234.391 509.918 233.681C509.341 232.304 508.778 230.912 508.304 229.476Z" fill="#091D70"/>
<path d="M388.195 108.597C413.052 106.851 437.923 103.357 461.522 95.4215C473.291 91.4539 484.75 86.3759 495.261 79.6695C505.802 73.0371 515.292 64.7466 523.419 55.3309C527.491 50.6379 531.266 45.6784 534.715 40.5116L537.217 36.5884C538.046 35.2708 538.905 33.9236 539.867 32.6652C540.356 32.0286 540.859 31.4069 541.451 30.8147C541.762 30.5186 542.073 30.2373 542.547 29.9856C542.754 29.8672 543.169 29.7488 543.509 29.8228C543.835 29.8672 544.131 30.03 544.353 30.2225C545.167 31.0219 545.33 31.8658 545.552 32.6652C545.745 33.4795 545.848 34.2789 545.922 35.0636C546.085 36.6624 546.056 38.2465 546.056 39.801L546.07 44.4792L546.115 53.8357V72.5485C546.13 85.0287 546.011 97.4941 545.893 109.974C545.789 122.455 545.685 134.92 545.419 147.4C545.419 147.444 545.389 147.474 545.345 147.474C545.301 147.474 545.271 147.444 545.271 147.4C545.019 134.92 544.916 122.455 544.797 109.974C544.664 97.4941 544.56 85.0287 544.575 72.5485V53.8357L544.619 44.4792L544.634 39.801C544.634 38.2317 544.679 36.6921 544.545 35.182C544.486 34.427 544.383 33.6719 544.235 32.9613C544.087 32.2803 543.82 31.5253 543.48 31.2292C543.406 31.17 543.346 31.1404 543.287 31.1256C543.243 31.1108 543.257 31.1108 543.124 31.17C542.902 31.2884 542.621 31.5105 542.354 31.7474C541.836 32.2507 541.348 32.8281 540.874 33.4203C539.926 34.6194 539.083 35.9074 538.239 37.2102L535.648 41.1186C532.08 46.2558 528.201 51.2005 524.026 55.8491C507.312 74.5323 485.52 88.2265 461.936 96.5762C450.108 100.692 437.864 103.52 425.517 105.444C419.344 106.406 413.126 107.117 406.908 107.68C400.69 108.213 394.443 108.523 388.21 108.731C388.166 108.731 388.136 108.701 388.136 108.657C388.136 108.642 388.166 108.597 388.195 108.597Z" fill="#EFF2F9"/>
<path d="M277.546 138.784C277.546 141.404 276.687 148.895 276.687 148.895C274.408 144.735 268.441 139.258 266.902 146.689C265.895 151.56 268.826 156.075 276.199 159.007C277.25 159.421 277.857 160.991 278.42 163.33C282.55 167.667 287.406 171.413 292.602 174.433C295.756 176.254 299.19 177.127 302.773 177.868C305.349 178.386 310.856 179.363 312.129 176.18C312.485 175.292 313.551 172.094 313.817 171.161C314.202 169.858 314.602 168.556 315.001 167.253C315.979 164.025 316.911 160.798 317.652 157.511C318.954 151.782 319.65 146.349 316.6 140.886C318.362 130.404 318.229 129.013 314.691 122.07C313.936 121.818 297.636 113.246 284.756 121.092L272.009 127.488L273.86 136.563" fill="#FFC1AF"/>
<path d="M300.153 135.305C300.153 135.305 297.074 131.396 286.059 138.947L300.153 135.305Z" fill="#05163F"/>
<path d="M319.74 130.938C319.74 130.938 317.119 127.858 307.689 133.81L319.74 130.938Z" fill="#05163F"/>
<path d="M297.148 140.057C297.859 139.909 298.525 140.146 298.747 140.59C299.295 141.73 299.058 142.84 298.451 143.98C297.992 144.839 296.822 145.342 295.993 144.528C294.883 143.447 295.519 140.175 297.148 140.057Z" fill="#05163F"/>
<path d="M272.173 149.117C272.025 148.821 271.847 148.555 271.596 148.347C271.285 148.111 270.841 148.007 270.515 148.199C269.952 148.54 270.1 149.399 270.367 150.006C270.974 151.368 272.291 154.329 273.994 154.462C274.29 153.041 272.913 150.583 272.262 149.28C272.232 149.221 272.203 149.162 272.173 149.117Z" fill="#FF9796"/>
<path d="M299.368 106.169C299.516 112.402 297.384 118.664 293.446 123.491C289.508 128.317 283.808 131.678 277.679 132.773C279.708 136.844 276.776 142.766 276.628 148.792C276.628 148.792 275.696 142.692 272.009 142.411C270.425 138.31 270.173 135.971 270.173 135.971L266.946 122.143" fill="#091D5B"/>
<path d="M271.211 158.548C270.219 159.569 269.834 161.05 269.967 162.353C270.115 163.67 270.633 164.855 271.492 165.772C272.321 166.72 273.624 167.371 275.015 167.312C276.392 167.268 277.695 166.527 278.524 165.476C279.353 164.425 279.782 163.137 279.768 161.864C279.753 160.591 279.22 159.392 278.332 158.548C277.458 157.674 276.244 157.215 274.941 157.112C273.639 157.038 272.188 157.512 271.211 158.548ZM271.122 158.459C272.099 157.438 273.357 156.564 274.882 156.283C276.392 155.957 278.11 156.46 279.294 157.571C280.493 158.666 281.085 160.339 280.996 161.908C280.937 163.493 280.167 164.973 279.057 165.98C277.932 166.986 276.525 167.593 275.075 167.741C273.624 167.904 272.01 167.593 270.796 166.572C269.582 165.55 268.96 163.863 269.197 162.353C269.36 160.798 270.16 159.495 271.122 158.459Z" fill="#BC902E"/>
<path d="M295.698 117.184C296.112 121.596 295.12 126.111 292.885 129.931C290.649 133.75 287.185 136.844 283.144 138.636C289.702 134.268 293.655 126.274 293.151 118.413" fill="#091D5B"/>
<path d="M295.993 117.539C298.51 121.448 299.324 126.422 298.184 130.923C298.154 127.118 297.444 123.328 296.111 119.775" fill="#091D5B"/>
<path d="M306.119 139.865C308.177 144.602 311.168 148.984 314.913 152.981C311.523 153.736 306.327 154.61 306.327 154.61" fill="#FF9796"/>
<path d="M298.895 140.486C297.652 140.397 296.586 140.708 295.594 141.152C295.091 141.36 294.617 141.671 294.143 141.967C293.669 142.278 293.225 142.618 292.751 142.973L292.441 143.195L292.233 143.047C291.7 142.648 291.197 142.218 290.708 141.715C291.39 141.863 292.026 142.07 292.648 142.307L292.144 142.381C292.529 141.893 292.959 141.419 293.477 141.034C293.995 140.649 294.558 140.309 295.165 140.101C295.786 139.894 296.453 139.79 297.104 139.835C297.755 139.879 298.407 140.087 298.895 140.486Z" fill="#05163F"/>
<path d="M313.759 137.718C314.469 137.57 315.135 137.807 315.357 138.251C315.905 139.391 315.668 140.501 315.061 141.641C314.602 142.5 313.433 143.003 312.604 142.189C311.493 141.093 312.13 137.836 313.759 137.718Z" fill="#05163F"/>
<path d="M309.258 139.835C309.599 139.317 309.998 138.828 310.472 138.428C310.961 138.043 311.508 137.688 312.13 137.466C312.752 137.259 313.418 137.125 314.099 137.185C314.78 137.244 315.417 137.436 316.024 137.91L315.402 138.029C315.861 137.481 316.379 136.977 316.942 136.504C316.719 137.214 316.453 137.88 316.127 138.517L315.979 138.828L315.506 138.636C315.091 138.473 314.543 138.354 314.04 138.354C313.522 138.354 313.004 138.413 312.485 138.561C311.952 138.68 311.449 138.902 310.916 139.109C310.354 139.317 309.821 139.568 309.258 139.835Z" fill="#05163F"/>
<path d="M293.506 105.563C296.526 102.261 301.101 100.425 305.572 100.721C310.043 101.018 314.321 103.431 316.897 107.117C318.481 109.397 319.444 112.121 321.398 114.105C324.033 116.799 328.119 117.658 331.865 117.243C335.61 116.829 339.134 115.304 342.583 113.794C337.372 118.206 330.621 120.737 323.811 120.856C328.682 124.053 334.574 125.652 340.392 125.371C327.927 130.182 312.811 132.299 301.264 124.305C297.326 121.581 294.602 116.592 294.246 111.81C293.832 112.136 293.403 112.461 292.988 112.802" fill="#091D5B"/>
<path d="M311.909 160.887C309.629 162.056 310.858 160.62 307.038 162.012C301.516 164.025 298.126 163.063 298.126 163.063C298.126 163.063 302.286 166.202 308.622 165.772C310.887 165.624 314.367 164.395 315.196 161.716C315.092 161.301 313.404 160.665 311.909 160.887Z" fill="#FC5959"/>
<path d="M287.806 125.948C284.046 128.702 282.284 133.454 281.751 138.088C281.218 142.722 281.736 147.385 281.544 152.034C280.789 147.592 278.76 143.492 277.413 139.213C276.066 134.935 275.429 130.093 277.398 126.052" fill="#091D5B"/>
<path d="M275.993 130.73C274.867 133.129 275.267 135.941 275.844 138.532C276.422 141.123 277.147 143.788 276.614 146.379C276.97 144.957 277.355 143.551 277.695 142.13C278.065 140.62 277.754 140.25 277.192 138.843C276.141 136.297 275.726 133.469 275.993 130.73Z" fill="#05163F"/>
<path d="M316.38 127.932C314.648 127.606 312.694 127.991 310.887 127.666C308.992 127.325 307.157 126.748 305.41 125.963C302.064 124.453 298.763 122.04 296.69 118.975C302.449 123.461 309.2 126.585 316.38 127.932Z" fill="#05163F"/>
<path d="M319.829 117.584C323.352 118.99 327.142 119.716 330.932 119.701C328.741 120.249 326.239 120.649 323.974 120.456C323.101 120.382 322.449 120.16 321.709 119.642C321.087 119.212 320.362 117.806 319.829 117.584Z" fill="#05163F"/>
<path d="M211.652 211.652C209.15 214.997 207.611 218.995 206.619 223.066C207.433 219.75 210.631 216.034 212.763 213.428C215.102 210.571 218.714 208.321 220.787 205.508C218.048 204.175 213.074 209.757 211.652 211.652Z" fill="#05163F"/>
<path d="M230.321 169.518C227.449 174.744 223.481 179.259 220.062 184.145C216.642 189.03 213.71 194.523 213.37 200.474C216.953 195.07 222.001 190.792 225.88 185.581C229.226 181.095 231.639 175.913 233.001 170.495C234.081 166.172 235.769 158.503 233.756 154.284C234.303 159.673 232.927 164.795 230.321 169.518Z" fill="#05163F"/>
<path d="M285.571 124.66C288.103 124.35 290.012 122.055 290.679 119.597C291.3 117.303 291.049 114.889 290.767 112.565C290.427 114.771 289.909 116.918 289.035 118.99C288.606 119.967 286.741 124.512 285.571 124.66Z" fill="#18367F"/>
<path d="M311.079 103.283C314.025 104.704 316.394 107.28 317.549 110.33C313.567 107.99 309.421 105.933 305.158 104.186C303.115 103.357 302.36 102.394 305.084 102.024C307.023 101.743 309.362 102.454 311.079 103.283Z" fill="#18367F"/>
<path d="M312.634 112.106C317.179 114.638 320.14 119.36 324.625 122.01C320.687 120.559 317.312 117.954 313.907 115.526C310.828 113.335 307.719 111.514 304.136 110.315C306.801 109.649 310.324 110.803 312.634 112.106Z" fill="#18367F"/>
<path d="M235.102 100.588C232.985 104.364 232.201 108.731 231.816 113.054C233.755 109.501 235.828 106.022 238.004 102.617C239.336 100.544 241.113 98.6342 243.052 97.0353C243.837 96.3987 245.332 95.7474 245.613 94.7258C245.91 93.6303 245.184 93.0825 244.103 93.2898C242.845 93.5415 241.601 94.1337 240.521 94.7999C238.256 96.1915 236.405 98.2641 235.102 100.588Z" fill="#18367F"/>
<path d="M274.705 158.888C275.793 158.888 276.674 158.007 276.674 156.919C276.674 155.832 275.793 154.95 274.705 154.95C273.618 154.95 272.736 155.832 272.736 156.919C272.736 158.007 273.618 158.888 274.705 158.888Z" fill="#E2B442"/>
<path d="M221.067 372.828C223.155 368.55 222.992 363.25 220.668 359.09C220.076 358.024 219.335 357.002 219.098 355.803C218.669 353.686 219.883 351.643 220.683 349.629C223.066 343.634 221.556 336.291 217.026 331.716C219.913 323.396 222.829 314.424 220.446 305.956C219.928 304.12 219.158 302.329 219.039 300.419C218.847 297.547 220.12 294.823 220.919 292.055C222.311 287.258 222.311 282.077 220.919 277.28C219.972 274.008 218.373 270.796 218.536 267.391C218.669 264.652 219.913 262.12 220.757 259.529C222.933 252.764 222.207 245.125 218.817 238.892C218.817 238.892 216.374 244.162 216.374 262.668C216.374 281.173 216.108 315.461 216.108 315.461C216.108 315.461 216.108 348.771 215.856 352.472C215.605 356.173 218.817 367.528 219.306 369.497C219.809 371.466 221.067 372.828 221.067 372.828Z" fill="#008CFF"/>
</g>
<defs>
<linearGradient id="paint0_linear" x1="294" y1="0" x2="294" y2="381" gradientUnits="userSpaceOnUse">
<stop stop-color="white"/>
<stop offset="1" stop-color="white" stop-opacity="0"/>
</linearGradient>
</defs>
</svg>
