<?xml version="1.0" encoding="UTF-8" standalone="no"?>
<!DOCTYPE svg PUBLIC "-//W3C//DTD SVG 1.1//EN"
 "http://www.w3.org/Graphics/SVG/1.1/DTD/svg11.dtd">
<!-- Generated by graphviz version 2.38.0 (20140413.2041)
 -->
<!-- Title: G Pages: 1 -->
<svg width="882pt" height="4319pt"
 viewBox="0.00 0.00 882.16 4318.57" xmlns="http://www.w3.org/2000/svg" xmlns:xlink="http://www.w3.org/1999/xlink">
<g id="graph0" class="graph" transform="scale(1 1) rotate(0) translate(4 4314.57)">
<title>G</title>
<polygon fill="white" stroke="none" points="-4,4 -4,-4314.57 878.161,-4314.57 878.161,4 -4,4"/>
<g id="clust1" class="cluster"><title>cluster_Global</title>
<path fill="none" stroke="gray" d="M309.074,-990.574C309.074,-990.574 854.161,-990.574 854.161,-990.574 860.161,-990.574 866.161,-996.574 866.161,-1002.57 866.161,-1002.57 866.161,-4290.57 866.161,-4290.57 866.161,-4296.57 860.161,-4302.57 854.161,-4302.57 854.161,-4302.57 309.074,-4302.57 309.074,-4302.57 303.074,-4302.57 297.074,-4296.57 297.074,-4290.57 297.074,-4290.57 297.074,-1002.57 297.074,-1002.57 297.074,-996.574 303.074,-990.574 309.074,-990.574"/>
<text text-anchor="middle" x="581.618" y="-4289.77" font-family="Times New Roman,serif" font-size="11.00" fill="gray">Global</text>
</g>
<!-- \\CPAC_Deprecated_Storage_Model_MLA -->
<g id="node1" class="node"><title>\\CPAC_Deprecated_Storage_Model_MLA</title>
<polygon fill="none" stroke="black" points="837.661,-4220.57 598.661,-4220.57 598.661,-4184.57 837.661,-4184.57 837.661,-4220.57"/>
<text text-anchor="middle" x="718.161" y="-4199.77" font-family="Courier,monospace" font-size="11.00">CPAC_Deprecated_Storage_Model_MLA</text>
</g>
<!-- \\CPAC_Storage_Model -->
<g id="node63" class="node"><title>\\CPAC_Storage_Model</title>
<ellipse fill="none" stroke="black" cx="360.574" cy="-964.574" rx="98.5829" ry="18"/>
<text text-anchor="middle" x="360.574" y="-960.874" font-family="Times New Roman,serif" font-size="14.00" fill="gray">\CPAC_Storage_Model</text>
</g>
<!-- \\CPAC_Deprecated_Storage_Model_MLA&#45;&gt;\\CPAC_Storage_Model -->
<g id="edge1" class="edge"><title>\\CPAC_Deprecated_Storage_Model_MLA&#45;&gt;\\CPAC_Storage_Model</title>
<path fill="none" stroke="black" d="M598.593,-4192.19C590.909,-4187.88 583.947,-4182.43 578.161,-4175.57 463.896,-4040.12 623.17,-1119.66 506.161,-986.574 495.778,-974.764 481.957,-967.381 466.968,-962.973"/>
<polygon fill="none" stroke="black" points="467.523,-959.505 456.974,-960.49 465.835,-966.298 467.523,-959.505"/>
</g>
<!-- \\ACP_Addon_MLA_Editing_Strategy -->
<g id="node2" class="node"><title>\\ACP_Addon_MLA_Editing_Strategy</title>
<polygon fill="none" stroke="black" points="827.661,-4166.57 608.661,-4166.57 608.661,-4130.57 827.661,-4130.57 827.661,-4166.57"/>
<text text-anchor="middle" x="718.161" y="-4145.77" font-family="Courier,monospace" font-size="11.00">ACP_Addon_MLA_Editing_Strategy</text>
</g>
<!-- \\ACP_Editing_Strategy_Post -->
<g id="node64" class="node"><title>\\ACP_Editing_Strategy_Post</title>
<ellipse fill="none" stroke="black" cx="360.574" cy="-910.574" rx="117.779" ry="18"/>
<text text-anchor="middle" x="360.574" y="-906.874" font-family="Times New Roman,serif" font-size="14.00" fill="gray">\ACP_Editing_Strategy_Post</text>
</g>
<!-- \\ACP_Addon_MLA_Editing_Strategy&#45;&gt;\\ACP_Editing_Strategy_Post -->
<g id="edge2" class="edge"><title>\\ACP_Addon_MLA_Editing_Strategy&#45;&gt;\\ACP_Editing_Strategy_Post</title>
<path fill="none" stroke="black" d="M608.402,-4142.94C596.829,-4138.13 586.325,-4131.25 578.161,-4121.57 464.073,-3986.34 620.739,-1072.4 506.161,-937.574 499.779,-930.064 492.036,-924.205 483.486,-919.67"/>
<polygon fill="none" stroke="black" points="484.851,-916.445 474.307,-915.409 481.903,-922.794 484.851,-916.445"/>
</g>
<!-- \\AC_Addon_MLA_ListScreen -->
<g id="node3" class="node"><title>\\AC_Addon_MLA_ListScreen</title>
<polygon fill="none" stroke="black" points="804.161,-4112.57 632.161,-4112.57 632.161,-4076.57 804.161,-4076.57 804.161,-4112.57"/>
<text text-anchor="middle" x="718.161" y="-4091.77" font-family="Courier,monospace" font-size="11.00">AC_Addon_MLA_ListScreen</text>
</g>
<!-- \\AC_ListScreen_Media -->
<g id="node65" class="node"><title>\\AC_ListScreen_Media</title>
<ellipse fill="none" stroke="black" cx="360.574" cy="-856.574" rx="96.6831" ry="18"/>
<text text-anchor="middle" x="360.574" y="-852.874" font-family="Times New Roman,serif" font-size="14.00" fill="gray">\AC_ListScreen_Media</text>
</g>
<!-- \\AC_Addon_MLA_ListScreen&#45;&gt;\\AC_ListScreen_Media -->
<g id="edge3" class="edge"><title>\\AC_Addon_MLA_ListScreen&#45;&gt;\\AC_ListScreen_Media</title>
<path fill="none" stroke="black" d="M631.993,-4095.91C611.485,-4091.89 591.635,-4083.55 578.161,-4067.57 464.073,-3932.34 620.739,-1018.4 506.161,-883.574 495.988,-871.603 482.353,-863.826 467.509,-858.919"/>
<polygon fill="none" stroke="black" points="468.18,-855.471 457.604,-856.094 466.26,-862.202 468.18,-855.471"/>
</g>
<!-- \\ACP_Addon_MLA_Editing_Model_Media_Title -->
<g id="node4" class="node"><title>\\ACP_Addon_MLA_Editing_Model_Media_Title</title>
<polygon fill="none" stroke="black" points="858.161,-4058.57 578.161,-4058.57 578.161,-4022.57 858.161,-4022.57 858.161,-4058.57"/>
<text text-anchor="middle" x="718.161" y="-4037.77" font-family="Courier,monospace" font-size="11.00">ACP_Addon_MLA_Editing_Model_Media_Title</text>
</g>
<!-- \\ACP_Editing_Model_Media_Title -->
<g id="node66" class="node"><title>\\ACP_Editing_Model_Media_Title</title>
<ellipse fill="none" stroke="black" cx="360.574" cy="-802.574" rx="137.576" ry="18"/>
<text text-anchor="middle" x="360.574" y="-798.874" font-family="Times New Roman,serif" font-size="14.00" fill="gray">\ACP_Editing_Model_Media_Title</text>
</g>
<!-- \\ACP_Addon_MLA_Editing_Model_Media_Title&#45;&gt;\\ACP_Editing_Model_Media_Title -->
<g id="edge4" class="edge"><title>\\ACP_Addon_MLA_Editing_Model_Media_Title&#45;&gt;\\ACP_Editing_Model_Media_Title</title>
<path fill="none" stroke="black" d="M587.244,-4022.5C583.98,-4019.83 580.935,-4016.86 578.161,-4013.57 464.073,-3878.34 620.739,-964.398 506.161,-829.574 501.821,-824.466 496.85,-820.122 491.424,-816.439"/>
<polygon fill="none" stroke="black" points="492.935,-813.266 482.548,-811.179 489.367,-819.288 492.935,-813.266"/>
</g>
<!-- \\ACP_Addon_MLA_Column_Title -->
<g id="node5" class="node"><title>\\ACP_Addon_MLA_Column_Title</title>
<polygon fill="none" stroke="black" points="814.161,-3950.57 622.161,-3950.57 622.161,-3914.57 814.161,-3914.57 814.161,-3950.57"/>
<text text-anchor="middle" x="718.161" y="-3929.77" font-family="Courier,monospace" font-size="11.00">ACP_Addon_MLA_Column_Title</text>
</g>
<!-- \\AC_Column_Media_Title -->
<g id="node67" class="node"><title>\\AC_Column_Media_Title</title>
<ellipse fill="none" stroke="black" cx="360.574" cy="-694.574" rx="107.781" ry="18"/>
<text text-anchor="middle" x="360.574" y="-690.874" font-family="Times New Roman,serif" font-size="14.00" fill="gray">\AC_Column_Media_Title</text>
</g>
<!-- \\ACP_Addon_MLA_Column_Title&#45;&gt;\\AC_Column_Media_Title -->
<g id="edge5" class="edge"><title>\\ACP_Addon_MLA_Column_Title&#45;&gt;\\AC_Column_Media_Title</title>
<path fill="none" stroke="black" d="M621.939,-3931.55C605.12,-3926.93 589.416,-3918.91 578.161,-3905.57 464.073,-3770.34 620.739,-856.398 506.161,-721.574 498.281,-712.301 488.324,-705.545 477.336,-700.69"/>
<polygon fill="none" stroke="black" points="478.477,-697.378 467.887,-697.045 475.958,-703.909 478.477,-697.378"/>
</g>
<!-- \\ACP_Column_EditingInterface -->
<g id="node68" class="node"><title>\\ACP_Column_EditingInterface</title>
<ellipse fill="none" stroke="black" cx="360.574" cy="-478.574" rx="126.978" ry="18"/>
<text text-anchor="middle" x="360.574" y="-474.874" font-family="Times New Roman,serif" font-size="14.00" fill="gray">\ACP_Column_EditingInterface</text>
</g>
<!-- \\ACP_Addon_MLA_Column_Title&#45;&gt;\\ACP_Column_EditingInterface -->
<g id="edge6" class="edge"><title>\\ACP_Addon_MLA_Column_Title&#45;&gt;\\ACP_Column_EditingInterface</title>
<path fill="none" stroke="black" stroke-dasharray="1,5" d="M621.924,-3931.57C605.106,-3926.94 589.406,-3918.92 578.161,-3905.57 456.44,-3761.08 628.405,-649.628 506.161,-505.574 500.818,-499.277 494.516,-494.14 487.584,-489.97"/>
<polygon fill="none" stroke="black" points="488.971,-486.745 478.491,-485.192 485.715,-492.942 488.971,-486.745"/>
</g>
<!-- \\ACP_Addon_MLA_Column_Parent -->
<g id="node6" class="node"><title>\\ACP_Addon_MLA_Column_Parent</title>
<polygon fill="none" stroke="black" points="817.661,-4004.57 618.661,-4004.57 618.661,-3968.57 817.661,-3968.57 817.661,-4004.57"/>
<text text-anchor="middle" x="718.161" y="-3983.77" font-family="Courier,monospace" font-size="11.00">ACP_Addon_MLA_Column_Parent</text>
</g>
<!-- \\AC_Column_Media_Parent -->
<g id="node69" class="node"><title>\\AC_Column_Media_Parent</title>
<ellipse fill="none" stroke="black" cx="360.574" cy="-748.574" rx="114.28" ry="18"/>
<text text-anchor="middle" x="360.574" y="-744.874" font-family="Times New Roman,serif" font-size="14.00" fill="gray">\AC_Column_Media_Parent</text>
</g>
<!-- \\ACP_Addon_MLA_Column_Parent&#45;&gt;\\AC_Column_Media_Parent -->
<g id="edge7" class="edge"><title>\\ACP_Addon_MLA_Column_Parent&#45;&gt;\\AC_Column_Media_Parent</title>
<path fill="none" stroke="black" d="M618.403,-3984.53C602.93,-3979.78 588.623,-3971.98 578.161,-3959.57 464.073,-3824.34 620.739,-910.398 506.161,-775.574 499.269,-767.464 490.789,-761.279 481.419,-756.607"/>
<polygon fill="none" stroke="black" points="482.752,-753.37 472.187,-752.578 479.953,-759.786 482.752,-753.37"/>
</g>
<!-- \\ACP_Addon_MLA_Column_MenuOrder -->
<g id="node7" class="node"><title>\\ACP_Addon_MLA_Column_MenuOrder</title>
<polygon fill="none" stroke="black" points="827.661,-3896.57 608.661,-3896.57 608.661,-3860.57 827.661,-3860.57 827.661,-3896.57"/>
<text text-anchor="middle" x="718.161" y="-3875.77" font-family="Courier,monospace" font-size="11.00">ACP_Addon_MLA_Column_MenuOrder</text>
</g>
<!-- \\ACP_Addon_MLA_Column_MenuOrder&#45;&gt;\\ACP_Column_EditingInterface -->
<g id="edge9" class="edge"><title>\\ACP_Addon_MLA_Column_MenuOrder&#45;&gt;\\ACP_Column_EditingInterface</title>
<path fill="none" stroke="black" stroke-dasharray="1,5" d="M608.392,-3872.95C596.821,-3868.13 586.32,-3861.26 578.161,-3851.57 458.348,-3709.39 626.489,-647.321 506.161,-505.574 500.816,-499.278 494.514,-494.141 487.582,-489.972"/>
<polygon fill="none" stroke="black" points="488.968,-486.747 478.488,-485.194 485.713,-492.944 488.968,-486.747"/>
</g>
<!-- \\AC_Column -->
<g id="node70" class="node"><title>\\AC_Column</title>
<ellipse fill="none" stroke="black" cx="360.574" cy="-640.574" rx="59.5901" ry="18"/>
<text text-anchor="middle" x="360.574" y="-636.874" font-family="Times New Roman,serif" font-size="14.00" fill="gray">\AC_Column</text>
</g>
<!-- \\ACP_Addon_MLA_Column_MenuOrder&#45;&gt;\\AC_Column -->
<g id="edge8" class="edge"><title>\\ACP_Addon_MLA_Column_MenuOrder&#45;&gt;\\AC_Column</title>
<path fill="none" stroke="black" d="M608.402,-3872.94C596.829,-3868.13 586.325,-3861.25 578.161,-3851.57 464.073,-3716.34 620.739,-802.398 506.161,-667.574 487.31,-645.392 456.576,-637.611 428.281,-635.805"/>
<polygon fill="none" stroke="black" points="428.125,-632.296 417.993,-635.394 427.845,-639.29 428.125,-632.296"/>
</g>
<!-- \\ACP_Addon_MLA_Column_AltText -->
<g id="node8" class="node"><title>\\ACP_Addon_MLA_Column_AltText</title>
<polygon fill="none" stroke="black" points="821.161,-3842.57 615.161,-3842.57 615.161,-3806.57 821.161,-3806.57 821.161,-3842.57"/>
<text text-anchor="middle" x="718.161" y="-3821.77" font-family="Courier,monospace" font-size="11.00">ACP_Addon_MLA_Column_AltText</text>
</g>
<!-- \\ACP_Addon_MLA_Column_AltText&#45;&gt;\\ACP_Column_EditingInterface -->
<g id="edge11" class="edge"><title>\\ACP_Addon_MLA_Column_AltText&#45;&gt;\\ACP_Column_EditingInterface</title>
<path fill="none" stroke="black" stroke-dasharray="1,5" d="M614.9,-3821.4C600.778,-3816.57 587.827,-3809.04 578.161,-3797.57 460.256,-3657.71 624.572,-645.013 506.161,-505.574 500.815,-499.279 494.512,-494.143 487.579,-489.974"/>
<polygon fill="none" stroke="black" points="488.965,-486.749 478.485,-485.197 485.71,-492.946 488.965,-486.749"/>
</g>
<!-- \\ACP_Column_Media_AlternateText -->
<g id="node71" class="node"><title>\\ACP_Column_Media_AlternateText</title>
<ellipse fill="none" stroke="black" cx="360.574" cy="-586.574" rx="145.674" ry="18"/>
<text text-anchor="middle" x="360.574" y="-582.874" font-family="Times New Roman,serif" font-size="14.00" fill="gray">\ACP_Column_Media_AlternateText</text>
</g>
<!-- \\ACP_Addon_MLA_Column_AltText&#45;&gt;\\ACP_Column_Media_AlternateText -->
<g id="edge10" class="edge"><title>\\ACP_Addon_MLA_Column_AltText&#45;&gt;\\ACP_Column_Media_AlternateText</title>
<path fill="none" stroke="black" d="M614.908,-3821.39C600.784,-3816.57 587.831,-3809.04 578.161,-3797.57 464.073,-3662.34 620.739,-748.398 506.161,-613.574 502.337,-609.074 498.024,-605.167 493.342,-601.782"/>
<polygon fill="none" stroke="black" points="494.867,-598.607 484.541,-596.239 491.137,-604.53 494.867,-598.607"/>
</g>
<!-- \\ACP_Addon_MLA_Column_Caption -->
<g id="node9" class="node"><title>\\ACP_Addon_MLA_Column_Caption</title>
<polygon fill="none" stroke="black" points="821.161,-3788.57 615.161,-3788.57 615.161,-3752.57 821.161,-3752.57 821.161,-3788.57"/>
<text text-anchor="middle" x="718.161" y="-3767.77" font-family="Courier,monospace" font-size="11.00">ACP_Addon_MLA_Column_Caption</text>
</g>
<!-- \\ACP_Addon_MLA_Column_Caption&#45;&gt;\\ACP_Column_EditingInterface -->
<g id="edge13" class="edge"><title>\\ACP_Addon_MLA_Column_Caption&#45;&gt;\\ACP_Column_EditingInterface</title>
<path fill="none" stroke="black" stroke-dasharray="1,5" d="M614.904,-3767.4C600.781,-3762.57 587.829,-3755.04 578.161,-3743.57 462.165,-3606.02 622.656,-642.706 506.161,-505.574 500.814,-499.28 494.51,-494.145 487.576,-489.977"/>
<polygon fill="none" stroke="black" points="488.962,-486.751 478.481,-485.2 485.707,-492.948 488.962,-486.751"/>
</g>
<!-- \\ACP_Column_Media_Caption -->
<g id="node72" class="node"><title>\\ACP_Column_Media_Caption</title>
<ellipse fill="none" stroke="black" cx="360.574" cy="-532.574" rx="126.178" ry="18"/>
<text text-anchor="middle" x="360.574" y="-528.874" font-family="Times New Roman,serif" font-size="14.00" fill="gray">\ACP_Column_Media_Caption</text>
</g>
<!-- \\ACP_Addon_MLA_Column_Caption&#45;&gt;\\ACP_Column_Media_Caption -->
<g id="edge12" class="edge"><title>\\ACP_Addon_MLA_Column_Caption&#45;&gt;\\ACP_Column_Media_Caption</title>
<path fill="none" stroke="black" d="M614.908,-3767.39C600.784,-3762.57 587.831,-3755.04 578.161,-3743.57 464.073,-3608.34 620.739,-694.398 506.161,-559.574 500.813,-553.281 494.508,-548.146 487.574,-543.979"/>
<polygon fill="none" stroke="black" points="488.959,-540.753 478.478,-539.203 485.704,-546.951 488.959,-540.753"/>
</g>
<!-- \\ACP_Addon_MLA_Column_Description -->
<g id="node10" class="node"><title>\\ACP_Addon_MLA_Column_Description</title>
<polygon fill="none" stroke="black" points="834.661,-3734.57 601.661,-3734.57 601.661,-3698.57 834.661,-3698.57 834.661,-3734.57"/>
<text text-anchor="middle" x="718.161" y="-3713.77" font-family="Courier,monospace" font-size="11.00">ACP_Addon_MLA_Column_Description</text>
</g>
<!-- \\ACP_Addon_MLA_Column_Description&#45;&gt;\\ACP_Column_EditingInterface -->
<g id="edge15" class="edge"><title>\\ACP_Addon_MLA_Column_Description&#45;&gt;\\ACP_Column_EditingInterface</title>
<path fill="none" stroke="black" stroke-dasharray="1,5" d="M601.468,-3707.73C592.643,-3703.21 584.661,-3697.28 578.161,-3689.57 464.073,-3554.34 620.739,-640.398 506.161,-505.574 500.813,-499.281 494.508,-494.146 487.574,-489.979"/>
<polygon fill="none" stroke="black" points="488.959,-486.753 478.478,-485.203 485.704,-492.951 488.959,-486.753"/>
</g>
<!-- \\AC_Column_Media_Description -->
<g id="node73" class="node"><title>\\AC_Column_Media_Description</title>
<ellipse fill="none" stroke="black" cx="360.574" cy="-424.574" rx="133.776" ry="18"/>
<text text-anchor="middle" x="360.574" y="-420.874" font-family="Times New Roman,serif" font-size="14.00" fill="gray">\AC_Column_Media_Description</text>
</g>
<!-- \\ACP_Addon_MLA_Column_Description&#45;&gt;\\AC_Column_Media_Description -->
<g id="edge14" class="edge"><title>\\ACP_Addon_MLA_Column_Description&#45;&gt;\\AC_Column_Media_Description</title>
<path fill="none" stroke="black" d="M601.465,-3707.73C592.641,-3703.21 584.659,-3697.28 578.161,-3689.57 462.165,-3552.02 622.656,-588.706 506.161,-451.574 501.496,-446.082 496.103,-441.473 490.198,-437.619"/>
<polygon fill="none" stroke="black" points="491.628,-434.406 481.206,-432.497 488.163,-440.488 491.628,-434.406"/>
</g>
<!-- \\ACP_Addon_MLA_Column_MimeType -->
<g id="node11" class="node"><title>\\ACP_Addon_MLA_Column_MimeType</title>
<polygon fill="none" stroke="black" points="824.161,-3680.57 612.161,-3680.57 612.161,-3644.57 824.161,-3644.57 824.161,-3680.57"/>
<text text-anchor="middle" x="718.161" y="-3659.77" font-family="Courier,monospace" font-size="11.00">ACP_Addon_MLA_Column_MimeType</text>
</g>
<!-- \\ACP_Addon_MLA_Column_MimeType&#45;&gt;\\ACP_Column_EditingInterface -->
<g id="edge17" class="edge"><title>\\ACP_Addon_MLA_Column_MimeType&#45;&gt;\\ACP_Column_EditingInterface</title>
<path fill="none" stroke="black" stroke-dasharray="1,5" d="M612.149,-3658.41C599.103,-3653.56 587.199,-3646.28 578.161,-3635.57 465.981,-3502.65 618.823,-638.091 506.161,-505.574 500.812,-499.282 494.506,-494.148 487.571,-489.981"/>
<polygon fill="none" stroke="black" points="488.955,-486.755 478.475,-485.206 485.702,-492.953 488.955,-486.755"/>
</g>
<!-- \\AC_Column_Media_MimeType -->
<g id="node74" class="node"><title>\\AC_Column_Media_MimeType</title>
<ellipse fill="none" stroke="black" cx="360.574" cy="-370.574" rx="131.077" ry="18"/>
<text text-anchor="middle" x="360.574" y="-366.874" font-family="Times New Roman,serif" font-size="14.00" fill="gray">\AC_Column_Media_MimeType</text>
</g>
<!-- \\ACP_Addon_MLA_Column_MimeType&#45;&gt;\\AC_Column_Media_MimeType -->
<g id="edge16" class="edge"><title>\\ACP_Addon_MLA_Column_MimeType&#45;&gt;\\AC_Column_Media_MimeType</title>
<path fill="none" stroke="black" d="M612.141,-3658.41C599.096,-3653.57 587.195,-3646.29 578.161,-3635.57 462.165,-3498.02 622.656,-534.706 506.161,-397.574 501.217,-391.754 495.455,-386.925 489.133,-382.935"/>
<polygon fill="none" stroke="black" points="490.637,-379.768 480.19,-378.001 487.255,-385.897 490.637,-379.768"/>
</g>
<!-- \\ACP_Addon_MLA_Column_Date -->
<g id="node12" class="node"><title>\\ACP_Addon_MLA_Column_Date</title>
<polygon fill="none" stroke="black" points="810.661,-3410.57 625.661,-3410.57 625.661,-3374.57 810.661,-3374.57 810.661,-3410.57"/>
<text text-anchor="middle" x="718.161" y="-3389.77" font-family="Courier,monospace" font-size="11.00">ACP_Addon_MLA_Column_Date</text>
</g>
<!-- \\ACP_Column_Media_Date -->
<g id="node75" class="node"><title>\\ACP_Column_Media_Date</title>
<ellipse fill="none" stroke="black" cx="360.574" cy="-262.574" rx="113.98" ry="18"/>
<text text-anchor="middle" x="360.574" y="-258.874" font-family="Times New Roman,serif" font-size="14.00" fill="gray">\ACP_Column_Media_Date</text>
</g>
<!-- \\ACP_Addon_MLA_Column_Date&#45;&gt;\\ACP_Column_Media_Date -->
<g id="edge18" class="edge"><title>\\ACP_Addon_MLA_Column_Date&#45;&gt;\\ACP_Column_Media_Date</title>
<path fill="none" stroke="black" d="M625.516,-3392.47C607.361,-3388.03 590.214,-3379.85 578.161,-3365.57 467.889,-3234.96 616.907,-419.784 506.161,-289.574 499.203,-281.393 490.629,-275.171 481.157,-270.486"/>
<polygon fill="none" stroke="black" points="482.392,-267.207 471.824,-266.451 479.614,-273.632 482.392,-267.207"/>
</g>
<!-- \\ACP_Addon_MLA_Column_Author -->
<g id="node13" class="node"><title>\\ACP_Addon_MLA_Column_Author</title>
<polygon fill="none" stroke="black" points="817.661,-3626.57 618.661,-3626.57 618.661,-3590.57 817.661,-3590.57 817.661,-3626.57"/>
<text text-anchor="middle" x="718.161" y="-3605.77" font-family="Courier,monospace" font-size="11.00">ACP_Addon_MLA_Column_Author</text>
</g>
<!-- \\ACP_Addon_MLA_Column_Author&#45;&gt;\\ACP_Column_EditingInterface -->
<g id="edge20" class="edge"><title>\\ACP_Addon_MLA_Column_Author&#45;&gt;\\ACP_Column_EditingInterface</title>
<path fill="none" stroke="black" stroke-dasharray="1,5" d="M618.411,-3606.52C602.937,-3601.77 588.628,-3593.97 578.161,-3581.57 467.889,-3450.96 616.907,-635.784 506.161,-505.574 500.811,-499.283 494.504,-494.15 487.568,-489.984"/>
<polygon fill="none" stroke="black" points="488.952,-486.757 478.471,-485.209 485.699,-492.955 488.952,-486.757"/>
</g>
<!-- \\AC_Column_Media_Author -->
<g id="node76" class="node"><title>\\AC_Column_Media_Author</title>
<ellipse fill="none" stroke="black" cx="360.574" cy="-316.574" rx="116.979" ry="18"/>
<text text-anchor="middle" x="360.574" y="-312.874" font-family="Times New Roman,serif" font-size="14.00" fill="gray">\AC_Column_Media_Author</text>
</g>
<!-- \\ACP_Addon_MLA_Column_Author&#45;&gt;\\AC_Column_Media_Author -->
<g id="edge19" class="edge"><title>\\ACP_Addon_MLA_Column_Author&#45;&gt;\\AC_Column_Media_Author</title>
<path fill="none" stroke="black" d="M618.399,-3606.53C602.926,-3601.78 588.621,-3593.98 578.161,-3581.57 462.165,-3444.02 622.656,-480.706 506.161,-343.574 499.72,-335.991 491.889,-330.091 483.242,-325.537"/>
<polygon fill="none" stroke="black" points="484.506,-322.266 473.959,-321.264 481.58,-328.625 484.506,-322.266"/>
</g>
<!-- \\MLA_Ajax -->
<g id="node14" class="node"><title>\\MLA_Ajax</title>
<polygon fill="none" stroke="black" points="753.661,-3572.57 682.661,-3572.57 682.661,-3536.57 753.661,-3536.57 753.661,-3572.57"/>
<text text-anchor="middle" x="718.161" y="-3551.77" font-family="Courier,monospace" font-size="11.00">MLA_Ajax</text>
</g>
<!-- \\MLACoreOptions -->
<g id="node15" class="node"><title>\\MLACoreOptions</title>
<polygon fill="none" stroke="black" points="773.661,-3518.57 662.661,-3518.57 662.661,-3482.57 773.661,-3482.57 773.661,-3518.57"/>
<text text-anchor="middle" x="718.161" y="-3497.77" font-family="Courier,monospace" font-size="11.00">MLACoreOptions</text>
</g>
<!-- \\MLACore -->
<g id="node16" class="node"><title>\\MLACore</title>
<polygon fill="none" stroke="black" points="750.161,-3464.57 686.161,-3464.57 686.161,-3428.57 750.161,-3428.57 750.161,-3464.57"/>
<text text-anchor="middle" x="718.161" y="-3443.77" font-family="Courier,monospace" font-size="11.00">MLACore</text>
</g>
<!-- \\MLA_Checklist_Walker -->
<g id="node17" class="node"><title>\\MLA_Checklist_Walker</title>
<polygon fill="none" stroke="black" points="794.161,-2600.57 642.161,-2600.57 642.161,-2564.57 794.161,-2564.57 794.161,-2600.57"/>
<text text-anchor="middle" x="718.161" y="-2579.77" font-family="Courier,monospace" font-size="11.00">MLA_Checklist_Walker</text>
</g>
<!-- \\Walker_Category -->
<g id="node77" class="node"><title>\\Walker_Category</title>
<ellipse fill="none" stroke="black" cx="360.574" cy="-208.574" rx="77.1866" ry="18"/>
<text text-anchor="middle" x="360.574" y="-204.874" font-family="Times New Roman,serif" font-size="14.00" fill="gray">\Walker_Category</text>
</g>
<!-- \\MLA_Checklist_Walker&#45;&gt;\\Walker_Category -->
<g id="edge21" class="edge"><title>\\MLA_Checklist_Walker&#45;&gt;\\Walker_Category</title>
<path fill="none" stroke="black" d="M641.879,-2585.43C618.047,-2582.26 593.853,-2574.02 578.161,-2555.57 411.036,-2359.15 673.997,-431.392 506.161,-235.574 491.179,-218.094 468.816,-209.577 446.13,-205.878"/>
<polygon fill="none" stroke="black" points="446.434,-202.388 436.06,-204.539 445.511,-209.327 446.434,-202.388"/>
</g>
<!-- \\MLAPDF -->
<g id="node18" class="node"><title>\\MLAPDF</title>
<polygon fill="none" stroke="black" points="746.661,-3356.57 689.661,-3356.57 689.661,-3320.57 746.661,-3320.57 746.661,-3356.57"/>
<text text-anchor="middle" x="718.161" y="-3335.77" font-family="Courier,monospace" font-size="11.00">MLAPDF</text>
</g>
<!-- \\MLAQuery -->
<g id="node19" class="node"><title>\\MLAQuery</title>
<polygon fill="none" stroke="black" points="753.661,-3302.57 682.661,-3302.57 682.661,-3266.57 753.661,-3266.57 753.661,-3302.57"/>
<text text-anchor="middle" x="718.161" y="-3281.77" font-family="Courier,monospace" font-size="11.00">MLAQuery</text>
</g>
<!-- \\MLAReferences -->
<g id="node20" class="node"><title>\\MLAReferences</title>
<polygon fill="none" stroke="black" points="770.161,-3248.57 666.161,-3248.57 666.161,-3212.57 770.161,-3212.57 770.161,-3248.57"/>
<text text-anchor="middle" x="718.161" y="-3227.77" font-family="Courier,monospace" font-size="11.00">MLAReferences</text>
</g>
<!-- \\MLAData_Source -->
<g id="node21" class="node"><title>\\MLAData_Source</title>
<polygon fill="none" stroke="black" points="773.661,-3194.57 662.661,-3194.57 662.661,-3158.57 773.661,-3158.57 773.661,-3194.57"/>
<text text-anchor="middle" x="718.161" y="-3173.77" font-family="Courier,monospace" font-size="11.00">MLAData_Source</text>
</g>
<!-- \\MLAData -->
<g id="node22" class="node"><title>\\MLAData</title>
<polygon fill="none" stroke="black" points="750.161,-3140.57 686.161,-3140.57 686.161,-3104.57 750.161,-3104.57 750.161,-3140.57"/>
<text text-anchor="middle" x="718.161" y="-3119.77" font-family="Courier,monospace" font-size="11.00">MLAData</text>
</g>
<!-- \\MLAEdit -->
<g id="node23" class="node"><title>\\MLAEdit</title>
<polygon fill="none" stroke="black" points="750.161,-3086.57 686.161,-3086.57 686.161,-3050.57 750.161,-3050.57 750.161,-3086.57"/>
<text text-anchor="middle" x="718.161" y="-3065.77" font-family="Courier,monospace" font-size="11.00">MLAEdit</text>
</g>
<!-- \\MLAFileDownloader -->
<g id="node24" class="node"><title>\\MLAFileDownloader</title>
<polygon fill="none" stroke="black" points="783.661,-3032.57 652.661,-3032.57 652.661,-2996.57 783.661,-2996.57 783.661,-3032.57"/>
<text text-anchor="middle" x="718.161" y="-3011.77" font-family="Courier,monospace" font-size="11.00">MLAFileDownloader</text>
</g>
<!-- \\MLAImageProcessor -->
<g id="node25" class="node"><title>\\MLAImageProcessor</title>
<polygon fill="none" stroke="black" points="783.661,-2978.57 652.661,-2978.57 652.661,-2942.57 783.661,-2942.57 783.661,-2978.57"/>
<text text-anchor="middle" x="718.161" y="-2957.77" font-family="Courier,monospace" font-size="11.00">MLAImageProcessor</text>
</g>
<!-- \\MLAMutex -->
<g id="node26" class="node"><title>\\MLAMutex</title>
<polygon fill="none" stroke="black" points="753.661,-2924.57 682.661,-2924.57 682.661,-2888.57 753.661,-2888.57 753.661,-2924.57"/>
<text text-anchor="middle" x="718.161" y="-2903.77" font-family="Courier,monospace" font-size="11.00">MLAMutex</text>
</g>
<!-- \\MLA_List_Table -->
<g id="node27" class="node"><title>\\MLA_List_Table</title>
<polygon fill="none" stroke="black" points="416.074,-2655.57 305.074,-2655.57 305.074,-2619.57 416.074,-2619.57 416.074,-2655.57"/>
<text text-anchor="middle" x="360.574" y="-2634.77" font-family="Courier,monospace" font-size="11.00">MLA_List_Table</text>
</g>
<!-- \\WP_List_Table -->
<g id="node78" class="node"><title>\\WP_List_Table</title>
<ellipse fill="none" stroke="black" cx="71.4937" cy="-108.574" rx="71.4873" ry="18"/>
<text text-anchor="middle" x="71.4937" y="-104.874" font-family="Times New Roman,serif" font-size="14.00" fill="gray">\WP_List_Table</text>
</g>
<!-- \\MLA_List_Table&#45;&gt;\\WP_List_Table -->
<g id="edge22" class="edge"><title>\\MLA_List_Table&#45;&gt;\\WP_List_Table</title>
<path fill="none" stroke="black" d="M357.509,-2619.38C333.386,-2406.87 105.528,-399.589 75.7072,-136.884"/>
<polygon fill="none" stroke="black" points="79.1516,-136.195 74.546,-126.654 72.1963,-136.985 79.1516,-136.195"/>
</g>
<!-- \\MLA -->
<g id="node28" class="node"><title>\\MLA</title>
<polygon fill="none" stroke="black" points="745.161,-2870.57 691.161,-2870.57 691.161,-2834.57 745.161,-2834.57 745.161,-2870.57"/>
<text text-anchor="middle" x="718.161" y="-2849.77" font-family="Courier,monospace" font-size="11.00">MLA</text>
</g>
<!-- \\MLAModal_Ajax -->
<g id="node29" class="node"><title>\\MLAModal_Ajax</title>
<polygon fill="none" stroke="black" points="770.161,-2816.57 666.161,-2816.57 666.161,-2780.57 770.161,-2780.57 770.161,-2816.57"/>
<text text-anchor="middle" x="718.161" y="-2795.77" font-family="Courier,monospace" font-size="11.00">MLAModal_Ajax</text>
</g>
<!-- \\MLAModal -->
<g id="node30" class="node"><title>\\MLAModal</title>
<polygon fill="none" stroke="black" points="753.661,-2762.57 682.661,-2762.57 682.661,-2726.57 753.661,-2726.57 753.661,-2762.57"/>
<text text-anchor="middle" x="718.161" y="-2741.77" font-family="Courier,monospace" font-size="11.00">MLAModal</text>
</g>
<!-- \\MLAMime -->
<g id="node31" class="node"><title>\\MLAMime</title>
<polygon fill="none" stroke="black" points="750.161,-2708.57 686.161,-2708.57 686.161,-2672.57 750.161,-2672.57 750.161,-2708.57"/>
<text text-anchor="middle" x="718.161" y="-2687.77" font-family="Courier,monospace" font-size="11.00">MLAMime</text>
</g>
<!-- \\MLAObjects -->
<g id="node32" class="node"><title>\\MLAObjects</title>
<polygon fill="none" stroke="black" points="760.161,-2654.57 676.161,-2654.57 676.161,-2618.57 760.161,-2618.57 760.161,-2654.57"/>
<text text-anchor="middle" x="718.161" y="-2633.77" font-family="Courier,monospace" font-size="11.00">MLAObjects</text>
</g>
<!-- \\MLATextWidget -->
<g id="node33" class="node"><title>\\MLATextWidget</title>
<polygon fill="none" stroke="black" points="770.161,-2330.57 666.161,-2330.57 666.161,-2294.57 770.161,-2294.57 770.161,-2330.57"/>
<text text-anchor="middle" x="718.161" y="-2309.77" font-family="Courier,monospace" font-size="11.00">MLATextWidget</text>
</g>
<!-- \\WP_Widget -->
<g id="node79" class="node"><title>\\WP_Widget</title>
<ellipse fill="none" stroke="black" cx="360.574" cy="-154.574" rx="58.4896" ry="18"/>
<text text-anchor="middle" x="360.574" y="-150.874" font-family="Times New Roman,serif" font-size="14.00" fill="gray">\WP_Widget</text>
</g>
<!-- \\MLATextWidget&#45;&gt;\\WP_Widget -->
<g id="edge23" class="edge"><title>\\MLATextWidget&#45;&gt;\\WP_Widget</title>
<path fill="none" stroke="black" d="M666.09,-2317.08C635.801,-2316.71 599.309,-2310.35 578.161,-2285.57 426.297,-2107.66 658.67,-358.936 506.161,-181.574 486.959,-159.243 455.711,-151.553 427.169,-149.844"/>
<polygon fill="none" stroke="black" points="426.924,-146.333 416.804,-149.47 426.671,-153.329 426.924,-146.333"/>
</g>
<!-- \\MLAOptions -->
<g id="node34" class="node"><title>\\MLAOptions</title>
<polygon fill="none" stroke="black" points="760.161,-2546.57 676.161,-2546.57 676.161,-2510.57 760.161,-2510.57 760.161,-2546.57"/>
<text text-anchor="middle" x="718.161" y="-2525.77" font-family="Courier,monospace" font-size="11.00">MLAOptions</text>
</g>
<!-- \\MLA_Polylang_Shortcodes -->
<g id="node35" class="node"><title>\\MLA_Polylang_Shortcodes</title>
<polygon fill="none" stroke="black" points="804.161,-2492.57 632.161,-2492.57 632.161,-2456.57 804.161,-2456.57 804.161,-2492.57"/>
<text text-anchor="middle" x="718.161" y="-2471.77" font-family="Courier,monospace" font-size="11.00">MLA_Polylang_Shortcodes</text>
</g>
<!-- \\MLA_Polylang -->
<g id="node36" class="node"><title>\\MLA_Polylang</title>
<polygon fill="none" stroke="black" points="767.161,-2438.57 669.161,-2438.57 669.161,-2402.57 767.161,-2402.57 767.161,-2438.57"/>
<text text-anchor="middle" x="718.161" y="-2417.77" font-family="Courier,monospace" font-size="11.00">MLA_Polylang</text>
</g>
<!-- \\MLASettings_CustomFields -->
<g id="node37" class="node"><title>\\MLASettings_CustomFields</title>
<polygon fill="none" stroke="black" points="807.661,-2384.57 628.661,-2384.57 628.661,-2348.57 807.661,-2348.57 807.661,-2384.57"/>
<text text-anchor="middle" x="718.161" y="-2363.77" font-family="Courier,monospace" font-size="11.00">MLASettings_CustomFields</text>
</g>
<!-- \\MLA_Custom_Fields_List_Table -->
<g id="node38" class="node"><title>\\MLA_Custom_Fields_List_Table</title>
<polygon fill="none" stroke="black" points="821.161,-2168.57 615.161,-2168.57 615.161,-2132.57 821.161,-2132.57 821.161,-2168.57"/>
<text text-anchor="middle" x="718.161" y="-2147.77" font-family="Courier,monospace" font-size="11.00">MLA_Custom_Fields_List_Table</text>
</g>
<!-- \\MLA_Custom_Fields_List_Table&#45;&gt;\\WP_List_Table -->
<g id="edge24" class="edge"><title>\\MLA_Custom_Fields_List_Table&#45;&gt;\\WP_List_Table</title>
<path fill="none" stroke="black" d="M615.041,-2147.28C600.901,-2142.47 587.908,-2134.97 578.161,-2123.57 433.927,-1954.92 655.489,-291.741 506.161,-127.574 462.55,-79.6284 411.247,-150.208 361.574,-108.574"/>
</g>
<!-- \\MLA_Custom_Field_Query -->
<g id="node39" class="node"><title>\\MLA_Custom_Field_Query</title>
<polygon fill="none" stroke="black" points="800.661,-2276.57 635.661,-2276.57 635.661,-2240.57 800.661,-2240.57 800.661,-2276.57"/>
<text text-anchor="middle" x="718.161" y="-2255.77" font-family="Courier,monospace" font-size="11.00">MLA_Custom_Field_Query</text>
</g>
<!-- \\MLASettings_Documentation -->
<g id="node40" class="node"><title>\\MLASettings_Documentation</title>
<polygon fill="none" stroke="black" points="810.661,-2222.57 625.661,-2222.57 625.661,-2186.57 810.661,-2186.57 810.661,-2222.57"/>
<text text-anchor="middle" x="718.161" y="-2201.77" font-family="Courier,monospace" font-size="11.00">MLASettings_Documentation</text>
</g>
<!-- \\MLA_Example_List_Table -->
<g id="node41" class="node"><title>\\MLA_Example_List_Table</title>
<polygon fill="none" stroke="black" points="800.661,-2114.57 635.661,-2114.57 635.661,-2078.57 800.661,-2078.57 800.661,-2114.57"/>
<text text-anchor="middle" x="718.161" y="-2093.77" font-family="Courier,monospace" font-size="11.00">MLA_Example_List_Table</text>
</g>
<!-- \\MLA_Example_List_Table&#45;&gt;\\WP_List_Table -->
<g id="edge25" class="edge"><title>\\MLA_Example_List_Table&#45;&gt;\\WP_List_Table</title>
<path fill="none" stroke="black" d="M359.574,-108.574C328.155,-82.2392 218.562,-89.7513 144.244,-98.4839"/>
<polygon fill="none" stroke="black" points="143.511,-95.0469 134.003,-99.7208 144.351,-101.996 143.511,-95.0469"/>
<path fill="none" stroke="black" d="M635.408,-2098.38C613.763,-2094.62 592.47,-2086.29 578.161,-2069.57 437.741,-1905.54 651.534,-287.233 506.161,-127.574 462.526,-79.6502 411.247,-150.208 361.574,-108.574"/>
</g>
<!-- \\MLA_Upgrader_Skin -->
<g id="node42" class="node"><title>\\MLA_Upgrader_Skin</title>
<polygon fill="none" stroke="black" points="783.661,-1952.57 652.661,-1952.57 652.661,-1916.57 783.661,-1916.57 783.661,-1952.57"/>
<text text-anchor="middle" x="718.161" y="-1931.77" font-family="Courier,monospace" font-size="11.00">MLA_Upgrader_Skin</text>
</g>
<!-- \\WP_Upgrader_Skin -->
<g id="node80" class="node"><title>\\WP_Upgrader_Skin</title>
<ellipse fill="none" stroke="black" cx="360.574" cy="-62.5741" rx="87.1846" ry="18"/>
<text text-anchor="middle" x="360.574" y="-58.8741" font-family="Times New Roman,serif" font-size="14.00" fill="gray">\WP_Upgrader_Skin</text>
</g>
<!-- \\MLA_Upgrader_Skin&#45;&gt;\\WP_Upgrader_Skin -->
<g id="edge26" class="edge"><title>\\MLA_Upgrader_Skin&#45;&gt;\\WP_Upgrader_Skin</title>
<path fill="none" stroke="black" d="M652.437,-1938.44C625.457,-1936.38 596.254,-1928.65 578.161,-1907.57 446.854,-1754.6 635.473,-249.243 506.161,-94.5741 493.804,-79.7934 476.292,-70.924 457.702,-65.7717"/>
<polygon fill="none" stroke="black" points="458.446,-62.3509 447.904,-63.4046 456.802,-69.1551 458.446,-62.3509"/>
</g>
<!-- \\MLASettings_IPTCEXIF -->
<g id="node43" class="node"><title>\\MLASettings_IPTCEXIF</title>
<polygon fill="none" stroke="black" points="794.161,-2060.57 642.161,-2060.57 642.161,-2024.57 794.161,-2024.57 794.161,-2060.57"/>
<text text-anchor="middle" x="718.161" y="-2039.77" font-family="Courier,monospace" font-size="11.00">MLASettings_IPTCEXIF</text>
</g>
<!-- \\MLASettings_Shortcodes -->
<g id="node44" class="node"><title>\\MLASettings_Shortcodes</title>
<polygon fill="none" stroke="black" points="800.661,-2006.57 635.661,-2006.57 635.661,-1970.57 800.661,-1970.57 800.661,-2006.57"/>
<text text-anchor="middle" x="718.161" y="-1985.77" font-family="Courier,monospace" font-size="11.00">MLASettings_Shortcodes</text>
</g>
<!-- \\MLA_Template_List_Table -->
<g id="node45" class="node"><title>\\MLA_Template_List_Table</title>
<polygon fill="none" stroke="black" points="804.161,-1790.57 632.161,-1790.57 632.161,-1754.57 804.161,-1754.57 804.161,-1790.57"/>
<text text-anchor="middle" x="718.161" y="-1769.77" font-family="Courier,monospace" font-size="11.00">MLA_Template_List_Table</text>
</g>
<!-- \\MLA_Template_List_Table&#45;&gt;\\WP_List_Table -->
<g id="edge27" class="edge"><title>\\MLA_Template_List_Table&#45;&gt;\\WP_List_Table</title>
<path fill="none" stroke="black" d="M631.838,-1773.66C611.458,-1769.61 591.71,-1761.32 578.161,-1745.57 454.13,-1601.42 634.545,-175.865 506.161,-35.5741 462.406,12.2401 417.878,-48.6785 361.574,-16.5741"/>
</g>
<!-- \\MLA_Template_Query -->
<g id="node46" class="node"><title>\\MLA_Template_Query</title>
<polygon fill="none" stroke="black" points="787.161,-1898.57 649.161,-1898.57 649.161,-1862.57 787.161,-1862.57 787.161,-1898.57"/>
<text text-anchor="middle" x="718.161" y="-1877.77" font-family="Courier,monospace" font-size="11.00">MLA_Template_Query</text>
</g>
<!-- \\MLASettings_Upload -->
<g id="node47" class="node"><title>\\MLASettings_Upload</title>
<polygon fill="none" stroke="black" points="787.161,-1844.57 649.161,-1844.57 649.161,-1808.57 787.161,-1808.57 787.161,-1844.57"/>
<text text-anchor="middle" x="718.161" y="-1823.77" font-family="Courier,monospace" font-size="11.00">MLASettings_Upload</text>
</g>
<!-- \\MLA_Upload_List_Table -->
<g id="node48" class="node"><title>\\MLA_Upload_List_Table</title>
<polygon fill="none" stroke="black" points="797.161,-1736.57 639.161,-1736.57 639.161,-1700.57 797.161,-1700.57 797.161,-1736.57"/>
<text text-anchor="middle" x="718.161" y="-1715.77" font-family="Courier,monospace" font-size="11.00">MLA_Upload_List_Table</text>
</g>
<!-- \\MLA_Upload_List_Table&#45;&gt;\\WP_List_Table -->
<g id="edge28" class="edge"><title>\\MLA_Upload_List_Table&#45;&gt;\\WP_List_Table</title>
<path fill="none" stroke="black" d="M639.105,-1720.91C616.235,-1717.46 593.325,-1709.17 578.161,-1691.57 457.944,-1552.05 630.591,-171.358 506.161,-35.5741 462.373,12.2101 417.878,-48.6785 361.574,-16.5741"/>
</g>
<!-- \\MLA_Upload_Optional_List_Table -->
<g id="node49" class="node"><title>\\MLA_Upload_Optional_List_Table</title>
<polygon fill="none" stroke="black" points="827.661,-1628.57 608.661,-1628.57 608.661,-1592.57 827.661,-1592.57 827.661,-1628.57"/>
<text text-anchor="middle" x="718.161" y="-1607.77" font-family="Courier,monospace" font-size="11.00">MLA_Upload_Optional_List_Table</text>
</g>
<!-- \\MLA_Upload_Optional_List_Table&#45;&gt;\\WP_List_Table -->
<g id="edge29" class="edge"><title>\\MLA_Upload_Optional_List_Table&#45;&gt;\\WP_List_Table</title>
<path fill="none" stroke="black" d="M608.622,-1604.75C597.013,-1599.97 586.44,-1593.15 578.161,-1583.57 465.571,-1453.3 622.684,-162.343 506.161,-35.5741 462.301,12.1437 417.878,-48.6785 361.574,-16.5741"/>
</g>
<!-- \\MLASettings_View -->
<g id="node50" class="node"><title>\\MLASettings_View</title>
<polygon fill="none" stroke="black" points="780.661,-1682.57 655.661,-1682.57 655.661,-1646.57 780.661,-1646.57 780.661,-1682.57"/>
<text text-anchor="middle" x="718.161" y="-1661.77" font-family="Courier,monospace" font-size="11.00">MLASettings_View</text>
</g>
<!-- \\MLA_View_List_Table -->
<g id="node51" class="node"><title>\\MLA_View_List_Table</title>
<polygon fill="none" stroke="black" points="790.661,-1196.57 645.661,-1196.57 645.661,-1160.57 790.661,-1160.57 790.661,-1196.57"/>
<text text-anchor="middle" x="718.161" y="-1175.77" font-family="Courier,monospace" font-size="11.00">MLA_View_List_Table</text>
</g>
<!-- \\MLA_View_List_Table&#45;&gt;\\WP_List_Table -->
<g id="edge30" class="edge"><title>\\MLA_View_List_Table&#45;&gt;\\WP_List_Table</title>
<path fill="none" stroke="black" d="M359.574,-16.5741C272.182,33.257 154.179,-43.6099 100.802,-85.0065"/>
<polygon fill="none" stroke="black" points="98.4839,-82.3771 92.8044,-91.3211 102.822,-87.8709 98.4839,-82.3771"/>
<path fill="none" stroke="black" d="M645.484,-1181.54C620.658,-1178.67 594.889,-1170.58 578.161,-1151.57 413.98,-965.015 675.974,-217.023 506.161,-35.5741 461.874,11.7482 417.878,-48.6785 361.574,-16.5741"/>
</g>
<!-- \\MLASettings -->
<g id="node52" class="node"><title>\\MLASettings</title>
<polygon fill="none" stroke="black" points="763.661,-1574.57 672.661,-1574.57 672.661,-1538.57 763.661,-1538.57 763.661,-1574.57"/>
<text text-anchor="middle" x="718.161" y="-1553.77" font-family="Courier,monospace" font-size="11.00">MLASettings</text>
</g>
<!-- \\MLAShortcode_Support -->
<g id="node53" class="node"><title>\\MLAShortcode_Support</title>
<polygon fill="none" stroke="black" points="794.161,-1520.57 642.161,-1520.57 642.161,-1484.57 794.161,-1484.57 794.161,-1520.57"/>
<text text-anchor="middle" x="718.161" y="-1499.77" font-family="Courier,monospace" font-size="11.00">MLAShortcode_Support</text>
</g>
<!-- \\MLAShortcodes -->
<g id="node54" class="node"><title>\\MLAShortcodes</title>
<polygon fill="none" stroke="black" points="770.161,-1466.57 666.161,-1466.57 666.161,-1430.57 770.161,-1430.57 770.161,-1466.57"/>
<text text-anchor="middle" x="718.161" y="-1445.77" font-family="Courier,monospace" font-size="11.00">MLAShortcodes</text>
</g>
<!-- \\MLATemplate_Support -->
<g id="node55" class="node"><title>\\MLATemplate_Support</title>
<polygon fill="none" stroke="black" points="790.661,-1412.57 645.661,-1412.57 645.661,-1376.57 790.661,-1376.57 790.661,-1412.57"/>
<text text-anchor="middle" x="718.161" y="-1391.77" font-family="Courier,monospace" font-size="11.00">MLATemplate_Support</text>
</g>
<!-- \\MLA_Thumbnail -->
<g id="node56" class="node"><title>\\MLA_Thumbnail</title>
<polygon fill="none" stroke="black" points="770.161,-1358.57 666.161,-1358.57 666.161,-1322.57 770.161,-1322.57 770.161,-1358.57"/>
<text text-anchor="middle" x="718.161" y="-1337.77" font-family="Courier,monospace" font-size="11.00">MLA_Thumbnail</text>
</g>
<!-- \\MLA_WPML_Shortcodes -->
<g id="node57" class="node"><title>\\MLA_WPML_Shortcodes</title>
<polygon fill="none" stroke="black" points="790.661,-1304.57 645.661,-1304.57 645.661,-1268.57 790.661,-1268.57 790.661,-1304.57"/>
<text text-anchor="middle" x="718.161" y="-1283.77" font-family="Courier,monospace" font-size="11.00">MLA_WPML_Shortcodes</text>
</g>
<!-- \\MLA_WPML -->
<g id="node58" class="node"><title>\\MLA_WPML</title>
<polygon fill="none" stroke="black" points="753.661,-1250.57 682.661,-1250.57 682.661,-1214.57 753.661,-1214.57 753.661,-1250.57"/>
<text text-anchor="middle" x="718.161" y="-1229.77" font-family="Courier,monospace" font-size="11.00">MLA_WPML</text>
</g>
<!-- \\MLA_WPML_List_Table -->
<g id="node59" class="node"><title>\\MLA_WPML_List_Table</title>
<polygon fill="none" stroke="black" points="790.661,-4274.57 645.661,-4274.57 645.661,-4238.57 790.661,-4238.57 790.661,-4274.57"/>
<text text-anchor="middle" x="718.161" y="-4253.77" font-family="Courier,monospace" font-size="11.00">MLA_WPML_List_Table</text>
</g>
<!-- \\MLA_WPML_List_Table&#45;&gt;\\MLA_List_Table -->
<g id="edge31" class="edge"><title>\\MLA_WPML_List_Table&#45;&gt;\\MLA_List_Table</title>
<path fill="none" stroke="black" d="M645.473,-4258.8C620.947,-4255.79 595.383,-4247.8 578.161,-4229.57 465.706,-4110.56 377.333,-2870.57 363.47,-2666.06"/>
<polygon fill="none" stroke="black" points="366.946,-2665.58 362.781,-2655.83 359.961,-2666.05 366.946,-2665.58"/>
</g>
<!-- \\MLA_WPML_Table -->
<g id="node60" class="node"><title>\\MLA_WPML_Table</title>
<polygon fill="none" stroke="black" points="773.661,-1142.57 662.661,-1142.57 662.661,-1106.57 773.661,-1106.57 773.661,-1142.57"/>
<text text-anchor="middle" x="718.161" y="-1121.77" font-family="Courier,monospace" font-size="11.00">MLA_WPML_Table</text>
</g>
<!-- \\MLAUninstall -->
<g id="node61" class="node"><title>\\MLAUninstall</title>
<polygon fill="none" stroke="black" points="767.161,-1088.57 669.161,-1088.57 669.161,-1052.57 767.161,-1052.57 767.161,-1088.57"/>
<text text-anchor="middle" x="718.161" y="-1067.77" font-family="Courier,monospace" font-size="11.00">MLAUninstall</text>
</g>
<!-- \\MLATest -->
<g id="node62" class="node"><title>\\MLATest</title>
<polygon fill="none" stroke="black" points="750.161,-1034.57 686.161,-1034.57 686.161,-998.574 750.161,-998.574 750.161,-1034.57"/>
<text text-anchor="middle" x="718.161" y="-1013.77" font-family="Courier,monospace" font-size="11.00">MLATest</text>
</g>
</g>
</svg>
