<?xml version="1.0" standalone="no"?>
<!DOCTYPE svg PUBLIC "-//W3C//DTD SVG 1.1//EN" "http://www.w3.org/Graphics/SVG/1.1/DTD/svg11.dtd" >
<svg xmlns="http://www.w3.org/2000/svg">
<metadata>Generated by IcoMoon</metadata>
<defs>
<font id="wpDataTablesIcons" horiz-adv-x="1024">
<font-face units-per-em="1024" ascent="896" descent="-128" />
<missing-glyph horiz-adv-x="1024" />
<glyph unicode="&#x20;" d="" />
<glyph unicode="&#xe001;" glyph-name="glyph" horiz-adv-x="537" d="M0 169.984l351.232 351.232-351.232 351.232 93.184 92.16 444.416-443.392-444.416-444.416z" />
<glyph unicode="&#xe002;" glyph-name="glyph-1" horiz-adv-x="537" d="M0 521.216l444.416 443.392 93.184-92.16-351.232-351.232 351.232-351.232-93.184-93.184z" />
<glyph unicode="&#xe003;" glyph-name="glyph-2" horiz-adv-x="888" d="M0 169.984l351.232 351.232-351.232 351.232 93.184 92.16 444.416-443.392-444.416-444.416zM351.232 169.984l350.208 351.232-350.208 351.232 93.184 92.16 443.392-443.392-443.392-444.416z" />
<glyph unicode="&#xe004;" glyph-name="glyph-3" horiz-adv-x="888" d="M0 521.216l444.416 443.392 93.184-92.16-350.208-351.232 350.208-351.232-93.184-93.184zM351.232 521.216l444.416 443.392 92.16-92.16-350.208-351.232 350.208-351.232-92.16-93.184z" />
<glyph unicode="&#xe005;" glyph-name="glyph-4" horiz-adv-x="888" d="M0 164.864l356.352 356.352-356.352 356.352 88.064 87.040 356.352-356.352 356.352 356.352 87.040-87.040-356.352-356.352 356.352-356.352-87.040-88.064-356.352 356.352-356.352-356.352z" />
<glyph unicode="&#xe006;" glyph-name="glyph-6" horiz-adv-x="888" d="M0 436.224v168.96h359.424v359.424h168.96v-359.424h359.424v-168.96h-359.424v-359.424h-168.96v359.424h-359.424z" />
<glyph unicode="&#xe007;" glyph-name="glyph-5" horiz-adv-x="888" d="M0 437.248v167.936h887.808v-167.936h-887.808z" />
<glyph unicode="&#xe008;" glyph-name="glyph-7" horiz-adv-x="888" d="M0 312.32l208.896 172.032 153.6-159.744q77.824 122.88 233.472 280.576t291.84 244.736q-26.624-94.208-26.624-207.872 0-38.912 4.096-63.488-140.288-88.064-271.36-218.112t-231.424-283.648q-60.416 86.016-161.792 146.432t-200.704 89.088z" />
<glyph unicode="&#xe009;" glyph-name="glyph-9" horiz-adv-x="888" d="M0 521.216q0 47.104 9.216 88.064l124.928-38.912q-4.096-33.792-4.096-49.152 0-129.024 91.136-223.232l-75.776-105.472q-68.608 63.488-107.52 147.456t-37.888 181.248zM39.936 703.488q47.104 105.472 142.336 175.104t212.992 82.944v-130.048q-75.776-12.288-136.192-57.344t-95.232-111.616zM224.256 134.144l77.824 106.496q66.56-33.792 142.336-33.792t141.312 33.792l77.824-106.496q-101.376-57.344-219.136-57.344t-220.16 57.344zM493.568 831.488v130.048q117.76-13.312 212.992-82.944t142.336-175.104l-124.928-40.96q-33.792 67.584-95.232 111.616t-135.168 57.344zM666.624 297.984q92.16 94.208 92.16 223.232 0 15.36-4.096 49.152l123.904 38.912q9.216-40.96 9.216-88.064 0-96.256-37.888-181.248t-106.496-147.456z" />
<glyph unicode="&#xe00a;" glyph-name="glyph-8" horiz-adv-x="888" d="M0 842.752v121.856h887.808v-121.856l-354.304-340.992v-316.416l-179.2-108.544v424.96zM276.48 763.904l167.936-159.744 166.912 159.744h-334.848z" />
<glyph unicode="&#xe00b;" glyph-name="glyph-10" horiz-adv-x="767" d="M0 806.912q0 32.768 22.528 55.296t57.344 23.552h37.888q0 32.768 23.552 56.32t56.32 22.528h371.712q32.768 0 56.32-22.528t23.552-56.32h37.888q33.792 0 57.344-23.552t22.528-55.296h-766.976zM86.016 156.672v594.944h594.944v-594.944q0-33.792-22.528-57.344t-56.32-22.528h-437.248q-32.768 0-56.32 22.528t-22.528 57.344zM183.296 187.392q0-16.384 11.264-27.648t27.648-12.288 28.672 12.288 11.264 27.648v455.68q0 16.384-11.264 28.672t-28.672 11.264-27.648-11.264-11.264-28.672v-455.68zM344.064 187.392q0-16.384 11.264-27.648t28.672-12.288 27.648 12.288 11.264 27.648v455.68q0 16.384-11.264 28.672t-27.648 11.264-28.672-11.264-11.264-28.672v-455.68zM504.832 187.392q0-16.384 11.264-27.648t28.672-12.288 27.648 12.288 11.264 27.648v455.68q0 16.384-11.264 28.672t-27.648 11.264-28.672-11.264-11.264-28.672v-455.68z" />
<glyph unicode="&#xe00c;" glyph-name="glyph-11" horiz-adv-x="888" d="M0 76.8l80.896 245.76 484.352 484.352 164.864-163.84-485.376-485.376zM631.808 874.496l69.632 69.632q20.48 20.48 48.128 20.48t50.176-20.48l32.768-33.792 33.792-33.792q21.504-19.456 21.504-48.128 0-30.72-21.504-50.176l-68.608-69.632z" />
<glyph unicode="&#xe00d;" glyph-name="glyph-12" horiz-adv-x="888" d="M0 610.304q0 146.432 104.448 250.88t249.856 103.424 249.856-103.424 103.424-250.88q0-113.664-64.512-204.8l239.616-240.64q5.12-5.12 5.12-14.336 0-4.096-7.168-14.336-10.24-15.36-22.528-27.648-20.48-18.432-29.696-24.576l-13.312-7.168q-8.192 0-13.312 5.12l-241.664 241.664q-92.16-65.536-205.824-65.536-146.432 0-249.856 103.424t-104.448 248.832zM105.472 610.304q0-102.4 72.704-175.104t176.128-72.704q102.4 0 175.104 72.704t73.728 175.104q0 103.424-73.728 176.128t-175.104 72.704q-103.424 0-176.128-72.704t-72.704-176.128z" />
<glyph unicode="&#xe00e;" glyph-name="glyph-13" horiz-adv-x="888" d="M0 457.728v129.024q0 6.144 5.12 12.288t10.24 7.168l107.52 17.408q5.12 16.384 22.528 53.248-24.576 33.792-61.44 78.848-5.12 7.168-5.12 15.36 0 5.12 5.12 12.288 14.336 19.456 56.32 61.44t55.296 41.984q6.144 0 14.336-5.12l79.872-61.44q24.576 12.288 53.248 21.504 6.144 67.584 16.384 107.52 4.096 15.36 20.48 15.36h128q18.432 0 20.48-17.408l17.408-105.472q27.648-10.24 52.224-21.504l80.896 61.44q5.12 5.12 15.36 5.12 8.192 0 13.312-5.12 68.608-62.464 96.256-98.304 4.096-8.192 4.096-12.288 0-7.168-5.12-14.336-9.216-13.312-29.696-38.912t-30.72-39.936q15.36-31.744 23.552-56.32l105.472-17.408q16.384-2.048 16.384-20.48v-129.024q0-6.144-4.096-12.288t-11.264-7.168l-107.52-16.384q-8.192-25.6-21.504-52.224 22.528-34.816 61.44-80.896 5.12-7.168 5.12-14.336t-5.12-12.288q-15.36-20.48-56.32-62.464t-54.272-40.96q-8.192 0-16.384 5.12l-78.848 61.44q-25.6-12.288-53.248-22.528-6.144-67.584-17.408-107.52-4.096-15.36-20.48-15.36h-128q-18.432 0-20.48 17.408l-16.384 105.472q-28.672 11.264-52.224 22.528l-81.92-61.44q-5.12-5.12-13.312-5.12t-14.336 6.144q-67.584 57.344-96.256 97.28-4.096 8.192-4.096 12.288 0 6.144 5.12 13.312 10.24 13.312 30.72 39.936t29.696 39.936q-15.36 31.744-24.576 57.344l-105.472 15.36q-16.384 2.048-16.384 20.48zM258.048 521.216q0-76.8 55.296-131.072t131.072-55.296 131.072 55.296 54.272 131.072-54.272 131.072-131.072 54.272-131.072-54.272-55.296-131.072z" />
<glyph unicode="&#xe00f;" glyph-name="glyph-14" horiz-adv-x="888" d="M0 339.968v364.544q0 23.552 15.36 38.912t37.888 14.336h781.312q22.528 0 37.888-14.336t15.36-38.912v-364.544q0-21.504-15.36-37.888t-37.888-15.36h-155.648l-1.024-33.792-176.128-176.128h-292.864v209.92h-155.648q-21.504 0-37.888 15.36t-15.36 37.888zM208.896 820.224v144.384h470.016l-1.024-144.384h-468.992zM262.144 130.048h239.616v122.88h122.88v120.832h-362.496v-243.712zM716.8 617.472q0-15.36 10.24-25.6t25.6-10.24h33.792q15.36 0 24.576 10.24t10.24 25.6v33.792q0 15.36-10.24 24.576t-24.576 10.24h-33.792q-15.36 0-25.6-10.24t-10.24-24.576v-33.792z" />
<glyph unicode="&#xe010;" glyph-name="glyph-15" horiz-adv-x="888" d="M0 76.8v887.808h671.744v-216.064h216.064v-671.744h-887.808zM92.16 362.496h109.568l62.464 102.4 63.488-102.4h110.592l-108.544 163.84 98.304 153.6h-106.496l-55.296-97.28-56.32 97.28h-107.52l99.328-152.576zM529.408 234.496h93.184v81.92h-93.184v-81.92zM529.408 363.52h93.184v80.896h-93.184v-80.896zM529.408 491.52h93.184v81.92h-93.184v-81.92zM529.408 620.544h93.184v81.92h-93.184v-81.92zM529.408 748.544h93.184v82.944h-93.184v-82.944zM670.72 234.496h163.84v81.92h-163.84v-81.92zM670.72 363.52h163.84v80.896h-163.84v-80.896zM670.72 491.52h163.84v81.92h-163.84v-81.92zM670.72 620.544h163.84v81.92h-163.84v-81.92zM712.704 789.504v175.104l175.104-175.104h-175.104z" />
<glyph unicode="&#xe011;" glyph-name="glyph-16" horiz-adv-x="888" d="M0 120.832v710.656q0 17.408 13.312 30.72t30.72 13.312h70.656v-34.816q0-40.96 28.672-69.632t69.632-29.696h58.368q40.96 0 70.656 29.696t28.672 69.632v34.816h146.432v-34.816q0-40.96 29.696-69.632t69.632-29.696h58.368q40.96 0 69.632 29.696t28.672 69.632v34.816h71.68q17.408 0 30.72-13.312t12.288-30.72v-710.656q0-17.408-12.288-30.72t-30.72-13.312h-800.768q-17.408 0-30.72 13.312t-13.312 30.72zM72.704 149.504h742.4v495.616h-742.4v-495.616zM168.96 840.704v80.896q0 17.408 13.312 30.72t30.72 12.288h58.368q18.432 0 30.72-12.288t13.312-30.72v-80.896q0-17.408-13.312-30.72t-30.72-13.312h-58.368q-17.408 0-30.72 13.312t-13.312 30.72zM471.040 301.056v254.976h254.976v-254.976h-254.976zM532.48 363.52h131.072v130.048h-131.072v-130.048zM572.416 840.704v80.896q0 17.408 13.312 30.72t30.72 12.288h58.368q18.432 0 30.72-12.288t13.312-30.72v-80.896q0-17.408-13.312-30.72t-30.72-13.312h-58.368q-17.408 0-30.72 13.312t-13.312 30.72z" />
<glyph unicode="&#xe012;" glyph-name="glyph-17" horiz-adv-x="888" d="M0 120.832v710.656q0 17.408 13.312 30.72t30.72 13.312h70.656v-34.816q0-40.96 28.672-69.632t69.632-29.696h58.368q40.96 0 70.656 29.696t28.672 69.632v34.816h146.432v-34.816q0-40.96 29.696-69.632t69.632-29.696h58.368q40.96 0 69.632 29.696t28.672 69.632v34.816h71.68q17.408 0 30.72-13.312t12.288-30.72v-94.208l-48.128-30.72q-41.984-27.648-84.992-61.44h-681.984v-495.616h184.32q77.824-26.624 132.096-72.704h-345.088q-17.408 0-30.72 13.312t-13.312 30.72zM168.96 840.704v80.896q0 17.408 13.312 30.72t30.72 12.288h58.368q18.432 0 30.72-12.288t13.312-30.72v-80.896q0-17.408-13.312-30.72t-30.72-13.312h-58.368q-17.408 0-30.72 13.312t-13.312 30.72zM250.88 244.736l149.504 125.952 110.592-115.712q55.296 87.040 167.936 200.704t208.896 177.152q-19.456-64.512-19.456-147.456 0-30.72 4.096-48.128-101.376-62.464-195.584-155.648t-165.888-204.8q-44.032 60.416-115.712 104.448t-144.384 63.488zM572.416 840.704v80.896q0 17.408 13.312 30.72t30.72 12.288h58.368q18.432 0 30.72-12.288t13.312-30.72v-80.896q0-17.408-13.312-30.72t-30.72-13.312h-58.368q-17.408 0-30.72 13.312t-13.312 30.72zM618.496 76.8q37.888 50.176 58.368 72.704h138.24v136.192q41.984 34.816 72.704 55.296v-220.16q0-17.408-12.288-30.72t-30.72-13.312h-226.304z" />
<glyph unicode="&#xe013;" glyph-name="glyph-18" horiz-adv-x="888" d="M0 76.8v887.808h671.744v-216.064h216.064v-671.744h-887.808zM19.456 149.504q0-18.432 13.312-25.6l20.48-11.264q13.312-6.144 28.672-6.144 38.912 0 87.040 50.176t109.568 160.768q152.576 51.2 304.128 71.68 56.32-29.696 117.76-50.176t103.424-19.456q15.36 0 25.6 3.072 11.264 3.072 26.624 17.408 15.36 17.408 12.288 49.152-3.072 24.576-14.336 35.84-28.672 25.6-118.784 25.6-61.44 0-128-10.24-44.032 27.648-61.44 44.032-73.728 66.56-113.664 174.080 27.648 94.208 27.648 185.344 0 25.6-3.072 37.888-12.288 54.272-49.152 54.272h-14.336q-18.432 0-31.744-9.216t-18.432-23.552q-7.168-21.504-7.168-54.272 0-64.512 36.864-211.968l-7.168-18.432q-23.552-60.416-73.728-154.624l-2.048-7.168q-37.888-71.68-77.824-139.264-56.32-25.6-72.704-34.816-40.96-23.552-76.8-59.392t-41.984-63.488q-1.024-3.072-1.024-10.24zM69.632 145.408q9.216 22.528 36.864 56.32t66.56 67.584l21.504 18.432q-76.8-120.832-124.928-142.336zM303.104 365.568l36.864 66.56q32.768 63.488 63.488 139.264 43.008-77.824 105.472-131.072l16.384-13.312q-119.808-24.576-222.208-61.44zM395.264 847.872q0 26.624 4.096 50.176 0 7.168 3.072 10.24 8.192 0 15.36-10.24t9.216-28.672q1.024-9.216 1.024-27.648 0-64.512-19.456-104.448-3.072 8.192-8.192 48.128t-5.12 62.464zM685.056 401.408q41.984 2.048 57.344 2.048 47.104 0 69.632-7.168 32.768-10.24 32.768-18.432 0-13.312-24.576-13.312-48.128 0-135.168 36.864zM712.704 789.504v175.104l175.104-175.104h-175.104z" />
<glyph unicode="&#xe014;" glyph-name="glyph-19" horiz-adv-x="888" d="M0 76.8v887.808h671.744v-216.064h216.064v-671.744h-152.576l119.808 347.136-56.32 2.048-103.424-310.272-101.376 310.272h-56.32l116.736-349.184h-135.168q34.816 28.672 34.816 77.824 0 20.48-6.144 36.864t-20.48 28.672-23.552 19.456-27.648 17.408l-36.864 20.48q-20.48 11.264-28.672 17.408t-20.48 18.432-11.264 26.624q0 23.552 16.384 35.84t45.056 12.288q25.6 0 87.040-17.408v50.176q-33.792 11.264-83.968 11.264-54.272 0-89.088-24.576t-34.816-71.68q0-9.216 2.048-17.408t5.12-16.384 6.144-12.288 9.216-12.288 10.24-9.216 12.288-9.216 11.264-7.168 13.312-7.168 11.264-7.168l34.816-19.456q1.024-1.024 10.24-6.144t11.264-7.168 10.24-7.168 9.216-7.168 7.168-8.192 7.168-11.264 3.072-11.264 2.048-14.336q0-26.624-20.48-39.936t-51.2-14.336q-53.248 0-98.304 27.648v-41.984h-47.104v44.032q-43.008-29.696-86.016-29.696-99.328 0-99.328 160.768 0 136.192 78.848 136.192 59.392 0 59.392-63.488h62.464q0 48.128-31.744 77.824t-88.064 29.696q-140.288 0-140.288-188.416 0-118.784 58.368-166.912h-92.16zM712.704 789.504v175.104l175.104-175.104h-175.104z" />
<glyph unicode="&#xe015;" glyph-name="glyph-20" horiz-adv-x="888" d="M0 76.8v671.744h267.264v-522.24h285.696v-149.504h-552.96zM335.872 292.864v671.744h334.848v-217.088h217.088v-454.656h-551.936zM711.68 788.48v176.128l176.128-176.128h-176.128z" />
<glyph unicode="&#xe778;" glyph-name="install" horiz-adv-x="923" d="M905.216 338.944q24.576-53.248 14.336-98.304l-34.816-188.416q-2.048-20.48-19.456-35.84t-39.936-15.36h-729.088q-22.528 0-39.936 15.36t-19.456 35.84l-34.816 188.416q-8.192 51.2 14.336 98.304l161.792 382.976q22.528 47.104 73.728 47.104h106.496l-20.48-208.896h-137.216l260.096-215.040 262.144 215.040h-139.264l-18.432 208.896h104.448q51.2 0 75.776-47.104zM835.584 203.776q2.048 22.528-10.24 38.912t-34.816 16.384h-659.456q-22.528 0-34.816-16.384t-10.24-38.912l14.336-75.776q2.048-22.528 19.456-37.888t37.888-15.36h606.208q22.528 0 39.936 15.36t19.456 37.888z" />
<glyph unicode="&#xe817;" glyph-name="1493906635_delete_filter" d="M787.456 675.84c15.36 0 29.696-1.024 44.032-3.072l77.824 76.8c8.192 9.216 15.36 25.6 15.36 37.888v30.72c0 12.288-9.216 21.504-21.504 21.504h-852.992c-12.288 0-21.504-9.216-21.504-21.504v-30.72c0-12.288 6.144-28.672 15.36-37.888l74.752-74.752 247.808-248.832h155.648c8.192 139.264 123.904 249.856 265.216 249.856zM524.288 369.664h-157.696v-427.008c0-12.288 9.216-17.408 19.456-12.288l185.344 87.040c10.24 5.12 19.456 18.432 19.456 30.72v182.272c-34.816 37.888-58.368 86.016-66.56 139.264zM787.456 618.496c-114.688 0-207.872-93.184-207.872-208.896 0-114.688 93.184-207.872 207.872-207.872s207.872 93.184 207.872 207.872c0 115.712-93.184 208.896-207.872 208.896zM915.456 376.832h-256v66.56h256v-66.56z" />
<glyph unicode="&#xe818;" glyph-name="1493907529_pack06-16" d="M901.12 844.8h-778.24c-61.44 0-80.896-39.936-45.056-89.088l300.032-402.432c4.096-5.12 6.144-13.312 6.144-19.456v-378.88c0-29.696 20.48-40.96 46.080-23.552l182.272 126.976c15.36 11.264 27.648 34.816 27.648 53.248v223.232c0 5.12 3.072 13.312 6.144 18.432l300.032 402.432c35.84 49.152 16.384 89.088-45.056 89.088z" />
<glyph unicode="&#xe819;" glyph-name="1493907728_excel_d" d="M20.48 773.12v-761.856l560.128-99.328v960.512l-560.128-99.328zM343.040 231.424l-47.104 123.904-46.080-116.736h-64.512l74.752 162.816-69.632 159.744h66.56l41.984-110.592 51.2 119.808 63.488 3.072-79.872-171.008 82.944-176.128-73.728 5.12zM978.944 774.144h-378.88v-56.32h142.336v-100.352h-142.336v-29.696h142.336v-100.352h-142.336v-29.696h142.336v-100.352h-142.336v-30.72h142.336v-100.352h-142.336v-30.72h142.336v-100.352h-142.336v-64.512h378.88c10.24 0 19.456 9.216 19.456 20.48v702.464c0 11.264-9.216 20.48-19.456 20.48zM932.864 95.232h-160.768v100.352h160.768v-100.352zM932.864 226.304h-160.768v100.352h160.768v-100.352zM932.864 357.376h-160.768v100.352h160.768v-100.352zM932.864 487.424h-160.768v100.352h160.768v-100.352zM932.864 617.472h-160.768v100.352h160.768v-100.352z" />
<glyph unicode="&#xe81a;" glyph-name="csv-file-variant-with-graphs" d="M624.64-39.936c1.024 0 3.072 0 4.096 0h310.272c35.84 0 65.536 29.696 65.536 65.536v718.848c0 36.864-29.696 65.536-65.536 65.536h-310.272c-1.024 0-3.072 0-4.096 0v86.016l-605.184-80.896v-860.16l605.184-82.944v88.064zM624.64 265.216h100.352v-37.888h-100.352v37.888zM624.64 269.312v38.912h100.352v-38.912h-100.352zM624.64 312.32v44.032h100.352v-44.032h-100.352zM624.64 361.472v49.152h100.352v-49.152h-100.352zM624.64 414.72v46.080h100.352v-46.080h-100.352zM624.64 464.896v47.104h100.352v-47.104h-100.352zM628.736 773.12h310.272c15.36 0 27.648-13.312 27.648-28.672v-718.848c0-15.36-12.288-27.648-27.648-27.648h-310.272c-1.024 0-3.072 0-4.096 0v225.28h332.8v343.040h-332.8v205.824c1.024 1.024 3.072 1.024 4.096 1.024zM952.32 512v-283.648h-43.008v270.336h-30.72v-270.336h-24.576v241.664h-30.72v-241.664h-21.504v215.040h-30.72v-215.040h-41.984v283.648h223.232zM841.728 516.096v47.104h111.616v-43.008h-1.024v-4.096h-110.592zM837.632 516.096h-110.592v47.104h110.592v-47.104zM172.032 333.824c13.312 0 26.624 3.072 34.816 6.144l6.144-34.816c-7.168-4.096-24.576-8.192-47.104-7.168-61.44 2.048-92.16 43.008-92.16 97.28 0 64.512 41.984 101.376 96.256 103.424 21.504 0 37.888-4.096 46.080-8.192l-9.216-34.816c-8.192 3.072-20.48 6.144-34.816 6.144-31.744 0-57.344-21.504-57.344-64.512 0-37.888 21.504-62.464 57.344-63.488zM287.744 294.912c-21.504 0-43.008 7.168-53.248 13.312l8.192 36.864c11.264-6.144 29.696-13.312 48.128-13.312 19.456 0 30.72 8.192 30.72 21.504 0 12.288-9.216 19.456-32.768 28.672-31.744 11.264-52.224 29.696-52.224 58.368 0 33.792 26.624 60.416 72.704 61.44 21.504 1.024 38.912-4.096 50.176-9.216l-10.24-36.864c-8.192 4.096-21.504 9.216-40.96 9.216-19.456-1.024-28.672-9.216-28.672-20.48 0-12.288 11.264-18.432 36.864-27.648 34.816-13.312 51.2-31.744 51.2-60.416 0-34.816-25.6-63.488-79.872-61.44zM503.808 291.84l-56.32 2.048-66.56 206.848 51.2 1.024 25.6-88.064c7.168-24.576 13.312-48.128 18.432-74.752h1.024c6.144 25.6 12.288 50.176 19.456 74.752l27.648 90.112 53.248 2.048-73.728-214.016z" />
<glyph unicode="&#xe81b;" glyph-name="pdf-file-format-symbol" d="M282.624 465.92c-9.216-1.024-16.384-2.048-19.456-3.072v-131.072c3.072-1.024 9.216-1.024 15.36-1.024 40.96-1.024 67.584 21.504 67.584 70.656 0 41.984-24.576 64.512-63.488 64.512zM624.64-39.936c1.024 0 3.072 0 4.096 0h310.272c35.84 0 65.536 29.696 65.536 65.536v718.848c0 36.864-29.696 65.536-65.536 65.536h-310.272c-1.024 0-3.072 0-4.096 0v86.016l-605.184-80.896v-860.16l605.184-82.944v88.064zM939.008-2.048h-310.272c-1.024 0-3.072 0-4.096 0v282.624c64.512 11.264 154.624 19.456 231.424 1.024l9.216-17.408c37.888-70.656 76.8-69.632 92.16-66.56 4.096 1.024 5.12 2.048 5.12 2.048l2.048 1.024c1.024 0 2.048 1.024 2.048 1.024v-176.128c0-15.36-12.288-27.648-27.648-27.648zM651.264 313.344c48.128 59.392 87.040 114.688 112.64 152.576v0c20.48-41.984 53.248-106.496 75.776-150.528v0-2.048c-63.488 11.264-132.096 7.168-188.416-1.024v1.024zM764.928 589.824c2.048 3.072 5.12 4.096 10.24 4.096 0 0 10.24-1.024 14.336-7.168 2.048-4.096 5.12-17.408-12.288-49.152v0c0 0-3.072-4.096-7.168-11.264-10.24 34.816-9.216 56.32-5.12 63.488zM893.952 270.336c18.432-7.168 35.84-16.384 50.176-26.624 4.096-5.12 7.168-14.336 7.168-18.432 0 0 0 0 0 0-6.144-1.024-29.696-2.048-57.344 45.056zM628.736 773.12h310.272c15.36 0 27.648-13.312 27.648-28.672v-484.352c-1.024 1.024-1.024 2.048-2.048 3.072l-2.048 2.048c-24.576 17.408-53.248 31.744-87.040 40.96-23.552 46.080-72.704 142.336-93.184 187.392 12.288 18.432 18.432 28.672 18.432 29.696 19.456 32.768 23.552 59.392 12.288 76.8-9.216 16.384-27.648 21.504-36.864 22.528-15.36 0-28.672-6.144-35.84-18.432-10.24-19.456-8.192-53.248 7.168-99.328 1.024-2.048 2.048-5.12 3.072-8.192-24.576-37.888-68.608-101.376-125.952-171.008v446.464c1.024 1.024 3.072 1.024 4.096 1.024zM174.080 390.144c-13.312-14.336-34.816-20.48-59.392-20.48-5.12 0-10.24 0-13.312 1.024v-68.608l-39.936 1.024v188.416c12.288 2.048 29.696 4.096 54.272 5.12 25.6 1.024 44.032-4.096 56.32-14.336 11.264-10.24 19.456-26.624 19.456-45.056 0-19.456-6.144-35.84-17.408-47.104zM361.472 318.464c-21.504-17.408-54.272-24.576-93.184-23.552-22.528 1.024-38.912 2.048-49.152 4.096v195.584c16.384 3.072 36.864 5.12 59.392 6.144 37.888 1.024 62.464-6.144 81.92-20.48 21.504-15.36 34.816-40.96 34.816-77.824 0-39.936-14.336-66.56-33.792-83.968zM427.008 502.784l133.12 3.072v-39.936l-84.992-2.048v-48.128h79.872v-39.936l-79.872 1.024v-86.016l-48.128 2.048v209.92zM117.76 463.872c-8.192 0-13.312-1.024-16.384-2.048v-57.344c3.072-1.024 7.168-1.024 13.312-1.024 21.504 0 35.84 12.288 35.84 31.744 0 18.432-12.288 28.672-32.768 28.672z" />
<glyph unicode="&#xe81d;" glyph-name="1495736216_column_table_minus_remove_delete_discard" d="M960.512 334.848v369.664h-192.512v63.488h256v-491.52c-18.432 22.528-39.936 43.008-63.488 58.368zM512 95.232c0-90.112 40.96-169.984 104.448-223.232h-295.936v1024h384v-528.384c-112.64-39.936-192.512-146.432-192.512-272.384zM256 64.512v-64.512h-256v768h256v-63.488h-191.488v-640h191.488zM799.744 319.488c123.904 0 224.256-100.352 224.256-224.256s-100.352-224.256-224.256-224.256c-123.904 0-223.232 100.352-223.232 224.256s99.328 224.256 223.232 224.256zM671.744 64.512h256v63.488h-256v-63.488z" />
<glyph unicode="&#xe81e;" glyph-name="1495736192_column_table_new_plus_add_create_insert" d="M960.512 337.92v366.592h-192.512v63.488h256v-487.424c-18.432 21.504-39.936 40.96-63.488 57.344zM509.952 96.256c0-90.112 40.96-171.008 105.472-224.256h-294.912v1024h384v-526.336c-113.664-39.936-194.56-147.456-194.56-273.408zM256 64.512v-64.512h-256v768h256v-63.488h-191.488v-640h191.488zM799.744 320.512c123.904 0 224.256-100.352 224.256-224.256s-100.352-224.256-224.256-224.256c-123.904 0-223.232 100.352-223.232 224.256s99.328 224.256 223.232 224.256zM671.744 64.512h96.256v-96.256h64.512v96.256h95.232v63.488h-95.232v96.256h-64.512v-96.256h-96.256v-63.488z" />
<glyph unicode="&#xe900;" glyph-name="csv" d="M153.6 51.986v665.6c0 14.138 11.462 25.6 25.6 25.6v0h384v-102.4c0-28.277 22.923-51.2 51.2-51.2v0h102.4v-76.8h51.2v102.4c0 0.044 0 0.096 0 0.148 0 7.033-2.836 13.403-7.426 18.030l-153.598 153.598c-4.625 4.589-10.995 7.424-18.028 7.424-0.052 0-0.104 0-0.156 0h-409.592c-42.415 0-76.8-34.385-76.8-76.8v0-665.6c0-42.415 34.385-76.8 76.8-76.8v0h179.2v51.2h-179.2c-14.138 0-25.6 11.462-25.6 25.6v0zM563.2 333.586h51.2c14.138 0 25.6-11.462 25.6-25.6v0h51.2c0 42.415-34.385 76.8-76.8 76.8v0h-51.2c-42.415 0-76.8-34.385-76.8-76.8s34.385-76.8 76.8-76.8v0h51.2c14.138 0 25.6-11.462 25.6-25.6s-11.462-25.6-25.6-25.6v0h-51.2c-14.138 0-25.6 11.462-25.6 25.6v0h-51.2c0-42.415 34.385-76.8 76.8-76.8v0h51.2c42.415 0 76.8 34.385 76.8 76.8s-34.385 76.8-76.8 76.8v0h-51.2c-14.138 0-25.6 11.462-25.6 25.6s11.462 25.6 25.6 25.6v0zM358.4 333.586c28.277 0 51.2-22.923 51.2-51.2v0h51.2c0 56.554-45.846 102.4-102.4 102.4s-102.4-45.846-102.4-102.4v0-51.2c0-56.554 45.846-102.4 102.4-102.4s102.4 45.846 102.4 102.4v0h-51.2c0-28.277-22.923-51.2-51.2-51.2s-51.2 22.923-51.2 51.2v0 51.2c0 28.277 22.923 51.2 51.2 51.2v0zM870.4 384.786v-153.6c0-27.648-38.912-51.2-51.2-51.2s-51.2 23.552-51.2 51.2v153.6h-51.2v-153.6c0-56.576 61.952-102.4 102.4-102.4s102.4 45.824 102.4 102.4v153.6h-51.2z" />
<glyph unicode="&#xe901;" glyph-name="search-w" d="M675.942 266.924l184.934-184.934c5.896-5.896 9.543-14.042 9.543-23.040 0-17.995-14.588-32.583-32.583-32.583-8.998 0-17.144 3.647-23.040 9.543v0l-184.934 184.934c-49.679-39.954-113.524-64.127-183.015-64.127-161.942 0-293.222 131.28-293.222 293.222s131.28 293.222 293.222 293.222c161.942 0 293.222-131.28 293.222-293.222 0-69.491-24.173-133.336-64.57-183.585l0.443 0.57zM446.822 221.868c125.974 0 228.096 102.122 228.096 228.096s-102.122 228.096-228.096 228.096v0c-125.974 0-228.096-102.122-228.096-228.096s102.122-228.096 228.096-228.096v0z" />
<glyph unicode="&#xe902;" glyph-name="icons-01" d="M0 909.312h307.2v-1025.024h-307.2v1025.024zM819.2 909.312h-409.6v-460.8h256v102.4l153.6-153.6-153.6-153.6v102.4h-256v-461.824h614.4v820.224l-204.8 204.8z" />
<glyph unicode="&#xe903;" glyph-name="icons-02" d="M972.8 550.912h-614.4v-615.424c0-27.648 22.528-51.2 51.2-51.2h563.2c28.672 0 51.2 23.552 51.2 51.2v564.224c0 27.648-22.528 51.2-51.2 51.2zM819.2 38.912l-128 128-128-128-51.2 51.2 128 128-128 128 51.2 51.2 128-128 128 128 51.2-51.2-128-128 128-128zM614.4 909.312h-563.2c-28.672 0-51.2-23.552-51.2-51.2v-614.4c0-28.672 22.528-51.2 51.2-51.2h256v102.4h-204.8v102.4h204.8v102.4h-204.8v102.4h563.2v256c0 27.648-22.528 51.2-51.2 51.2zM563.2 704.512h-460.8v102.4h460.8z" />
<glyph unicode="&#xe904;" glyph-name="shape" d="M996.608 448.786h-969.301c-15.072-0.097-27.259-12.313-27.307-27.387v-73.221c0-15.019 12.373-27.392 27.392-27.392h969.301c15.072 0.097 27.259 12.313 27.307 27.387v73.306c-0.048 15.109-12.283 27.344-27.387 27.392h-0.005z" />
<glyph unicode="&#xe905;" glyph-name="sort-down1" d="M1004.992 653.793c-12.658 12.669-27.663 18.998-45 18.998h-895.987c-17.344 0-32.339-6.329-45.007-18.998-12.669-12.683-18.998-27.677-18.998-45.011 0-17.33 6.329-32.325 18.998-44.997l447.995-447.995c12.683-12.669 27.677-19.012 45.007-19.012s32.339 6.343 44.997 19.012l447.995 447.999c12.655 12.669 19.008 27.663 19.008 44.997 0 17.33-6.354 32.325-19.008 45.007z" />
<glyph unicode="&#xe906;" glyph-name="cancel-x" d="M822.272 146.86c3.952-3.979 6.394-9.461 6.394-15.514s-2.443-11.535-6.396-15.515l0.001 0.001-41.318-41.37c-3.979-3.952-9.461-6.394-15.514-6.394s-11.535 2.443-15.515 6.396l-237.925 237.925-237.926-237.926c-3.979-3.952-9.461-6.394-15.514-6.394s-11.535 2.443-15.515 6.396l-41.369 41.369c-3.952 3.979-6.394 9.461-6.394 15.514s2.443 11.535 6.396 15.515l237.925 237.925-237.926 237.926c-3.952 3.979-6.394 9.461-6.394 15.514s2.443 11.535 6.396 15.515l41.369 41.369c3.979 3.952 9.461 6.394 15.514 6.394s11.535-2.443 15.515-6.396l237.925-237.925 237.926 237.926c3.979 3.952 9.461 6.394 15.514 6.394s11.535-2.443 15.515-6.396l41.369-41.369c3.952-3.979 6.394-9.461 6.394-15.514s-2.443-11.535-6.396-15.515l-237.925-237.925 237.926-237.926z" />
<glyph unicode="&#xe907;" glyph-name="uniE907" d="M698.596 553.746l-46.080 46.080c-7.721 7.73-18.391 12.513-30.179 12.516h-153.003c-23.564 0-42.667-19.103-42.667-42.667v0-42.667h-71.111c-23.564 0-42.667-19.103-42.667-42.667v0-284.444c0-23.564 19.103-42.667 42.667-42.667v0h199.111c23.564 0 42.667 19.103 42.667 42.667v0 42.667h71.111c23.564 0 42.667 19.103 42.667 42.667v0 238.336c-0.011 11.778-4.792 22.437-12.515 30.151v0zM549.376 199.897h-188.444c-0.008 0-0.018 0-0.029 0-2.938 0-5.319 2.381-5.319 5.319 0 0.010 0 0.020 0 0.030v-0.002 273.778c0 2.93 2.389 5.319 5.348 5.319h65.735v-199.111c0-23.564 19.103-42.667 42.667-42.667v0h85.333v-37.348c0 0 0 0 0 0 0-2.938-2.381-5.319-5.319-5.319-0.010 0-0.020 0-0.030 0h0.002zM663.154 285.23h-188.444c-0.008 0-0.018 0-0.029 0-2.938 0-5.319 2.381-5.319 5.319 0 0.010 0 0.020 0 0.030v-0.002 273.778c0 2.93 2.389 5.319 5.348 5.319h94.18v-78.222c0-11.776 9.557-21.333 21.333-21.333h78.222v-179.57c0 0 0 0 0 0 0-2.938-2.381-5.319-5.319-5.319-0.010 0-0.020 0-0.030 0h0.002zM668.473 512.786h-56.889v56.889h8.562c1.422 0 2.759-0.569 3.783-1.564l42.98-42.98c0.966-0.963 1.564-2.296 1.564-3.768 0-0.005 0-0.011 0-0.016v0.001-8.562z" />
<glyph unicode="&#xe908;" glyph-name="copy-wa" d="M835.072 688.914l-82.944 82.944c-13.901 13.918-33.115 22.528-54.34 22.528-0.012 0-0.024 0-0.037 0h-275.352c-42.415 0-76.8-34.385-76.8-76.8v0-76.8h-128c-42.415 0-76.8-34.385-76.8-76.8v0-512c0-42.415 34.385-76.8 76.8-76.8v0h358.4c42.415 0 76.8 34.385 76.8 76.8v0 76.8h128c42.415 0 76.8 34.385 76.8 76.8v0 429.005c-0.019 21.2-8.625 40.386-22.527 54.271l-0.001 0.001zM566.477 51.986h-339.354c0 0 0 0 0 0-5.288 0-9.574 4.287-9.574 9.574 0 0.018 0 0.036 0 0.054v-0.003 492.749c0 5.274 4.301 9.574 9.626 9.574h118.426v-358.4c0-42.415 34.385-76.8 76.8-76.8v0h153.6v-67.226c0 0 0 0 0 0 0-5.288-4.287-9.574-9.574-9.574-0.018 0-0.036 0-0.054 0h0.003zM771.277 205.586h-339.354c0 0 0 0 0 0-5.288 0-9.574 4.287-9.574 9.574 0 0.018 0 0.036 0 0.054v-0.003 492.749c0 5.325 4.301 9.626 9.626 9.626h169.574v-140.8c0-21.197 17.203-38.4 38.4-38.4h140.8v-323.226c0 0 0 0 0 0 0-5.288-4.287-9.574-9.574-9.574-0.018 0-0.036 0-0.054 0h0.003zM780.851 615.186h-102.4v102.4h15.411c2.56 0 4.966-1.024 6.81-2.816l77.363-77.363c1.74-1.734 2.816-4.132 2.816-6.782 0-0.010 0-0.019 0-0.029v0.001-15.411z" />
<glyph unicode="&#xe909;" glyph-name="export" d="M847.104 422.008c0 20.572 16.676 37.248 37.248 37.248s37.248-16.676 37.248-37.248v0-353.587c0-0.015 0-0.033 0-0.051 0-51.464-41.72-93.184-93.184-93.184h-632.832c-51.464 0-93.184 41.72-93.184 93.184 0 0.018 0 0.036 0 0.054v-0.003 353.587c0 20.572 16.676 37.248 37.248 37.248s37.248-16.676 37.248-37.248v0-353.587c0-10.394 8.346-18.739 18.739-18.739h632.73c10.349 0 18.739 8.39 18.739 18.739v0 353.587zM549.222 667.256v-412.979c-0.764-19.983-17.148-35.892-37.248-35.892s-36.484 15.91-37.246 35.823l-0.002 0.069v412.979l-141.158-141.261c-6.737-6.731-16.041-10.893-26.317-10.893-20.565 0-37.236 16.671-37.236 37.236 0 10.289 4.173 19.603 10.919 26.342v0l204.8 204.8c6.736 6.734 16.040 10.899 26.317 10.899s19.581-4.165 26.317-10.899l204.8-204.8c6.746-6.74 10.919-16.054 10.919-26.342 0-20.565-16.671-37.236-37.236-37.236-10.276 0-19.58 4.163-26.317 10.894v0l-141.261 141.261z" />
<glyph unicode="&#xe90a;" glyph-name="excel" d="M821.504 636.946l-134.246 134.246c-13.886 13.903-33.072 22.509-54.268 22.528h-326.506c-42.394-0.154-76.8-34.56-76.8-76.954v-665.6c0-42.415 34.385-76.8 76.8-76.8v0h460.8c42.415 0 76.8 34.385 76.8 76.8v0 531.354c0 20.326-8.141 40.038-22.528 54.426zM761.037 588.818h-121.805v121.651l121.805-121.754zM306.432 51.218v665.6h256v-166.4c0-21.299 17.152-38.4 38.4-38.4h166.4v-460.8h-460.8zM645.632 435.218h-46.080c-0.005 0-0.011 0-0.017 0-7.231 0-13.517-4.040-16.727-9.986l-0.050-0.101c-28.774-52.992-35.482-67.84-45.722-92.365-22.272 46.592-11.059 27.699-45.773 92.314-3.324 6.052-9.656 10.086-16.93 10.086-0.006 0-0.012 0-0.018 0h-46.284c-10.603-0.001-19.198-8.597-19.198-19.2 0-3.524 0.95-6.827 2.607-9.666l-0.049 0.091 74.086-124.826-74.086-124.774c-1.65-2.771-2.625-6.11-2.625-9.677 0-10.576 8.573-19.149 19.149-19.149 0.041 0 0.082 0 0.123 0h46.279c0.005 0 0.011 0 0.017 0 7.231 0 13.517 4.040 16.727 9.986l0.050 0.101c34.714 64 36.762 72.038 45.722 92.314 23.859-48.282 9.472-25.395 45.773-92.314 3.324-6.052 9.656-10.086 16.93-10.086 0.006 0 0.012 0 0.018 0h46.079c14.899 0 24.064 16.026 16.64 28.826l-74.24 124.774c1.126 1.792 48.486 80.845 74.086 124.826 1.655 2.77 2.633 6.109 2.633 9.677 0 10.547-8.55 19.098-19.098 19.098-0.008 0-0.015 0-0.023 0h0.001z" />
<glyph unicode="&#xe90b;" glyph-name="filled-check" d="M512 743.186c197.939 0 358.4-160.461 358.4-358.4s-160.461-358.4-358.4-358.4v0c-197.939 0-358.4 160.461-358.4 358.4s160.461 358.4 358.4 358.4v0zM714.598 485.548l-32.563 32.87c-3.142 3.15-7.488 5.099-12.288 5.099-4.775 0-9.099-1.928-12.238-5.048l0.001 0.001-204.288-202.598-86.374 87.091c-3.147 3.181-7.513 5.15-12.339 5.15-4.775 0-9.1-1.928-12.238-5.048l-32.767-32.562c-3.181-3.147-5.15-7.513-5.15-12.339 0-4.775 1.928-9.1 5.048-12.238l-0.001 0.001 131.174-132.198c3.145-3.165 7.501-5.124 12.314-5.124 4.762 0 9.076 1.918 12.213 5.023l-0.001-0.001 249.395 247.398c3.181 3.147 5.15 7.513 5.15 12.339 0 4.775-1.928 9.1-5.048 12.238l0.001-0.001z" />
<glyph unicode="&#xe90c;" glyph-name="icon-close" d="M512 475.282l402.752 402.752c11.497 11.116 27.179 17.966 44.462 17.966 35.346 0 64-28.654 64-64 0-17.282-6.85-32.964-17.983-44.48l0.017 0.018-402.752-402.752 402.752-402.752c11.116-11.497 17.966-27.179 17.966-44.462 0-35.346-28.654-64-64-64-17.282 0-32.964 6.85-44.48 17.983l0.018-0.017-402.752 402.752-402.752-402.752c-11.654-12.054-27.97-19.538-46.034-19.538-35.346 0-64 28.654-64 64 0 18.064 7.484 34.38 19.52 46.017l0.018 0.017 402.752 402.752-402.752 402.752c-11.116 11.497-17.966 27.179-17.966 44.462 0 35.346 28.654 64 64 64 17.282 0 32.964-6.85 44.48-17.983l-0.018 0.017 402.752-402.752z" />
<glyph unicode="&#xe90d;" glyph-name="outlined-check" d="M512 743.186c-197.939 0-358.4-160.461-358.4-358.4s160.461-358.4 358.4-358.4v0c197.939 0 358.4 160.461 358.4 358.4s-160.461 358.4-358.4 358.4v0zM512 673.81c0.046 0 0.1 0 0.154 0 159.539 0 288.87-129.332 288.87-288.87 0-0.054 0-0.108 0-0.162v0.008c0-0.046 0-0.1 0-0.154 0-159.539-129.332-288.87-288.87-288.87-0.054 0-0.108 0-0.162 0h0.008c-0.046 0-0.1 0-0.154 0-159.539 0-288.87 129.332-288.87 288.87 0 0.054 0 0.108 0 0.162v-0.008c0 0.046 0 0.1 0 0.154 0 159.539 129.332 288.87 288.87 288.87 0.054 0 0.108 0 0.162 0h-0.008zM714.598 485.548l-32.563 32.87c-3.142 3.15-7.488 5.099-12.288 5.099-4.775 0-9.099-1.928-12.238-5.048l0.001 0.001-204.288-202.598-86.374 87.091c-3.147 3.181-7.513 5.15-12.339 5.15-4.775 0-9.1-1.928-12.238-5.048l-32.767-32.562c-3.181-3.147-5.15-7.513-5.15-12.339 0-4.775 1.928-9.1 5.048-12.238l-0.001 0.001 131.174-132.198c3.145-3.165 7.501-5.124 12.314-5.124 4.762 0 9.076 1.918 12.213 5.023l-0.001-0.001 249.395 247.398c3.181 3.147 5.15 7.513 5.15 12.339 0 4.775-1.928 9.1-5.048 12.238l0.001-0.001z" />
<glyph unicode="&#xe90e;" glyph-name="print" d="M772.608 645.394h55.808c0.015 0 0.033 0 0.052 0 51.346 0 92.987-41.551 93.132-92.863v-260.878c-0.029-51.357-41.669-92.979-93.030-92.979-0.054 0-0.108 0-0.162 0h-55.799v-130.202c0-51.456-41.523-93.235-92.877-93.235h-335.462c-51.335 0.058-92.928 41.687-92.928 93.030 0 0.054 0 0.108 0 0.162v-0.008 130.253h-55.706c-0.031 0-0.067 0-0.103 0-51.364 0-93.016 41.58-93.133 92.917v260.875c0.058 51.335 41.687 92.928 93.030 92.928 0.054 0 0.108 0 0.162 0h55.8v55.757c0 51.456 41.472 93.235 92.826 93.235h335.462c51.405 0 92.928-41.728 92.928-93.184v-55.808zM325.888 701.151v-55.654h372.326v55.603c0.001 0.076 0.002 0.166 0.002 0.256 0 10.201-8.241 18.477-18.428 18.534h-335.519c-10.222-0.201-18.432-8.535-18.432-18.787 0-0.001 0-0.002 0-0.004v0zM325.888 291.602v-223.13c0-0.046-0.001-0.1-0.001-0.154 0-10.211 8.234-18.498 18.424-18.585h335.47c9.984 0 18.432 8.346 18.432 18.739v223.13c0 0.046 0.001 0.1 0.001 0.154 0 10.211-8.234 18.498-18.424 18.585h-335.522c-10.216-0.173-18.432-8.495-18.432-18.737 0-0.001 0-0.002 0-0.003v0zM772.71 273.17h55.706c0.046 0 0.1-0.001 0.154-0.001 10.211 0 18.498 8.234 18.585 18.424v260.923c-0.087 10.227-8.397 18.483-18.636 18.483-0.036 0-0.072 0-0.109 0h-632.775c-0.046 0-0.1 0.001-0.154 0.001-10.229 0-18.528-8.263-18.585-18.478v-260.869c0-10.189 8.346-18.534 18.739-18.534h55.706v18.483c0 51.456 41.574 93.235 92.928 93.235h335.462c51.405 0 92.928-41.728 92.928-93.184v-18.534z" />
<glyph unicode="&#xe90f;" glyph-name="delete" d="M796.365 497.938l-29.696-432.384c-3.482-50.278-44.851-90.368-93.184-90.368h-323.021c-48.435 0-89.702 39.936-93.184 90.368l-29.696 432.333c-42.752 7.936-73.933 46.643-73.984 91.699v37.222c0 50.432 38.707 91.699 87.245 93.082l115.917 15.053c13.414 35.891 46.592 59.443 83.61 59.443h143.309c36.966 0 70.144-23.603 83.61-59.443l115.917-15.053c48.538-1.434 87.194-42.65 87.245-93.082v-37.222c0-45.158-31.232-83.814-74.035-91.648zM299.622 496.504l29.235-425.626c0.819-11.469 10.854-21.197 21.709-21.197h322.867c10.752 0 20.941 9.83 21.709 21.197l29.235 425.626h-424.755zM565.862 387.858c0.874 13.518 8.832 24.993 20.168 30.827l0.209 0.098c4.502 2.286 9.818 3.625 15.445 3.625 7.709 0 14.831-2.513 20.592-6.764l-0.095 0.067c10.547-7.68 16.333-20.685 15.155-33.997l-17.92-223.437c-0.874-13.518-8.832-24.993-20.168-30.827l-0.209-0.098c-4.492-2.273-9.792-3.605-15.404-3.605-7.727 0-14.865 2.525-20.633 6.794l0.094-0.067c-9.342 6.96-15.328 17.975-15.328 30.388 0 1.271 0.063 2.527 0.185 3.766l-0.013-0.157 17.92 223.386zM386.662 381.714c-0.107 1.068-0.168 2.307-0.168 3.561 0 12.411 5.984 23.424 15.223 30.313l0.1 0.071c5.674 4.203 12.811 6.728 20.539 6.728 5.611 0 10.912-1.331 15.603-3.696l-0.199 0.091c11.622-5.734 19.456-17.562 20.378-30.925l17.92-223.386c0.11-1.082 0.173-2.338 0.173-3.609 0-12.413-5.986-23.428-15.228-30.316l-0.1-0.071c-5.666-4.184-12.788-6.697-20.497-6.697-5.628 0-10.943 1.339-15.644 3.716l0.198-0.091c-11.532 5.923-19.485 17.376-20.372 30.761l-0.006 0.112-17.92 223.437zM243.302 645.394c-9.991-0.172-18.024-8.311-18.024-18.327 0-0.091 0.001-0.182 0.002-0.272v0.014-37.222c0-10.24 8.090-18.637 18.022-18.637h537.395c9.991 0.171 18.025 8.311 18.025 18.327 0 0.109-0.001 0.218-0.003 0.326v-0.016 37.222c0.001 0.062 0.001 0.136 0.001 0.209 0 10.036-8.021 18.199-18.002 18.427h-0.021c-0.089-0.001-0.194-0.001-0.299-0.001-1.483 0-2.943 0.093-4.377 0.275l0.17-0.018-143.206 18.637c-17.861 2.712-31.39 17.959-31.39 36.367 0 0.211 0.002 0.421 0.005 0.631v-0.032c0 10.24-8.090 18.586-17.971 18.586h-143.309c-0.001 0-0.002 0-0.002 0-4.989 0-9.492-2.080-12.689-5.421l-0.006-0.006c-3.264-3.398-5.274-8.022-5.274-13.115 0-0.015 0-0.031 0-0.046v0.002c0.003-0.178 0.005-0.389 0.005-0.599 0-18.408-13.529-33.655-31.187-36.342l-0.204-0.026-143.206-18.637c-1.263-0.164-2.724-0.257-4.206-0.257-0.105 0-0.21 0-0.316 0.001h0.016z" />
<glyph unicode="&#xe910;" glyph-name="edit" d="M633.037 602.079l-456.192-456.141v-96.256h96.307l456.192 456.141-96.307 96.256zM685.67 654.764l96.256-96.307 49.766 49.766-96.256 96.256-49.766-49.715zM761.754 783.48l148.941-148.992c6.734-6.736 10.899-16.040 10.899-26.317s-4.165-19.581-10.899-26.317l-595.814-595.763c-6.736-6.738-16.043-10.906-26.324-10.906-0.016 0-0.031 0-0.047 0h-148.887c-20.557 0-37.222 16.665-37.222 37.222v0 148.992c0 9.83 3.942 19.302 10.906 26.317l595.814 595.763c6.738 6.749 16.053 10.924 26.342 10.924s19.604-4.175 26.342-10.924l0.001-0.001zM884.378 49.682c20.572 0 37.248-16.676 37.248-37.248s-16.676-37.248-37.248-37.248v0h-372.378c-20.572 0-37.248 16.676-37.248 37.248s16.676 37.248 37.248 37.248v0h372.378z" />
<glyph unicode="&#xe911;" glyph-name="eye-w" d="M106.035 367.583c-2.31 5.059-3.657 10.974-3.657 17.203s1.347 12.144 3.765 17.469l-0.108-0.265c78.336 175.514 245.197 289.997 431.565 289.997s353.229-114.483 431.565-289.997c2.31-5.059 3.657-10.974 3.657-17.203s-1.347-12.144-3.765-17.469l0.108 0.265c-78.336-175.514-245.197-289.997-431.565-289.997s-353.229 114.483-431.565 289.997zM537.6 159.506c148.941 0 283.136 88.064 351.59 225.28-68.454 137.216-202.598 225.28-351.59 225.28s-283.136-88.064-351.59-225.28c68.506-137.216 202.65-225.28 351.59-225.28zM540.16 569.106c24.73-0.358 43.11-23.962 38.195-49.152-0.749-3.674-1.178-7.898-1.178-12.221 0-0.024 0-0.047 0-0.071v0.004c0-33.946 26.573-61.44 59.341-61.44 7.68 0 15.206 1.536 22.17 4.403 23.040 9.626 48.794-4.864 53.606-30.054 2.202-11.725 3.328-23.706 3.328-35.789 0-101.786-79.718-184.32-178.022-184.32s-178.022 82.534-178.022 184.32 79.718 184.32 178.022 184.32h2.56zM438.63 384.786c0-56.576 44.288-102.4 98.918-102.4 47.872 0 87.757 35.174 96.922 81.92-66.355 1.024-121.446 50.278-133.888 115.507-36.722-16.118-61.905-52.161-61.905-94.086 0-0.331 0.002-0.661 0.005-0.991v0.050z" />
<glyph unicode="&#xe912;" glyph-name="pdf" d="M820.941 636.434l-133.99 133.99c-14.336 14.336-33.843 22.528-54.118 22.528h-325.939c-42.326-0.145-76.588-34.462-76.646-76.794v-664.326c0-42.291 34.304-76.646 76.646-76.646h459.93c42.291 0 76.646 34.304 76.646 76.646v530.33c0 20.275-8.192 39.936-22.528 54.272zM760.576 588.408h-121.549v121.498l121.549-121.498zM306.944 51.832v664.32h255.488v-166.093c0-21.248 17.050-38.298 38.298-38.298h166.093v-459.93h-459.93zM706.458 281.311c-19.456 19.149-75.059 13.875-102.861 10.394-27.443 16.742-45.824 39.936-58.778 73.933 6.246 25.702 16.128 64.819 8.653 89.395-6.707 41.83-60.416 37.683-68.045 9.421-7.014-25.702-0.614-61.44 11.162-107.11-15.923-38.195-39.731-89.446-56.525-118.784-31.898-16.486-75.059-41.882-81.408-73.83-5.274-25.242 41.472-88.115 121.498 49.818 35.789 11.827 74.752 26.368 109.261 32.102 30.157-16.282 65.434-27.136 89.088-27.136 40.704 0 44.698 45.056 27.955 61.798zM390.093 157.048c8.192 21.914 39.117 47.104 48.538 55.91-30.31-48.384-48.538-56.986-48.538-55.91zM520.397 461.432c11.776 0 10.752-51.251 2.867-65.126-7.014 22.17-6.861 65.126-2.867 65.126zM481.485 243.32c15.462 26.982 28.672 59.085 39.424 87.347 13.21-24.115 30.157-43.469 48.026-56.73-33.178-6.861-62.106-20.89-87.501-30.618zM691.61 251.308s-7.987-9.626-59.597 12.442c56.064 4.147 65.331-8.653 59.597-12.442z" />
<glyph unicode="&#xe913;" glyph-name="plus-wa" d="M899.635 435.986h-336.435v336.435c-0.029 12.119-9.846 21.936-21.962 21.965h-58.422c0 0 0 0 0 0-12.141 0-21.987-9.828-22.016-21.962v-336.438h-336.435c-12.119-0.029-21.936-9.846-21.965-21.962v-58.473c0.029-12.119 9.846-21.936 21.962-21.965h336.438v-336.435c0.029-12.119 9.846-21.936 21.962-21.965h58.473c12.119 0.029 21.936 9.846 21.965 21.962v336.438h336.435c12.119 0.029 21.936 9.846 21.965 21.962v58.422c0 0 0 0 0 0 0 12.141-9.828 21.987-21.962 22.016h-0.003z" />
<glyph unicode="&#xe914;" glyph-name="magic-stick" d="M160 576l53.32 106.66 106.68 53.34-106.68 53.34-53.32 106.66-53.32-106.68-106.68-53.32 106.68-53.34 53.32-106.66zM448 704l32 64 64 32-64 32-32 64-32-64-64-32 64-32 32-64zM917.32 213.34l-53.32 106.66-53.32-106.66-106.68-53.34 106.68-53.34 53.32-106.66 53.32 106.66 106.68 53.34-106.68 53.34zM800 512c17.68 0 32 14.32 32 32v55.92l183.74 203.66c11.44 12.64 10.96 32.040-1.1 44.1l-38.96 38.94c-12.060 12.060-31.46 12.54-44.1 1.1l-558.38-503.72h-85.2c-17.68 0-32-14.32-32-32v-73.74l-234.94-211.94c-27.14-24.56-28.2-66.84-2.32-92.72l82.86-82.86c25.88-25.88 68.16-24.82 92.72 2.32l558.36 618.94h47.32z" />
<glyph unicode="&#xe915;" glyph-name="book" horiz-adv-x="896" d="M896 176v672c0 26.6-21.4 48-48 48h-656c-106 0-192-86-192-192v-640c0-106 86-192 192-192h656c26.6 0 48 21.4 48 48v32c0 15-7 28.6-17.8 37.4-8.4 30.8-8.4 118.6 0 149.4 10.8 8.6 17.8 22.2 17.8 37.2zM256 628c0 6.6 5.4 12 12 12h424c6.6 0 12-5.4 12-12v-40c0-6.6-5.4-12-12-12h-424c-6.6 0-12 5.4-12 12v40zM256 500c0 6.6 5.4 12 12 12h424c6.6 0 12-5.4 12-12v-40c0-6.6-5.4-12-12-12h-424c-6.6 0-12 5.4-12 12v40zM762.8 0h-570.8c-35.4 0-64 28.6-64 64 0 35.2 28.8 64 64 64h570.8c-3.8-34.2-3.8-93.8 0-128z" />
<glyph unicode="&#xe916;" glyph-name="trophy" horiz-adv-x="1152" d="M1104 768h-208v80c0 26.6-21.4 48-48 48h-544c-26.6 0-48-21.4-48-48v-80h-208c-26.6 0-48-21.4-48-48v-112c0-71.4 45-144.8 123.8-201.4 63-45.4 139.6-74.2 220-83.4 62.8-104.2 136.2-147.2 136.2-147.2v-144h-96c-70.6 0-128-41.4-128-112v-24c0-13.2 10.8-24 24-24h592c13.2 0 24 10.8 24 24v24c0 70.6-57.4 112-128 112h-96v144s73.4 43 136.2 147.2c80.6 9.2 157.2 38 220 83.4 78.6 56.6 123.8 130 123.8 201.4v112c0 26.6-21.4 48-48 48zM198.6 510.4c-48.8 35.2-70.6 74.4-70.6 97.6v32h128.4c2-65.2 11.6-122.4 25.6-172.4-30.2 10.4-58.4 24.8-83.4 42.8zM1024 608c0-32.2-35.4-72.2-70.6-97.6-25-18-53.4-32.4-83.6-42.8 14 50 23.6 107.2 25.6 172.4h128.6v-32z" />
<glyph unicode="&#xe917;" glyph-name="g-cap" horiz-adv-x="1280" d="M1244.68 589.6l-557.88 171.4c-30.4 9.34-63.2 9.34-93.58 0l-557.9-171.4c-47.080-14.46-47.080-76.72 0-91.18l97.26-29.88c-21.34-26.38-34.46-58.56-35.76-93.8-19.26-11.040-32.82-30.96-32.82-54.74 0-21.56 11.36-39.7 27.72-51.3l-51.060-229.76c-4.44-19.98 10.76-38.94 31.22-38.94h112.22c20.48 0 35.68 18.96 31.24 38.94l-51.060 229.76c16.36 11.6 27.72 29.74 27.72 51.3 0 23.14-12.94 42.5-31.32 53.74 1.52 30.040 16.88 56.6 41.38 73.44l391.14-120.18c18.12-5.56 52.88-12.5 93.58 0l557.9 171.4c47.1 14.48 47.1 76.72 0 91.2zM705.58 265.82c-57.060-17.52-105.68-7.84-131.18 0l-290.040 89.1-28.36-226.92c0-70.7 171.92-128 384-128s384 57.3 384 128l-28.36 226.94-290.060-89.12z" />
<glyph unicode="&#xe918;" glyph-name="vertical-align-top" d="M341.333 426.667h128v-426.667h85.333v426.667h128l-170.667 170.667-170.667-170.667zM170.667 768v-85.333h682.667v85.333h-682.667z" />
<glyph unicode="&#xe919;" glyph-name="vertical-align-center" d="M341.333 85.333h128v-170.667h85.333v170.667h128l-170.667 170.667-170.667-170.667zM682.667 682.667h-128v170.667h-85.333v-170.667h-128l170.667-170.667 170.667 170.667zM170.667 426.667v-85.333h682.667v85.333h-682.667z" />
<glyph unicode="&#xe91a;" glyph-name="vertical-align-bottom" d="M682.667 341.333h-128v426.667h-85.333v-426.667h-128l170.667-170.667 170.667 170.667zM170.667 85.333v-85.333h682.667v85.333h-682.667z" />
<glyph unicode="&#xe91b;" glyph-name="add-column-left" d="M535.394 74.831v-124.062h-393.846v866.462h393.846v-124.062c24.93 12.721 51.358 22.252 78.769 28.633v134.814c0 21.701-17.644 39.385-39.385 39.385h-472.615c-21.662 0-39.385-17.684-39.385-39.385v-945.231c0-21.701 17.684-39.385 39.385-39.385h472.615c21.74 0 39.385 17.684 39.385 39.385v134.853c-27.412 6.341-53.839 15.872-78.769 28.593zM697.662 683.235c-165.182 0-299.504-134.394-299.504-299.576 0-165.254 134.322-299.648 299.504-299.648 165.325 0 299.648 134.394 299.648 299.648 0 165.182-134.322 299.576-299.648 299.576zM697.662 165.35c-120.217 0-218.166 97.878-218.166 218.31 0 120.289 97.949 218.31 218.166 218.31 120.575 0 218.381-98.021 218.381-218.31 0-120.432-97.806-218.31-218.381-218.31zM546.471 421.053h295.813v-84.958h-295.813v84.958zM736.856 526.481v-295.813h-84.958v295.813h84.958z" />
<glyph unicode="&#xe91c;" glyph-name="remove-column" d="M535.394 74.831v-124.062h-393.846v866.462h393.846v-124.062c24.93 12.721 51.358 22.252 78.769 28.633v134.814c0 21.701-17.644 39.385-39.385 39.385h-472.615c-21.662 0-39.385-17.684-39.385-39.385v-945.231c0-21.701 17.684-39.385 39.385-39.385h472.615c21.74 0 39.385 17.684 39.385 39.385v134.853c-27.412 6.341-53.839 15.872-78.769 28.593zM697.662 683.235c-165.182 0-299.504-134.394-299.504-299.576 0-165.254 134.322-299.648 299.504-299.648 165.325 0 299.648 134.394 299.648 299.648 0 165.182-134.322 299.576-299.648 299.576zM697.662 165.35c-120.217 0-218.166 97.878-218.166 218.31 0 120.289 97.949 218.31 218.166 218.31 120.575 0 218.381-98.021 218.381-218.31 0-120.432-97.806-218.31-218.381-218.31zM546.471 421.053h295.813v-84.958h-295.813v84.958z" />
<glyph unicode="&#xe91d;" glyph-name="remove-row" d="M202.861 367.31h-124.062v393.846h866.462v-393.846h-124.062c12.721-24.93 22.252-51.358 28.633-78.769h134.814c21.701 0 39.385 17.644 39.385 39.385v472.615c0 21.662-17.684 39.385-39.385 39.385h-945.231c-21.701 0-39.385-17.684-39.385-39.385v-472.615c0-21.74 17.684-39.385 39.385-39.385h134.853c6.341 27.412 15.872 53.839 28.593 78.769zM812.104 216.81c0 165.182-134.394 299.504-299.576 299.504-165.254 0-299.648-134.322-299.648-299.504 0-165.325 134.394-299.648 299.648-299.648 165.182 0 299.576 134.322 299.576 299.648zM294.219 216.81c0 120.217 97.878 218.166 218.31 218.166 120.289 0 218.31-97.949 218.31-218.166 0-120.575-98.021-218.381-218.31-218.381-120.432 0-218.31 97.806-218.31 218.381zM361.229 254.169h295.813v-84.958h-295.813v84.958z" />
<glyph unicode="&#xe91e;" glyph-name="add-row-top" d="M821.2 424.053h124.062v-393.846h-866.462v393.846h124.062c-12.721 24.93-22.252 51.358-28.633 78.769h-134.814c-21.701 0-39.385-17.644-39.385-39.385v-472.615c0-21.662 17.684-39.385 39.385-39.385h945.231c21.701 0 39.385 17.684 39.385 39.385v472.615c0 21.74-17.684 39.385-39.385 39.385h-134.853c-6.341-27.412-15.872-53.839-28.593-78.769zM812.105 575.611c0 165.182-134.394 299.504-299.576 299.504-165.254 0-299.648-134.322-299.648-299.504 0-165.325 134.394-299.648 299.648-299.648 165.182 0 299.576 134.322 299.576 299.648zM294.219 575.611c0 120.217 97.878 218.166 218.31 218.166 120.289 0 218.31-97.949 218.31-218.166 0-120.575-98.021-218.381-218.31-218.381-120.432 0-218.31 97.806-218.31 218.381zM362.898 617.976h295.813v-84.958h-295.813v84.958zM554.953 723.404v-295.813h-84.958v295.813h84.958z" />
<glyph unicode="&#xe91f;" glyph-name="add-row-bottom" d="M202.861 367.31h-124.062v393.846h866.462v-393.846h-124.062c12.721-24.93 22.252-51.358 28.633-78.769h134.814c21.701 0 39.385 17.644 39.385 39.385v472.615c0 21.662-17.684 39.385-39.385 39.385h-945.231c-21.701 0-39.385-17.684-39.385-39.385v-472.615c0-21.74 17.684-39.385 39.385-39.385h134.853c6.341 27.412 15.872 53.839 28.593 78.769zM812.104 216.81c0 165.182-134.394 299.504-299.576 299.504-165.254 0-299.648-134.322-299.648-299.504 0-165.325 134.394-299.648 299.648-299.648 165.182 0 299.576 134.322 299.576 299.648zM294.219 216.81c0 120.217 97.878 218.166 218.31 218.166 120.289 0 218.31-97.949 218.31-218.166 0-120.575-98.021-218.381-218.31-218.381-120.432 0-218.31 97.806-218.31 218.381zM361.229 254.169h295.813v-84.958h-295.813v84.958zM551.615 359.596v-295.813h-84.958v295.813h84.958z" />
<glyph unicode="&#xe920;" glyph-name="add-column-right" d="M459.265 693.169v124.062h393.846v-866.462h-393.846v124.062c-24.93-12.721-51.358-22.252-78.769-28.633v-134.814c0-21.701 17.644-39.385 39.385-39.385h472.615c21.662 0 39.385 17.684 39.385 39.385v945.231c0 21.701-17.684 39.385-39.385 39.385h-472.615c-21.74 0-39.385-17.684-39.385-39.385v-134.853c27.412-6.341 53.839-15.872 78.769-28.593zM318.964 683.235c-165.182 0-299.504-134.394-299.504-299.576 0-165.254 134.322-299.648 299.504-299.648 165.325 0 299.648 134.394 299.648 299.648 0 165.182-134.322 299.576-299.648 299.576zM318.964 165.35c-120.217 0-218.166 97.878-218.166 218.31 0 120.289 97.949 218.31 218.166 218.31 120.575 0 218.381-98.021 218.381-218.31 0-120.432-97.806-218.31-218.381-218.31zM167.773 421.053h295.813v-84.958h-295.813v84.958zM358.161 526.483v-295.813h-84.958v295.813h84.958z" />
<glyph unicode="&#xe921;" glyph-name="rows-1" horiz-adv-x="1297" d="M170.667 529.834v-304.795h956.008v304.795h-956.008zM170.667 895.588v-304.795h956.008v304.795h-956.008zM1126.675 164.081h-956.008v-304.795h956.008v304.795z" />
<glyph unicode="&#xe922;" glyph-name="insert-column-after" d="M618 682.664c-7.852 0-15.703 2.859-21.844 8.625l-160 149.328c-9.602 8.961-12.758 22.914-7.938 35.117s16.641 20.266 29.781 20.266h320c13.141 0 24.961-8.023 29.781-20.266 4.82-12.25 1.664-26.156-7.938-35.117l-160-149.328c-6.141-5.766-13.992-8.625-21.844-8.625zM539.195 832l78.805-73.555 78.805 73.555zM906-128h-106.664c-41.18 0-74.672 33.492-74.672 74.664v661.336c0 41.172 33.492 74.664 74.672 74.664h106.664c41.172 0 74.664-33.492 74.664-74.664v-661.336c0-41.172-33.492-74.664-74.664-74.664zM799.336 618.664c-5.891 0-10.672-4.773-10.672-10.664v-661.336c0-5.883 4.781-10.664 10.672-10.664h106.664c5.891 0 10.664 4.781 10.664 10.664v661.336c0 5.891-4.773 10.664-10.664 10.664zM436.664-128h-320c-41.172 0-74.664 33.492-74.664 74.664v661.336c0 41.172 33.492 74.664 74.664 74.664h320c41.18 0 74.672-33.492 74.672-74.664v-661.336c0-41.172-33.492-74.664-74.672-74.664zM116.664 618.664c-5.883 0-10.664-4.773-10.664-10.664v-661.336c0-5.883 4.781-10.664 10.664-10.664h320c5.891 0 10.672 4.781 10.672 10.664v661.336c0 5.891-4.781 10.664-10.672 10.664zM948.664 245.336h-192c-17.664 0-32 14.336-32 32s14.336 32 32 32h192c17.664 0 32-14.336 32-32s-14.336-32-32-32zM479.336 245.336h-405.336c-17.664 0-32 14.336-32 32s14.336 32 32 32h405.336c17.664 0 32-14.336 32-32s-14.336-32-32-32zM276.664-128c-17.664 0-32 14.336-32 32v746.664c0 17.664 14.336 32 32 32s32-14.336 32-32v-746.664c0-17.664-14.336-32-32-32z" />
<glyph unicode="&#xe923;" glyph-name="insert-column-before" d="M404.664 682.664c-7.852 0-15.656 2.859-21.844 8.625l-160 149.328c-9.641 8.961-12.758 22.914-7.938 35.117 4.82 12.242 16.641 20.266 29.781 20.266h320c13.141 0 24.961-8.023 29.742-20.266 4.82-12.25 1.703-26.156-7.938-35.117l-160-149.328c-6.141-5.766-13.953-8.625-21.805-8.625zM325.82 832l78.844-73.555 78.852 73.555zM223.336-128h-106.672c-41.172 0-74.664 33.492-74.664 74.664v661.336c0 41.172 33.492 74.664 74.664 74.664h106.672c41.172 0 74.664-33.492 74.664-74.664v-661.336c0-41.172-33.492-74.664-74.664-74.664zM116.664 618.664c-5.883 0-10.664-4.773-10.664-10.664v-661.336c0-5.883 4.781-10.664 10.664-10.664h106.672c5.883 0 10.664 4.781 10.664 10.664v661.336c0 5.891-4.781 10.664-10.664 10.664zM906-128h-320c-41.172 0-74.664 33.492-74.664 74.664v661.336c0 41.172 33.492 74.664 74.664 74.664h320c41.172 0 74.664-33.492 74.664-74.664v-661.336c0-41.172-33.492-74.664-74.664-74.664zM586 618.664c-5.891 0-10.664-4.773-10.664-10.664v-661.336c0-5.883 4.773-10.664 10.664-10.664h320c5.891 0 10.664 4.781 10.664 10.664v661.336c0 5.891-4.773 10.664-10.664 10.664zM266 245.336h-192c-17.664 0-32 14.336-32 32s14.336 32 32 32h192c17.664 0 32-14.336 32-32s-14.336-32-32-32zM948.664 245.336h-405.328c-17.664 0-32 14.336-32 32s14.336 32 32 32h405.328c17.664 0 32-14.336 32-32s-14.336-32-32-32zM746-128c-17.664 0-32 14.336-32 32v746.664c0 17.664 14.336 32 32 32s32-14.336 32-32v-746.664c0-17.664-14.336-32-32-32z" />
<glyph unicode="&#xe924;" glyph-name="insert-row-after" d="M32 86c-3.969 0-7.938 0.727-11.734 2.219-12.242 4.82-20.266 16.641-20.266 29.781v320c0 13.141 8.023 24.961 20.266 29.781 12.289 4.82 26.156 1.703 35.117-7.938l149.328-160c11.523-12.289 11.523-31.359 0-43.648l-149.328-160c-6.188-6.656-14.68-10.195-23.383-10.195zM64 356.805v-157.609l73.555 78.805zM949.336-84.664h-661.336c-41.172 0-74.664 33.492-74.664 74.664v106.664c0 41.18 33.492 74.672 74.664 74.672h661.336c41.172 0 74.664-33.492 74.664-74.672v-106.664c0-41.172-33.492-74.664-74.664-74.664zM288 107.336c-5.891 0-10.664-4.781-10.664-10.672v-106.664c0-5.891 4.773-10.664 10.664-10.664h661.336c5.883 0 10.664 4.773 10.664 10.664v106.664c0 5.891-4.781 10.672-10.664 10.672zM949.336 384.664h-661.336c-41.172 0-74.664 33.492-74.664 74.672v320c0 41.172 33.492 74.664 74.664 74.664h661.336c41.172 0 74.664-33.492 74.664-74.664v-320c0-41.18-33.492-74.672-74.664-74.672zM288 790c-5.891 0-10.664-4.781-10.664-10.664v-320c0-5.891 4.773-10.672 10.664-10.672h661.336c5.883 0 10.664 4.781 10.664 10.672v320c0 5.883-4.781 10.664-10.664 10.664zM618.664-84.664c-17.664 0-32 14.336-32 32v192c0 17.664 14.336 32 32 32s32-14.336 32-32v-192c0-17.664-14.336-32-32-32zM618.664 384.664c-17.664 0-32 14.336-32 32v405.336c0 17.664 14.336 32 32 32s32-14.336 32-32v-405.336c0-17.664-14.336-32-32-32zM992 587.336h-746.664c-17.664 0-32 14.336-32 32s14.336 32 32 32h746.664c17.664 0 32-14.336 32-32s-14.336-32-32-32z" />
<glyph unicode="&#xe925;" glyph-name="insert-row-before" d="M32 299.336c-3.969 0-7.938 0.727-11.734 2.219-12.242 4.82-20.266 16.641-20.266 29.781v320c0 13.141 8.023 24.961 20.266 29.781 12.289 4.82 26.156 1.703 35.117-7.938l149.328-160c11.523-12.289 11.523-31.359 0-43.648l-149.328-160c-6.188-6.656-14.68-10.195-23.383-10.195zM64 570.141v-157.609l73.555 78.805zM949.336 598h-661.336c-41.172 0-74.664 33.492-74.664 74.664v106.672c0 41.172 33.492 74.664 74.664 74.664h661.336c41.172 0 74.664-33.492 74.664-74.664v-106.672c0-41.172-33.492-74.664-74.664-74.664zM288 790c-5.891 0-10.664-4.781-10.664-10.664v-106.672c0-5.883 4.773-10.664 10.664-10.664h661.336c5.883 0 10.664 4.781 10.664 10.664v106.672c0 5.883-4.781 10.664-10.664 10.664zM949.336-84.664h-661.336c-41.172 0-74.664 33.492-74.664 74.664v320c0 41.172 33.492 74.664 74.664 74.664h661.336c41.172 0 74.664-33.492 74.664-74.664v-320c0-41.172-33.492-74.664-74.664-74.664zM288 320.664c-5.891 0-10.664-4.773-10.664-10.664v-320c0-5.891 4.773-10.664 10.664-10.664h661.336c5.883 0 10.664 4.773 10.664 10.664v320c0 5.891-4.781 10.664-10.664 10.664zM618.664 598c-17.664 0-32 14.336-32 32v192c0 17.664 14.336 32 32 32s32-14.336 32-32v-192c0-17.664-14.336-32-32-32zM618.664-84.664c-17.664 0-32 14.336-32 32v405.328c0 17.664 14.336 32 32 32s32-14.336 32-32v-405.328c0-17.664-14.336-32-32-32zM992 118h-746.664c-17.664 0-32 14.336-32 32s14.336 32 32 32h746.664c17.664 0 32-14.336 32-32s-14.336-32-32-32z" />
<glyph unicode="&#xe926;" glyph-name="columns-1" d="M46.933-128h930.133c25.6 0 46.933 21.333 46.933 46.933v930.133c0 25.6-21.333 46.933-46.933 46.933h-930.133c-25.6 0-46.933-21.333-46.933-46.933v-930.133c0-25.6 21.333-46.933 46.933-46.933zM938.667 810.667v-853.333h-256v853.333h256zM640 810.667v-853.333h-256v853.333h256zM85.333 810.667h256v-853.333h-256v853.333z" />
<glyph unicode="&#xe927;" glyph-name="rows-2" d="M1024-81.067v930.133c0 25.6-21.333 46.933-46.933 46.933h-930.133c-25.6 0-46.933-21.333-46.933-46.933v-930.133c0-25.6 21.333-46.933 46.933-46.933h930.133c25.6 0 46.933 21.333 46.933 46.933zM85.333 810.667h853.333v-256h-853.333v256zM85.333 512h853.333v-256h-853.333v256zM85.333-42.667v256h853.333v-256h-853.333z" />
<glyph unicode="&#xe928;" glyph-name="columns-2" horiz-adv-x="1297" d="M443.733-25.6h341.333v887.467h-341.333v-887.467zM34.133-25.6h341.333v887.467h-341.333v-887.467zM853.333 861.867v-887.467h341.333v887.467h-341.333z" />
<glyph unicode="&#xe929;" glyph-name="wrap-text" horiz-adv-x="989" d="M69.034 665.888v-57.528h805.393v115.056h-805.393v-57.528zM69.034 378.247v-57.528h349.771c335.964 0 349.771-1.151 379.685-24.162 41.42-32.216 41.42-92.045 0-124.261-25.312-19.56-47.173-24.162-120.809-24.162h-90.894v109.303l-82.84-83.991-83.991-82.84 83.991-82.84 82.84-83.991v107.002l107.002 4.602c118.508 4.602 155.326 21.861 205.951 93.196 41.42 57.528 37.969 162.229-6.903 219.757-63.281 82.84-82.84 87.443-475.182 87.443h-348.62v-57.528zM69.034 90.607v-57.528h230.112v115.056h-230.112v-57.528z" />
<glyph unicode="&#xe92a;" glyph-name="clip-text" horiz-adv-x="1049" d="M86.361 390.169v-431.807h123.373v863.614h-123.373v-431.807zM826.602 636.916v-185.060h-493.494v-123.373h493.494v-370.12h123.373v863.614h-123.373v-185.060z" />
<glyph unicode="&#xe92b;" glyph-name="overflow-text" horiz-adv-x="1036" d="M72.282 390.024v-421.647h120.471v843.294h-120.471v-421.647zM493.929 691.2v-120.471h120.471v240.941h-120.471v-120.471zM734.871 506.88v-56.621h-421.647v-120.471h420.442l3.614-60.235 3.614-61.44 87.944 87.944 86.739 87.944-90.353 90.353-90.353 89.148v-56.621zM493.929 88.847v-120.471h120.471v240.941h-120.471v-120.471z" />
<glyph unicode="&#xe92c;" glyph-name="star-half" horiz-adv-x="1152" d="M576 896c-22.8 0-45.6-11.8-57.4-35.6l-130.6-264.8-292.2-42.4c-52.4-7.6-73.4-72.2-35.4-109.2l211.4-206-50-291c-9-52.2 46-92 92.8-67.4l261.4 137.2v879.2z" />
<glyph unicode="&#xe967;" glyph-name="undo2" d="M761.862-128c113.726 206.032 132.888 520.306-313.862 509.824v-253.824l-384 384 384 384v-248.372c534.962 13.942 594.57-472.214 313.862-775.628z" />
<glyph unicode="&#xe968;" glyph-name="redo2" d="M576 647.628v248.372l384-384-384-384v253.824c-446.75 10.482-427.588-303.792-313.86-509.824-280.712 303.414-221.1 789.57 313.86 775.628z" />
<glyph unicode="&#xe982;" glyph-name="spinner9" d="M512 896c-278.748 0-505.458-222.762-511.848-499.974 5.92 241.864 189.832 435.974 415.848 435.974 229.75 0 416-200.576 416-448 0-53.020 42.98-96 96-96s96 42.98 96 96c0 282.77-229.23 512-512 512zM512-128c278.748 0 505.458 222.762 511.848 499.974-5.92-241.864-189.832-435.974-415.848-435.974-229.75 0-416 200.576-416 448 0 53.020-42.98 96-96 96s-96-42.98-96-96c0-282.77 229.23-512 512-512z" />
<glyph unicode="&#xf002;" glyph-name="search" d="M1017-41.801c9.4-9.398 9.4-24.6 0-34l-45.199-45.199c-9.4-9.4-24.602-9.4-34 0l-242.8 242.8c-4.4 4.6-7 10.6-7 17v26.398c-73-63-168-101.199-272-101.199-229.8 0-416 186.199-416 416s186.199 416 416 416 416-186.199 416-416c0-104-38.199-199-101.199-272h26.398c6.4 0 12.4-2.4 17-7zM416 160c176.801 0 320 143.199 320 320s-143.199 320-320 320-320-143.199-320-320 143.199-320 320-320z" />
<glyph unicode="&#xf003;" glyph-name="search-full" d="M1010 10.6c18.6-18.799 18.6-49.199-0.199-68l-56.602-56.6c-18.6-18.801-49-18.801-67.799 0l-199.4 199.4c-9 9-14 21.199-14 34v32.6c-70.6-55.199-159.4-88-256-88-229.8 0-416 186.199-416 416s186.199 416 416 416 416-186.199 416-416c0-96.6-32.801-185.4-88-256h32.6c12.801 0 25-5 34-14zM416 224c141.6 0 256 114.6 256 256 0 141.6-114.6 256-256 256-141.6 0-256-114.6-256-256 0-141.6 114.6-256 256-256z" />
<glyph unicode="&#xf004;" glyph-name="heart" d="M924.6 770.8c125.6-107.201 132.201-299.602 19.6-415.8l-387-399.6c-25-25.801-65.6-25.801-90.6 0l-387 399.6c-112.4 116.199-105.799 308.6 19.801 415.8 109.6 93.398 272.798 76.6 373.2-27.201l39.4-40.6 39.4 40.6c100.6 103.801 263.6 120.6 373.2 27.201z" />
<glyph unicode="&#xf005;" glyph-name="star" horiz-adv-x="1152" d="M1056.2 553c52.4-7.6 73.4-72.199 35.4-109.199l-211.4-206 50-291c9-52.602-46.398-91.801-92.799-67.4l-261.4 137.4-261.4-137.4c-46.4-24.6-101.799 14.799-92.799 67.4l50 291-211.4 206c-38 37-17 101.6 35.4 109.199l292.2 42.6 130.6 264.8c23.6 47.799 91.4 47.199 114.801 0l130.6-264.8zM777.2 271.4l201.202 196-278 40.4-124.4 252-124.4-252-278-40.4 201.202-196-47.4-276.8 248.6 130.6 248.6-130.6z" />
<glyph unicode="&#xf006;" glyph-name="star-full" horiz-adv-x="1152" d="M518.6 860.4c23.6 47.799 91.4 47.199 114.801 0l130.6-264.8 292.2-42.6c52.4-7.6 73.4-72.199 35.4-109.199l-211.4-206 50-291c9-52.602-46.398-91.801-92.799-67.4l-261.4 137.4-261.4-137.4c-46.4-24.6-101.799 14.799-92.799 67.4l50 291-211.4 206c-38 37-17 101.6 35.4 109.199l292.2 42.6z" />
<glyph unicode="&#xf007;" glyph-name="search-thin" d="M1017-67.199c9.4-9.4 9.4-24.602 0-34l-19.801-19.801c-9.398-9.4-24.6-9.4-34 0l-258 258c-4.398 4.6-7 10.6-7 17v20.4c-74.199-68.4-173.199-110.4-282.2-110.4-229.8 0-416 186.199-416 416s186.199 416 416 416 416-186.199 416-416c0-109-42-208-110.6-282.2h20.6c6.4 0 12.4-2.4 17-7zM416 128c194.6 0 352 157.4 352 352s-157.4 352-352 352-352-157.4-352-352 157.4-352 352-352z" />
<glyph unicode="&#xf009;" glyph-name="th-large" d="M0 736c0 53.020 42.98 96 96 96h832c53.020 0 96-42.98 96-96v-704c0-53.020-42.98-96-96-96h-832c-53.020 0-96 42.98-96 96v704zM464 736h-356c-6.623 0-12-5.377-12-12v-292h368v304zM96 336v-292c0-6.623 5.377-12 12-12h356v304h-368zM560 32h356c6.623 0 12 5.377 12 12v292h-368v-304zM928 432v292c0 6.623-5.377 12-12 12h-356v-304h368z" />
<glyph unicode="&#xf00a;" glyph-name="th" d="M928 832c53 0 96-43 96-96v-704c0-53-43-96-96-96h-832c-53 0-96 43-96 96v704c0 53 43 96 96 96h832zM394.6 752v-192h234.6v192h-234.6zM394.6 480v-192h234.6v192h-234.6zM314.6 16v192h-234.6v-168c0-13.199 10.801-24 24-24h210.6zM314.6 288v192h-234.6v-192h234.6zM314.6 560v192h-210.6c-13.199 0-24-10.801-24-24v-168h234.6zM629.4 16h-0.201v192h-234.6v-192h234.8zM944 16v192h-234.6v-192h234.6zM944 288v192h-234.6v-192h234.6zM944 560v192h-234.6v-192h234.6z" />
<glyph unicode="&#xf00b;" glyph-name="th-list" d="M0 736c0 53.020 42.98 96 96 96h832c53.020 0 96-42.98 96-96v-704c0-53.020-42.98-96-96-96h-832c-53.020 0-96 42.98-96 96v704zM944 288v192h-549.334v-192h549.334zM944 208h-549.334v-192h525.334c13.254 0 24 10.746 24 24v168zM80 480v-192h234.666v192h-234.666zM394.666 560h549.334v168c0 13.254-10.746 24-24 24h-525.334v-192zM314.666 752h-210.666c-13.254 0-24-10.746-24-24v-168h234.666v192zM80 208v-168c0-13.254 10.746-24 24-24h210.666v192h-234.666z" />
<glyph unicode="&#xf00c;" glyph-name="check" d="M871.696 729.068c9.373 9.371 24.568 9.371 33.941 0l56.566-56.568c9.373-9.373 9.373-24.57 0-33.941l-599.624-599.626c-9.375-9.371-24.57-9.371-33.941 0l-266.842 266.842c-9.373 9.375-9.373 24.57 0 33.943l56.566 56.566c9.375 9.373 24.57 9.373 33.943 0l193.303-193.303z" />
<glyph unicode="&#xf00d;" glyph-name="times" horiz-adv-x="640" d="M415.2 384l215.46-215.42c12.459-12.48 12.459-32.699 0-45.16l-50.061-50.061c-12.48-12.459-32.699-12.459-45.16 0l-215.44 215.442-215.42-215.46c-12.48-12.459-32.699-12.459-45.16 0l-50.061 50.061c-12.459 12.48-12.459 32.699 0 45.16l215.442 215.44-215.442 215.44c-12.459 12.48-12.459 32.701 0 45.16l50.041 50.041c12.48 12.459 32.699 12.459 45.16 0l215.44-215.442 215.42 215.46c12.48 12.459 32.699 12.459 45.16 0l50.061-50.061c12.459-12.48 12.459-32.699 0-45.16z" />
<glyph unicode="&#xf00e;" glyph-name="th-large-full" d="M592 832h384c26.51 0 48-21.49 48-48v-320c0-26.51-21.49-48-48-48h-384c-26.51 0-48 21.49-48 48v320c0 26.51 21.49 48 48 48zM432 832c26.51 0 48-21.49 48-48v-320c0-26.51-21.49-48-48-48h-384c-26.51 0-48 21.49-48 48v320c0 26.51 21.49 48 48 48h384zM0 304c0 26.51 21.49 48 48 48h384c26.51 0 48-21.49 48-48v-320c0-26.51-21.49-48-48-48h-384c-26.51 0-48 21.49-48 48v320zM592-64c-26.51 0-48 21.49-48 48v320c0 26.51 21.49 48 48 48h384c26.51 0 48-21.49 48-48v-320c0-26.51-21.49-48-48-48h-384z" />
<glyph unicode="&#xf00f;" glyph-name="th-full" d="M298.666 784v-160c0-26.51-21.49-48-48-48h-202.666c-26.51 0-48 21.49-48 48v160c0 26.51 21.49 48 48 48h202.666c26.51 0 48-21.49 48-48zM661.334 304c0-26.51-21.49-48-48.002-48h-202.666c-26.51 0-48 21.49-48 48v160c0 26.51 21.49 48 48 48h202.668c26.51 0 48-21.49 48-48v-160zM725.334 784c0 26.51 21.49 48 48 48h202.666c26.51 0 48-21.49 48-48v-160c0-26.51-21.49-48-48-48h-202.666c-26.51 0-48 21.49-48 48v160zM661.334 624c0-26.51-21.49-48-48.002-48h-202.666c-26.51 0-48 21.49-48 48v160c0 26.51 21.49 48 48 48h202.668c26.51 0 48-21.49 48-48v-160zM250.666 512c26.51 0 48-21.49 48-48v-160c0-26.51-21.49-48-48-48h-202.666c-26.51 0-48 21.49-48 48v160c0 26.51 21.49 48 48 48h202.666zM0 144c0 26.51 21.49 48 48 48h202.666c26.51 0 48-21.49 48-48v-160c0-26.51-21.49-48-48-48h-202.666c-26.51 0-48 21.49-48 48v160zM773.334 256c-26.51 0-48 21.49-48 48v160c0 26.51 21.49 48 48 48h202.666c26.51 0 48-21.49 48-48v-160c0-26.51-21.49-48-48-48h-202.666zM773.334-64c-26.51 0-48 21.49-48 48v160c0 26.51 21.49 48 48 48h202.666c26.51 0 48-21.49 48-48v-160c0-26.51-21.49-48-48-48h-202.666zM362.666 144c0 26.51 21.49 48 48 48h202.666c26.51 0 48-21.49 48-48v-160c0-26.51-21.49-48-48-48h-202.666c-26.51 0-48 21.49-48 48v160z" />
<glyph unicode="&#xf010;" glyph-name="th-list-full" d="M298.666 464v-160c0-26.51-21.49-48-48-48h-202.666c-26.51 0-48 21.49-48 48v160c0 26.51 21.49 48 48 48h202.666c26.51 0 48-21.49 48-48zM0 144c0 26.51 21.49 48 48 48h202.666c26.51 0 48-21.49 48-48v-160c0-26.51-21.49-48-48-48h-202.666c-26.51 0-48 21.49-48 48v160zM250.666 832c26.51 0 48-21.49 48-48v-160c0-26.51-21.49-48-48-48h-202.666c-26.51 0-48 21.49-48 48v160c0 26.51 21.49 48 48 48h202.666zM410.666-64c-26.51 0-48 21.49-48 48v160c0 26.51 21.49 48 48 48h565.334c26.51 0 48-21.49 48-48v-160c0-26.51-21.49-48-48-48h-565.334zM362.666 784c0 26.51 21.49 48 48 48h565.334c26.51 0 48-21.49 48-48v-160c0-26.51-21.49-48-48-48h-565.334c-26.51 0-48 21.49-48 48v160zM410.666 256c-26.51 0-48 21.49-48 48v160c0 26.51 21.49 48 48 48h565.334c26.51 0 48-21.49 48-48v-160c0-26.51-21.49-48-48-48h-565.334z" />
<glyph unicode="&#xf011;" glyph-name="check-full" d="M347.796 17.191l-332.8 332.8c-19.994 19.994-19.994 52.412 0 72.408l72.406 72.408c19.994 19.996 52.414 19.996 72.408 0l224.19-224.19 480.19 480.19c19.994 19.994 52.414 19.994 72.408 0l72.406-72.408c19.994-19.994 19.994-52.412 0-72.408l-588.8-588.802c-19.996-19.994-52.414-19.994-72.406 0.002z" />
<glyph unicode="&#xf012;" glyph-name="times-full" horiz-adv-x="704" d="M485.44 384l200.14-200.14c24.561-24.58 24.561-64.398 0-88.959l-44.48-44.48c-24.561-24.561-64.4-24.561-88.959 0l-200.14 200.14-200.14-200.14c-24.559-24.561-64.398-24.561-88.959 0l-44.48 44.48c-24.561 24.58-24.561 64.4 0 88.959l200.14 200.14-200.14 200.14c-24.561 24.58-24.561 64.398 0 88.959l44.48 44.48c24.58 24.561 64.4 24.561 88.959 0l200.14-200.14 200.14 200.14c24.58 24.561 64.398 24.561 88.959 0l44.48-44.48c24.561-24.58 24.561-64.4 0-88.959z" />
<glyph unicode="&#xf013;" glyph-name="cog" d="M974.8 264.6c9.799-5.6 14.199-17.199 11.199-28.199-22.199-71.4-60-135.801-109.4-189.201-7.6-8.398-19.799-10.199-29.6-4.6l-85.199 49.201c-36-30.602-77.201-54.4-121.602-70.201v-98.4c0-11.199-7.799-21-18.799-23.398-69.801-15.602-145-16.4-218.4 0-11 2.398-18.801 12.199-18.801 23.398v98.4c-44.6 15.6-85.799 39.4-121.6 70.201l-85.199-49.201c-9.6-5.6-22-3.6-29.6 4.6-49.4 53.602-87.201 118-109.4 189.201-3.201 10.799 1.199 22.4 11 28l85.199 49.199c-8.6 46.4-8.6 94 0 140.4l-85.199 49.199c-9.801 5.602-14.4 17.201-11 28 22.199 71.4 60 135.801 109.4 189.201 7.6 8.4 19.799 10.199 29.6 4.6l85-49.199c36 30.6 77.199 54.398 121.6 70.199v98.4c0 11.199 7.801 21 18.801 23.4 69.799 15.6 145 16.398 218.398 0 11-2.4 18.801-12.201 18.801-23.4v-98.201c44.6-15.6 85.801-39.398 121.6-70.199l85.201 49.199c9.6 5.602 22 3.602 29.6-4.6 49.4-53.6 87.199-118 109.4-189.199 3.199-10.801-1.201-22.4-11-28l-85.201-49.201c8.6-46.398 8.6-94 0-140.398zM512 224c88.199 0 160 71.801 160 160s-71.801 160-160 160-160-71.801-160-160 71.801-160 160-160z" />
<glyph unicode="&#xf015;" glyph-name="check-thin" horiz-adv-x="896" d="M827.010 712.098c9.373 9.373 24.568 9.373 33.939 0l22.629-22.627c9.371-9.375 9.371-24.57 0-33.943l-599.626-599.624c-9.373-9.373-24.568-9.373-33.941 0l-237.588 237.588c-9.371 9.373-9.371 24.57 0 33.941l22.627 22.627c9.373 9.371 24.568 9.371 33.941 0l197.99-197.99z" />
<glyph unicode="&#xf016;" glyph-name="times-thin" horiz-adv-x="640" d="M387.88 384l247.42-247.42c6.238-6.24 6.238-16.381 0-22.619l-45.262-45.262c-6.238-6.238-16.379-6.238-22.619 0l-247.421 247.421-247.44-247.42c-6.24-6.238-16.381-6.238-22.621 0l-45.26 45.262c-6.24 6.238-6.24 16.379 0 22.619l247.44 247.42-247.44 247.44c-6.24 6.24-6.24 16.381 0 22.621l45.281 45.26c6.238 6.24 16.379 6.24 22.619 0l247.42-247.44 247.42 247.42c6.24 6.238 16.381 6.238 22.619 0l45.262-45.262c6.238-6.238 6.238-16.379 0-22.619l-42.301-42.301z" />
<glyph unicode="&#xf017;" glyph-name="clock" d="M512 880c274 0 496-222 496-496s-222-496-496-496-496 222-496 496 222 496 496 496zM512-16c221 0 400 179 400 400s-179 400-400 400-400-179-400-400 179-400 400-400zM635.6 192.801l-169.799 123.398c-6.201 4.602-9.801 11.801-9.801 19.4v328.4c0 13.199 10.801 24 24 24h64c13.199 0 24-10.801 24-24v-283.4l133.6-97.199c10.801-7.801 13-22.801 5.201-33.6l-37.602-51.801c-7.799-10.6-22.799-13-33.6-5.199z" />
<glyph unicode="&#xf018;" glyph-name="clock-full" d="M512 880c274 0 496-222 496-496s-222-496-496-496-496 222-496 496 222 496 496 496zM696.98 254c3.881 4.842 7.029 13.807 7.029 20.012 0 8.49-5.381 19.686-12.010 24.988l-116 85v288c0 17.664-14.336 32-32 32h-64c-17.664 0-32-14.336-32-32v-311.11c0-21.215 13.439-49.191 30-62.451l134-99.439c4.838-3.871 13.795-7.012 19.99-7.012 8.49 0 19.686 5.381 24.99 12.012l40 50z" />
<glyph unicode="&#xf019;" glyph-name="clock-thin" d="M512 880c274 0 496-222 496-496s-222-496-496-496-496 222-496 496 222 496 496 496zM944 384c0 239.8-194.6 432-432 432-239.8 0-432-194.6-432-432 0-239.8 194.6-432 432-432 239.8 0 432 194.6 432 432zM646.2 207.4l-162.398 118c-6.201 4.6-9.801 11.799-9.801 19.4v319.2c0 13.199 10.801 24 24 24h28c13.199 0 24-10.801 24-24v-292.6l141-102.6c10.801-7.801 13-22.801 5.199-33.602l-16.398-22.6c-7.801-10.6-22.801-13-33.602-5.199z" />
<glyph unicode="&#xf01e;" glyph-name="redo" d="M1000 880c13.254 0 24-10.746 24-24v-384c0-13.254-10.746-24-24-24h-384c-13.254 0-24 10.746-24 24v55.42c0 13.48 11.098 24.314 24.572 23.994l252.778-6.018c-61.467 136.039-198.26 230.604-357.35 230.604-216.676 0-392-175.355-392-392 0-216.676 175.355-392 392-392 100.211 0 191.574 37.508 260.842 99.262 9.496 8.467 24.006 7.893 33.002-1.104l39.477-39.477c9.744-9.744 9.262-25.629-0.965-34.865-87.951-79.443-204.504-127.816-332.356-127.816-273.67 0-495.572 221.638-496 495.208-0.426 272.776 221.64 495.938 494.414 496.792 173.162 0.541 325.736-87.666 414.864-221.706l-4.693 197.135c-0.32 13.477 10.516 24.572 23.994 24.572h55.422z" />
<glyph unicode="&#xf021;" glyph-name="sync" d="M1000 880c13.254 0 24-10.746 24-24v-384c0-13.254-10.746-24-24-24h-384c-13.254 0-24 10.746-24 24v55.42c0 13.48 11.098 24.314 24.572 23.994l252.78-6.018c-61.467 136.039-198.262 230.604-357.352 230.604-188.166 0-345.118-132.256-383.168-308.942-2.391-11.094-12.127-19.059-23.475-19.059h-57.152c-14.998 0-26.389 13.613-23.613 28.352 43.273 229.8 245.036 403.648 487.408 403.648 172.512 0 324.424-88.086 413.278-221.722l-4.693 197.15c-0.32 13.477 10.516 24.572 23.994 24.572h55.422zM975.794 320c14.998 0 26.389-13.613 23.613-28.352-43.273-229.8-245.036-403.648-487.408-403.648-172.512 0-324.424 88.086-413.278 221.722l4.693-197.15c0.32-13.477-10.516-24.572-23.994-24.572h-55.422c-13.254 0-24 10.746-24 24v384c0 13.254 10.746 24 24 24h384c13.254 0 24-10.746 24-24v-55.42c0-13.48-11.098-24.314-24.572-23.994l-252.78 6.018c61.467-136.039 198.26-230.604 357.352-230.604 188.166 0 345.118 132.256 383.168 308.942 2.391 11.094 12.127 19.059 23.475 19.059h57.152z" />
<glyph unicode="&#xf031;" glyph-name="font" horiz-adv-x="896" d="M864 32c17.664 0 32-14.336 32-32v-32c0-17.664-14.336-32-32-32h-256c-17.664 0-32 14.336-32 32v32c0 17.664 14.336 32 32 32h70.881l-66.621 192h-328.52l-66.621-192h70.881c17.664 0 32-14.336 32-32v-32c0-17.664-14.336-32-32-32h-256c-17.664 0-32 14.336-32 32v32c0 17.664 14.336 32 32 32h66.641l270.020 778.48c4.117 11.879 17.662 21.52 30.234 21.52h98.23c12.572 0 26.117-9.641 30.234-21.52l270-778.48h66.641zM317.060 320h261.878l-130.939 377.38z" />
<glyph unicode="&#xf032;" glyph-name="bold" horiz-adv-x="768" d="M629.040 418.44c82.201-42.6 138.961-127.459 138.961-226.44 0-141.312-114.688-256-256-256h-416c-17.664 0-32 14.336-32 32v32c0 17.664 14.336 32 32 32h32v704h-32c-17.664 0-32 14.336-32 32v32c0 17.664 14.336 32 32 32h368.48c132.215 0 239.52-107.305 239.52-239.52 0-56.945-33.582-134.916-74.961-174.041zM256 736v-288h176c79.488 0 144 64.512 144 144s-64.512 144-144 144h-176zM480 32c88.32 0 160 71.68 160 160s-71.68 160-160 160h-224v-320h224z" />
<glyph unicode="&#xf033;" glyph-name="italic" horiz-adv-x="640" d="M640 800v-32c0-17.664-14.336-32-32-32h-134l-176-704h118c17.664 0 32-14.336 32-32v-32c0-17.664-14.336-32-32-32h-384c-17.664 0-32 14.336-32 32v32c0 17.664 14.336 32 32 32h134l176 704h-118c-17.664 0-32 14.336-32 32v32c0 17.664 14.336 32 32 32h384c17.664 0 32-14.336 32-32z" />
<glyph unicode="&#xf036;" glyph-name="align-left" horiz-adv-x="896" d="M25.66 208c-14.154 0-25.66 11.486-25.66 25.641v44.719c0 14.154 11.486 25.641 25.641 25.641h524.719c14.154 0 25.641-11.486 25.641-25.641v-44.719c0-14.154-11.486-25.641-25.641-25.641h-524.7zM25.66 720c-14.154 0-25.66 11.486-25.66 25.641v44.719c0 14.154 11.486 25.641 25.641 25.641h524.719c14.154 0 25.641-11.486 25.641-25.641v-44.719c0-14.154-11.486-25.641-25.641-25.641h-524.7zM864 560c17.664 0 32-14.336 32-32v-32c0-17.664-14.336-32-32-32h-832c-17.664 0-32 14.336-32 32v32c0 17.664 14.336 32 32 32h832zM864 48c17.664 0 32-14.336 32-32v-32c0-17.664-14.336-32-32-32h-832c-17.664 0-32 14.336-32 32v32c0 17.664 14.336 32 32 32h832z" />
<glyph unicode="&#xf037;" glyph-name="align-center" horiz-adv-x="896" d="M216.2 720c-13.357 0-24.199 10.842-24.199 24.199v47.621c0 13.348 10.832 24.18 24.18 24.18h463.642c13.348 0 24.18-10.832 24.18-24.18v-47.641c0-13.348-10.832-24.18-24.18-24.18v0h-463.622zM864 48c17.664 0 32-14.336 32-32v-32c0-17.664-14.336-32-32-32h-832c-17.664 0-32 14.336-32 32v32c0 17.664 14.336 32 32 32h832zM864 560c17.664 0 32-14.336 32-32v-32c0-17.664-14.336-32-32-32h-832c-17.664 0-32 14.336-32 32v32c0 17.664 14.336 32 32 32h832zM679.82 208h-463.622c-13.357 0-24.199 10.842-24.199 24.199v47.621c0 13.348 10.832 24.18 24.18 24.18h463.642c13.348 0 24.18-10.832 24.18-24.18v-47.641c0-13.348-10.832-24.18-24.18-24.18v0z" />
<glyph unicode="&#xf038;" glyph-name="align-right" horiz-adv-x="896" d="M32 464c-17.664 0-32 14.336-32 32v32c0 17.664 14.336 32 32 32h832c17.664 0 32-14.336 32-32v-32c0-17.664-14.336-32-32-32h-832zM864 48c17.664 0 32-14.336 32-32v-32c0-17.664-14.336-32-32-32h-832c-17.664 0-32 14.336-32 32v32c0 17.664 14.336 32 32 32h832zM870.34 816c14.154 0 25.66-11.486 25.66-25.641v-44.719c0-14.154-11.486-25.641-25.641-25.641h-524.719c-14.154 0-25.641 11.486-25.641 25.641v44.719c0 14.154 11.486 25.641 25.641 25.641h524.7zM870.34 304c14.154 0 25.66-11.486 25.66-25.641v-44.719c0-14.154-11.486-25.641-25.641-25.641h-524.719c-14.154 0-25.641 11.486-25.641 25.641v44.719c0 14.154 11.486 25.641 25.641 25.641h524.7z" />
<glyph unicode="&#xf039;" glyph-name="align-justify" horiz-adv-x="896" d="M864 48c17.664 0 32-14.336 32-32v-32c0-17.664-14.336-32-32-32h-832c-17.664 0-32 14.336-32 32v32c0 17.664 14.336 32 32 32h832zM864 304c17.664 0 32-14.336 32-32v-32c0-17.664-14.336-32-32-32h-832c-17.664 0-32 14.336-32 32v32c0 17.664 14.336 32 32 32h832zM864 560c17.664 0 32-14.336 32-32v-32c0-17.664-14.336-32-32-32h-832c-17.664 0-32 14.336-32 32v32c0 17.664 14.336 32 32 32h832zM864 816c17.664 0 32-14.336 32-32v-32c0-17.664-14.336-32-32-32h-832c-17.664 0-32 14.336-32 32v32c0 17.664 14.336 32 32 32h832z" />
<glyph unicode="&#xf03a;" glyph-name="list" d="M160 800c17.664 0 32-14.336 32-32v-128c0-17.664-14.336-32-32-32h-128c-17.664 0-32 14.336-32 32v128c0 17.664 14.336 32 32 32h128zM160 480c17.664 0 32-14.336 32-32v-128c0-17.664-14.336-32-32-32h-128c-17.664 0-32 14.336-32 32v128c0 17.664 14.336 32 32 32h128zM160 160c17.664 0 32-14.336 32-32v-128c0-17.664-14.336-32-32-32h-128c-17.664 0-32 14.336-32 32v128c0 17.664 14.336 32 32 32h128zM992 432c17.664 0 32-14.336 32-32v-32c0-17.664-14.336-32-32-32h-640c-17.664 0-32 14.336-32 32v32c0 17.664 14.336 32 32 32h640zM992 112c17.664 0 32-14.336 32-32v-32c0-17.664-14.336-32-32-32h-640c-17.664 0-32 14.336-32 32v32c0 17.664 14.336 32 32 32h640zM992 752c17.664 0 32-14.336 32-32v-32c0-17.664-14.336-32-32-32h-640c-17.664 0-32 14.336-32 32v32c0 17.664 14.336 32 32 32h640z" />
<glyph unicode="&#xf03b;" glyph-name="outdent" horiz-adv-x="896" d="M201.38 169.42l-192 191.961c-5.17 5.172-9.365 15.307-9.365 22.619s4.195 17.447 9.365 22.619l192 192c19.959 20 54.619 6.021 54.619-22.619v-383.96c0-28.479-34.619-42.619-54.619-22.619zM864 48c17.664 0 32-14.336 32-32v-32c0-17.664-14.336-32-32-32h-832c-17.664 0-32 14.336-32 32v32c0 17.664 14.336 32 32 32h832zM870.34 304c14.154 0 25.66-11.486 25.66-25.641v-44.719c0-14.154-11.486-25.641-25.641-25.641h-460.719c-14.154 0-25.641 11.486-25.641 25.641v44.719c0 14.154 11.486 25.641 25.641 25.641h460.7zM864 816c17.664 0 32-14.336 32-32v-32c0-17.664-14.336-32-32-32h-832c-17.664 0-32 14.336-32 32v32c0 17.664 14.336 32 32 32h832zM870.34 560c14.154 0 25.66-11.486 25.66-25.641v-44.719c0-14.154-11.486-25.641-25.641-25.641h-460.719c-14.154 0-25.641 11.486-25.641 25.641v44.719c0 14.154 11.486 25.641 25.641 25.641h460.7z" />
<glyph unicode="&#xf03c;" glyph-name="indent" horiz-adv-x="896" d="M864 48c17.664 0 32-14.336 32-32v-32c0-17.664-14.336-32-32-32h-832c-17.664 0-32 14.336-32 32v32c0 17.664 14.336 32 32 32h832zM54.619 169.4c-19.959-20-54.619-6.020-54.619 22.6v384c0 28.439 34.539 42.68 54.619 22.641l192-192c5.17-5.174 9.365-15.307 9.365-22.621s-4.195-17.447-9.365-22.619zM870.34 560c14.154 0 25.66-11.486 25.66-25.641v-44.719c0-14.154-11.486-25.641-25.641-25.641h-460.719c-14.154 0-25.641 11.486-25.641 25.641v44.719c0 14.154 11.486 25.641 25.641 25.641h460.7zM864 800c17.664 0 32-14.336 32-32v-32c0-17.664-14.336-32-32-32h-832c-17.664 0-32 14.336-32 32v32c0 17.664 14.336 32 32 32h832zM870.34 304c14.154 0 25.66-11.486 25.66-25.641v-44.719c0-14.154-11.486-25.641-25.641-25.641h-460.719c-14.154 0-25.641 11.486-25.641 25.641v44.719c0 14.154 11.486 25.641 25.641 25.641h460.7z" />
<glyph unicode="&#xf03e;" glyph-name="image" d="M928 768c53.020 0 96-42.98 96-96v-576c0-53.020-42.98-96-96-96h-832c-53.020 0-96 42.98-96 96v576c0 53.020 42.98 96 96 96h832zM916 96c6.623 0 12 5.377 12 12v552c0 6.623-5.377 12-12 12h-808c-6.623 0-12-5.377-12-12v-552c0-6.623 5.377-12 12-12h808zM256 592c44.182 0 80-35.818 80-80s-35.818-80-80-80-80 35.818-80 80 35.818 80 80 80zM192 192v96l79.027 79.029c9.375 9.373 24.57 9.373 33.943 0l79.029-79.029 239.028 239.030c9.375 9.373 24.57 9.373 33.943 0l175.029-175.029v-160h-640z" />
<glyph unicode="&#xf044;" glyph-name="tint" horiz-adv-x="704" d="M410.44 851.82c93.98-316.96 293.56-400.14 293.56-623.64 0-196.879-157.439-356.18-352-356.18s-352 159.301-352 356.18c0 222.38 200.020 308.122 293.56 623.64 18 60.24 101 57.561 116.879 0zM352 0c17.68 0 32 14.32 32 32s-14.32 32-32 32c-88.221 0-160 71.779-160 160 0 17.68-14.32 32-32 32s-32-14.32-32-32c0-123.5 100.5-224 224-224z" />
<glyph unicode="&#xf048;" glyph-name="step-backward" horiz-adv-x="896" d="M128-40v848c0 13.199 10.801 24 24 24h96c13.199 0 24-10.801 24-24v-352.8l391 362c41.199 34.201 105 5.602 105-49.199v-768c0-54.801-63.801-83.4-105-49.199l-391 359.798v-350.6c0-13.199-10.801-24-24-24h-96c-13.199 0-24 10.801-24 24z" />
<glyph unicode="&#xf04b;" glyph-name="play" horiz-adv-x="896" d="M848.8 466.6c63-37 62.799-128.199 0-165.199l-704-416c-63.4-37.6-144.801 7.6-144.801 82.6v832.2c0 83.602 87.6 116.4 144.801 82.602z" />
<glyph unicode="&#xf04d;" glyph-name="stop-thin" horiz-adv-x="896" d="M800 832c53 0 96-43 96-96v-704c0-53-43-96-96-96h-704c-53 0-96 43-96 96v704c0 53 43 96 96 96h704zM832 32v704c0 17.6-14.4 32-32 32h-704c-17.6 0-32-14.4-32-32v-704c0-17.6 14.4-32 32-32h704c17.6 0 32 14.4 32 32z" />
<glyph unicode="&#xf04e;" glyph-name="stop" horiz-adv-x="896" d="M800 832c53 0 96-43 96-96v-704c0-53-43-96-96-96h-704c-53 0-96 43-96 96v704c0 53 43 96 96 96h704zM788 32c6.6 0 12 5.4 12 12v680c0 6.6-5.4 12-12 12h-680c-6.6 0-12-5.4-12-12v-680c0-6.6 5.4-12 12-12h680z" />
<glyph unicode="&#xf051;" glyph-name="step-forward" horiz-adv-x="896" d="M768 808v-848c0-13.199-10.801-24-24-24h-96c-13.199 0-24 10.801-24 24v352.8l-391-362c-41.199-34.201-105-5.602-105 49.199v768c0 54.801 63.801 83.4 105 49.199l391-359.798v350.6c0 13.199 10.801 24 24 24h96c13.199 0 24-10.801 24-24z" />
<glyph unicode="&#xf053;" glyph-name="chevron-left" horiz-adv-x="512" d="M462.586-51.799c-9.371-9.373-24.568-9.373-33.941-0.002l-418.828 418.828c-9.373 9.375-9.373 24.57 0 33.943l418.828 418.83c9.373 9.371 24.57 9.371 33.941 0l39.598-39.6c9.373-9.373 9.373-24.568 0-33.941l-361.398-362.26 361.398-362.258c9.373-9.375 9.373-24.57 0-33.941z" />
<glyph unicode="&#xf054;" glyph-name="chevron-right" horiz-adv-x="512" d="M49.414 819.798c9.371 9.373 24.568 9.373 33.941 0l418.828-418.828c9.373-9.375 9.373-24.57 0-33.943l-418.828-418.828c-9.373-9.371-24.57-9.371-33.941 0l-39.598 39.6c-9.373 9.373-9.373 24.568 0 33.941l361.398 362.26-361.398 362.26c-9.373 9.375-9.373 24.57 0 33.941z" />
<glyph unicode="&#xf055;" glyph-name="plus-circle" d="M768 416v-64c0-13.199-10.801-24-24-24h-176v-176c0-13.199-10.801-24-24-24h-64c-13.199 0-24 10.801-24 24v176h-176c-13.199 0-24 10.801-24 24v64c0 13.199 10.801 24 24 24h176v176c0 13.199 10.801 24 24 24h64c13.199 0 24-10.801 24-24v-176h176c13.199 0 24-10.801 24-24zM1008 384c0-274-222-496-496-496s-496 222-496 496 222 496 496 496 496-222 496-496zM912 384c0 221-179 400-400 400s-400-179-400-400 179-400 400-400 400 179 400 400z" />
<glyph unicode="&#xf056;" glyph-name="minus-circle" d="M280 328c-13.199 0-24 10.801-24 24v64c0 13.199 10.801 24 24 24h464c13.199 0 24-10.801 24-24v-64c0-13.199-10.801-24-24-24h-464zM1008 384c0-274-222-496-496-496s-496 222-496 496 222 496 496 496 496-222 496-496zM912 384c0 221-179 400-400 400s-400-179-400-400 179-400 400-400 400 179 400 400z" />
<glyph unicode="&#xf057;" glyph-name="times-circle" d="M512 880c274 0 496-222 496-496s-222-496-496-496-496 222-496 496 222 496 496 496zM512-16c221 0 400 179 400 400s-179 400-400 400-400-179-400-400 179-400 400-400zM715.6 508.4l-124.4-124.4 124.4-124.4c9.4-9.4 9.4-24.6 0-34l-45.199-45.199c-9.4-9.4-24.6-9.4-34 0l-124.4 124.4-124.4-124.4c-9.4-9.4-24.6-9.4-34 0l-45.199 45.199c-9.4 9.4-9.4 24.6 0 34l124.4 124.4-124.4 124.4c-9.4 9.4-9.4 24.6 0 34l45.199 45.199c9.4 9.4 24.6 9.4 34 0l124.4-124.4 124.4 124.4c9.4 9.4 24.6 9.4 34 0l45.199-45.199c9.4-9.4 9.4-24.6 0-34z" />
<glyph unicode="&#xf058;" glyph-name="check-circle" d="M512 880c273.934 0 496-222.066 496-496s-222.066-496-496-496-496 222.066-496 496 222.066 496 496 496zM512 784c-221.098 0-400-178.936-400-400 0-221.098 178.936-400 400-400 221.098 0 400 178.936 400 400 0 221.098-178.936 400-400 400zM792.408 523.466c9.334-9.41 9.273-24.607-0.135-33.943l-345.178-342.408c-9.41-9.336-24.605-9.273-33.939 0.137l-181.562 183.031c-9.336 9.412-9.273 24.609 0.137 33.943l45.438 45.072c9.41 9.334 24.605 9.271 33.939-0.139l119.584-120.555 282.706 280.432c9.41 9.336 24.605 9.275 33.939-0.135z" />
<glyph unicode="&#xf059;" glyph-name="question-circle" d="M512 880c273.914 0 496-222.166 496-496 0-273.994-222.086-496-496-496s-496 222.006-496 496c0 273.834 222.086 496 496 496zM512-16c221.138 0 400 178.939 400 400 0 221.058-179.018 400-400 400-221.056 0-400-179.010-400-400 0-221.138 178.936-400 400-400zM726.488 494.4c0-134.104-144.842-136.168-144.842-185.727v-12.674c0-13.254-10.746-24-24-24h-91.295c-13.254 0-24 10.746-24 24v17.318c0 71.49 54.201 100.068 95.158 123.031 35.123 19.689 56.648 33.082 56.648 59.158 0 34.492-43.998 57.387-79.568 57.387-46.377 0-67.787-21.955-97.885-59.939-8.113-10.238-22.92-12.141-33.332-4.248l-55.646 42.197c-10.215 7.744-12.502 22.131-5.289 32.727 47.254 69.387 107.443 108.369 201.15 108.369 98.143 0 202.9-76.607 202.9-177.6zM596 160c0-46.318-37.682-84-84-84s-84 37.682-84 84 37.682 84 84 84 84-37.682 84-84z" />
<glyph unicode="&#xf05a;" glyph-name="info-circle" d="M512 880c273.914 0 496-222.166 496-496 0-273.994-222.086-496-496-496s-496 222.006-496 496c0 273.834 222.086 496 496 496zM512-16c221.138 0 400 178.939 400 400 0 221.058-179.018 400-400 400-221.056 0-400-179.010-400-400 0-221.138 178.936-400 400-400zM512 660c46.393 0 84-37.607 84-84s-37.607-84-84-84-84 37.607-84 84 37.607 84 84 84zM624 152c0-13.254-10.746-24-24-24h-176c-13.254 0-24 10.746-24 24v48c0 13.254 10.746 24 24 24h24v128h-24c-13.254 0-24 10.746-24 24v48c0 13.254 10.746 24 24 24h128c13.254 0 24-10.746 24-24v-200h24c13.254 0 24-10.746 24-24v-48z" />
<glyph unicode="&#xf05b;" glyph-name="chevron-left-full" horiz-adv-x="640" d="M69.039 417.94l388.702 388.68c18.74 18.74 49.141 18.74 67.879 0l45.342-45.34c18.719-18.719 18.738-49.039 0.078-67.799l-308.058-309.48 308.040-309.5c18.68-18.76 18.641-49.080-0.080-67.801l-45.34-45.34c-18.74-18.74-49.139-18.74-67.879 0l-388.682 388.702c-18.738 18.74-18.738 49.139 0 67.879z" />
<glyph unicode="&#xf05c;" glyph-name="chevron-right-full" horiz-adv-x="640" d="M570.952 350.058l-388.688-388.688c-18.746-18.744-49.137-18.744-67.881 0l-45.334 45.334c-18.715 18.715-18.75 49.045-0.080 67.803l308.042 309.492-308.042 309.49c-18.67 18.758-18.635 49.088 0.080 67.803l45.334 45.334c18.746 18.744 49.137 18.744 67.881 0l388.686-388.688c18.746-18.744 18.746-49.135 0.002-67.881z" />
<glyph unicode="&#xf05d;" glyph-name="plus-circle-full" d="M512 880c274 0 496-222 496-496s-222-496-496-496-496 222-496 496 222 496 496 496zM800 328v112c0 13.199-10.801 24-24 24h-184v184c0 13.199-10.801 24-24 24h-112c-13.199 0-24-10.801-24-24v-184h-184c-13.199 0-24-10.801-24-24v-112c0-13.199 10.801-24 24-24h184v-184c0-13.199 10.801-24 24-24h112c13.199 0 24 10.801 24 24v184h184c13.199 0 24 10.801 24 24z" />
<glyph unicode="&#xf05e;" glyph-name="minus-circle-full" d="M512 880c274 0 496-222 496-496s-222-496-496-496-496 222-496 496 222 496 496 496zM248 304h528c13.199 0 24 10.801 24 24v112c0 13.199-10.801 24-24 24h-528c-13.199 0-24-10.801-24-24v-112c0-13.199 10.801-24 24-24z" />
<glyph unicode="&#xf05f;" glyph-name="times-circle-full" d="M512 880c274 0 496-222 496-496s-222-496-496-496-496 222-496 496 222 496 496 496zM755.2 253.8l-131.199 130.199 131.4 130c9.4 9.4 9.4 24.6 0 34l-79.201 79.199c-9.398 9.4-24.6 9.4-34 0l-130.199-131.199-130 131.4c-9.4 9.4-24.6 9.4-34 0l-79.199-79.201c-9.4-9.398-9.4-24.6 0-34l131.199-130.199-131.199-130c-9.4-9.4-9.4-24.6 0-34l79-79.199c9.398-9.4 24.6-9.4 34 0l130.199 131.199 130-131.199c9.4-9.4 24.6-9.4 34 0l79.199 79c9.4 9.398 9.4 24.6 0 34z" />
<glyph unicode="&#xf060;" glyph-name="arrow-left" horiz-adv-x="896" d="M459.8-51.799c-9.375-9.373-24.57-9.373-33.943-0.002l-418.828 418.828c-9.371 9.375-9.371 24.57 0 33.943l418.828 418.828c9.375 9.371 24.57 9.371 33.943 0l39.598-39.598c9.371-9.373 9.371-24.568 0-33.941l-310.26-310.26h682.862c13.254 0 24-10.746 24-24v-56c0-13.254-10.746-24-24-24h-682.862l310.26-310.258c9.371-9.375 9.371-24.57 0-33.941z" />
<glyph unicode="&#xf061;" glyph-name="arrow-right" horiz-adv-x="896" d="M436.202 819.798c9.373 9.373 24.568 9.373 33.941 0l418.83-418.828c9.371-9.375 9.371-24.57 0-33.943l-418.828-418.828c-9.375-9.371-24.57-9.371-33.943 0l-39.598 39.6c-9.371 9.373-9.371 24.568 0 33.941l310.26 310.26h-682.864c-13.254 0-24 10.746-24 24v56c0 13.254 10.746 24 24 24h682.864l-310.26 310.258c-9.371 9.375-9.371 24.57 0 33.941z" />
<glyph unicode="&#xf062;" glyph-name="arrow-up" horiz-adv-x="896" d="M12.201 372.202c-9.373 9.373-9.373 24.568 0 33.941l418.826 418.828c9.375 9.371 24.57 9.371 33.943 0l418.83-418.826c9.371-9.375 9.371-24.57 0-33.943l-39.6-39.598c-9.373-9.371-24.568-9.371-33.941 0l-310.26 310.26v-682.864c0-13.254-10.746-24-24-24h-56c-13.254 0-24 10.746-24 24v682.864l-310.258-310.26c-9.375-9.371-24.57-9.371-33.941 0z" />
<glyph unicode="&#xf063;" glyph-name="arrow-down" horiz-adv-x="896" d="M883.8 395.8c9.398-9.4 9.398-24.602 0-34l-418.8-418.8c-9.4-9.4-24.6-9.4-34 0l-418.8 418.8c-9.398 9.398-9.398 24.6 0 34l39.602 39.6c9.398 9.4 24.6 9.4 34 0l310.2-310.202v682.8c0 13.199 10.801 24 24 24h56c13.199 0 24-10.801 24-24v-682.8l310.2 310.202c9.4 9.4 24.602 9.4 34 0z" />
<glyph unicode="&#xf064;" glyph-name="check-circle-full" d="M1008 384c0-273.934-222.066-496-496-496s-496 222.066-496 496 222.066 496 496 496 496-222.066 496-496zM454.628 121.371l368 368c12.494 12.496 12.494 32.76 0 45.256l-45.256 45.254c-12.494 12.498-32.758 12.498-45.256 0l-300.118-300.118-140.117 140.119c-12.496 12.496-32.76 12.496-45.256 0l-45.256-45.254c-12.494-12.496-12.494-32.76 0-45.256l208-208c12.498-12.496 32.76-12.496 45.258-0.002z" />
<glyph unicode="&#xf065;" glyph-name="question-circle-full" d="M1008 384c0-273.994-222.086-496-496-496s-496 222.006-496 496c0 273.834 222.086 496 496 496s496-222.166 496-496zM525.31 716c-108.994 0-178.51-45.914-233.098-127.516-7.072-10.572-4.707-24.83 5.43-32.516l69.396-52.621c10.41-7.895 25.242-6.016 33.33 4.244 35.729 45.316 60.227 71.594 114.607 71.594 40.857 0 91.395-26.295 91.395-65.916 0-29.951-24.725-45.334-65.066-67.951-47.049-26.375-109.305-59.201-109.305-141.318v-8c0-13.254 10.746-24 24-24h112c13.254 0 24 10.746 24 24v2.666c0 56.924 166.371 59.295 166.371 213.334 0 116.004-120.328 204-233.060 204zM512 220c-50.73 0-92-41.27-92-92s41.27-92 92-92 92 41.271 92 92c0 50.73-41.27 92-92 92z" />
<glyph unicode="&#xf066;" glyph-name="info-circle-full" d="M512 880c273.914 0 496-222.166 496-496 0-273.994-222.086-496-496-496s-496 222.006-496 496c0 273.834 222.086 496 496 496zM512 660c-46.393 0-84-37.607-84-84s37.607-84 84-84 84 37.607 84 84-37.607 84-84 84zM624 152v48c0 13.254-10.746 24-24 24h-24v200c0 13.254-10.746 24-24 24h-128c-13.254 0-24-10.746-24-24v-48c0-13.254 10.746-24 24-24h24v-128h-24c-13.254 0-24-10.746-24-24v-48c0-13.254 10.746-24 24-24h176c13.254 0 24 10.746 24 24z" />
<glyph unicode="&#xf067;" glyph-name="plus" horiz-adv-x="768" d="M736 448c17.68 0 32-14.32 32-32v-64c0-17.68-14.32-32-32-32h-288v-288c0-17.68-14.32-32-32-32h-64c-17.68 0-32 14.32-32 32v288h-288c-17.68 0-32 14.32-32 32v64c0 17.68 14.32 32 32 32h288v288c0 17.68 14.32 32 32 32h64c17.68 0 32-14.32 32-32v-288h288z" />
<glyph unicode="&#xf068;" glyph-name="minus" horiz-adv-x="768" d="M736 448c17.68 0 32-14.32 32-32v-64c0-17.68-14.32-32-32-32h-704c-17.68 0-32 14.32-32 32v64c0 17.68 14.32 32 32 32h704z" />
<glyph unicode="&#xf069;" glyph-name="arrow-left-full" horiz-adv-x="896" d="M515 5.801l-44.4-44.4c-18.799-18.801-49.199-18.801-67.799 0l-388.8 388.6c-18.801 18.801-18.801 49.199 0 67.801l388.8 388.798c18.799 18.801 49.199 18.801 67.799 0l44.4-44.4c19-19 18.6-50-0.801-68.6l-241-229.6h574.8c26.6 0 48-21.4 48-48v-64c0-26.6-21.4-48-48-48h-574.8l241-229.6c19.602-18.6 20-49.6 0.801-68.6z" />
<glyph unicode="&#xf06a;" glyph-name="exclamation-circle" d="M512 880c273.914 0 496-222.166 496-496 0-273.994-222.086-496-496-496s-496 222.006-496 496c0 273.834 222.086 496 496 496zM512-16c221.138 0 400 178.939 400 400 0 221.058-179.018 400-400 400-221.056 0-400-179.010-400-400 0-221.138 178.936-400 400-400zM596 192c0-46.318-37.682-84-84-84s-84 37.682-84 84 37.682 84 84 84 84-37.682 84-84zM433.26 614.802c-0.686 13.707 10.244 25.197 23.971 25.197h109.539c13.727 0 24.656-11.49 23.971-25.197l-13.6-272c-0.639-12.775-11.184-22.803-23.971-22.803h-82.34c-12.787 0-23.332 10.027-23.971 22.803z" />
<glyph unicode="&#xf06b;" glyph-name="arrow-right-full" horiz-adv-x="896" d="M381 762.2l44.4 44.4c18.799 18.801 49.199 18.801 67.799 0l388.8-388.6c18.801-18.801 18.801-49.199 0-67.801l-388.8-388.798c-18.799-18.801-49.199-18.801-67.799 0l-44.4 44.4c-19 19-18.6 50 0.801 68.6l241 229.6h-574.8c-26.6 0-48 21.4-48 48v64c0 26.6 21.4 48 48 48h574.8l-241 229.6c-19.602 18.6-20 49.6-0.801 68.6z" />
<glyph unicode="&#xf06c;" glyph-name="arrow-up-full" horiz-adv-x="896" d="M69.801 317l-44.4 44.4c-18.801 18.799-18.801 49.199 0 67.799l388.6 388.8c18.801 18.801 49.199 18.801 67.801 0l388.6-388.6c18.799-18.801 18.799-49.201 0-67.801l-44.4-44.4c-19-19-50-18.6-68.6 0.801l-229.4 240.8v-574.8c0-26.6-21.4-48-48-48h-64c-26.6 0-48 21.4-48 48v574.8l-229.6-241c-18.6-19.602-49.6-20-68.6-0.801z" />
<glyph unicode="&#xf06d;" glyph-name="arrow-down-full" horiz-adv-x="896" d="M826.2 451l44.4-44.4c18.801-18.799 18.801-49.199 0-67.799l-388.6-388.8c-18.801-18.801-49.199-18.801-67.801 0l-388.798 388.8c-18.801 18.799-18.801 49.199 0 67.799l44.4 44.4c19 19 50 18.6 68.6-0.801l229.6-241v574.8c0 26.6 21.4 48 48 48h64c26.6 0 48-21.4 48-48v-574.8l229.6 241c18.6 19.602 49.6 20 68.6 0.801z" />
<glyph unicode="&#xf06e;" glyph-name="eye" horiz-adv-x="1152" d="M576 608c0.186 0 0.488 0.002 0.674 0.002 123.328 0 223.42-100.094 223.42-223.422 0-123.326-100.092-223.42-223.42-223.42s-223.42 100.094-223.42 223.42c0 17.426 3.918 45.156 8.746 61.9 13.861-7.883 38.055-14.369 54-14.48 61.824 0 112 50.176 112 112-0.111 15.945-6.598 40.139-14.48 54 16.848 5.244 44.838 9.725 62.48 10zM1145.040 413.2c3.842-7.598 6.959-20.676 6.959-29.189s-3.117-21.592-6.959-29.189c-108.398-211.542-323.18-354.82-569.040-354.82s-460.58 143.18-569.040 354.8c-3.842 7.598-6.959 20.676-6.959 29.189s3.117 21.592 6.959 29.189c108.398 211.542 323.18 354.82 569.040 354.82s460.58-143.18 569.040-354.8zM576 96c197.32 0 378.2 110 475.86 288-97.68 178-278.54 288-475.86 288s-378.18-110-475.86-288c97.68-178 278.558-288 475.86-288z" />
<glyph unicode="&#xf06f;" glyph-name="plus-full" horiz-adv-x="896" d="M832 480c35.34 0 64-28.66 64-64v-64c0-35.34-28.66-64-64-64h-288v-288c0-35.34-28.66-64-64-64h-64c-35.34 0-64 28.66-64 64v288h-288c-35.34 0-64 28.66-64 64v64c0 35.34 28.66 64 64 64h288v288c0 35.34 28.66 64 64 64h64c35.34 0 64-28.66 64-64v-288h288z" />
<glyph unicode="&#xf070;" glyph-name="minus-full" horiz-adv-x="896" d="M832 480c35.34 0 64-28.66 64-64v-64c0-35.34-28.66-64-64-64h-768c-35.34 0-64 28.66-64 64v64c0 35.34 28.66 64 64 64h768z" />
<glyph unicode="&#xf071;" glyph-name="exclamation-triangle" horiz-adv-x="1152" d="M497.494 486.59c-0.811 13.787 10.15 25.41 23.955 25.41h109.096c13.807 0 24.768-11.623 23.957-25.41l-13.176-224c-0.734-12.469-11.467-22.59-23.959-22.59h-82.738c-12.707 0-23.213 9.904-23.959 22.59zM660 128c0-46.393-37.607-84-84-84s-84 37.607-84 84 37.607 84 84 84 84-37.607 84-84zM659.154 848.030l479.878-832.054c36.916-63.988-9.424-143.975-83.152-143.975h-959.774c-73.871 0-119.998 80.107-83.154 143.975l479.892 832.054c36.934 64.020 129.441 63.902 166.309 0zM106.383-14.004c-4.615-8 1.16-17.996 10.393-17.994h918.45c9.236 0 15.010 9.996 10.393 17.996l-459.222 795.986c-4.619 8.004-16.17 8.004-20.789 0z" />
<glyph unicode="&#xf072;" glyph-name="exclamation-circle-full" d="M1008 384c0-273.994-222.086-496-496-496s-496 222.006-496 496c0 273.834 222.086 496 496 496s496-222.166 496-496zM512 284c-50.811 0-92-41.189-92-92s41.189-92 92-92 92 41.189 92 92-41.189 92-92 92zM424.654 614.692l14.836-272c0.693-12.727 11.217-22.691 23.963-22.691h97.094c12.746 0 23.27 9.965 23.963 22.691l14.836 272c0.75 13.748-10.195 25.309-23.963 25.309h-126.768c-13.768 0-24.711-11.561-23.961-25.309z" />
<glyph unicode="&#xf073;" glyph-name="calendar-alt" horiz-adv-x="896" d="M296 320h-80c-13.199 0-24 10.801-24 24v80c0 13.199 10.801 24 24 24h80c13.199 0 24-10.801 24-24v-80c0-13.199-10.801-24-24-24zM512 344c0-13.199-10.801-24-24-24h-80c-13.199 0-24 10.801-24 24v80c0 13.199 10.801 24 24 24h80c13.199 0 24-10.801 24-24v-80zM704 344c0-13.199-10.801-24-24-24h-80c-13.199 0-24 10.801-24 24v80c0 13.199 10.801 24 24 24h80c13.199 0 24-10.801 24-24v-80zM512 152c0-13.199-10.801-24-24-24h-80c-13.199 0-24 10.801-24 24v80c0 13.199 10.801 24 24 24h80c13.199 0 24-10.801 24-24v-80zM320 152c0-13.199-10.801-24-24-24h-80c-13.199 0-24 10.801-24 24v80c0 13.199 10.801 24 24 24h80c13.199 0 24-10.801 24-24v-80zM704 152c0-13.199-10.801-24-24-24h-80c-13.199 0-24 10.801-24 24v80c0 13.199 10.801 24 24 24h80c13.199 0 24-10.801 24-24v-80zM896 672v-704c0-53-43-96-96-96h-704c-53 0-96 43-96 96v704c0 53 43 96 96 96h96v104c0 13.199 10.801 24 24 24h80c13.199 0 24-10.801 24-24v-104h256v104c0 13.199 10.801 24 24 24h80c13.199 0 24-10.801 24-24v-104h96c53 0 96-43 96-96zM800-20v596h-704v-596c0-6.6 5.4-12 12-12h680c6.6 0 12 5.4 12 12z" />
<glyph unicode="&#xf074;" glyph-name="eye-full" horiz-adv-x="1152" d="M1145.040 413.2c3.842-7.598 6.959-20.676 6.959-29.189s-3.117-21.592-6.959-29.189c-108.398-211.542-323.18-354.82-569.040-354.82s-460.58 143.18-569.040 354.8c-3.842 7.598-6.959 20.676-6.959 29.189s3.117 21.592 6.959 29.189c108.398 211.542 323.18 354.82 569.040 354.82s460.58-143.18 569.040-354.8zM576 96h0.141c158.898 0 287.86 128.961 287.86 287.86v0.141c0 158.977-129.023 288-288 288s-288-129.023-288-288 129.023-288 288-288zM576 576h0.451c105.74 0 191.561-85.818 191.561-191.559s-85.82-191.561-191.561-191.561c-105.742 0-191.561 85.818-191.561 191.561 0 14.096 2.996 36.574 6.689 50.178 13.967-10.277 39.379-18.619 56.721-18.619 52.826 0 95.699 42.873 95.699 95.699 0 17.342-8.342 42.754-18.619 56.721 13.688 3.984 36.365 7.381 50.619 7.58z" />
<glyph unicode="&#xf075;" glyph-name="info-circle-thin" d="M512 816c-238.796 0-432-193.594-432-432 0-238.876 193.512-432 432-432 238.78 0 432 193.418 432 432 0 239.85-194.758 432-432 432zM512 880c273.914 0 496-222.166 496-496 0-273.994-222.086-496-496-496s-496 222.006-496 496c0 273.834 222.086 496 496 496zM440 192h24v240h-24c-13.254 0-24 10.746-24 24v16c0 13.254 10.746 24 24 24h96c13.254 0 24-10.746 24-24v-280h24c13.254 0 24-10.746 24-24v-16c0-13.254-10.746-24-24-24h-144c-13.254 0-24 10.746-24 24v16c0 13.254 10.746 24 24 24zM512 672c35.346 0 64-28.654 64-64s-28.654-64-64-64-64 28.654-64 64 28.654 64 64 64z" />
<glyph unicode="&#xf076;" glyph-name="plus-thin" horiz-adv-x="768" d="M752 432c8.84 0 16-7.16 16-16v-64c0-8.84-7.16-16-16-16h-320v-320c0-8.84-7.16-16-16-16h-64c-8.84 0-16 7.16-16 16v320h-320c-8.84 0-16 7.16-16 16v64c0 8.84 7.16 16 16 16h320v320c0 8.84 7.16 16 16 16h64c8.84 0 16-7.16 16-16v-320h320z" />
<glyph unicode="&#xf077;" glyph-name="chevron-up" horiz-adv-x="896" d="M12.201 177.414c-9.373 9.371-9.373 24.568 0 33.941l418.826 418.828c9.375 9.373 24.57 9.373 33.943 0l418.83-418.826c9.371-9.373 9.371-24.57 0-33.941l-39.6-39.598c-9.373-9.373-24.568-9.373-33.941 0l-362.26 361.396-362.258-361.398c-9.375-9.373-24.57-9.373-33.941 0z" />
<glyph unicode="&#xf078;" glyph-name="chevron-down" horiz-adv-x="896" d="M883.8 561.4c9.398-9.4 9.398-24.6 0-34l-418.8-418.8c-9.4-9.4-24.6-9.4-34 0l-418.8 418.8c-9.398 9.4-9.398 24.6 0 34l39.602 39.6c9.398 9.4 24.6 9.4 34 0l362.2-361.4 362.2 361.4c9.4 9.4 24.602 9.4 34 0z" />
<glyph unicode="&#xf079;" glyph-name="chevron-up-full" horiz-adv-x="896" d="M481.942 634.952l388.688-388.686c18.744-18.746 18.744-49.137 0-67.881l-45.334-45.334c-18.715-18.715-49.045-18.75-67.803-0.080l-309.492 308.040-309.49-308.042c-18.758-18.67-49.088-18.635-67.803 0.080l-45.334 45.334c-18.744 18.746-18.744 49.137 0 67.881l388.688 388.686c18.744 18.746 49.135 18.746 67.881 0.002z" />
<glyph unicode="&#xf07a;" glyph-name="chevron-down-full" horiz-adv-x="896" d="M414.058 133.049l-388.688 388.688c-18.744 18.746-18.744 49.137 0 67.881l45.334 45.334c18.715 18.715 49.045 18.75 67.803 0.080l309.492-308.042 309.49 308.042c18.758 18.67 49.088 18.635 67.803-0.080l45.334-45.334c18.744-18.746 18.744-49.137 0-67.881l-388.686-388.688c-18.746-18.744-49.137-18.744-67.883 0z" />
<glyph unicode="&#xf07b;" glyph-name="minus-thin" horiz-adv-x="768" d="M752 432c8.84 0 16-7.16 16-16v-64c0-8.84-7.16-16-16-16h-736c-8.84 0-16 7.16-16 16v64c0 8.84 7.16 16 16 16h736z" />
<glyph unicode="&#xf07c;" glyph-name="calendar-alt-thin" horiz-adv-x="896" d="M800 768c53 0 96-43 96-96v-704c0-53-43-96-96-96h-704c-53 0-96 43-96 96v704c0 53 43 96 96 96h96v104c0 13.199 10.801 24 24 24h16c13.199 0 24-10.801 24-24v-104h384v104c0 13.199 10.801 24 24 24h16c13.199 0 24-10.801 24-24v-104h96zM96 704c-17.6 0-32-14.4-32-32v-96h768v96c0 17.6-14.4 32-32 32h-704zM800-64c17.6 0 32 14.4 32 32v544h-768v-544c0-17.6 14.4-32 32-32h704zM296 256h-80c-13.199 0-24 10.801-24 24v80c0 13.199 10.801 24 24 24h80c13.199 0 24-10.801 24-24v-80c0-13.199-10.801-24-24-24zM488 256h-80c-13.199 0-24 10.801-24 24v80c0 13.199 10.801 24 24 24h80c13.199 0 24-10.801 24-24v-80c0-13.199-10.801-24-24-24zM680 256h-80c-13.199 0-24 10.801-24 24v80c0 13.199 10.801 24 24 24h80c13.199 0 24-10.801 24-24v-80c0-13.199-10.801-24-24-24zM488 64h-80c-13.199 0-24 10.801-24 24v80c0 13.199 10.801 24 24 24h80c13.199 0 24-10.801 24-24v-80c0-13.199-10.801-24-24-24zM296 64h-80c-13.199 0-24 10.801-24 24v80c0 13.199 10.801 24 24 24h80c13.199 0 24-10.801 24-24v-80c0-13.199-10.801-24-24-24zM680 64h-80c-13.199 0-24 10.801-24 24v80c0 13.199 10.801 24 24 24h80c13.199 0 24-10.801 24-24v-80c0-13.199-10.801-24-24-24z" />
</font>
</defs>
</svg>
