<?xml version="1.0" encoding="UTF-8" standalone="no"?>
<!DOCTYPE svg PUBLIC "-//W3C//DTD SVG 1.1//EN"
 "http://www.w3.org/Graphics/SVG/1.1/DTD/svg11.dtd">
<!-- Generated by graphviz version 2.38.0 (20140413.2041)
 -->
<!-- Title: G Pages: 1 -->
<svg width="748pt" height="3179pt"
 viewBox="0.00 0.00 747.57 3179.19" xmlns="http://www.w3.org/2000/svg" xmlns:xlink="http://www.w3.org/1999/xlink">
<g id="graph0" class="graph" transform="scale(1 1) rotate(0) translate(4 3175.19)">
<title>G</title>
<polygon fill="white" stroke="none" points="-4,4 -4,-3175.19 743.57,-3175.19 743.57,4 -4,4"/>
<g id="clust1" class="cluster"><title>cluster_Global</title>
<path fill="none" stroke="gray" d="M262.279,-391.193C262.279,-391.193 719.57,-391.193 719.57,-391.193 725.57,-391.193 731.57,-397.193 731.57,-403.193 731.57,-403.193 731.57,-3151.19 731.57,-3151.19 731.57,-3157.19 725.57,-3163.19 719.57,-3163.19 719.57,-3163.19 262.279,-3163.19 262.279,-3163.19 256.279,-3163.19 250.279,-3157.19 250.279,-3151.19 250.279,-3151.19 250.279,-403.193 250.279,-403.193 250.279,-397.193 256.279,-391.193 262.279,-391.193"/>
<text text-anchor="middle" x="490.924" y="-3150.39" font-family="Times New Roman,serif" font-size="11.00" fill="gray">Global</text>
</g>
<!-- \\CPAC_Deprecated_Storage_Model_MLA -->
<g id="node1" class="node"><title>\\CPAC_Deprecated_Storage_Model_MLA</title>
<polygon fill="none" stroke="black" points="723.57,-3081.19 484.57,-3081.19 484.57,-3045.19 723.57,-3045.19 723.57,-3081.19"/>
<text text-anchor="middle" x="604.07" y="-3060.39" font-family="Courier,monospace" font-size="11.00">CPAC_Deprecated_Storage_Model_MLA</text>
</g>
<!-- \\CPAC_Storage_Model -->
<g id="node53" class="node"><title>\\CPAC_Storage_Model</title>
<ellipse fill="none" stroke="black" cx="313.779" cy="-365.193" rx="98.5829" ry="18"/>
<text text-anchor="middle" x="313.779" y="-361.493" font-family="Times New Roman,serif" font-size="14.00" fill="gray">\CPAC_Storage_Model</text>
</g>
<!-- \\CPAC_Deprecated_Storage_Model_MLA&#45;&gt;\\CPAC_Storage_Model -->
<g id="edge1" class="edge"><title>\\CPAC_Deprecated_Storage_Model_MLA&#45;&gt;\\CPAC_Storage_Model</title>
<path fill="none" stroke="black" d="M493.45,-3044.98C490.228,-3042.37 487.246,-3039.46 484.57,-3036.19 297.835,-2808.54 599.616,-614.591 412.57,-387.193 410.601,-384.799 408.432,-382.632 406.101,-380.671"/>
<polygon fill="none" stroke="black" points="407.817,-377.602 397.607,-374.773 403.824,-383.351 407.817,-377.602"/>
</g>
<!-- \\AC_Addon_MLA_Editing_Strategy -->
<g id="node2" class="node"><title>\\AC_Addon_MLA_Editing_Strategy</title>
<polygon fill="none" stroke="black" points="710.07,-3027.19 498.07,-3027.19 498.07,-2991.19 710.07,-2991.19 710.07,-3027.19"/>
<text text-anchor="middle" x="604.07" y="-3006.39" font-family="Courier,monospace" font-size="11.00">AC_Addon_MLA_Editing_Strategy</text>
</g>
<!-- \\ACP_Editing_Strategy -->
<g id="node54" class="node"><title>\\ACP_Editing_Strategy</title>
<ellipse fill="none" stroke="black" cx="313.779" cy="-311.193" rx="96.3833" ry="18"/>
<text text-anchor="middle" x="313.779" y="-307.493" font-family="Times New Roman,serif" font-size="14.00" fill="gray">\ACP_Editing_Strategy</text>
</g>
<!-- \\AC_Addon_MLA_Editing_Strategy&#45;&gt;\\ACP_Editing_Strategy -->
<g id="edge2" class="edge"><title>\\AC_Addon_MLA_Editing_Strategy&#45;&gt;\\ACP_Editing_Strategy</title>
<path fill="none" stroke="black" d="M497.941,-2994.31C492.973,-2990.93 488.451,-2986.92 484.57,-2982.19 298.181,-2754.97 593.757,-569.581 412.57,-338.193 409.109,-333.773 404.993,-330.035 400.44,-326.878"/>
<polygon fill="none" stroke="black" points="402.212,-323.859 391.819,-321.8 398.659,-329.891 402.212,-323.859"/>
</g>
<!-- \\AC_Addon_MLA_ListScreen -->
<g id="node3" class="node"><title>\\AC_Addon_MLA_ListScreen</title>
<polygon fill="none" stroke="black" points="690.07,-2811.19 518.07,-2811.19 518.07,-2775.19 690.07,-2775.19 690.07,-2811.19"/>
<text text-anchor="middle" x="604.07" y="-2790.39" font-family="Courier,monospace" font-size="11.00">AC_Addon_MLA_ListScreen</text>
</g>
<!-- \\AC_ListScreen_Media -->
<g id="node55" class="node"><title>\\AC_ListScreen_Media</title>
<ellipse fill="none" stroke="black" cx="313.779" cy="-257.193" rx="96.6831" ry="18"/>
<text text-anchor="middle" x="313.779" y="-253.493" font-family="Times New Roman,serif" font-size="14.00" fill="gray">\AC_ListScreen_Media</text>
</g>
<!-- \\AC_Addon_MLA_ListScreen&#45;&gt;\\AC_ListScreen_Media -->
<g id="edge3" class="edge"><title>\\AC_Addon_MLA_ListScreen&#45;&gt;\\AC_ListScreen_Media</title>
<path fill="none" stroke="black" d="M517.852,-2788.12C505.02,-2783.64 493.211,-2776.71 484.57,-2766.19 309.403,-2553.04 582.857,-501.264 412.57,-284.193 409.258,-279.971 405.348,-276.371 401.032,-273.306"/>
<polygon fill="none" stroke="black" points="402.651,-270.196 392.277,-268.046 399.046,-276.196 402.651,-270.196"/>
</g>
<!-- \\MLA_Ajax -->
<g id="node4" class="node"><title>\\MLA_Ajax</title>
<polygon fill="none" stroke="black" points="639.57,-2973.19 568.57,-2973.19 568.57,-2937.19 639.57,-2937.19 639.57,-2973.19"/>
<text text-anchor="middle" x="604.07" y="-2952.39" font-family="Courier,monospace" font-size="11.00">MLA_Ajax</text>
</g>
<!-- \\MLACoreOptions -->
<g id="node5" class="node"><title>\\MLACoreOptions</title>
<polygon fill="none" stroke="black" points="659.57,-2919.19 548.57,-2919.19 548.57,-2883.19 659.57,-2883.19 659.57,-2919.19"/>
<text text-anchor="middle" x="604.07" y="-2898.39" font-family="Courier,monospace" font-size="11.00">MLACoreOptions</text>
</g>
<!-- \\MLACore -->
<g id="node6" class="node"><title>\\MLACore</title>
<polygon fill="none" stroke="black" points="636.07,-2865.19 572.07,-2865.19 572.07,-2829.19 636.07,-2829.19 636.07,-2865.19"/>
<text text-anchor="middle" x="604.07" y="-2844.39" font-family="Courier,monospace" font-size="11.00">MLACore</text>
</g>
<!-- \\MLA_Checklist_Walker -->
<g id="node7" class="node"><title>\\MLA_Checklist_Walker</title>
<polygon fill="none" stroke="black" points="680.07,-2001.19 528.07,-2001.19 528.07,-1965.19 680.07,-1965.19 680.07,-2001.19"/>
<text text-anchor="middle" x="604.07" y="-1980.39" font-family="Courier,monospace" font-size="11.00">MLA_Checklist_Walker</text>
</g>
<!-- \\Walker_Category -->
<g id="node56" class="node"><title>\\Walker_Category</title>
<ellipse fill="none" stroke="black" cx="313.779" cy="-203.193" rx="77.1866" ry="18"/>
<text text-anchor="middle" x="313.779" y="-199.493" font-family="Times New Roman,serif" font-size="14.00" fill="gray">\Walker_Category</text>
</g>
<!-- \\MLA_Checklist_Walker&#45;&gt;\\Walker_Category -->
<g id="edge4" class="edge"><title>\\MLA_Checklist_Walker&#45;&gt;\\Walker_Category</title>
<path fill="none" stroke="black" d="M527.982,-1981.01C511.383,-1976.85 495.505,-1969.33 484.57,-1956.19 361.765,-1808.68 531.998,-380.459 412.57,-230.193 407.484,-223.795 401.029,-218.829 393.868,-214.986"/>
<polygon fill="none" stroke="black" points="395.02,-211.664 384.469,-210.696 392.113,-218.032 395.02,-211.664"/>
</g>
<!-- \\MLAPDF -->
<g id="node8" class="node"><title>\\MLAPDF</title>
<polygon fill="none" stroke="black" points="632.57,-2757.19 575.57,-2757.19 575.57,-2721.19 632.57,-2721.19 632.57,-2757.19"/>
<text text-anchor="middle" x="604.07" y="-2736.39" font-family="Courier,monospace" font-size="11.00">MLAPDF</text>
</g>
<!-- \\MLAQuery -->
<g id="node9" class="node"><title>\\MLAQuery</title>
<polygon fill="none" stroke="black" points="639.57,-2703.19 568.57,-2703.19 568.57,-2667.19 639.57,-2667.19 639.57,-2703.19"/>
<text text-anchor="middle" x="604.07" y="-2682.39" font-family="Courier,monospace" font-size="11.00">MLAQuery</text>
</g>
<!-- \\MLAReferences -->
<g id="node10" class="node"><title>\\MLAReferences</title>
<polygon fill="none" stroke="black" points="656.07,-2649.19 552.07,-2649.19 552.07,-2613.19 656.07,-2613.19 656.07,-2649.19"/>
<text text-anchor="middle" x="604.07" y="-2628.39" font-family="Courier,monospace" font-size="11.00">MLAReferences</text>
</g>
<!-- \\MLAData_Source -->
<g id="node11" class="node"><title>\\MLAData_Source</title>
<polygon fill="none" stroke="black" points="659.57,-2595.19 548.57,-2595.19 548.57,-2559.19 659.57,-2559.19 659.57,-2595.19"/>
<text text-anchor="middle" x="604.07" y="-2574.39" font-family="Courier,monospace" font-size="11.00">MLAData_Source</text>
</g>
<!-- \\MLAData -->
<g id="node12" class="node"><title>\\MLAData</title>
<polygon fill="none" stroke="black" points="636.07,-2541.19 572.07,-2541.19 572.07,-2505.19 636.07,-2505.19 636.07,-2541.19"/>
<text text-anchor="middle" x="604.07" y="-2520.39" font-family="Courier,monospace" font-size="11.00">MLAData</text>
</g>
<!-- \\MLAEdit -->
<g id="node13" class="node"><title>\\MLAEdit</title>
<polygon fill="none" stroke="black" points="636.07,-2487.19 572.07,-2487.19 572.07,-2451.19 636.07,-2451.19 636.07,-2487.19"/>
<text text-anchor="middle" x="604.07" y="-2466.39" font-family="Courier,monospace" font-size="11.00">MLAEdit</text>
</g>
<!-- \\MLAFileDownloader -->
<g id="node14" class="node"><title>\\MLAFileDownloader</title>
<polygon fill="none" stroke="black" points="669.57,-2433.19 538.57,-2433.19 538.57,-2397.19 669.57,-2397.19 669.57,-2433.19"/>
<text text-anchor="middle" x="604.07" y="-2412.39" font-family="Courier,monospace" font-size="11.00">MLAFileDownloader</text>
</g>
<!-- \\MLAImageProcessor -->
<g id="node15" class="node"><title>\\MLAImageProcessor</title>
<polygon fill="none" stroke="black" points="669.57,-2379.19 538.57,-2379.19 538.57,-2343.19 669.57,-2343.19 669.57,-2379.19"/>
<text text-anchor="middle" x="604.07" y="-2358.39" font-family="Courier,monospace" font-size="11.00">MLAImageProcessor</text>
</g>
<!-- \\MLAMutex -->
<g id="node16" class="node"><title>\\MLAMutex</title>
<polygon fill="none" stroke="black" points="639.57,-2325.19 568.57,-2325.19 568.57,-2289.19 639.57,-2289.19 639.57,-2325.19"/>
<text text-anchor="middle" x="604.07" y="-2304.39" font-family="Courier,monospace" font-size="11.00">MLAMutex</text>
</g>
<!-- \\MLA_List_Table -->
<g id="node17" class="node"><title>\\MLA_List_Table</title>
<polygon fill="none" stroke="black" points="369.279,-1786.19 258.279,-1786.19 258.279,-1750.19 369.279,-1750.19 369.279,-1786.19"/>
<text text-anchor="middle" x="313.779" y="-1765.39" font-family="Courier,monospace" font-size="11.00">MLA_List_Table</text>
</g>
<!-- \\WP_List_Table -->
<g id="node57" class="node"><title>\\WP_List_Table</title>
<ellipse fill="none" stroke="black" cx="71.4937" cy="-103.193" rx="71.4873" ry="18"/>
<text text-anchor="middle" x="71.4937" y="-99.4932" font-family="Times New Roman,serif" font-size="14.00" fill="gray">\WP_List_Table</text>
</g>
<!-- \\MLA_List_Table&#45;&gt;\\WP_List_Table -->
<g id="edge5" class="edge"><title>\\MLA_List_Table&#45;&gt;\\WP_List_Table</title>
<path fill="none" stroke="black" d="M310.162,-1750.06C286.253,-1584.39 105.897,-334.653 76.5299,-131.162"/>
<polygon fill="none" stroke="black" points="79.9929,-130.653 75.1004,-121.256 73.0647,-131.653 79.9929,-130.653"/>
</g>
<!-- \\MLA -->
<g id="node18" class="node"><title>\\MLA</title>
<polygon fill="none" stroke="black" points="631.07,-2271.19 577.07,-2271.19 577.07,-2235.19 631.07,-2235.19 631.07,-2271.19"/>
<text text-anchor="middle" x="604.07" y="-2250.39" font-family="Courier,monospace" font-size="11.00">MLA</text>
</g>
<!-- \\MLAModal_Ajax -->
<g id="node19" class="node"><title>\\MLAModal_Ajax</title>
<polygon fill="none" stroke="black" points="656.07,-2217.19 552.07,-2217.19 552.07,-2181.19 656.07,-2181.19 656.07,-2217.19"/>
<text text-anchor="middle" x="604.07" y="-2196.39" font-family="Courier,monospace" font-size="11.00">MLAModal_Ajax</text>
</g>
<!-- \\MLAModal -->
<g id="node20" class="node"><title>\\MLAModal</title>
<polygon fill="none" stroke="black" points="639.57,-2163.19 568.57,-2163.19 568.57,-2127.19 639.57,-2127.19 639.57,-2163.19"/>
<text text-anchor="middle" x="604.07" y="-2142.39" font-family="Courier,monospace" font-size="11.00">MLAModal</text>
</g>
<!-- \\MLAMime -->
<g id="node21" class="node"><title>\\MLAMime</title>
<polygon fill="none" stroke="black" points="636.07,-2109.19 572.07,-2109.19 572.07,-2073.19 636.07,-2073.19 636.07,-2109.19"/>
<text text-anchor="middle" x="604.07" y="-2088.39" font-family="Courier,monospace" font-size="11.00">MLAMime</text>
</g>
<!-- \\MLAObjects -->
<g id="node22" class="node"><title>\\MLAObjects</title>
<polygon fill="none" stroke="black" points="646.07,-2055.19 562.07,-2055.19 562.07,-2019.19 646.07,-2019.19 646.07,-2055.19"/>
<text text-anchor="middle" x="604.07" y="-2034.39" font-family="Courier,monospace" font-size="11.00">MLAObjects</text>
</g>
<!-- \\MLATextWidget -->
<g id="node23" class="node"><title>\\MLATextWidget</title>
<polygon fill="none" stroke="black" points="656.07,-1731.19 552.07,-1731.19 552.07,-1695.19 656.07,-1695.19 656.07,-1731.19"/>
<text text-anchor="middle" x="604.07" y="-1710.39" font-family="Courier,monospace" font-size="11.00">MLATextWidget</text>
</g>
<!-- \\WP_Widget -->
<g id="node58" class="node"><title>\\WP_Widget</title>
<ellipse fill="none" stroke="black" cx="313.779" cy="-149.193" rx="58.4896" ry="18"/>
<text text-anchor="middle" x="313.779" y="-145.493" font-family="Times New Roman,serif" font-size="14.00" fill="gray">\WP_Widget</text>
</g>
<!-- \\MLATextWidget&#45;&gt;\\WP_Widget -->
<g id="edge6" class="edge"><title>\\MLATextWidget&#45;&gt;\\WP_Widget</title>
<path fill="none" stroke="black" d="M552.037,-1714.86C527.881,-1712.75 500.827,-1705.6 484.57,-1686.19 376.721,-1557.42 517.471,-307.377 412.57,-176.193 404.585,-166.207 393.265,-159.714 381.143,-155.535"/>
<polygon fill="none" stroke="black" points="381.879,-152.104 371.299,-152.657 379.915,-158.822 381.879,-152.104"/>
</g>
<!-- \\MLAOptions -->
<g id="node24" class="node"><title>\\MLAOptions</title>
<polygon fill="none" stroke="black" points="646.07,-1947.19 562.07,-1947.19 562.07,-1911.19 646.07,-1911.19 646.07,-1947.19"/>
<text text-anchor="middle" x="604.07" y="-1926.39" font-family="Courier,monospace" font-size="11.00">MLAOptions</text>
</g>
<!-- \\MLA_Polylang_Shortcodes -->
<g id="node25" class="node"><title>\\MLA_Polylang_Shortcodes</title>
<polygon fill="none" stroke="black" points="690.07,-1893.19 518.07,-1893.19 518.07,-1857.19 690.07,-1857.19 690.07,-1893.19"/>
<text text-anchor="middle" x="604.07" y="-1872.39" font-family="Courier,monospace" font-size="11.00">MLA_Polylang_Shortcodes</text>
</g>
<!-- \\MLA_Polylang -->
<g id="node26" class="node"><title>\\MLA_Polylang</title>
<polygon fill="none" stroke="black" points="653.07,-1839.19 555.07,-1839.19 555.07,-1803.19 653.07,-1803.19 653.07,-1839.19"/>
<text text-anchor="middle" x="604.07" y="-1818.39" font-family="Courier,monospace" font-size="11.00">MLA_Polylang</text>
</g>
<!-- \\MLASettings_CustomFields -->
<g id="node27" class="node"><title>\\MLASettings_CustomFields</title>
<polygon fill="none" stroke="black" points="693.57,-1785.19 514.57,-1785.19 514.57,-1749.19 693.57,-1749.19 693.57,-1785.19"/>
<text text-anchor="middle" x="604.07" y="-1764.39" font-family="Courier,monospace" font-size="11.00">MLASettings_CustomFields</text>
</g>
<!-- \\MLA_Custom_Fields_List_Table -->
<g id="node28" class="node"><title>\\MLA_Custom_Fields_List_Table</title>
<polygon fill="none" stroke="black" points="707.07,-1569.19 501.07,-1569.19 501.07,-1533.19 707.07,-1533.19 707.07,-1569.19"/>
<text text-anchor="middle" x="604.07" y="-1548.39" font-family="Courier,monospace" font-size="11.00">MLA_Custom_Fields_List_Table</text>
</g>
<!-- \\MLA_Custom_Fields_List_Table&#45;&gt;\\WP_List_Table -->
<g id="edge7" class="edge"><title>\\MLA_Custom_Fields_List_Table&#45;&gt;\\WP_List_Table</title>
<path fill="none" stroke="black" d="M500.967,-1538.05C494.828,-1534.33 489.254,-1529.77 484.57,-1524.19 283.825,-1285.4 617.124,-357.736 412.57,-122.193 383.539,-88.7641 349.076,-131.193 314.779,-103.193"/>
</g>
<!-- \\MLA_Custom_Field_Query -->
<g id="node29" class="node"><title>\\MLA_Custom_Field_Query</title>
<polygon fill="none" stroke="black" points="686.57,-1677.19 521.57,-1677.19 521.57,-1641.19 686.57,-1641.19 686.57,-1677.19"/>
<text text-anchor="middle" x="604.07" y="-1656.39" font-family="Courier,monospace" font-size="11.00">MLA_Custom_Field_Query</text>
</g>
<!-- \\MLASettings_Documentation -->
<g id="node30" class="node"><title>\\MLASettings_Documentation</title>
<polygon fill="none" stroke="black" points="696.57,-1623.19 511.57,-1623.19 511.57,-1587.19 696.57,-1587.19 696.57,-1623.19"/>
<text text-anchor="middle" x="604.07" y="-1602.39" font-family="Courier,monospace" font-size="11.00">MLASettings_Documentation</text>
</g>
<!-- \\MLA_Example_List_Table -->
<g id="node31" class="node"><title>\\MLA_Example_List_Table</title>
<polygon fill="none" stroke="black" points="686.57,-1515.19 521.57,-1515.19 521.57,-1479.19 686.57,-1479.19 686.57,-1515.19"/>
<text text-anchor="middle" x="604.07" y="-1494.39" font-family="Courier,monospace" font-size="11.00">MLA_Example_List_Table</text>
</g>
<!-- \\MLA_Example_List_Table&#45;&gt;\\WP_List_Table -->
<g id="edge8" class="edge"><title>\\MLA_Example_List_Table&#45;&gt;\\WP_List_Table</title>
<path fill="none" stroke="black" d="M312.779,-103.193C287.869,-82.8577 205.818,-87.015 144.483,-93.5401"/>
<polygon fill="none" stroke="black" points="144.001,-90.0719 134.446,-94.648 144.769,-97.0297 144.001,-90.0719"/>
<path fill="none" stroke="black" d="M521.375,-1493.03C507.258,-1488.63 494.086,-1481.49 484.57,-1470.19 291.3,-1240.77 609.499,-348.486 412.57,-122.193 383.504,-88.7939 349.076,-131.193 314.779,-103.193"/>
</g>
<!-- \\MLA_Upgrader_Skin -->
<g id="node32" class="node"><title>\\MLA_Upgrader_Skin</title>
<polygon fill="none" stroke="black" points="669.57,-1353.19 538.57,-1353.19 538.57,-1317.19 669.57,-1317.19 669.57,-1353.19"/>
<text text-anchor="middle" x="604.07" y="-1332.39" font-family="Courier,monospace" font-size="11.00">MLA_Upgrader_Skin</text>
</g>
<!-- \\WP_Upgrader_Skin -->
<g id="node59" class="node"><title>\\WP_Upgrader_Skin</title>
<ellipse fill="none" stroke="black" cx="313.779" cy="-57.1932" rx="87.1846" ry="18"/>
<text text-anchor="middle" x="313.779" y="-53.4932" font-family="Times New Roman,serif" font-size="14.00" fill="gray">\WP_Upgrader_Skin</text>
</g>
<!-- \\MLA_Upgrader_Skin&#45;&gt;\\WP_Upgrader_Skin -->
<g id="edge9" class="edge"><title>\\MLA_Upgrader_Skin&#45;&gt;\\WP_Upgrader_Skin</title>
<path fill="none" stroke="black" d="M538.337,-1335.01C518.226,-1331.55 497.868,-1323.89 484.57,-1308.19 309.156,-1101.15 578.253,-304.102 412.57,-89.1932 407.239,-82.2788 400.379,-76.8381 392.769,-72.5605"/>
<polygon fill="none" stroke="black" points="394.058,-69.2953 383.536,-68.0546 390.988,-75.5861 394.058,-69.2953"/>
</g>
<!-- \\MLASettings_IPTCEXIF -->
<g id="node33" class="node"><title>\\MLASettings_IPTCEXIF</title>
<polygon fill="none" stroke="black" points="680.07,-1461.19 528.07,-1461.19 528.07,-1425.19 680.07,-1425.19 680.07,-1461.19"/>
<text text-anchor="middle" x="604.07" y="-1440.39" font-family="Courier,monospace" font-size="11.00">MLASettings_IPTCEXIF</text>
</g>
<!-- \\MLASettings_Shortcodes -->
<g id="node34" class="node"><title>\\MLASettings_Shortcodes</title>
<polygon fill="none" stroke="black" points="686.57,-1407.19 521.57,-1407.19 521.57,-1371.19 686.57,-1371.19 686.57,-1407.19"/>
<text text-anchor="middle" x="604.07" y="-1386.39" font-family="Courier,monospace" font-size="11.00">MLASettings_Shortcodes</text>
</g>
<!-- \\MLA_Template_List_Table -->
<g id="node35" class="node"><title>\\MLA_Template_List_Table</title>
<polygon fill="none" stroke="black" points="690.07,-1191.19 518.07,-1191.19 518.07,-1155.19 690.07,-1155.19 690.07,-1191.19"/>
<text text-anchor="middle" x="604.07" y="-1170.39" font-family="Courier,monospace" font-size="11.00">MLA_Template_List_Table</text>
</g>
<!-- \\MLA_Template_List_Table&#45;&gt;\\WP_List_Table -->
<g id="edge10" class="edge"><title>\\MLA_Template_List_Table&#45;&gt;\\WP_List_Table</title>
<path fill="none" stroke="black" d="M517.863,-1167.76C505.112,-1163.3 493.327,-1156.47 484.57,-1146.19 323.41,-957.018 576.747,-216.756 412.57,-30.1932 383.32,3.04479 354.509,-30.7323 314.779,-11.1932"/>
</g>
<!-- \\MLA_Template_Query -->
<g id="node36" class="node"><title>\\MLA_Template_Query</title>
<polygon fill="none" stroke="black" points="673.07,-1299.19 535.07,-1299.19 535.07,-1263.19 673.07,-1263.19 673.07,-1299.19"/>
<text text-anchor="middle" x="604.07" y="-1278.39" font-family="Courier,monospace" font-size="11.00">MLA_Template_Query</text>
</g>
<!-- \\MLASettings_Upload -->
<g id="node37" class="node"><title>\\MLASettings_Upload</title>
<polygon fill="none" stroke="black" points="673.07,-1245.19 535.07,-1245.19 535.07,-1209.19 673.07,-1209.19 673.07,-1245.19"/>
<text text-anchor="middle" x="604.07" y="-1224.39" font-family="Courier,monospace" font-size="11.00">MLASettings_Upload</text>
</g>
<!-- \\MLA_Upload_List_Table -->
<g id="node38" class="node"><title>\\MLA_Upload_List_Table</title>
<polygon fill="none" stroke="black" points="683.07,-1137.19 525.07,-1137.19 525.07,-1101.19 683.07,-1101.19 683.07,-1137.19"/>
<text text-anchor="middle" x="604.07" y="-1116.39" font-family="Courier,monospace" font-size="11.00">MLA_Upload_List_Table</text>
</g>
<!-- \\MLA_Upload_List_Table&#45;&gt;\\WP_List_Table -->
<g id="edge11" class="edge"><title>\\MLA_Upload_List_Table&#45;&gt;\\WP_List_Table</title>
<path fill="none" stroke="black" d="M524.848,-1115.91C509.473,-1111.62 494.92,-1104.3 484.57,-1092.19 330.881,-912.383 569.127,-207.512 412.57,-30.1932 383.266,2.99698 354.509,-30.7323 314.779,-11.1932"/>
</g>
<!-- \\MLA_Upload_Optional_List_Table -->
<g id="node39" class="node"><title>\\MLA_Upload_Optional_List_Table</title>
<polygon fill="none" stroke="black" points="713.57,-1029.19 494.57,-1029.19 494.57,-993.193 713.57,-993.193 713.57,-1029.19"/>
<text text-anchor="middle" x="604.07" y="-1008.39" font-family="Courier,monospace" font-size="11.00">MLA_Upload_Optional_List_Table</text>
</g>
<!-- \\MLA_Upload_Optional_List_Table&#45;&gt;\\WP_List_Table -->
<g id="edge12" class="edge"><title>\\MLA_Upload_Optional_List_Table&#45;&gt;\\WP_List_Table</title>
<path fill="none" stroke="black" d="M494.142,-993.196C490.676,-990.539 487.462,-987.551 484.57,-984.193 345.819,-823.109 553.89,-189.028 412.57,-30.1932 383.139,2.88486 354.509,-30.7323 314.779,-11.1932"/>
</g>
<!-- \\MLASettings_View -->
<g id="node40" class="node"><title>\\MLASettings_View</title>
<polygon fill="none" stroke="black" points="666.57,-1083.19 541.57,-1083.19 541.57,-1047.19 666.57,-1047.19 666.57,-1083.19"/>
<text text-anchor="middle" x="604.07" y="-1062.39" font-family="Courier,monospace" font-size="11.00">MLASettings_View</text>
</g>
<!-- \\MLA_View_List_Table -->
<g id="node41" class="node"><title>\\MLA_View_List_Table</title>
<polygon fill="none" stroke="black" points="676.57,-597.193 531.57,-597.193 531.57,-561.193 676.57,-561.193 676.57,-597.193"/>
<text text-anchor="middle" x="604.07" y="-576.393" font-family="Courier,monospace" font-size="11.00">MLA_View_List_Table</text>
</g>
<!-- \\MLA_View_List_Table&#45;&gt;\\WP_List_Table -->
<g id="edge13" class="edge"><title>\\MLA_View_List_Table&#45;&gt;\\WP_List_Table</title>
<path fill="none" stroke="black" d="M531.308,-576.844C513.824,-572.833 496.689,-565.415 484.57,-552.193 326.322,-379.55 573.57,-200.273 412.57,-30.1932 382.132,1.96076 354.509,-30.7323 314.779,-11.1932"/>
<path fill="none" stroke="black" d="M312.779,-11.1932C237.685,25.7367 143.819,-40.6521 98.8703,-78.9201"/>
<polygon fill="none" stroke="black" points="96.3135,-76.5051 91.0622,-85.707 100.906,-81.7882 96.3135,-76.5051"/>
</g>
<!-- \\MLASettings -->
<g id="node42" class="node"><title>\\MLASettings</title>
<polygon fill="none" stroke="black" points="649.57,-975.193 558.57,-975.193 558.57,-939.193 649.57,-939.193 649.57,-975.193"/>
<text text-anchor="middle" x="604.07" y="-954.393" font-family="Courier,monospace" font-size="11.00">MLASettings</text>
</g>
<!-- \\MLAShortcode_Support -->
<g id="node43" class="node"><title>\\MLAShortcode_Support</title>
<polygon fill="none" stroke="black" points="680.07,-921.193 528.07,-921.193 528.07,-885.193 680.07,-885.193 680.07,-921.193"/>
<text text-anchor="middle" x="604.07" y="-900.393" font-family="Courier,monospace" font-size="11.00">MLAShortcode_Support</text>
</g>
<!-- \\MLAShortcodes -->
<g id="node44" class="node"><title>\\MLAShortcodes</title>
<polygon fill="none" stroke="black" points="656.07,-867.193 552.07,-867.193 552.07,-831.193 656.07,-831.193 656.07,-867.193"/>
<text text-anchor="middle" x="604.07" y="-846.393" font-family="Courier,monospace" font-size="11.00">MLAShortcodes</text>
</g>
<!-- \\MLATemplate_Support -->
<g id="node45" class="node"><title>\\MLATemplate_Support</title>
<polygon fill="none" stroke="black" points="676.57,-813.193 531.57,-813.193 531.57,-777.193 676.57,-777.193 676.57,-813.193"/>
<text text-anchor="middle" x="604.07" y="-792.393" font-family="Courier,monospace" font-size="11.00">MLATemplate_Support</text>
</g>
<!-- \\MLA_Thumbnail -->
<g id="node46" class="node"><title>\\MLA_Thumbnail</title>
<polygon fill="none" stroke="black" points="656.07,-759.193 552.07,-759.193 552.07,-723.193 656.07,-723.193 656.07,-759.193"/>
<text text-anchor="middle" x="604.07" y="-738.393" font-family="Courier,monospace" font-size="11.00">MLA_Thumbnail</text>
</g>
<!-- \\MLA_WPML_Shortcodes -->
<g id="node47" class="node"><title>\\MLA_WPML_Shortcodes</title>
<polygon fill="none" stroke="black" points="676.57,-705.193 531.57,-705.193 531.57,-669.193 676.57,-669.193 676.57,-705.193"/>
<text text-anchor="middle" x="604.07" y="-684.393" font-family="Courier,monospace" font-size="11.00">MLA_WPML_Shortcodes</text>
</g>
<!-- \\MLA_WPML -->
<g id="node48" class="node"><title>\\MLA_WPML</title>
<polygon fill="none" stroke="black" points="639.57,-651.193 568.57,-651.193 568.57,-615.193 639.57,-615.193 639.57,-651.193"/>
<text text-anchor="middle" x="604.07" y="-630.393" font-family="Courier,monospace" font-size="11.00">MLA_WPML</text>
</g>
<!-- \\MLA_WPML_List_Table -->
<g id="node49" class="node"><title>\\MLA_WPML_List_Table</title>
<polygon fill="none" stroke="black" points="676.57,-3135.19 531.57,-3135.19 531.57,-3099.19 676.57,-3099.19 676.57,-3135.19"/>
<text text-anchor="middle" x="604.07" y="-3114.39" font-family="Courier,monospace" font-size="11.00">MLA_WPML_List_Table</text>
</g>
<!-- \\MLA_WPML_List_Table&#45;&gt;\\MLA_List_Table -->
<g id="edge14" class="edge"><title>\\MLA_WPML_List_Table&#45;&gt;\\MLA_List_Table</title>
<path fill="none" stroke="black" d="M531.534,-3114.99C513.943,-3111 496.698,-3103.55 484.57,-3090.19 394.055,-2990.51 327.78,-1979.35 316.486,-1796.47"/>
<polygon fill="none" stroke="black" points="319.969,-1796.08 315.863,-1786.31 312.982,-1796.51 319.969,-1796.08"/>
</g>
<!-- \\MLA_WPML_Table -->
<g id="node50" class="node"><title>\\MLA_WPML_Table</title>
<polygon fill="none" stroke="black" points="659.57,-543.193 548.57,-543.193 548.57,-507.193 659.57,-507.193 659.57,-543.193"/>
<text text-anchor="middle" x="604.07" y="-522.393" font-family="Courier,monospace" font-size="11.00">MLA_WPML_Table</text>
</g>
<!-- \\MLAUninstall -->
<g id="node51" class="node"><title>\\MLAUninstall</title>
<polygon fill="none" stroke="black" points="653.07,-489.193 555.07,-489.193 555.07,-453.193 653.07,-453.193 653.07,-489.193"/>
<text text-anchor="middle" x="604.07" y="-468.393" font-family="Courier,monospace" font-size="11.00">MLAUninstall</text>
</g>
<!-- \\MLATest -->
<g id="node52" class="node"><title>\\MLATest</title>
<polygon fill="none" stroke="black" points="636.07,-435.193 572.07,-435.193 572.07,-399.193 636.07,-399.193 636.07,-435.193"/>
<text text-anchor="middle" x="604.07" y="-414.393" font-family="Courier,monospace" font-size="11.00">MLATest</text>
</g>
</g>
</svg>
